<?xml version="1.0" encoding="utf-8" standalone="no"?>
<!DOCTYPE svg PUBLIC "-//W3C//DTD SVG 1.1//EN"
  "http://www.w3.org/Graphics/SVG/1.1/DTD/svg11.dtd">
<svg xmlns:xlink="http://www.w3.org/1999/xlink" width="257.803765pt" height="178.525495pt" viewBox="0 0 257.803765 178.525495" xmlns="http://www.w3.org/2000/svg" version="1.1">
 <metadata>
  <rdf:RDF xmlns:dc="http://purl.org/dc/elements/1.1/" xmlns:cc="http://creativecommons.org/ns#" xmlns:rdf="http://www.w3.org/1999/02/22-rdf-syntax-ns#">
   <cc:Work>
    <dc:type rdf:resource="http://purl.org/dc/dcmitype/StillImage"/>
    <dc:date>2025-08-12T09:47:19.243415</dc:date>
    <dc:format>image/svg+xml</dc:format>
    <dc:creator>
     <cc:Agent>
      <dc:title>Matplotlib v3.9.2, https://matplotlib.org/</dc:title>
     </cc:Agent>
    </dc:creator>
   </cc:Work>
  </rdf:RDF>
 </metadata>
 <defs>
  <style type="text/css">*{stroke-linejoin: round; stroke-linecap: butt}</style>
 </defs>
 <g id="figure_1">
  <g id="patch_1">
   <path d="M 0 178.525495 
L 257.803765 178.525495 
L 257.803765 0 
L 0 0 
L 0 178.525495 
z
" style="fill: none"/>
  </g>
  <g id="axes_1">
   <g id="patch_2">
    <path d="M 56.621875 140.343307 
L 250.603765 140.343307 
L 250.603765 7.2 
L 56.621875 7.2 
L 56.621875 140.343307 
z
" style="fill: none"/>
   </g>
   <g id="matplotlib.axis_1">
    <g id="xtick_1">
     <g id="line2d_1">
      <path d="M 65.439234 140.343307 
L 65.439234 7.2 
" clip-path="url(#p7de42830cb)" style="fill: none; stroke: #b0b0b0; stroke-width: 0.8; stroke-linecap: square"/>
     </g>
     <g id="line2d_2">
      <defs>
       <path id="m544afe6524" d="M 0 0 
L 0 3.5 
" style="stroke: #000000; stroke-width: 0.8"/>
      </defs>
      <g>
       <use xlink:href="#m544afe6524" x="65.439234" y="140.343307" style="stroke: #000000; stroke-width: 0.8"/>
      </g>
     </g>
     <g id="text_1">
      <!-- 0 -->
      <g transform="translate(62.939234 154.287057) scale(0.1 -0.1)">
       <defs>
        <path id="TimesNewRomanPSMT-30" d="M 231 2094 
Q 231 2819 450 3342 
Q 669 3866 1031 4122 
Q 1313 4325 1613 4325 
Q 2100 4325 2488 3828 
Q 2972 3213 2972 2159 
Q 2972 1422 2759 906 
Q 2547 391 2217 158 
Q 1888 -75 1581 -75 
Q 975 -75 572 641 
Q 231 1244 231 2094 
z
M 844 2016 
Q 844 1141 1059 588 
Q 1238 122 1591 122 
Q 1759 122 1940 273 
Q 2122 425 2216 781 
Q 2359 1319 2359 2297 
Q 2359 3022 2209 3506 
Q 2097 3866 1919 4016 
Q 1791 4119 1609 4119 
Q 1397 4119 1231 3928 
Q 1006 3669 925 3112 
Q 844 2556 844 2016 
z
" transform="scale(0.015625)"/>
       </defs>
       <use xlink:href="#TimesNewRomanPSMT-30"/>
      </g>
     </g>
    </g>
    <g id="xtick_2">
     <g id="line2d_3">
      <path d="M 102.487231 140.343307 
L 102.487231 7.2 
" clip-path="url(#p7de42830cb)" style="fill: none; stroke: #b0b0b0; stroke-width: 0.8; stroke-linecap: square"/>
     </g>
     <g id="line2d_4">
      <g>
       <use xlink:href="#m544afe6524" x="102.487231" y="140.343307" style="stroke: #000000; stroke-width: 0.8"/>
      </g>
     </g>
     <g id="text_2">
      <!-- 200 -->
      <g transform="translate(94.987231 154.287057) scale(0.1 -0.1)">
       <defs>
        <path id="TimesNewRomanPSMT-32" d="M 2934 816 
L 2638 0 
L 138 0 
L 138 116 
Q 1241 1122 1691 1759 
Q 2141 2397 2141 2925 
Q 2141 3328 1894 3587 
Q 1647 3847 1303 3847 
Q 991 3847 742 3664 
Q 494 3481 375 3128 
L 259 3128 
Q 338 3706 661 4015 
Q 984 4325 1469 4325 
Q 1984 4325 2329 3994 
Q 2675 3663 2675 3213 
Q 2675 2891 2525 2569 
Q 2294 2063 1775 1497 
Q 997 647 803 472 
L 1909 472 
Q 2247 472 2383 497 
Q 2519 522 2628 598 
Q 2738 675 2819 816 
L 2934 816 
z
" transform="scale(0.015625)"/>
       </defs>
       <use xlink:href="#TimesNewRomanPSMT-32"/>
       <use xlink:href="#TimesNewRomanPSMT-30" x="50"/>
       <use xlink:href="#TimesNewRomanPSMT-30" x="100"/>
      </g>
     </g>
    </g>
    <g id="xtick_3">
     <g id="line2d_5">
      <path d="M 139.535229 140.343307 
L 139.535229 7.2 
" clip-path="url(#p7de42830cb)" style="fill: none; stroke: #b0b0b0; stroke-width: 0.8; stroke-linecap: square"/>
     </g>
     <g id="line2d_6">
      <g>
       <use xlink:href="#m544afe6524" x="139.535229" y="140.343307" style="stroke: #000000; stroke-width: 0.8"/>
      </g>
     </g>
     <g id="text_3">
      <!-- 400 -->
      <g transform="translate(132.035229 154.287057) scale(0.1 -0.1)">
       <defs>
        <path id="TimesNewRomanPSMT-34" d="M 2978 1563 
L 2978 1119 
L 2409 1119 
L 2409 0 
L 1894 0 
L 1894 1119 
L 100 1119 
L 100 1519 
L 2066 4325 
L 2409 4325 
L 2409 1563 
L 2978 1563 
z
M 1894 1563 
L 1894 3666 
L 406 1563 
L 1894 1563 
z
" transform="scale(0.015625)"/>
       </defs>
       <use xlink:href="#TimesNewRomanPSMT-34"/>
       <use xlink:href="#TimesNewRomanPSMT-30" x="50"/>
       <use xlink:href="#TimesNewRomanPSMT-30" x="100"/>
      </g>
     </g>
    </g>
    <g id="xtick_4">
     <g id="line2d_7">
      <path d="M 176.583227 140.343307 
L 176.583227 7.2 
" clip-path="url(#p7de42830cb)" style="fill: none; stroke: #b0b0b0; stroke-width: 0.8; stroke-linecap: square"/>
     </g>
     <g id="line2d_8">
      <g>
       <use xlink:href="#m544afe6524" x="176.583227" y="140.343307" style="stroke: #000000; stroke-width: 0.8"/>
      </g>
     </g>
     <g id="text_4">
      <!-- 600 -->
      <g transform="translate(169.083227 154.287057) scale(0.1 -0.1)">
       <defs>
        <path id="TimesNewRomanPSMT-36" d="M 2869 4325 
L 2869 4209 
Q 2456 4169 2195 4045 
Q 1934 3922 1679 3669 
Q 1425 3416 1258 3105 
Q 1091 2794 978 2366 
Q 1428 2675 1881 2675 
Q 2316 2675 2634 2325 
Q 2953 1975 2953 1425 
Q 2953 894 2631 456 
Q 2244 -75 1606 -75 
Q 1172 -75 869 213 
Q 275 772 275 1663 
Q 275 2231 503 2743 
Q 731 3256 1154 3653 
Q 1578 4050 1965 4187 
Q 2353 4325 2688 4325 
L 2869 4325 
z
M 925 2138 
Q 869 1716 869 1456 
Q 869 1156 980 804 
Q 1091 453 1309 247 
Q 1469 100 1697 100 
Q 1969 100 2183 356 
Q 2397 613 2397 1088 
Q 2397 1622 2184 2012 
Q 1972 2403 1581 2403 
Q 1463 2403 1327 2353 
Q 1191 2303 925 2138 
z
" transform="scale(0.015625)"/>
       </defs>
       <use xlink:href="#TimesNewRomanPSMT-36"/>
       <use xlink:href="#TimesNewRomanPSMT-30" x="50"/>
       <use xlink:href="#TimesNewRomanPSMT-30" x="100"/>
      </g>
     </g>
    </g>
    <g id="xtick_5">
     <g id="line2d_9">
      <path d="M 213.631225 140.343307 
L 213.631225 7.2 
" clip-path="url(#p7de42830cb)" style="fill: none; stroke: #b0b0b0; stroke-width: 0.8; stroke-linecap: square"/>
     </g>
     <g id="line2d_10">
      <g>
       <use xlink:href="#m544afe6524" x="213.631225" y="140.343307" style="stroke: #000000; stroke-width: 0.8"/>
      </g>
     </g>
     <g id="text_5">
      <!-- 800 -->
      <g transform="translate(206.131225 154.287057) scale(0.1 -0.1)">
       <defs>
        <path id="TimesNewRomanPSMT-38" d="M 1228 2134 
Q 725 2547 579 2797 
Q 434 3047 434 3316 
Q 434 3728 753 4026 
Q 1072 4325 1600 4325 
Q 2113 4325 2425 4047 
Q 2738 3769 2738 3413 
Q 2738 3175 2569 2928 
Q 2400 2681 1866 2347 
Q 2416 1922 2594 1678 
Q 2831 1359 2831 1006 
Q 2831 559 2490 242 
Q 2150 -75 1597 -75 
Q 994 -75 656 303 
Q 388 606 388 966 
Q 388 1247 577 1523 
Q 766 1800 1228 2134 
z
M 1719 2469 
Q 2094 2806 2194 3001 
Q 2294 3197 2294 3444 
Q 2294 3772 2109 3958 
Q 1925 4144 1606 4144 
Q 1288 4144 1088 3959 
Q 888 3775 888 3528 
Q 888 3366 970 3203 
Q 1053 3041 1206 2894 
L 1719 2469 
z
M 1375 2016 
Q 1116 1797 991 1539 
Q 866 1281 866 981 
Q 866 578 1086 336 
Q 1306 94 1647 94 
Q 1984 94 2187 284 
Q 2391 475 2391 747 
Q 2391 972 2272 1150 
Q 2050 1481 1375 2016 
z
" transform="scale(0.015625)"/>
       </defs>
       <use xlink:href="#TimesNewRomanPSMT-38"/>
       <use xlink:href="#TimesNewRomanPSMT-30" x="50"/>
       <use xlink:href="#TimesNewRomanPSMT-30" x="100"/>
      </g>
     </g>
    </g>
    <g id="text_6">
     <!-- Time (s) -->
     <g transform="translate(133.330007 168.75862) scale(0.12 -0.12)">
      <defs>
       <path id="TimesNewRomanPSMT-54" d="M 3703 4238 
L 3750 3244 
L 3631 3244 
Q 3597 3506 3538 3619 
Q 3441 3800 3280 3886 
Q 3119 3972 2856 3972 
L 2259 3972 
L 2259 734 
Q 2259 344 2344 247 
Q 2463 116 2709 116 
L 2856 116 
L 2856 0 
L 1059 0 
L 1059 116 
L 1209 116 
Q 1478 116 1591 278 
Q 1659 378 1659 734 
L 1659 3972 
L 1150 3972 
Q 853 3972 728 3928 
Q 566 3869 450 3700 
Q 334 3531 313 3244 
L 194 3244 
L 244 4238 
L 3703 4238 
z
" transform="scale(0.015625)"/>
       <path id="TimesNewRomanPSMT-69" d="M 928 4444 
Q 1059 4444 1151 4351 
Q 1244 4259 1244 4128 
Q 1244 3997 1151 3903 
Q 1059 3809 928 3809 
Q 797 3809 703 3903 
Q 609 3997 609 4128 
Q 609 4259 701 4351 
Q 794 4444 928 4444 
z
M 1188 2947 
L 1188 647 
Q 1188 378 1227 289 
Q 1266 200 1342 156 
Q 1419 113 1622 113 
L 1622 0 
L 231 0 
L 231 113 
Q 441 113 512 153 
Q 584 194 626 287 
Q 669 381 669 647 
L 669 1750 
Q 669 2216 641 2353 
Q 619 2453 572 2492 
Q 525 2531 444 2531 
Q 356 2531 231 2484 
L 188 2597 
L 1050 2947 
L 1188 2947 
z
" transform="scale(0.015625)"/>
       <path id="TimesNewRomanPSMT-6d" d="M 1050 2338 
Q 1363 2650 1419 2697 
Q 1559 2816 1721 2881 
Q 1884 2947 2044 2947 
Q 2313 2947 2506 2790 
Q 2700 2634 2766 2338 
Q 3088 2713 3309 2830 
Q 3531 2947 3766 2947 
Q 3994 2947 4170 2830 
Q 4347 2713 4450 2447 
Q 4519 2266 4519 1878 
L 4519 647 
Q 4519 378 4559 278 
Q 4591 209 4675 161 
Q 4759 113 4950 113 
L 4950 0 
L 3538 0 
L 3538 113 
L 3597 113 
Q 3781 113 3884 184 
Q 3956 234 3988 344 
Q 4000 397 4000 647 
L 4000 1878 
Q 4000 2228 3916 2372 
Q 3794 2572 3525 2572 
Q 3359 2572 3192 2489 
Q 3025 2406 2788 2181 
L 2781 2147 
L 2788 2013 
L 2788 647 
Q 2788 353 2820 281 
Q 2853 209 2943 161 
Q 3034 113 3253 113 
L 3253 0 
L 1806 0 
L 1806 113 
Q 2044 113 2133 169 
Q 2222 225 2256 338 
Q 2272 391 2272 647 
L 2272 1878 
Q 2272 2228 2169 2381 
Q 2031 2581 1784 2581 
Q 1616 2581 1450 2491 
Q 1191 2353 1050 2181 
L 1050 647 
Q 1050 366 1089 281 
Q 1128 197 1204 155 
Q 1281 113 1516 113 
L 1516 0 
L 100 0 
L 100 113 
Q 297 113 375 155 
Q 453 197 493 289 
Q 534 381 534 647 
L 534 1741 
Q 534 2213 506 2350 
Q 484 2453 437 2492 
Q 391 2531 309 2531 
Q 222 2531 100 2484 
L 53 2597 
L 916 2947 
L 1050 2947 
L 1050 2338 
z
" transform="scale(0.015625)"/>
       <path id="TimesNewRomanPSMT-65" d="M 681 1784 
Q 678 1147 991 784 
Q 1303 422 1725 422 
Q 2006 422 2214 576 
Q 2422 731 2563 1106 
L 2659 1044 
Q 2594 616 2278 264 
Q 1963 -88 1488 -88 
Q 972 -88 605 314 
Q 238 716 238 1394 
Q 238 2128 614 2539 
Q 991 2950 1559 2950 
Q 2041 2950 2350 2633 
Q 2659 2316 2659 1784 
L 681 1784 
z
M 681 1966 
L 2006 1966 
Q 1991 2241 1941 2353 
Q 1863 2528 1708 2628 
Q 1553 2728 1384 2728 
Q 1125 2728 920 2526 
Q 716 2325 681 1966 
z
" transform="scale(0.015625)"/>
       <path id="TimesNewRomanPSMT-20" transform="scale(0.015625)"/>
       <path id="TimesNewRomanPSMT-28" d="M 1988 -1253 
L 1988 -1369 
Q 1516 -1131 1200 -813 
Q 750 -359 506 256 
Q 263 872 263 1534 
Q 263 2503 741 3301 
Q 1219 4100 1988 4444 
L 1988 4313 
Q 1603 4100 1356 3731 
Q 1109 3363 987 2797 
Q 866 2231 866 1616 
Q 866 947 969 400 
Q 1050 -31 1165 -292 
Q 1281 -553 1476 -793 
Q 1672 -1034 1988 -1253 
z
" transform="scale(0.015625)"/>
       <path id="TimesNewRomanPSMT-73" d="M 2050 2947 
L 2050 1972 
L 1947 1972 
Q 1828 2431 1642 2597 
Q 1456 2763 1169 2763 
Q 950 2763 815 2647 
Q 681 2531 681 2391 
Q 681 2216 781 2091 
Q 878 1963 1175 1819 
L 1631 1597 
Q 2266 1288 2266 781 
Q 2266 391 1970 151 
Q 1675 -88 1309 -88 
Q 1047 -88 709 6 
Q 606 38 541 38 
Q 469 38 428 -44 
L 325 -44 
L 325 978 
L 428 978 
Q 516 541 762 319 
Q 1009 97 1316 97 
Q 1531 97 1667 223 
Q 1803 350 1803 528 
Q 1803 744 1651 891 
Q 1500 1038 1047 1263 
Q 594 1488 453 1669 
Q 313 1847 313 2119 
Q 313 2472 555 2709 
Q 797 2947 1181 2947 
Q 1350 2947 1591 2875 
Q 1750 2828 1803 2828 
Q 1853 2828 1881 2850 
Q 1909 2872 1947 2947 
L 2050 2947 
z
" transform="scale(0.015625)"/>
       <path id="TimesNewRomanPSMT-29" d="M 144 4313 
L 144 4444 
Q 619 4209 934 3891 
Q 1381 3434 1625 2820 
Q 1869 2206 1869 1541 
Q 1869 572 1392 -226 
Q 916 -1025 144 -1369 
L 144 -1253 
Q 528 -1038 776 -670 
Q 1025 -303 1145 264 
Q 1266 831 1266 1447 
Q 1266 2113 1163 2663 
Q 1084 3094 967 3353 
Q 850 3613 656 3853 
Q 463 4094 144 4313 
z
" transform="scale(0.015625)"/>
      </defs>
      <use xlink:href="#TimesNewRomanPSMT-54"/>
      <use xlink:href="#TimesNewRomanPSMT-69" x="57.583984"/>
      <use xlink:href="#TimesNewRomanPSMT-6d" x="85.367188"/>
      <use xlink:href="#TimesNewRomanPSMT-65" x="163.150391"/>
      <use xlink:href="#TimesNewRomanPSMT-20" x="207.535156"/>
      <use xlink:href="#TimesNewRomanPSMT-28" x="232.535156"/>
      <use xlink:href="#TimesNewRomanPSMT-73" x="265.835938"/>
      <use xlink:href="#TimesNewRomanPSMT-29" x="304.751953"/>
     </g>
    </g>
   </g>
   <g id="matplotlib.axis_2">
    <g id="ytick_1">
     <g id="line2d_11">
      <path d="M 56.621875 134.291339 
L 250.603765 134.291339 
" clip-path="url(#p7de42830cb)" style="fill: none; stroke: #b0b0b0; stroke-width: 0.8; stroke-linecap: square"/>
     </g>
     <g id="line2d_12">
      <defs>
       <path id="m8d3192f06e" d="M 0 0 
L -3.5 0 
" style="stroke: #000000; stroke-width: 0.8"/>
      </defs>
      <g>
       <use xlink:href="#m8d3192f06e" x="56.621875" y="134.291339" style="stroke: #000000; stroke-width: 0.8"/>
      </g>
     </g>
     <g id="text_7">
      <!-- 0.0000 -->
      <g transform="translate(22.121875 137.763214) scale(0.1 -0.1)">
       <defs>
        <path id="TimesNewRomanPSMT-2e" d="M 800 606 
Q 947 606 1047 504 
Q 1147 403 1147 259 
Q 1147 116 1045 14 
Q 944 -88 800 -88 
Q 656 -88 554 14 
Q 453 116 453 259 
Q 453 406 554 506 
Q 656 606 800 606 
z
" transform="scale(0.015625)"/>
       </defs>
       <use xlink:href="#TimesNewRomanPSMT-30"/>
       <use xlink:href="#TimesNewRomanPSMT-2e" x="50"/>
       <use xlink:href="#TimesNewRomanPSMT-30" x="75"/>
       <use xlink:href="#TimesNewRomanPSMT-30" x="125"/>
       <use xlink:href="#TimesNewRomanPSMT-30" x="175"/>
       <use xlink:href="#TimesNewRomanPSMT-30" x="225"/>
      </g>
     </g>
    </g>
    <g id="ytick_2">
     <g id="line2d_13">
      <path d="M 56.621875 90.388774 
L 250.603765 90.388774 
" clip-path="url(#p7de42830cb)" style="fill: none; stroke: #b0b0b0; stroke-width: 0.8; stroke-linecap: square"/>
     </g>
     <g id="line2d_14">
      <g>
       <use xlink:href="#m8d3192f06e" x="56.621875" y="90.388774" style="stroke: #000000; stroke-width: 0.8"/>
      </g>
     </g>
     <g id="text_8">
      <!-- 0.0002 -->
      <g transform="translate(22.121875 93.860649) scale(0.1 -0.1)">
       <use xlink:href="#TimesNewRomanPSMT-30"/>
       <use xlink:href="#TimesNewRomanPSMT-2e" x="50"/>
       <use xlink:href="#TimesNewRomanPSMT-30" x="75"/>
       <use xlink:href="#TimesNewRomanPSMT-30" x="125"/>
       <use xlink:href="#TimesNewRomanPSMT-30" x="175"/>
       <use xlink:href="#TimesNewRomanPSMT-32" x="225"/>
      </g>
     </g>
    </g>
    <g id="ytick_3">
     <g id="line2d_15">
      <path d="M 56.621875 46.48621 
L 250.603765 46.48621 
" clip-path="url(#p7de42830cb)" style="fill: none; stroke: #b0b0b0; stroke-width: 0.8; stroke-linecap: square"/>
     </g>
     <g id="line2d_16">
      <g>
       <use xlink:href="#m8d3192f06e" x="56.621875" y="46.48621" style="stroke: #000000; stroke-width: 0.8"/>
      </g>
     </g>
     <g id="text_9">
      <!-- 0.0004 -->
      <g transform="translate(22.121875 49.958085) scale(0.1 -0.1)">
       <use xlink:href="#TimesNewRomanPSMT-30"/>
       <use xlink:href="#TimesNewRomanPSMT-2e" x="50"/>
       <use xlink:href="#TimesNewRomanPSMT-30" x="75"/>
       <use xlink:href="#TimesNewRomanPSMT-30" x="125"/>
       <use xlink:href="#TimesNewRomanPSMT-30" x="175"/>
       <use xlink:href="#TimesNewRomanPSMT-34" x="225"/>
      </g>
     </g>
    </g>
    <g id="text_10">
     <!-- Change in Refractive Index -->
     <g transform="translate(15.5325 139.914154) rotate(-90) scale(0.12 -0.12)">
      <defs>
       <path id="TimesNewRomanPSMT-43" d="M 3853 4334 
L 3950 2894 
L 3853 2894 
Q 3659 3541 3300 3825 
Q 2941 4109 2438 4109 
Q 2016 4109 1675 3895 
Q 1334 3681 1139 3212 
Q 944 2744 944 2047 
Q 944 1472 1128 1050 
Q 1313 628 1683 403 
Q 2053 178 2528 178 
Q 2941 178 3256 354 
Q 3572 531 3950 1056 
L 4047 994 
Q 3728 428 3303 165 
Q 2878 -97 2294 -97 
Q 1241 -97 663 684 
Q 231 1266 231 2053 
Q 231 2688 515 3219 
Q 800 3750 1298 4042 
Q 1797 4334 2388 4334 
Q 2847 4334 3294 4109 
Q 3425 4041 3481 4041 
Q 3566 4041 3628 4100 
Q 3709 4184 3744 4334 
L 3853 4334 
z
" transform="scale(0.015625)"/>
       <path id="TimesNewRomanPSMT-68" d="M 1041 4444 
L 1041 2350 
Q 1388 2731 1591 2839 
Q 1794 2947 1997 2947 
Q 2241 2947 2416 2812 
Q 2591 2678 2675 2391 
Q 2734 2191 2734 1659 
L 2734 647 
Q 2734 375 2778 275 
Q 2809 200 2884 156 
Q 2959 113 3159 113 
L 3159 0 
L 1753 0 
L 1753 113 
L 1819 113 
Q 2019 113 2097 173 
Q 2175 234 2206 353 
Q 2216 403 2216 647 
L 2216 1659 
Q 2216 2128 2167 2275 
Q 2119 2422 2012 2495 
Q 1906 2569 1756 2569 
Q 1603 2569 1437 2487 
Q 1272 2406 1041 2159 
L 1041 647 
Q 1041 353 1073 281 
Q 1106 209 1195 161 
Q 1284 113 1503 113 
L 1503 0 
L 84 0 
L 84 113 
Q 275 113 384 172 
Q 447 203 484 290 
Q 522 378 522 647 
L 522 3238 
Q 522 3728 498 3840 
Q 475 3953 426 3993 
Q 378 4034 297 4034 
Q 231 4034 84 3984 
L 41 4094 
L 897 4444 
L 1041 4444 
z
" transform="scale(0.015625)"/>
       <path id="TimesNewRomanPSMT-61" d="M 1822 413 
Q 1381 72 1269 19 
Q 1100 -59 909 -59 
Q 613 -59 420 144 
Q 228 347 228 678 
Q 228 888 322 1041 
Q 450 1253 767 1440 
Q 1084 1628 1822 1897 
L 1822 2009 
Q 1822 2438 1686 2597 
Q 1550 2756 1291 2756 
Q 1094 2756 978 2650 
Q 859 2544 859 2406 
L 866 2225 
Q 866 2081 792 2003 
Q 719 1925 600 1925 
Q 484 1925 411 2006 
Q 338 2088 338 2228 
Q 338 2497 613 2722 
Q 888 2947 1384 2947 
Q 1766 2947 2009 2819 
Q 2194 2722 2281 2516 
Q 2338 2381 2338 1966 
L 2338 994 
Q 2338 584 2353 492 
Q 2369 400 2405 369 
Q 2441 338 2488 338 
Q 2538 338 2575 359 
Q 2641 400 2828 588 
L 2828 413 
Q 2478 -56 2159 -56 
Q 2006 -56 1915 50 
Q 1825 156 1822 413 
z
M 1822 616 
L 1822 1706 
Q 1350 1519 1213 1441 
Q 966 1303 859 1153 
Q 753 1003 753 825 
Q 753 600 887 451 
Q 1022 303 1197 303 
Q 1434 303 1822 616 
z
" transform="scale(0.015625)"/>
       <path id="TimesNewRomanPSMT-6e" d="M 1034 2341 
Q 1538 2947 1994 2947 
Q 2228 2947 2397 2830 
Q 2566 2713 2666 2444 
Q 2734 2256 2734 1869 
L 2734 647 
Q 2734 375 2778 278 
Q 2813 200 2889 156 
Q 2966 113 3172 113 
L 3172 0 
L 1756 0 
L 1756 113 
L 1816 113 
Q 2016 113 2095 173 
Q 2175 234 2206 353 
Q 2219 400 2219 647 
L 2219 1819 
Q 2219 2209 2117 2386 
Q 2016 2563 1775 2563 
Q 1403 2563 1034 2156 
L 1034 647 
Q 1034 356 1069 288 
Q 1113 197 1189 155 
Q 1266 113 1500 113 
L 1500 0 
L 84 0 
L 84 113 
L 147 113 
Q 366 113 442 223 
Q 519 334 519 647 
L 519 1709 
Q 519 2225 495 2337 
Q 472 2450 423 2490 
Q 375 2531 294 2531 
Q 206 2531 84 2484 
L 38 2597 
L 900 2947 
L 1034 2947 
L 1034 2341 
z
" transform="scale(0.015625)"/>
       <path id="TimesNewRomanPSMT-67" d="M 966 1044 
Q 703 1172 562 1401 
Q 422 1631 422 1909 
Q 422 2334 742 2640 
Q 1063 2947 1563 2947 
Q 1972 2947 2272 2747 
L 2878 2747 
Q 3013 2747 3034 2739 
Q 3056 2731 3066 2713 
Q 3084 2684 3084 2613 
Q 3084 2531 3069 2500 
Q 3059 2484 3036 2475 
Q 3013 2466 2878 2466 
L 2506 2466 
Q 2681 2241 2681 1891 
Q 2681 1491 2375 1206 
Q 2069 922 1553 922 
Q 1341 922 1119 984 
Q 981 866 932 777 
Q 884 688 884 625 
Q 884 572 936 522 
Q 988 472 1138 450 
Q 1225 438 1575 428 
Q 2219 413 2409 384 
Q 2700 344 2873 169 
Q 3047 -6 3047 -263 
Q 3047 -616 2716 -925 
Q 2228 -1381 1444 -1381 
Q 841 -1381 425 -1109 
Q 191 -953 191 -784 
Q 191 -709 225 -634 
Q 278 -519 444 -313 
Q 466 -284 763 25 
Q 600 122 533 198 
Q 466 275 466 372 
Q 466 481 555 628 
Q 644 775 966 1044 
z
M 1509 2797 
Q 1278 2797 1122 2612 
Q 966 2428 966 2047 
Q 966 1553 1178 1281 
Q 1341 1075 1591 1075 
Q 1828 1075 1981 1253 
Q 2134 1431 2134 1813 
Q 2134 2309 1919 2591 
Q 1759 2797 1509 2797 
z
M 934 0 
Q 788 -159 713 -296 
Q 638 -434 638 -550 
Q 638 -700 819 -813 
Q 1131 -1006 1722 -1006 
Q 2284 -1006 2551 -807 
Q 2819 -609 2819 -384 
Q 2819 -222 2659 -153 
Q 2497 -84 2016 -72 
Q 1313 -53 934 0 
z
" transform="scale(0.015625)"/>
       <path id="TimesNewRomanPSMT-52" d="M 4325 0 
L 3194 0 
L 1759 1981 
Q 1600 1975 1500 1975 
Q 1459 1975 1412 1976 
Q 1366 1978 1316 1981 
L 1316 750 
Q 1316 350 1403 253 
Q 1522 116 1759 116 
L 1925 116 
L 1925 0 
L 109 0 
L 109 116 
L 269 116 
Q 538 116 653 291 
Q 719 388 719 750 
L 719 3488 
Q 719 3888 631 3984 
Q 509 4122 269 4122 
L 109 4122 
L 109 4238 
L 1653 4238 
Q 2328 4238 2648 4139 
Q 2969 4041 3192 3777 
Q 3416 3513 3416 3147 
Q 3416 2756 3161 2468 
Q 2906 2181 2372 2063 
L 3247 847 
Q 3547 428 3762 290 
Q 3978 153 4325 116 
L 4325 0 
z
M 1316 2178 
Q 1375 2178 1419 2176 
Q 1463 2175 1491 2175 
Q 2097 2175 2405 2437 
Q 2713 2700 2713 3106 
Q 2713 3503 2464 3751 
Q 2216 4000 1806 4000 
Q 1625 4000 1316 3941 
L 1316 2178 
z
" transform="scale(0.015625)"/>
       <path id="TimesNewRomanPSMT-66" d="M 1319 2638 
L 1319 756 
Q 1319 356 1406 250 
Q 1522 113 1716 113 
L 1975 113 
L 1975 0 
L 266 0 
L 266 113 
L 394 113 
Q 519 113 622 175 
Q 725 238 764 344 
Q 803 450 803 756 
L 803 2638 
L 247 2638 
L 247 2863 
L 803 2863 
L 803 3050 
Q 803 3478 940 3775 
Q 1078 4072 1361 4255 
Q 1644 4438 1997 4438 
Q 2325 4438 2600 4225 
Q 2781 4084 2781 3909 
Q 2781 3816 2700 3733 
Q 2619 3650 2525 3650 
Q 2453 3650 2373 3701 
Q 2294 3753 2178 3923 
Q 2063 4094 1966 4153 
Q 1869 4213 1750 4213 
Q 1606 4213 1506 4136 
Q 1406 4059 1362 3898 
Q 1319 3738 1319 3069 
L 1319 2863 
L 2056 2863 
L 2056 2638 
L 1319 2638 
z
" transform="scale(0.015625)"/>
       <path id="TimesNewRomanPSMT-72" d="M 1038 2947 
L 1038 2303 
Q 1397 2947 1775 2947 
Q 1947 2947 2059 2842 
Q 2172 2738 2172 2600 
Q 2172 2478 2090 2393 
Q 2009 2309 1897 2309 
Q 1788 2309 1652 2417 
Q 1516 2525 1450 2525 
Q 1394 2525 1328 2463 
Q 1188 2334 1038 2041 
L 1038 669 
Q 1038 431 1097 309 
Q 1138 225 1241 169 
Q 1344 113 1538 113 
L 1538 0 
L 72 0 
L 72 113 
Q 291 113 397 181 
Q 475 231 506 341 
Q 522 394 522 644 
L 522 1753 
Q 522 2253 501 2348 
Q 481 2444 426 2487 
Q 372 2531 291 2531 
Q 194 2531 72 2484 
L 41 2597 
L 906 2947 
L 1038 2947 
z
" transform="scale(0.015625)"/>
       <path id="TimesNewRomanPSMT-63" d="M 2631 1088 
Q 2516 522 2178 217 
Q 1841 -88 1431 -88 
Q 944 -88 581 321 
Q 219 731 219 1428 
Q 219 2103 620 2525 
Q 1022 2947 1584 2947 
Q 2006 2947 2278 2723 
Q 2550 2500 2550 2259 
Q 2550 2141 2473 2067 
Q 2397 1994 2259 1994 
Q 2075 1994 1981 2113 
Q 1928 2178 1911 2362 
Q 1894 2547 1784 2644 
Q 1675 2738 1481 2738 
Q 1169 2738 978 2506 
Q 725 2200 725 1697 
Q 725 1184 976 792 
Q 1228 400 1656 400 
Q 1963 400 2206 609 
Q 2378 753 2541 1131 
L 2631 1088 
z
" transform="scale(0.015625)"/>
       <path id="TimesNewRomanPSMT-74" d="M 1031 3803 
L 1031 2863 
L 1700 2863 
L 1700 2644 
L 1031 2644 
L 1031 788 
Q 1031 509 1111 412 
Q 1191 316 1316 316 
Q 1419 316 1516 380 
Q 1613 444 1666 569 
L 1788 569 
Q 1678 263 1478 108 
Q 1278 -47 1066 -47 
Q 922 -47 784 33 
Q 647 113 581 261 
Q 516 409 516 719 
L 516 2644 
L 63 2644 
L 63 2747 
Q 234 2816 414 2980 
Q 594 3144 734 3369 
Q 806 3488 934 3803 
L 1031 3803 
z
" transform="scale(0.015625)"/>
       <path id="TimesNewRomanPSMT-76" d="M 53 2863 
L 1400 2863 
L 1400 2747 
L 1313 2747 
Q 1191 2747 1127 2687 
Q 1063 2628 1063 2528 
Q 1063 2419 1128 2269 
L 1794 688 
L 2463 2328 
Q 2534 2503 2534 2594 
Q 2534 2638 2509 2666 
Q 2475 2713 2422 2730 
Q 2369 2747 2206 2747 
L 2206 2863 
L 3141 2863 
L 3141 2747 
Q 2978 2734 2916 2681 
Q 2806 2588 2719 2369 
L 1703 -88 
L 1575 -88 
L 553 2328 
Q 484 2497 421 2570 
Q 359 2644 263 2694 
Q 209 2722 53 2747 
L 53 2863 
z
" transform="scale(0.015625)"/>
       <path id="TimesNewRomanPSMT-49" d="M 1975 116 
L 1975 0 
L 159 0 
L 159 116 
L 309 116 
Q 572 116 691 269 
Q 766 369 766 750 
L 766 3488 
Q 766 3809 725 3913 
Q 694 3991 597 4047 
Q 459 4122 309 4122 
L 159 4122 
L 159 4238 
L 1975 4238 
L 1975 4122 
L 1822 4122 
Q 1563 4122 1444 3969 
Q 1366 3869 1366 3488 
L 1366 750 
Q 1366 428 1406 325 
Q 1438 247 1538 191 
Q 1672 116 1822 116 
L 1975 116 
z
" transform="scale(0.015625)"/>
       <path id="TimesNewRomanPSMT-64" d="M 2222 322 
Q 2013 103 1813 7 
Q 1613 -88 1381 -88 
Q 913 -88 563 304 
Q 213 697 213 1313 
Q 213 1928 600 2439 
Q 988 2950 1597 2950 
Q 1975 2950 2222 2709 
L 2222 3238 
Q 2222 3728 2198 3840 
Q 2175 3953 2125 3993 
Q 2075 4034 2000 4034 
Q 1919 4034 1784 3984 
L 1744 4094 
L 2597 4444 
L 2738 4444 
L 2738 1134 
Q 2738 631 2761 520 
Q 2784 409 2836 365 
Q 2888 322 2956 322 
Q 3041 322 3181 375 
L 3216 266 
L 2366 -88 
L 2222 -88 
L 2222 322 
z
M 2222 541 
L 2222 2016 
Q 2203 2228 2109 2403 
Q 2016 2578 1861 2667 
Q 1706 2756 1559 2756 
Q 1284 2756 1069 2509 
Q 784 2184 784 1559 
Q 784 928 1059 592 
Q 1334 256 1672 256 
Q 1956 256 2222 541 
z
" transform="scale(0.015625)"/>
       <path id="TimesNewRomanPSMT-78" d="M 84 2863 
L 1431 2863 
L 1431 2747 
Q 1303 2747 1251 2703 
Q 1200 2659 1200 2588 
Q 1200 2513 1309 2356 
Q 1344 2306 1413 2200 
L 1616 1875 
L 1850 2200 
Q 2075 2509 2075 2591 
Q 2075 2656 2022 2701 
Q 1969 2747 1850 2747 
L 1850 2863 
L 2819 2863 
L 2819 2747 
Q 2666 2738 2553 2663 
Q 2400 2556 2134 2200 
L 1744 1678 
L 2456 653 
Q 2719 275 2831 198 
Q 2944 122 3122 113 
L 3122 0 
L 1772 0 
L 1772 113 
Q 1913 113 1991 175 
Q 2050 219 2050 291 
Q 2050 363 1850 653 
L 1431 1266 
L 972 653 
Q 759 369 759 316 
Q 759 241 829 180 
Q 900 119 1041 113 
L 1041 0 
L 106 0 
L 106 113 
Q 219 128 303 191 
Q 422 281 703 653 
L 1303 1450 
L 759 2238 
Q 528 2575 401 2661 
Q 275 2747 84 2747 
L 84 2863 
z
" transform="scale(0.015625)"/>
      </defs>
      <use xlink:href="#TimesNewRomanPSMT-43"/>
      <use xlink:href="#TimesNewRomanPSMT-68" x="66.699219"/>
      <use xlink:href="#TimesNewRomanPSMT-61" x="116.699219"/>
      <use xlink:href="#TimesNewRomanPSMT-6e" x="161.083984"/>
      <use xlink:href="#TimesNewRomanPSMT-67" x="211.083984"/>
      <use xlink:href="#TimesNewRomanPSMT-65" x="261.083984"/>
      <use xlink:href="#TimesNewRomanPSMT-20" x="305.46875"/>
      <use xlink:href="#TimesNewRomanPSMT-69" x="330.46875"/>
      <use xlink:href="#TimesNewRomanPSMT-6e" x="358.251953"/>
      <use xlink:href="#TimesNewRomanPSMT-20" x="408.251953"/>
      <use xlink:href="#TimesNewRomanPSMT-52" x="433.251953"/>
      <use xlink:href="#TimesNewRomanPSMT-65" x="499.951172"/>
      <use xlink:href="#TimesNewRomanPSMT-66" x="544.335938"/>
      <use xlink:href="#TimesNewRomanPSMT-72" x="577.636719"/>
      <use xlink:href="#TimesNewRomanPSMT-61" x="610.9375"/>
      <use xlink:href="#TimesNewRomanPSMT-63" x="655.322266"/>
      <use xlink:href="#TimesNewRomanPSMT-74" x="699.707031"/>
      <use xlink:href="#TimesNewRomanPSMT-69" x="727.490234"/>
      <use xlink:href="#TimesNewRomanPSMT-76" x="755.273438"/>
      <use xlink:href="#TimesNewRomanPSMT-65" x="805.273438"/>
      <use xlink:href="#TimesNewRomanPSMT-20" x="849.658203"/>
      <use xlink:href="#TimesNewRomanPSMT-49" x="874.658203"/>
      <use xlink:href="#TimesNewRomanPSMT-6e" x="907.958984"/>
      <use xlink:href="#TimesNewRomanPSMT-64" x="957.958984"/>
      <use xlink:href="#TimesNewRomanPSMT-65" x="1007.958984"/>
      <use xlink:href="#TimesNewRomanPSMT-78" x="1052.34375"/>
     </g>
    </g>
   </g>
   <g id="line2d_17">
    <path d="M 65.439234 134.291339 
L 65.810269 129.044982 
L 66.923006 108.103459 
L 67.294042 104.459546 
L 68.035928 92.869269 
L 68.777814 87.776572 
L 69.148664 86.261933 
L 69.5197 85.537541 
L 69.879436 86.964374 
L 70.250287 82.398507 
L 70.621322 80.532648 
L 70.992173 76.80093 
L 71.363208 75.571659 
L 71.734059 74.847266 
L 72.105095 75.791172 
L 72.846981 69.205787 
L 73.218016 73.661897 
L 73.588867 69.315543 
L 73.959903 68.700907 
L 74.342053 65.737484 
L 74.712903 66.198461 
L 75.083939 67.361879 
L 75.454975 63.191136 
L 76.196861 65.32041 
L 76.567711 62.24723 
L 76.938747 64.63992 
L 77.309597 60.491128 
L 77.680633 62.356987 
L 78.051483 60.666738 
L 78.41122 61.7204 
L 78.770956 59.415515 
L 79.141991 59.196002 
L 79.512842 55.266723 
L 79.883877 54.520379 
L 80.254728 56.737459 
L 80.625764 57.308192 
L 80.996614 55.266723 
L 81.36765 57.527705 
L 81.7385 51.886225 
L 82.109536 49.998415 
L 82.480386 51.644761 
L 82.851422 51.952079 
L 83.222273 49.383779 
L 83.593308 51.97403 
L 83.964159 51.535005 
L 84.335194 53.752084 
L 84.70623 51.930128 
L 85.077081 47.781335 
L 85.448116 49.164266 
L 85.818967 49.954512 
L 86.190002 50.042317 
L 86.560853 48.264264 
L 86.931889 50.547197 
L 87.302739 51.271589 
L 87.662475 48.615484 
L 88.033511 48.681338 
L 88.404361 49.647194 
L 88.775397 49.295974 
L 89.146247 47.276456 
L 89.517283 50.788661 
L 89.888134 45.344743 
L 90.259169 44.795961 
L 90.63002 45.717915 
L 91.001055 43.852056 
L 91.372091 43.522787 
L 91.742942 42.008148 
L 92.113977 42.688638 
L 92.484828 42.513028 
L 92.855863 38.188625 
L 93.226714 42.491076 
L 93.59775 43.149615 
L 93.9686 41.87644 
L 94.339636 43.083761 
L 94.710486 42.008148 
L 95.081522 42.38132 
L 95.452372 41.678879 
L 96.194258 43.215469 
L 96.565294 39.220335 
L 96.93633 42.074002 
L 97.295881 40.822779 
L 97.678216 38.978871 
L 98.037767 42.359369 
L 98.408803 44.686205 
L 98.779838 38.430089 
L 99.150689 41.283756 
L 99.521724 37.113012 
L 99.892575 39.417897 
L 100.263611 40.098387 
L 101.005497 38.034966 
L 101.376347 36.542279 
L 101.747383 39.769117 
L 102.118233 37.42033 
L 102.489269 38.825212 
L 102.860119 36.717889 
L 103.231155 37.091061 
L 103.602006 37.793502 
L 104.344077 35.005689 
L 104.714927 33.99593 
L 105.074664 34.895933 
L 105.81655 35.839838 
L 106.187585 38.583748 
L 106.929472 35.905692 
L 107.300322 36.037399 
L 107.671358 36.959353 
L 108.042208 38.430089 
L 108.413244 34.961787 
L 108.784094 37.508135 
L 109.15513 37.991064 
L 109.52598 37.639843 
L 110.267867 39.681312 
L 110.638902 37.266671 
L 111.009938 37.091061 
L 111.380788 35.071543 
L 111.751824 34.237394 
L 112.122675 33.732515 
L 112.49371 35.971546 
L 112.864561 36.893499 
L 113.235596 36.56423 
L 113.606447 36.586181 
L 113.966183 34.347151 
L 114.337219 34.303248 
L 114.708069 31.888607 
L 115.079105 33.710564 
L 115.449955 34.588615 
L 115.820991 31.734948 
L 116.191841 31.449581 
L 116.562877 32.525194 
L 116.933728 32.547146 
L 117.675614 34.083735 
L 118.046649 31.888607 
L 118.417685 31.669094 
L 118.799835 35.35691 
L 119.170686 32.261779 
L 119.541721 32.722756 
L 119.901457 26.378835 
L 120.272308 30.39592 
L 120.643344 32.832512 
L 121.014194 33.864222 
L 121.38523 31.647143 
L 121.75608 32.78861 
L 122.127116 32.327633 
L 122.497966 29.649576 
L 122.857702 31.866656 
L 123.228738 29.36421 
L 123.599589 28.354451 
L 123.970624 33.403246 
L 124.341475 29.254453 
L 124.71251 29.078843 
L 125.083361 26.927617 
L 125.454397 30.132505 
L 125.836547 28.464207 
L 126.207582 32.173974 
L 126.567318 32.591048 
L 126.938169 28.639817 
L 127.309205 30.352017 
L 127.680055 25.764199 
L 128.051091 29.056892 
L 128.421941 28.793476 
L 128.792977 29.408112 
L 129.163827 28.420305 
L 129.534863 31.339825 
L 129.905714 27.103228 
L 130.276749 29.36421 
L 130.647785 27.278838 
L 131.018635 29.583722 
L 131.389671 26.686153 
L 131.760522 27.849571 
L 132.120258 29.605674 
L 132.491293 28.310548 
L 132.862144 28.815428 
L 133.233179 28.639817 
L 133.60403 28.112987 
L 133.975066 27.893474 
L 134.345916 28.376402 
L 134.716952 26.488592 
L 135.458838 29.122746 
L 135.829688 28.266646 
L 136.200724 28.244694 
L 136.571575 26.093469 
L 136.94261 28.749574 
L 137.313461 30.242261 
L 137.684496 27.191033 
L 138.055532 29.495917 
L 138.426383 29.254453 
L 138.797418 28.815428 
L 139.168269 29.012989 
L 139.539304 29.03494 
L 139.910155 29.495917 
L 140.269891 29.386161 
L 140.640927 29.825187 
L 141.011777 27.871522 
L 141.382813 28.134938 
L 141.753663 28.00323 
L 142.124699 31.844705 
L 142.495549 26.554446 
L 142.866585 29.144697 
L 143.237435 28.222743 
L 143.979322 28.595915 
L 144.350357 28.156889 
L 144.721393 29.869089 
L 145.103543 27.256887 
L 145.463279 28.266646 
L 145.83413 30.659335 
L 146.576016 28.17884 
L 146.947052 25.742248 
L 147.317902 27.673961 
L 147.688938 25.632492 
L 148.059788 25.61054 
L 148.430824 24.644684 
L 148.801674 22.295897 
L 149.16141 27.037374 
L 149.54356 27.015422 
L 149.914596 24.512976 
L 150.285632 25.369076 
L 150.645183 27.14713 
L 151.016218 25.281271 
L 151.387069 26.049566 
L 151.758104 28.200792 
L 152.12914 25.149563 
L 152.499991 25.566638 
L 152.871026 26.444689 
L 153.241877 25.852004 
L 153.612913 22.581263 
L 153.983763 26.949569 
L 154.354799 24.205658 
L 154.725649 24.381269 
L 155.096685 27.893474 
L 155.467535 25.873956 
L 155.838571 22.405653 
L 156.209421 24.491025 
L 156.580457 23.986146 
L 156.951308 21.15443 
L 157.322343 23.942243 
L 157.693379 19.288571 
L 158.064229 25.764199 
L 158.435265 24.688587 
L 158.806116 22.603215 
L 159.177151 23.656876 
L 159.536887 23.217851 
L 159.907738 25.764199 
L 160.278773 25.830053 
L 160.649624 20.781258 
L 161.02066 21.110528 
L 161.39151 23.020289 
L 161.762546 21.681261 
L 162.133396 21.483699 
L 162.875282 25.720297 
L 163.246318 24.842246 
L 163.617169 25.237369 
L 163.999504 25.852004 
L 164.73009 22.405653 
L 165.101126 24.008097 
L 165.471977 22.998338 
L 165.843012 25.742248 
L 166.213863 25.742248 
L 166.584898 23.810535 
L 166.955749 24.271512 
L 167.315485 25.369076 
L 167.686521 26.027615 
L 168.057371 24.666635 
L 168.428407 22.69102 
L 168.799257 24.886148 
L 169.541143 21.198333 
L 169.923479 25.830053 
L 170.294329 21.066625 
L 170.654065 23.634925 
L 171.024916 24.644684 
L 171.395951 23.503217 
L 171.766987 24.75444 
L 172.137838 26.532494 
L 172.508873 25.654443 
L 172.879724 26.005663 
L 173.250759 25.43493 
L 173.62161 23.437363 
L 174.363496 24.293463 
L 174.734532 22.603215 
L 175.116682 25.08371 
L 176.207004 23.37151 
L 176.57804 20.80321 
L 176.948891 25.369076 
L 177.690777 23.920292 
L 178.061812 20.451989 
L 178.432663 20.12272 
L 178.803699 25.412979 
L 179.174734 24.534928 
L 179.545585 23.239802 
L 179.91662 26.554446 
L 180.658507 24.117853 
L 181.029357 25.895907 
L 181.400393 25.566638 
L 181.771243 23.283704 
L 182.142279 23.261753 
L 182.513129 24.205658 
L 182.884165 22.01053 
L 183.255015 24.644684 
L 183.626051 24.469074 
L 183.997087 24.842246 
L 184.356638 25.478833 
L 184.727673 25.456881 
L 185.098524 24.22761 
L 185.46956 25.917858 
L 185.840595 24.161756 
L 186.211446 21.286138 
L 186.582481 24.40322 
L 186.953332 23.832487 
L 187.706518 24.776392 
L 188.077368 22.164189 
L 188.437104 21.286138 
L 188.80814 23.569071 
L 189.17899 22.51541 
L 189.550026 23.04224 
L 189.920876 21.308089 
L 190.291912 21.220284 
L 190.662763 20.715404 
L 191.033798 20.891015 
L 191.404834 18.476374 
L 191.775684 21.527602 
L 192.517571 20.254428 
L 192.888606 21.417845 
L 193.248342 22.142238 
L 193.619193 23.678828 
L 193.990229 22.273945 
L 194.361079 22.098335 
L 194.732115 21.703212 
L 195.102965 20.671502 
L 195.474001 23.964194 
L 195.844851 21.33004 
L 196.215887 22.493458 
L 196.586737 21.747115 
L 196.957773 22.18614 
L 197.328624 22.800776 
L 197.699659 21.571504 
L 198.070695 22.471507 
L 198.441545 21.395894 
L 198.812581 21.33004 
L 199.183432 20.847112 
L 199.554467 19.44223 
L 199.925318 22.603215 
L 200.296353 22.449556 
L 201.03824 20.627599 
L 201.40909 21.615407 
L 201.780126 22.273945 
L 202.139862 21.900774 
L 202.510712 21.15443 
L 202.881748 14.744656 
L 203.252598 16.610515 
L 203.623634 15.66661 
L 203.994485 15.578804 
L 204.36552 17.883689 
L 204.74767 17.027589 
L 205.107406 17.861738 
L 205.489557 15.249535 
L 205.860592 17.422712 
L 206.220328 18.498325 
L 206.591179 19.244669 
L 206.962214 22.361751 
L 207.704101 22.800776 
L 208.445987 20.956869 
L 208.816837 21.725163 
L 209.558723 20.934917 
L 209.929759 21.549553 
L 210.30061 22.669069 
L 210.660346 22.054433 
L 211.031381 21.900774 
L 212.155418 23.305656 
L 212.526453 21.791017 
L 212.897304 21.988579 
L 213.268339 20.847112 
L 213.63919 21.439797 
L 213.998926 22.51541 
L 214.369962 19.991012 
L 214.740812 22.098335 
L 215.111848 21.725163 
L 215.482698 18.783692 
L 215.853734 21.856871 
L 216.224584 21.33004 
L 216.59562 21.483699 
L 217.337506 20.934917 
L 217.708542 21.264187 
L 218.079392 22.032481 
L 218.450428 23.481266 
L 218.821279 24.008097 
L 219.192314 23.854438 
L 219.55205 22.427604 
L 219.922901 20.47394 
L 220.293936 20.561745 
L 221.035823 18.037348 
L 221.406673 19.003204 
L 222.148559 20.056866 
L 222.519595 16.083684 
L 222.890445 14.48124 
L 223.261481 14.98612 
L 223.632332 13.317822 
L 224.003367 14.48124 
L 224.374218 16.127586 
L 224.745253 20.056866 
L 225.127403 18.278812 
L 225.498439 17.751981 
L 225.86929 18.827594 
L 226.240325 18.344666 
L 226.600061 18.23491 
L 226.970912 15.425145 
L 227.712798 18.937351 
L 228.083834 17.291004 
L 228.44357 16.259294 
L 228.81442 14.547094 
L 229.185456 16.566612 
L 229.556306 16.588563 
L 230.298193 13.427579 
L 231.040079 16.676369 
L 231.411114 18.015397 
L 232.153001 18.608081 
L 232.524036 14.13002 
L 232.894887 16.851979 
L 233.265922 16.917833 
L 233.636773 18.015397 
L 234.007809 17.839786 
L 234.378659 16.259294 
L 234.749695 17.993445 
L 235.120545 17.312956 
L 235.491581 15.073925 
L 235.862431 16.215392 
L 236.233467 13.251969 
L 236.604317 15.051974 
L 237.335089 16.983686 
L 237.70594 17.115394 
L 238.076975 14.108069 
L 238.447826 15.051974 
L 238.818862 14.371484 
L 238.818862 14.371484 
" clip-path="url(#p7de42830cb)" style="fill: none; stroke: #1f77b4; stroke-width: 1.5; stroke-linecap: square"/>
   </g>
   <g id="line2d_18">
    <path d="M 65.439234 134.291339 
L 65.810269 132.118162 
L 66.18112 127.266928 
L 66.923006 121.405936 
L 68.035928 102.879054 
L 68.406963 105.20589 
L 69.14885 96.513182 
L 69.5197 98.159528 
L 69.879436 97.369282 
L 70.250472 95.766838 
L 70.621322 90.65219 
L 70.992358 91.200972 
L 71.363208 90.454628 
L 71.734244 85.230223 
L 72.105095 86.942423 
L 72.48743 82.552166 
L 72.846981 81.630213 
L 73.218016 84.988759 
L 73.959903 76.361905 
L 74.330938 81.213138 
L 74.724203 72.630187 
L 75.466089 70.325302 
L 75.814711 75.330195 
L 76.185561 78.644838 
L 76.556597 78.118007 
L 76.927447 72.893602 
L 77.309597 73.003359 
L 77.669333 76.669223 
L 78.040369 71.708233 
L 78.400105 77.942397 
L 78.770956 74.693607 
L 79.141991 76.62532 
L 79.512842 74.627754 
L 79.883877 74.803364 
L 80.254728 68.74481 
L 80.637063 67.625295 
L 80.996614 74.496046 
L 81.36765 74.078971 
L 81.738685 74.364338 
L 82.109536 72.586284 
L 82.480572 72.037502 
L 82.851422 66.922853 
L 83.233572 71.093597 
L 83.593308 66.461877 
L 83.964344 72.696041 
L 84.335194 66.35212 
L 85.08838 74.715559 
L 85.448116 75.022877 
L 85.818967 74.166777 
L 86.190002 71.071646 
L 86.920589 72.761895 
L 87.291625 66.900902 
L 87.673775 69.996033 
L 88.033511 71.817989 
L 88.404361 67.844807 
L 88.775397 65.100897 
L 89.146433 68.722859 
L 89.517283 70.852133 
L 89.888319 71.598477 
L 90.270469 65.539923 
L 90.630205 67.38383 
L 91.001055 64.178943 
L 91.372091 62.510646 
L 91.742942 69.381397 
L 92.113977 65.847241 
L 92.484828 66.066753 
L 92.867163 62.510646 
L 93.226714 69.513105 
L 93.59775 71.225305 
L 93.968785 69.60091 
L 94.339636 70.676523 
L 94.721786 69.117982 
L 95.081522 62.554548 
L 95.452558 61.874059 
L 95.823408 63.10333 
L 96.183144 67.976515 
L 96.92503 68.349687 
L 97.296066 66.374071 
L 97.678216 69.732618 
L 98.037952 66.17651 
L 98.408803 69.77652 
L 98.779838 61.830156 
L 99.150689 64.376505 
L 99.521724 63.674064 
L 99.892575 62.664305 
L 100.263611 71.049695 
L 100.645761 68.349687 
L 101.005497 70.413107 
L 101.376532 65.342361 
L 101.747383 67.647246 
L 102.118419 69.161884 
L 102.489269 66.813097 
L 102.860305 60.205761 
L 103.231155 66.022851 
L 103.602191 58.998441 
L 103.973041 65.210653 
L 104.344077 61.259423 
L 104.703813 63.60821 
L 105.074664 63.586259 
L 105.445699 62.422841 
L 105.81655 58.361853 
L 106.187585 57.527705 
L 106.558436 58.888684 
L 106.940771 58.405756 
L 107.300322 65.386264 
L 107.671358 66.330169 
L 108.042393 66.703341 
L 108.413244 58.625269 
L 108.78428 60.074053 
L 109.15513 63.542356 
L 109.526166 63.213087 
L 109.908316 67.625295 
L 110.268052 62.269182 
L 110.638902 66.703341 
L 111.009938 60.0082 
L 111.380788 67.757002 
L 111.751824 66.944805 
L 112.122675 62.598451 
L 112.49371 66.769195 
L 112.87586 66.220412 
L 113.224297 58.186243 
L 113.595333 63.717966 
L 113.977483 61.676497 
L 114.337219 64.46431 
L 114.708069 60.666738 
L 115.079105 61.325277 
L 115.450141 62.466743 
L 115.820991 59.898443 
L 116.192027 64.596018 
L 116.562877 55.661846 
L 116.933913 61.369179 
L 117.304763 58.361853 
L 118.046649 62.093571 
L 118.417685 62.598451 
L 118.788536 58.208194 
L 119.159571 63.213087 
L 119.530422 59.635028 
L 119.912757 59.415515 
L 120.272308 55.574041 
L 120.643344 60.425274 
L 121.014379 55.859407 
L 121.38523 58.581366 
L 121.756265 55.617943 
L 122.115816 55.025259 
L 122.486852 56.737459 
L 122.857888 59.700882 
L 123.228738 55.683797 
L 123.599774 57.637461 
L 123.981924 61.061861 
L 124.34166 59.064294 
L 124.71251 54.674038 
L 125.083546 56.430141 
L 125.454397 55.244771 
L 125.825432 60.35942 
L 126.196283 59.656979 
L 126.567318 61.698448 
L 127.309205 54.761843 
L 127.68024 62.466743 
L 128.051091 54.300866 
L 128.792977 50.437441 
L 129.164013 53.203302 
L 129.534863 52.939887 
L 129.917013 58.82283 
L 130.276749 62.291133 
L 130.647785 57.527705 
L 131.007521 55.530138 
L 131.378371 56.013066 
L 131.760522 58.954538 
L 132.120258 58.691123 
L 132.491293 55.969164 
L 132.862144 54.674038 
L 133.233179 52.149641 
L 133.60403 52.917935 
L 133.975066 53.071594 
L 134.345916 57.769169 
L 134.716952 52.676471 
L 135.087987 61.281374 
L 135.458838 55.464284 
L 135.829874 59.569174 
L 136.212024 61.435033 
L 136.57176 55.288674 
L 136.94261 60.205761 
L 137.313646 57.088679 
L 137.684496 64.113089 
L 138.055532 60.952105 
L 138.426383 55.881359 
L 138.808718 61.017959 
L 139.168269 61.742351 
L 139.539304 56.715507 
L 139.89904 57.747218 
L 140.269891 55.39843 
L 141.011777 58.537464 
L 141.753848 50.810612 
L 142.124699 57.374046 
L 142.495735 60.337469 
L 142.866585 60.447225 
L 143.248735 61.347228 
L 143.979507 51.79842 
L 144.350357 52.47891 
L 144.721393 54.037451 
L 145.092244 59.898443 
L 145.463279 60.820397 
L 145.845429 63.78382 
L 146.205165 53.400864 
L 146.587315 60.908202 
L 146.947052 54.169159 
L 147.318087 61.435033 
L 148.059973 62.444792 
L 148.430824 62.269182 
L 148.79056 60.908202 
L 149.161596 60.600884 
L 149.532446 62.291133 
L 149.903482 61.281374 
L 150.274332 57.549656 
L 151.016218 61.325277 
L 151.387254 55.113064 
L 151.758104 62.488694 
L 152.14044 59.832589 
L 152.499991 61.786253 
L 152.871026 54.937453 
L 153.241877 61.369179 
L 153.612913 55.069161 
L 153.995063 58.713074 
L 154.354799 54.322818 
L 154.725834 57.11063 
L 155.096685 57.242338 
L 155.467721 60.622836 
L 155.838571 62.444792 
L 156.209607 62.686256 
L 156.580457 58.383805 
L 156.951493 55.815505 
L 157.311229 50.5911 
L 158.053115 53.774035 
L 158.423965 56.869166 
L 158.806116 62.093571 
L 159.165852 56.75941 
L 159.536887 54.761843 
L 160.278773 63.344794 
L 160.649624 60.425274 
L 161.02066 61.149666 
L 161.391695 52.017933 
L 161.762546 61.7204 
L 162.133581 61.017959 
L 162.504432 62.444792 
L 162.875468 62.203328 
L 163.246318 60.403323 
L 163.617354 55.156966 
L 163.988204 59.174051 
L 164.37054 60.688689 
L 164.73009 60.074053 
L 165.101126 60.952105 
L 165.471977 55.771602 
L 165.843012 60.0082 
L 166.202748 61.193569 
L 166.573599 63.300892 
L 166.944634 62.093571 
L 167.315485 61.347228 
L 167.686521 57.242338 
L 168.057371 59.174051 
L 168.428407 63.410648 
L 168.810557 62.708207 
L 169.170293 60.556982 
L 169.541329 61.478936 
L 169.912179 61.259423 
L 170.283215 62.225279 
L 170.654065 59.591125 
L 171.025101 58.449659 
L 171.407251 60.491128 
L 171.766987 59.656979 
L 172.137838 60.710641 
L 172.879724 60.996007 
L 173.250759 62.642353 
L 173.621795 63.278941 
L 174.003945 61.786253 
L 174.363681 61.303325 
L 174.734532 62.664305 
L 175.094268 62.993574 
L 175.465303 60.952105 
L 176.20719 60.271615 
L 176.57804 61.325277 
L 176.96019 60.622836 
L 177.319926 61.500887 
L 177.690962 60.622836 
L 178.061812 56.847215 
L 178.432848 57.417948 
L 178.803699 60.842348 
L 179.545585 57.96673 
L 179.91662 57.725266 
L 180.287471 59.920394 
L 180.658507 60.952105 
L 181.029542 51.732566 
L 181.400393 54.564282 
L 181.771428 53.774035 
L 182.142279 53.708182 
L 182.524429 59.722833 
L 182.884165 58.82283 
L 183.255201 60.469177 
L 183.614937 59.415515 
L 183.985787 53.049643 
L 184.367937 59.854541 
L 184.727673 52.874033 
L 185.098709 56.737459 
L 185.46956 51.491102 
L 185.840595 51.842323 
L 186.222745 57.308192 
L 186.582481 60.578933 
L 187.324368 57.637461 
L 187.695403 57.988682 
L 188.077553 59.591125 
L 188.437289 58.559415 
L 188.80814 56.825264 
L 189.179176 51.359394 
L 189.550026 57.900877 
L 189.921062 60.315518 
L 190.291912 59.722833 
L 190.674062 52.3033 
L 191.033798 52.939887 
L 191.404834 56.166725 
L 191.775684 53.1594 
L 192.14672 52.544764 
L 192.517571 50.152074 
L 192.877307 52.500861 
L 193.248342 56.693556 
L 193.619193 48.330117 
L 193.990229 50.656953 
L 194.361079 49.669146 
L 195.10315 50.020366 
L 195.474001 47.144748 
L 195.845037 45.871574 
L 196.215887 52.698423 
L 196.586923 48.769143 
L 196.957773 52.544764 
L 197.328809 51.820371 
L 197.710959 51.688664 
L 198.070695 56.144774 
L 198.452845 55.90331 
L 198.812581 51.732566 
L 199.925503 44.334984 
L 200.296353 46.793528 
L 200.667389 52.105738 
L 201.03824 48.220361 
L 201.397976 49.383779 
L 202.139862 47.364261 
L 202.510898 48.154507 
L 202.881748 44.795961 
L 203.623634 54.761843 
L 204.36552 51.030125 
L 204.736556 57.308192 
L 205.107406 50.481343 
L 205.478442 55.90331 
L 205.849293 51.864274 
L 206.220328 50.635002 
L 206.591179 48.154507 
L 206.962214 53.839889 
L 207.33325 46.442307 
L 207.704101 48.19841 
L 208.075136 48.066702 
L 208.457286 55.22282 
L 208.817022 50.195976 
L 209.187873 49.40573 
L 209.558909 44.708156 
L 209.929759 52.676471 
L 210.289495 49.40573 
L 210.660531 47.561823 
L 211.042681 47.671579 
L 211.402417 51.600859 
L 211.784567 48.966705 
L 212.144303 51.62281 
L 212.515154 55.771602 
L 212.886189 55.420382 
L 213.25704 53.181351 
L 213.628075 52.676471 
L 213.998926 57.308192 
L 214.369962 57.417948 
L 214.740997 52.127689 
L 215.123147 56.869166 
L 215.482883 58.47161 
L 215.853734 59.196002 
L 216.22477 53.378912 
L 216.966656 51.271589 
L 217.337506 56.320384 
L 217.708542 55.266723 
L 218.079392 57.79112 
L 218.461728 50.26183 
L 218.810164 55.969164 
L 219.181015 54.081353 
L 219.922901 52.347202 
L 220.293936 57.176484 
L 220.664787 55.859407 
L 221.035823 56.891118 
L 221.406858 56.5838 
L 221.777709 48.571582 
L 222.148744 48.154507 
L 222.519595 54.849648 
L 222.890631 57.176484 
L 223.261481 52.874033 
L 223.643631 54.783794 
L 224.003367 50.854515 
L 224.374403 56.100871 
L 224.745253 53.203302 
L 225.48714 50.744759 
L 225.858175 49.515487 
L 226.229026 52.369153 
L 226.600061 52.588666 
L 226.971097 53.444766 
L 227.341948 49.998415 
L 227.701684 54.893551 
L 228.083834 47.364261 
L 228.44357 51.469151 
L 228.814605 50.26183 
L 229.185456 47.495969 
L 229.556492 45.717915 
L 229.938642 54.520379 
L 230.298378 51.952079 
L 230.669228 51.864274 
L 231.040264 50.437441 
L 231.411114 50.174025 
L 231.78215 44.686205 
L 232.153001 45.059376 
L 232.535336 43.939861 
L 232.894887 44.488643 
L 233.265922 49.603292 
L 233.636958 49.142315 
L 234.007809 53.839889 
L 234.378844 50.569148 
L 234.749695 54.761843 
L 235.491581 46.244746 
L 235.862617 53.51062 
L 236.233467 49.23012 
L 236.593203 54.827697 
L 236.964239 54.059402 
L 237.335089 49.976464 
L 237.706125 50.26183 
L 238.076975 51.578907 
L 238.448011 50.964271 
L 238.818862 44.466692 
L 239.189897 44.817912 
L 239.943083 50.986223 
L 239.943083 50.986223 
" clip-path="url(#p7de42830cb)" style="fill: none; stroke: #ff7f0e; stroke-width: 1.5; stroke-linecap: square"/>
   </g>
   <g id="line2d_19">
    <path d="M 65.439234 134.291339 
L 65.810269 127.46449 
L 66.18112 124.566921 
L 66.552155 119.474223 
L 66.923006 117.454705 
L 68.406778 103.888813 
L 68.777814 101.649782 
L 69.159964 101.979051 
L 69.5197 100.991243 
L 69.890736 96.491231 
L 70.261586 96.381474 
L 70.632622 94.998543 
L 71.003472 92.561951 
L 71.374508 95.218056 
L 71.756658 91.17902 
L 72.116394 91.749754 
L 72.47613 88.457061 
L 72.846981 87.074131 
L 73.218016 88.369256 
L 73.588867 87.469254 
L 73.959903 85.208272 
L 74.342053 87.4034 
L 74.701789 84.286318 
L 75.443675 86.437543 
L 75.814525 84.8351 
L 76.185561 87.096082 
L 76.556597 83.232656 
L 76.938747 82.903387 
L 77.298483 80.598502 
L 77.669333 81.366797 
L 78.040369 78.51313 
L 78.41122 77.722884 
L 78.782255 77.569225 
L 79.153106 80.642405 
L 79.524141 79.149718 
L 79.894992 79.083864 
L 80.266028 76.62532 
L 81.007914 76.822882 
L 81.36765 76.120441 
L 81.7498 77.722884 
L 82.109536 76.230197 
L 82.480386 76.44971 
L 82.851422 80.335087 
L 83.222273 76.361905 
L 83.593308 77.525323 
L 83.964344 75.000925 
L 84.346494 77.65703 
L 84.70623 76.230197 
L 85.077081 75.813123 
L 85.818967 76.647272 
L 86.190002 75.330195 
L 86.560853 76.44971 
L 86.931889 77.042395 
L 87.302739 76.405807 
L 87.673775 76.208246 
L 88.044625 78.557033 
L 88.415661 76.383856 
L 89.157547 74.210679 
L 89.528583 76.559466 
L 89.899433 74.188728 
L 90.63002 78.118007 
L 91.001055 74.364338 
L 91.372091 73.37653 
L 91.754241 70.522864 
L 92.113977 72.805797 
L 92.484828 73.530189 
L 92.855863 73.135066 
L 93.226714 46.134989 
L 93.59775 74.978974 
L 93.9686 71.554574 
L 94.339636 74.276533 
L 94.710486 73.947264 
L 95.081522 74.759461 
L 95.452372 72.827748 
L 95.823408 69.491154 
L 96.194444 71.971648 
L 96.576594 69.996033 
L 96.93633 68.766761 
L 97.30718 71.883843 
L 97.678216 73.639946 
L 98.049066 69.77652 
L 98.431217 72.827748 
L 98.779838 69.381397 
L 99.150689 72.037502 
L 99.521724 72.827748 
L 99.892575 72.498479 
L 100.263611 75.76922 
L 100.634461 70.961889 
L 101.005497 72.191161 
L 101.376347 46.134989 
L 101.747383 71.093597 
L 102.118233 73.88141 
L 102.489269 40.559364 
L 102.860119 69.842374 
L 103.231155 73.617995 
L 103.602191 69.974082 
L 103.973041 69.491154 
L 104.355191 71.66433 
L 104.714927 72.739943 
L 105.085963 70.676523 
L 105.456814 71.66433 
L 105.827849 41.327658 
L 106.1987 68.305784 
L 106.569735 72.388723 
L 106.940586 70.830182 
L 107.311622 72.476528 
L 107.682472 71.927746 
L 108.042208 68.196028 
L 108.413244 70.786279 
L 108.784094 39.791069 
L 109.15513 69.60091 
L 109.52598 71.093597 
L 109.897016 67.691148 
L 110.268052 70.939938 
L 111.009938 67.910661 
L 111.380788 68.964323 
L 111.751824 68.854566 
L 112.122675 67.778954 
L 112.49371 67.778954 
L 112.864561 70.303351 
L 113.235596 69.886277 
L 113.606447 68.5692 
L 113.977483 68.108223 
L 114.348333 69.139933 
L 114.719369 71.31311 
L 115.090219 69.798471 
L 115.461255 72.125307 
L 115.832291 69.161884 
L 116.203141 72.432625 
L 116.562877 68.042369 
L 116.933728 67.910661 
L 117.304763 67.647246 
L 117.675799 69.820423 
L 118.046649 74.715559 
L 118.417685 70.45701 
L 118.788536 71.839941 
L 119.159571 72.015551 
L 119.530422 70.127741 
L 119.901457 43.127664 
L 120.272308 70.083838 
L 120.643344 70.083838 
L 121.014194 72.981407 
L 121.38523 73.222871 
L 122.498152 70.500912 
L 122.869002 71.532623 
L 123.251152 43.105712 
L 123.610888 75.176536 
L 123.993038 44.247179 
L 124.352774 42.820346 
L 124.734924 70.742377 
L 125.094661 44.444741 
L 125.465696 44.159374 
L 125.825432 70.544815 
L 126.207582 70.676523 
L 126.567318 75.286292 
L 126.949469 74.583851 
L 127.309205 70.391156 
L 127.680055 75.308243 
L 128.051091 42.644735 
L 128.433241 71.642379 
L 128.792977 74.891169 
L 129.163827 71.159451 
L 129.534863 43.149615 
L 129.905899 70.698474 
L 130.276749 68.74481 
L 130.647785 75.286292 
L 131.018635 74.166777 
L 131.389671 71.927746 
L 131.760522 73.574092 
L 132.131557 73.617995 
L 132.502408 73.266774 
L 132.873443 72.278966 
L 133.244294 74.693607 
L 133.61533 71.466769 
L 133.975066 73.091164 
L 134.345916 72.893602 
L 134.716952 71.598477 
L 135.087802 72.739943 
L 135.458838 70.347254 
L 135.829688 74.803364 
L 136.200724 73.178969 
L 136.571575 69.644812 
L 136.94261 70.413107 
L 137.313646 47.934994 
L 137.684496 73.135066 
L 138.055532 71.971648 
L 138.426383 74.517997 
L 138.797418 75.066779 
L 139.179568 69.644812 
L 139.539304 67.427733 
L 139.910155 72.213113 
L 140.281191 71.598477 
L 140.652041 71.839941 
L 141.023077 71.335061 
L 141.393927 46.003282 
L 141.764963 69.864325 
L 142.135999 70.347254 
L 142.506849 72.783846 
L 142.866585 40.49351 
L 143.237435 39.725215 
L 143.608471 70.63262 
L 143.979507 72.696041 
L 144.350357 72.16921 
L 144.732507 72.476528 
L 145.092244 69.205787 
L 145.474394 68.174077 
L 145.83413 72.278966 
L 146.21628 45.432548 
L 146.576016 43.391079 
L 146.958166 42.776443 
L 147.317902 69.052128 
L 147.700237 72.059454 
L 148.059788 73.574092 
L 148.442123 44.203276 
L 148.801674 40.800828 
L 149.17271 68.481395 
L 149.543746 71.66433 
L 149.914596 71.115548 
L 150.285632 41.195951 
L 150.656482 40.888633 
L 151.027518 71.291159 
L 151.398368 72.125307 
L 151.758104 72.366771 
L 152.12914 71.422866 
L 152.51129 45.674012 
L 152.871026 69.864325 
L 153.241877 72.937505 
L 153.612913 46.530112 
L 153.983763 71.532623 
L 154.354799 71.598477 
L 154.725649 38.45204 
L 155.096685 73.617995 
L 155.467535 40.230094 
L 155.849871 48.330117 
L 156.209607 72.278966 
L 156.580457 69.666764 
L 156.951493 68.92042 
L 157.322343 41.437415 
L 157.704493 73.069213 
L 158.435265 70.325302 
L 158.806116 46.83743 
L 159.177151 46.288648 
L 159.559301 73.266774 
L 159.919037 48.813046 
L 160.289888 46.464258 
L 160.649624 40.537412 
L 161.02066 71.093597 
L 161.39151 73.859459 
L 161.762546 41.34961 
L 162.133396 73.37653 
L 162.504432 48.308166 
L 162.875282 71.247256 
L 163.246318 71.949697 
L 163.617354 45.388646 
L 163.988204 71.247256 
L 164.35924 41.942294 
L 164.73009 38.627651 
L 165.101126 39.417897 
L 165.471977 42.754492 
L 165.843012 70.676523 
L 166.225162 39.044725 
L 166.955749 40.66912 
L 167.326785 71.949697 
L 167.697635 69.578959 
L 168.068671 39.63741 
L 168.439706 68.722859 
L 168.810557 70.983841 
L 169.181593 68.196028 
L 169.541143 72.432625 
L 169.912179 71.027743 
L 170.28303 38.737407 
L 170.654065 45.520353 
L 171.025101 69.974082 
L 171.395951 70.259448 
L 171.778102 40.866682 
L 172.137838 68.657005 
L 172.519988 50.042317 
L 172.879724 72.476528 
L 173.250759 70.874084 
L 173.62161 70.852133 
L 173.992646 42.183758 
L 174.363496 41.239853 
L 174.734532 71.31311 
L 175.105382 46.3106 
L 175.476418 42.864248 
L 175.847454 73.003359 
L 176.218304 47.956946 
L 176.58934 45.388646 
L 176.96019 69.249689 
L 177.331226 48.659387 
L 177.702076 47.276456 
L 178.061812 44.971571 
L 178.432848 47.276456 
L 178.803699 39.264238 
L 179.174734 72.959456 
L 179.545585 72.015551 
L 179.91662 48.330117 
L 180.287471 72.037502 
L 180.658507 47.210602 
L 181.029357 46.617917 
L 181.400393 45.234987 
L 181.771243 48.681338 
L 182.142279 70.347254 
L 182.524429 44.993523 
L 182.884165 47.100846 
L 183.255201 39.264238 
L 183.626051 70.961889 
L 183.997087 71.31311 
L 184.367937 69.710666 
L 184.738973 46.639869 
L 185.121123 48.593533 
L 185.480859 47.561823 
L 185.85171 69.77652 
L 186.222745 70.896036 
L 186.593596 40.910584 
L 186.964631 39.571556 
L 187.324368 68.613102 
L 187.695218 69.139933 
L 188.066254 68.942371 
L 188.437104 70.544815 
L 189.17899 68.722859 
L 189.550026 47.1667 
L 189.921062 69.183836 
L 190.291912 67.427733 
L 191.033798 71.1375 
L 191.404834 67.998466 
L 191.775684 67.581392 
L 192.14672 67.38383 
L 192.517571 67.7131 
L 192.888606 68.854566 
L 193.259457 66.988707 
L 193.630492 67.800905 
L 194.001343 47.034992 
L 194.372379 69.381397 
L 194.754529 69.074079 
L 195.114265 68.108223 
L 195.4853 65.781387 
L 195.844851 67.625295 
L 196.215887 67.735051 
L 196.586737 64.727725 
L 196.957773 66.044802 
L 197.328809 66.483828 
L 197.710959 66.615536 
L 198.070695 36.542279 
L 198.441545 64.727725 
L 198.812581 64.508212 
L 199.183432 67.230171 
L 199.554467 66.330169 
L 199.925318 64.947238 
L 200.296353 64.135041 
L 200.667204 66.154559 
L 201.03824 63.761869 
L 201.40909 38.825212 
L 201.780126 43.720348 
L 202.151161 62.137474 
L 202.522012 65.078946 
L 202.893048 61.478936 
L 203.263898 65.1448 
L 203.634934 65.737484 
L 204.005784 66.857 
L 204.37682 65.100897 
L 204.736556 61.830156 
L 205.107406 62.883818 
L 205.478442 62.510646 
L 205.849293 63.542356 
L 206.220328 32.722756 
L 206.602478 36.586181 
L 206.962214 64.310651 
L 207.333065 66.549682 
L 207.7154 41.481317 
L 208.074951 64.859433 
L 208.445987 64.398456 
L 208.828137 65.978948 
L 209.187873 65.035043 
L 209.558909 63.476502 
L 209.941059 63.761869 
L 210.671645 66.922853 
L 211.042681 63.520405 
L 211.784567 65.474069 
L 212.155418 65.517971 
L 212.537753 59.196002 
L 212.897304 62.642353 
L 213.25704 63.95943 
L 213.628075 62.861866 
L 214.369962 66.242364 
L 214.740812 65.452118 
L 215.111848 63.015525 
L 215.482698 65.67163 
L 215.853734 64.969189 
L 216.224584 61.654546 
L 216.59562 62.796012 
L 216.966656 61.544789 
L 217.337506 64.508212 
L 217.708542 64.508212 
L 218.079392 64.003333 
L 218.450428 36.849597 
L 218.832578 63.630161 
L 219.192314 67.339928 
L 219.563165 64.683823 
L 219.9342 65.67163 
L 220.305051 42.995956 
L 220.676087 63.78382 
L 221.046937 63.454551 
L 221.417973 64.574066 
L 221.789008 63.915528 
L 222.148559 40.822779 
L 222.519595 40.449607 
L 222.890445 40.405705 
L 223.261481 63.739918 
L 223.632517 33.073976 
L 224.003367 30.988605 
L 224.374403 62.269182 
L 224.745253 61.830156 
L 225.127403 62.356987 
L 225.48714 62.115523 
L 225.858175 40.273997 
L 226.240325 61.347228 
L 226.600061 34.873981 
L 226.970912 63.652112 
L 227.341948 39.000823 
L 227.712798 61.654546 
L 228.083834 62.313084 
L 228.454684 39.30814 
L 228.82572 61.413082 
L 229.196756 64.749677 
L 229.567606 42.666687 
L 229.949756 62.159425 
L 230.309492 34.017881 
L 230.680528 64.596018 
L 231.040264 61.369179 
L 231.411114 65.693582 
L 231.78215 38.978871 
L 232.153001 34.522761 
L 232.524036 39.154482 
L 232.894887 59.283807 
L 233.265922 36.981305 
L 233.648072 30.637384 
L 234.007809 29.232502 
L 234.378659 32.415438 
L 234.749695 36.827646 
L 235.120545 29.452015 
L 235.491581 33.31544 
L 235.862617 56.056969 
L 236.233467 56.452092 
L 236.604503 30.264212 
L 237.357503 35.466666 
L 237.717239 40.427656 
L 238.088275 41.239853 
L 238.470425 33.249587 
L 238.830161 39.98863 
L 239.201012 65.759436 
L 239.560748 68.525297 
L 239.942898 69.732618 
L 240.302634 67.976515 
L 240.67367 46.156941 
L 241.04452 70.939938 
L 241.415556 73.749702 
L 241.786406 53.400864 
L 241.786406 53.400864 
" clip-path="url(#p7de42830cb)" style="fill: none; stroke: #2ca02c; stroke-width: 1.5; stroke-linecap: square"/>
   </g>
   <g id="patch_3">
    <path d="M 56.621875 140.343307 
L 56.621875 7.2 
" style="fill: none; stroke: #000000; stroke-width: 0.8; stroke-linejoin: miter; stroke-linecap: square"/>
   </g>
   <g id="patch_4">
    <path d="M 250.603765 140.343307 
L 250.603765 7.2 
" style="fill: none; stroke: #000000; stroke-width: 0.8; stroke-linejoin: miter; stroke-linecap: square"/>
   </g>
   <g id="patch_5">
    <path d="M 56.621875 140.343307 
L 250.603765 140.343307 
" style="fill: none; stroke: #000000; stroke-width: 0.8; stroke-linejoin: miter; stroke-linecap: square"/>
   </g>
   <g id="patch_6">
    <path d="M 56.621875 7.2 
L 250.603765 7.2 
" style="fill: none; stroke: #000000; stroke-width: 0.8; stroke-linejoin: miter; stroke-linecap: square"/>
   </g>
   <g id="legend_1">
    <g id="patch_7">
     <path d="M 60.821875 37.450312 
L 94.186562 37.450312 
Q 95.386562 37.450312 95.386562 36.250313 
L 95.386562 11.4 
Q 95.386562 10.2 94.186562 10.2 
L 60.821875 10.2 
Q 59.621875 10.2 59.621875 11.4 
L 59.621875 36.250313 
Q 59.621875 37.450312 60.821875 37.450312 
z
" style="fill: #ffffff; opacity: 0.8; stroke: #cccccc; stroke-linejoin: miter"/>
    </g>
    <g id="line2d_20">
     <path d="M 62.021875 14.7 
L 68.021875 14.7 
L 74.021875 14.7 
" style="fill: none; stroke: #1f77b4; stroke-width: 1.5; stroke-linecap: square"/>
    </g>
    <g id="text_11">
     <!-- Exp 1 -->
     <g transform="translate(78.821875 16.8) scale(0.06 -0.06)">
      <defs>
       <path id="TimesNewRomanPSMT-45" d="M 1338 4006 
L 1338 2331 
L 2269 2331 
Q 2631 2331 2753 2441 
Q 2916 2584 2934 2947 
L 3050 2947 
L 3050 1472 
L 2934 1472 
Q 2891 1781 2847 1869 
Q 2791 1978 2662 2040 
Q 2534 2103 2269 2103 
L 1338 2103 
L 1338 706 
Q 1338 425 1363 364 
Q 1388 303 1450 267 
Q 1513 231 1688 231 
L 2406 231 
Q 2766 231 2928 281 
Q 3091 331 3241 478 
Q 3434 672 3638 1063 
L 3763 1063 
L 3397 0 
L 131 0 
L 131 116 
L 281 116 
Q 431 116 566 188 
Q 666 238 702 338 
Q 738 438 738 747 
L 738 3500 
Q 738 3903 656 3997 
Q 544 4122 281 4122 
L 131 4122 
L 131 4238 
L 3397 4238 
L 3444 3309 
L 3322 3309 
Q 3256 3644 3176 3769 
Q 3097 3894 2941 3959 
Q 2816 4006 2500 4006 
L 1338 4006 
z
" transform="scale(0.015625)"/>
       <path id="TimesNewRomanPSMT-70" d="M -6 2578 
L 875 2934 
L 994 2934 
L 994 2266 
Q 1216 2644 1439 2795 
Q 1663 2947 1909 2947 
Q 2341 2947 2628 2609 
Q 2981 2197 2981 1534 
Q 2981 794 2556 309 
Q 2206 -88 1675 -88 
Q 1444 -88 1275 -22 
Q 1150 25 994 166 
L 994 -706 
Q 994 -1000 1030 -1079 
Q 1066 -1159 1155 -1206 
Q 1244 -1253 1478 -1253 
L 1478 -1369 
L -22 -1369 
L -22 -1253 
L 56 -1253 
Q 228 -1256 350 -1188 
Q 409 -1153 442 -1076 
Q 475 -1000 475 -688 
L 475 2019 
Q 475 2297 450 2372 
Q 425 2447 370 2484 
Q 316 2522 222 2522 
Q 147 2522 31 2478 
L -6 2578 
z
M 994 2081 
L 994 1013 
Q 994 666 1022 556 
Q 1066 375 1236 237 
Q 1406 100 1666 100 
Q 1978 100 2172 344 
Q 2425 663 2425 1241 
Q 2425 1897 2138 2250 
Q 1938 2494 1663 2494 
Q 1513 2494 1366 2419 
Q 1253 2363 994 2081 
z
" transform="scale(0.015625)"/>
       <path id="TimesNewRomanPSMT-31" d="M 750 3822 
L 1781 4325 
L 1884 4325 
L 1884 747 
Q 1884 391 1914 303 
Q 1944 216 2037 169 
Q 2131 122 2419 116 
L 2419 0 
L 825 0 
L 825 116 
Q 1125 122 1212 167 
Q 1300 213 1334 289 
Q 1369 366 1369 747 
L 1369 3034 
Q 1369 3497 1338 3628 
Q 1316 3728 1258 3775 
Q 1200 3822 1119 3822 
Q 1003 3822 797 3725 
L 750 3822 
z
" transform="scale(0.015625)"/>
      </defs>
      <use xlink:href="#TimesNewRomanPSMT-45"/>
      <use xlink:href="#TimesNewRomanPSMT-78" x="61.083984"/>
      <use xlink:href="#TimesNewRomanPSMT-70" x="111.083984"/>
      <use xlink:href="#TimesNewRomanPSMT-20" x="161.083984"/>
      <use xlink:href="#TimesNewRomanPSMT-31" x="186.083984"/>
     </g>
    </g>
    <g id="line2d_21">
     <path d="M 62.021875 23.183438 
L 68.021875 23.183438 
L 74.021875 23.183438 
" style="fill: none; stroke: #ff7f0e; stroke-width: 1.5; stroke-linecap: square"/>
    </g>
    <g id="text_12">
     <!-- Exp 2 -->
     <g transform="translate(78.821875 25.283438) scale(0.06 -0.06)">
      <use xlink:href="#TimesNewRomanPSMT-45"/>
      <use xlink:href="#TimesNewRomanPSMT-78" x="61.083984"/>
      <use xlink:href="#TimesNewRomanPSMT-70" x="111.083984"/>
      <use xlink:href="#TimesNewRomanPSMT-20" x="161.083984"/>
      <use xlink:href="#TimesNewRomanPSMT-32" x="186.083984"/>
     </g>
    </g>
    <g id="line2d_22">
     <path d="M 62.021875 31.666875 
L 68.021875 31.666875 
L 74.021875 31.666875 
" style="fill: none; stroke: #2ca02c; stroke-width: 1.5; stroke-linecap: square"/>
    </g>
    <g id="text_13">
     <!-- Exp 3 -->
     <g transform="translate(78.821875 33.766875) scale(0.06 -0.06)">
      <defs>
       <path id="TimesNewRomanPSMT-33" d="M 325 3431 
Q 506 3859 782 4092 
Q 1059 4325 1472 4325 
Q 1981 4325 2253 3994 
Q 2459 3747 2459 3466 
Q 2459 3003 1878 2509 
Q 2269 2356 2469 2072 
Q 2669 1788 2669 1403 
Q 2669 853 2319 450 
Q 1863 -75 997 -75 
Q 569 -75 414 31 
Q 259 138 259 259 
Q 259 350 332 419 
Q 406 488 509 488 
Q 588 488 669 463 
Q 722 447 909 348 
Q 1097 250 1169 231 
Q 1284 197 1416 197 
Q 1734 197 1970 444 
Q 2206 691 2206 1028 
Q 2206 1275 2097 1509 
Q 2016 1684 1919 1775 
Q 1784 1900 1550 2001 
Q 1316 2103 1072 2103 
L 972 2103 
L 972 2197 
Q 1219 2228 1467 2375 
Q 1716 2522 1828 2728 
Q 1941 2934 1941 3181 
Q 1941 3503 1739 3701 
Q 1538 3900 1238 3900 
Q 753 3900 428 3381 
L 325 3431 
z
" transform="scale(0.015625)"/>
      </defs>
      <use xlink:href="#TimesNewRomanPSMT-45"/>
      <use xlink:href="#TimesNewRomanPSMT-78" x="61.083984"/>
      <use xlink:href="#TimesNewRomanPSMT-70" x="111.083984"/>
      <use xlink:href="#TimesNewRomanPSMT-20" x="161.083984"/>
      <use xlink:href="#TimesNewRomanPSMT-33" x="186.083984"/>
     </g>
    </g>
   </g>
  </g>
 </g>
 <defs>
  <clipPath id="p7de42830cb">
   <rect x="56.621875" y="7.2" width="193.98189" height="133.143307"/>
  </clipPath>
 </defs>
</svg>
