<?xml version="1.0" encoding="utf-8" standalone="no"?>
<!DOCTYPE svg PUBLIC "-//W3C//DTD SVG 1.1//EN"
  "http://www.w3.org/Graphics/SVG/1.1/DTD/svg11.dtd">
<svg xmlns:xlink="http://www.w3.org/1999/xlink" width="257.781265pt" height="178.525495pt" viewBox="0 0 257.781265 178.525495" xmlns="http://www.w3.org/2000/svg" version="1.1">
 <metadata>
  <rdf:RDF xmlns:dc="http://purl.org/dc/elements/1.1/" xmlns:cc="http://creativecommons.org/ns#" xmlns:rdf="http://www.w3.org/1999/02/22-rdf-syntax-ns#">
   <cc:Work>
    <dc:type rdf:resource="http://purl.org/dc/dcmitype/StillImage"/>
    <dc:date>2025-09-03T12:00:59.777528</dc:date>
    <dc:format>image/svg+xml</dc:format>
    <dc:creator>
     <cc:Agent>
      <dc:title>Matplotlib v3.9.2, https://matplotlib.org/</dc:title>
     </cc:Agent>
    </dc:creator>
   </cc:Work>
  </rdf:RDF>
 </metadata>
 <defs>
  <style type="text/css">*{stroke-linejoin: round; stroke-linecap: butt}</style>
 </defs>
 <g id="figure_1">
  <g id="patch_1">
   <path d="M 0 178.525495 
L 257.781265 178.525495 
L 257.781265 0 
L 0 0 
L 0 178.525495 
z
" style="fill: none"/>
  </g>
  <g id="axes_1">
   <g id="patch_2">
    <path d="M 56.599375 140.343307 
L 250.581265 140.343307 
L 250.581265 7.2 
L 56.599375 7.2 
L 56.599375 140.343307 
z
" style="fill: none"/>
   </g>
   <g id="matplotlib.axis_1">
    <g id="xtick_1">
     <g id="line2d_1">
      <path d="M 65.416734 140.343307 
L 65.416734 7.2 
" clip-path="url(#pf41913f78a)" style="fill: none; stroke: #b0b0b0; stroke-width: 0.8; stroke-linecap: square"/>
     </g>
     <g id="line2d_2">
      <defs>
       <path id="mdce03c4424" d="M 0 0 
L 0 3.5 
" style="stroke: #000000; stroke-width: 0.8"/>
      </defs>
      <g>
       <use xlink:href="#mdce03c4424" x="65.416734" y="140.343307" style="stroke: #000000; stroke-width: 0.8"/>
      </g>
     </g>
     <g id="text_1">
      <!-- 0 -->
      <g transform="translate(62.916734 154.287057) scale(0.1 -0.1)">
       <defs>
        <path id="TimesNewRomanPSMT-30" d="M 231 2094 
Q 231 2819 450 3342 
Q 669 3866 1031 4122 
Q 1313 4325 1613 4325 
Q 2100 4325 2488 3828 
Q 2972 3213 2972 2159 
Q 2972 1422 2759 906 
Q 2547 391 2217 158 
Q 1888 -75 1581 -75 
Q 975 -75 572 641 
Q 231 1244 231 2094 
z
M 844 2016 
Q 844 1141 1059 588 
Q 1238 122 1591 122 
Q 1759 122 1940 273 
Q 2122 425 2216 781 
Q 2359 1319 2359 2297 
Q 2359 3022 2209 3506 
Q 2097 3866 1919 4016 
Q 1791 4119 1609 4119 
Q 1397 4119 1231 3928 
Q 1006 3669 925 3112 
Q 844 2556 844 2016 
z
" transform="scale(0.015625)"/>
       </defs>
       <use xlink:href="#TimesNewRomanPSMT-30"/>
      </g>
     </g>
    </g>
    <g id="xtick_2">
     <g id="line2d_3">
      <path d="M 102.464731 140.343307 
L 102.464731 7.2 
" clip-path="url(#pf41913f78a)" style="fill: none; stroke: #b0b0b0; stroke-width: 0.8; stroke-linecap: square"/>
     </g>
     <g id="line2d_4">
      <g>
       <use xlink:href="#mdce03c4424" x="102.464731" y="140.343307" style="stroke: #000000; stroke-width: 0.8"/>
      </g>
     </g>
     <g id="text_2">
      <!-- 200 -->
      <g transform="translate(94.964731 154.287057) scale(0.1 -0.1)">
       <defs>
        <path id="TimesNewRomanPSMT-32" d="M 2934 816 
L 2638 0 
L 138 0 
L 138 116 
Q 1241 1122 1691 1759 
Q 2141 2397 2141 2925 
Q 2141 3328 1894 3587 
Q 1647 3847 1303 3847 
Q 991 3847 742 3664 
Q 494 3481 375 3128 
L 259 3128 
Q 338 3706 661 4015 
Q 984 4325 1469 4325 
Q 1984 4325 2329 3994 
Q 2675 3663 2675 3213 
Q 2675 2891 2525 2569 
Q 2294 2063 1775 1497 
Q 997 647 803 472 
L 1909 472 
Q 2247 472 2383 497 
Q 2519 522 2628 598 
Q 2738 675 2819 816 
L 2934 816 
z
" transform="scale(0.015625)"/>
       </defs>
       <use xlink:href="#TimesNewRomanPSMT-32"/>
       <use xlink:href="#TimesNewRomanPSMT-30" x="50"/>
       <use xlink:href="#TimesNewRomanPSMT-30" x="100"/>
      </g>
     </g>
    </g>
    <g id="xtick_3">
     <g id="line2d_5">
      <path d="M 139.512729 140.343307 
L 139.512729 7.2 
" clip-path="url(#pf41913f78a)" style="fill: none; stroke: #b0b0b0; stroke-width: 0.8; stroke-linecap: square"/>
     </g>
     <g id="line2d_6">
      <g>
       <use xlink:href="#mdce03c4424" x="139.512729" y="140.343307" style="stroke: #000000; stroke-width: 0.8"/>
      </g>
     </g>
     <g id="text_3">
      <!-- 400 -->
      <g transform="translate(132.012729 154.287057) scale(0.1 -0.1)">
       <defs>
        <path id="TimesNewRomanPSMT-34" d="M 2978 1563 
L 2978 1119 
L 2409 1119 
L 2409 0 
L 1894 0 
L 1894 1119 
L 100 1119 
L 100 1519 
L 2066 4325 
L 2409 4325 
L 2409 1563 
L 2978 1563 
z
M 1894 1563 
L 1894 3666 
L 406 1563 
L 1894 1563 
z
" transform="scale(0.015625)"/>
       </defs>
       <use xlink:href="#TimesNewRomanPSMT-34"/>
       <use xlink:href="#TimesNewRomanPSMT-30" x="50"/>
       <use xlink:href="#TimesNewRomanPSMT-30" x="100"/>
      </g>
     </g>
    </g>
    <g id="xtick_4">
     <g id="line2d_7">
      <path d="M 176.560727 140.343307 
L 176.560727 7.2 
" clip-path="url(#pf41913f78a)" style="fill: none; stroke: #b0b0b0; stroke-width: 0.8; stroke-linecap: square"/>
     </g>
     <g id="line2d_8">
      <g>
       <use xlink:href="#mdce03c4424" x="176.560727" y="140.343307" style="stroke: #000000; stroke-width: 0.8"/>
      </g>
     </g>
     <g id="text_4">
      <!-- 600 -->
      <g transform="translate(169.060727 154.287057) scale(0.1 -0.1)">
       <defs>
        <path id="TimesNewRomanPSMT-36" d="M 2869 4325 
L 2869 4209 
Q 2456 4169 2195 4045 
Q 1934 3922 1679 3669 
Q 1425 3416 1258 3105 
Q 1091 2794 978 2366 
Q 1428 2675 1881 2675 
Q 2316 2675 2634 2325 
Q 2953 1975 2953 1425 
Q 2953 894 2631 456 
Q 2244 -75 1606 -75 
Q 1172 -75 869 213 
Q 275 772 275 1663 
Q 275 2231 503 2743 
Q 731 3256 1154 3653 
Q 1578 4050 1965 4187 
Q 2353 4325 2688 4325 
L 2869 4325 
z
M 925 2138 
Q 869 1716 869 1456 
Q 869 1156 980 804 
Q 1091 453 1309 247 
Q 1469 100 1697 100 
Q 1969 100 2183 356 
Q 2397 613 2397 1088 
Q 2397 1622 2184 2012 
Q 1972 2403 1581 2403 
Q 1463 2403 1327 2353 
Q 1191 2303 925 2138 
z
" transform="scale(0.015625)"/>
       </defs>
       <use xlink:href="#TimesNewRomanPSMT-36"/>
       <use xlink:href="#TimesNewRomanPSMT-30" x="50"/>
       <use xlink:href="#TimesNewRomanPSMT-30" x="100"/>
      </g>
     </g>
    </g>
    <g id="xtick_5">
     <g id="line2d_9">
      <path d="M 213.608725 140.343307 
L 213.608725 7.2 
" clip-path="url(#pf41913f78a)" style="fill: none; stroke: #b0b0b0; stroke-width: 0.8; stroke-linecap: square"/>
     </g>
     <g id="line2d_10">
      <g>
       <use xlink:href="#mdce03c4424" x="213.608725" y="140.343307" style="stroke: #000000; stroke-width: 0.8"/>
      </g>
     </g>
     <g id="text_5">
      <!-- 800 -->
      <g transform="translate(206.108725 154.287057) scale(0.1 -0.1)">
       <defs>
        <path id="TimesNewRomanPSMT-38" d="M 1228 2134 
Q 725 2547 579 2797 
Q 434 3047 434 3316 
Q 434 3728 753 4026 
Q 1072 4325 1600 4325 
Q 2113 4325 2425 4047 
Q 2738 3769 2738 3413 
Q 2738 3175 2569 2928 
Q 2400 2681 1866 2347 
Q 2416 1922 2594 1678 
Q 2831 1359 2831 1006 
Q 2831 559 2490 242 
Q 2150 -75 1597 -75 
Q 994 -75 656 303 
Q 388 606 388 966 
Q 388 1247 577 1523 
Q 766 1800 1228 2134 
z
M 1719 2469 
Q 2094 2806 2194 3001 
Q 2294 3197 2294 3444 
Q 2294 3772 2109 3958 
Q 1925 4144 1606 4144 
Q 1288 4144 1088 3959 
Q 888 3775 888 3528 
Q 888 3366 970 3203 
Q 1053 3041 1206 2894 
L 1719 2469 
z
M 1375 2016 
Q 1116 1797 991 1539 
Q 866 1281 866 981 
Q 866 578 1086 336 
Q 1306 94 1647 94 
Q 1984 94 2187 284 
Q 2391 475 2391 747 
Q 2391 972 2272 1150 
Q 2050 1481 1375 2016 
z
" transform="scale(0.015625)"/>
       </defs>
       <use xlink:href="#TimesNewRomanPSMT-38"/>
       <use xlink:href="#TimesNewRomanPSMT-30" x="50"/>
       <use xlink:href="#TimesNewRomanPSMT-30" x="100"/>
      </g>
     </g>
    </g>
    <g id="text_6">
     <!-- Time (s) -->
     <g transform="translate(133.307507 168.75862) scale(0.12 -0.12)">
      <defs>
       <path id="TimesNewRomanPSMT-54" d="M 3703 4238 
L 3750 3244 
L 3631 3244 
Q 3597 3506 3538 3619 
Q 3441 3800 3280 3886 
Q 3119 3972 2856 3972 
L 2259 3972 
L 2259 734 
Q 2259 344 2344 247 
Q 2463 116 2709 116 
L 2856 116 
L 2856 0 
L 1059 0 
L 1059 116 
L 1209 116 
Q 1478 116 1591 278 
Q 1659 378 1659 734 
L 1659 3972 
L 1150 3972 
Q 853 3972 728 3928 
Q 566 3869 450 3700 
Q 334 3531 313 3244 
L 194 3244 
L 244 4238 
L 3703 4238 
z
" transform="scale(0.015625)"/>
       <path id="TimesNewRomanPSMT-69" d="M 928 4444 
Q 1059 4444 1151 4351 
Q 1244 4259 1244 4128 
Q 1244 3997 1151 3903 
Q 1059 3809 928 3809 
Q 797 3809 703 3903 
Q 609 3997 609 4128 
Q 609 4259 701 4351 
Q 794 4444 928 4444 
z
M 1188 2947 
L 1188 647 
Q 1188 378 1227 289 
Q 1266 200 1342 156 
Q 1419 113 1622 113 
L 1622 0 
L 231 0 
L 231 113 
Q 441 113 512 153 
Q 584 194 626 287 
Q 669 381 669 647 
L 669 1750 
Q 669 2216 641 2353 
Q 619 2453 572 2492 
Q 525 2531 444 2531 
Q 356 2531 231 2484 
L 188 2597 
L 1050 2947 
L 1188 2947 
z
" transform="scale(0.015625)"/>
       <path id="TimesNewRomanPSMT-6d" d="M 1050 2338 
Q 1363 2650 1419 2697 
Q 1559 2816 1721 2881 
Q 1884 2947 2044 2947 
Q 2313 2947 2506 2790 
Q 2700 2634 2766 2338 
Q 3088 2713 3309 2830 
Q 3531 2947 3766 2947 
Q 3994 2947 4170 2830 
Q 4347 2713 4450 2447 
Q 4519 2266 4519 1878 
L 4519 647 
Q 4519 378 4559 278 
Q 4591 209 4675 161 
Q 4759 113 4950 113 
L 4950 0 
L 3538 0 
L 3538 113 
L 3597 113 
Q 3781 113 3884 184 
Q 3956 234 3988 344 
Q 4000 397 4000 647 
L 4000 1878 
Q 4000 2228 3916 2372 
Q 3794 2572 3525 2572 
Q 3359 2572 3192 2489 
Q 3025 2406 2788 2181 
L 2781 2147 
L 2788 2013 
L 2788 647 
Q 2788 353 2820 281 
Q 2853 209 2943 161 
Q 3034 113 3253 113 
L 3253 0 
L 1806 0 
L 1806 113 
Q 2044 113 2133 169 
Q 2222 225 2256 338 
Q 2272 391 2272 647 
L 2272 1878 
Q 2272 2228 2169 2381 
Q 2031 2581 1784 2581 
Q 1616 2581 1450 2491 
Q 1191 2353 1050 2181 
L 1050 647 
Q 1050 366 1089 281 
Q 1128 197 1204 155 
Q 1281 113 1516 113 
L 1516 0 
L 100 0 
L 100 113 
Q 297 113 375 155 
Q 453 197 493 289 
Q 534 381 534 647 
L 534 1741 
Q 534 2213 506 2350 
Q 484 2453 437 2492 
Q 391 2531 309 2531 
Q 222 2531 100 2484 
L 53 2597 
L 916 2947 
L 1050 2947 
L 1050 2338 
z
" transform="scale(0.015625)"/>
       <path id="TimesNewRomanPSMT-65" d="M 681 1784 
Q 678 1147 991 784 
Q 1303 422 1725 422 
Q 2006 422 2214 576 
Q 2422 731 2563 1106 
L 2659 1044 
Q 2594 616 2278 264 
Q 1963 -88 1488 -88 
Q 972 -88 605 314 
Q 238 716 238 1394 
Q 238 2128 614 2539 
Q 991 2950 1559 2950 
Q 2041 2950 2350 2633 
Q 2659 2316 2659 1784 
L 681 1784 
z
M 681 1966 
L 2006 1966 
Q 1991 2241 1941 2353 
Q 1863 2528 1708 2628 
Q 1553 2728 1384 2728 
Q 1125 2728 920 2526 
Q 716 2325 681 1966 
z
" transform="scale(0.015625)"/>
       <path id="TimesNewRomanPSMT-20" transform="scale(0.015625)"/>
       <path id="TimesNewRomanPSMT-28" d="M 1988 -1253 
L 1988 -1369 
Q 1516 -1131 1200 -813 
Q 750 -359 506 256 
Q 263 872 263 1534 
Q 263 2503 741 3301 
Q 1219 4100 1988 4444 
L 1988 4313 
Q 1603 4100 1356 3731 
Q 1109 3363 987 2797 
Q 866 2231 866 1616 
Q 866 947 969 400 
Q 1050 -31 1165 -292 
Q 1281 -553 1476 -793 
Q 1672 -1034 1988 -1253 
z
" transform="scale(0.015625)"/>
       <path id="TimesNewRomanPSMT-73" d="M 2050 2947 
L 2050 1972 
L 1947 1972 
Q 1828 2431 1642 2597 
Q 1456 2763 1169 2763 
Q 950 2763 815 2647 
Q 681 2531 681 2391 
Q 681 2216 781 2091 
Q 878 1963 1175 1819 
L 1631 1597 
Q 2266 1288 2266 781 
Q 2266 391 1970 151 
Q 1675 -88 1309 -88 
Q 1047 -88 709 6 
Q 606 38 541 38 
Q 469 38 428 -44 
L 325 -44 
L 325 978 
L 428 978 
Q 516 541 762 319 
Q 1009 97 1316 97 
Q 1531 97 1667 223 
Q 1803 350 1803 528 
Q 1803 744 1651 891 
Q 1500 1038 1047 1263 
Q 594 1488 453 1669 
Q 313 1847 313 2119 
Q 313 2472 555 2709 
Q 797 2947 1181 2947 
Q 1350 2947 1591 2875 
Q 1750 2828 1803 2828 
Q 1853 2828 1881 2850 
Q 1909 2872 1947 2947 
L 2050 2947 
z
" transform="scale(0.015625)"/>
       <path id="TimesNewRomanPSMT-29" d="M 144 4313 
L 144 4444 
Q 619 4209 934 3891 
Q 1381 3434 1625 2820 
Q 1869 2206 1869 1541 
Q 1869 572 1392 -226 
Q 916 -1025 144 -1369 
L 144 -1253 
Q 528 -1038 776 -670 
Q 1025 -303 1145 264 
Q 1266 831 1266 1447 
Q 1266 2113 1163 2663 
Q 1084 3094 967 3353 
Q 850 3613 656 3853 
Q 463 4094 144 4313 
z
" transform="scale(0.015625)"/>
      </defs>
      <use xlink:href="#TimesNewRomanPSMT-54"/>
      <use xlink:href="#TimesNewRomanPSMT-69" x="57.583984"/>
      <use xlink:href="#TimesNewRomanPSMT-6d" x="85.367188"/>
      <use xlink:href="#TimesNewRomanPSMT-65" x="163.150391"/>
      <use xlink:href="#TimesNewRomanPSMT-20" x="207.535156"/>
      <use xlink:href="#TimesNewRomanPSMT-28" x="232.535156"/>
      <use xlink:href="#TimesNewRomanPSMT-73" x="265.835938"/>
      <use xlink:href="#TimesNewRomanPSMT-29" x="304.751953"/>
     </g>
    </g>
   </g>
   <g id="matplotlib.axis_2">
    <g id="ytick_1">
     <g id="line2d_11">
      <path d="M 56.599375 134.291339 
L 250.581265 134.291339 
" clip-path="url(#pf41913f78a)" style="fill: none; stroke: #b0b0b0; stroke-width: 0.8; stroke-linecap: square"/>
     </g>
     <g id="line2d_12">
      <defs>
       <path id="ma8ec24672d" d="M 0 0 
L -3.5 0 
" style="stroke: #000000; stroke-width: 0.8"/>
      </defs>
      <g>
       <use xlink:href="#ma8ec24672d" x="56.599375" y="134.291339" style="stroke: #000000; stroke-width: 0.8"/>
      </g>
     </g>
     <g id="text_7">
      <!-- 0.0000 -->
      <g transform="translate(22.099375 137.763214) scale(0.1 -0.1)">
       <defs>
        <path id="TimesNewRomanPSMT-2e" d="M 800 606 
Q 947 606 1047 504 
Q 1147 403 1147 259 
Q 1147 116 1045 14 
Q 944 -88 800 -88 
Q 656 -88 554 14 
Q 453 116 453 259 
Q 453 406 554 506 
Q 656 606 800 606 
z
" transform="scale(0.015625)"/>
       </defs>
       <use xlink:href="#TimesNewRomanPSMT-30"/>
       <use xlink:href="#TimesNewRomanPSMT-2e" x="50"/>
       <use xlink:href="#TimesNewRomanPSMT-30" x="75"/>
       <use xlink:href="#TimesNewRomanPSMT-30" x="125"/>
       <use xlink:href="#TimesNewRomanPSMT-30" x="175"/>
       <use xlink:href="#TimesNewRomanPSMT-30" x="225"/>
      </g>
     </g>
    </g>
    <g id="ytick_2">
     <g id="line2d_13">
      <path d="M 56.599375 90.388774 
L 250.581265 90.388774 
" clip-path="url(#pf41913f78a)" style="fill: none; stroke: #b0b0b0; stroke-width: 0.8; stroke-linecap: square"/>
     </g>
     <g id="line2d_14">
      <g>
       <use xlink:href="#ma8ec24672d" x="56.599375" y="90.388774" style="stroke: #000000; stroke-width: 0.8"/>
      </g>
     </g>
     <g id="text_8">
      <!-- 0.0002 -->
      <g transform="translate(22.099375 93.860649) scale(0.1 -0.1)">
       <use xlink:href="#TimesNewRomanPSMT-30"/>
       <use xlink:href="#TimesNewRomanPSMT-2e" x="50"/>
       <use xlink:href="#TimesNewRomanPSMT-30" x="75"/>
       <use xlink:href="#TimesNewRomanPSMT-30" x="125"/>
       <use xlink:href="#TimesNewRomanPSMT-30" x="175"/>
       <use xlink:href="#TimesNewRomanPSMT-32" x="225"/>
      </g>
     </g>
    </g>
    <g id="ytick_3">
     <g id="line2d_15">
      <path d="M 56.599375 46.48621 
L 250.581265 46.48621 
" clip-path="url(#pf41913f78a)" style="fill: none; stroke: #b0b0b0; stroke-width: 0.8; stroke-linecap: square"/>
     </g>
     <g id="line2d_16">
      <g>
       <use xlink:href="#ma8ec24672d" x="56.599375" y="46.48621" style="stroke: #000000; stroke-width: 0.8"/>
      </g>
     </g>
     <g id="text_9">
      <!-- 0.0004 -->
      <g transform="translate(22.099375 49.958085) scale(0.1 -0.1)">
       <use xlink:href="#TimesNewRomanPSMT-30"/>
       <use xlink:href="#TimesNewRomanPSMT-2e" x="50"/>
       <use xlink:href="#TimesNewRomanPSMT-30" x="75"/>
       <use xlink:href="#TimesNewRomanPSMT-30" x="125"/>
       <use xlink:href="#TimesNewRomanPSMT-30" x="175"/>
       <use xlink:href="#TimesNewRomanPSMT-34" x="225"/>
      </g>
     </g>
    </g>
    <g id="text_10">
     <!-- RI variation -->
     <g transform="translate(15.5325 102.596966) rotate(-90) scale(0.12 -0.12)">
      <defs>
       <path id="TimesNewRomanPSMT-52" d="M 4325 0 
L 3194 0 
L 1759 1981 
Q 1600 1975 1500 1975 
Q 1459 1975 1412 1976 
Q 1366 1978 1316 1981 
L 1316 750 
Q 1316 350 1403 253 
Q 1522 116 1759 116 
L 1925 116 
L 1925 0 
L 109 0 
L 109 116 
L 269 116 
Q 538 116 653 291 
Q 719 388 719 750 
L 719 3488 
Q 719 3888 631 3984 
Q 509 4122 269 4122 
L 109 4122 
L 109 4238 
L 1653 4238 
Q 2328 4238 2648 4139 
Q 2969 4041 3192 3777 
Q 3416 3513 3416 3147 
Q 3416 2756 3161 2468 
Q 2906 2181 2372 2063 
L 3247 847 
Q 3547 428 3762 290 
Q 3978 153 4325 116 
L 4325 0 
z
M 1316 2178 
Q 1375 2178 1419 2176 
Q 1463 2175 1491 2175 
Q 2097 2175 2405 2437 
Q 2713 2700 2713 3106 
Q 2713 3503 2464 3751 
Q 2216 4000 1806 4000 
Q 1625 4000 1316 3941 
L 1316 2178 
z
" transform="scale(0.015625)"/>
       <path id="TimesNewRomanPSMT-49" d="M 1975 116 
L 1975 0 
L 159 0 
L 159 116 
L 309 116 
Q 572 116 691 269 
Q 766 369 766 750 
L 766 3488 
Q 766 3809 725 3913 
Q 694 3991 597 4047 
Q 459 4122 309 4122 
L 159 4122 
L 159 4238 
L 1975 4238 
L 1975 4122 
L 1822 4122 
Q 1563 4122 1444 3969 
Q 1366 3869 1366 3488 
L 1366 750 
Q 1366 428 1406 325 
Q 1438 247 1538 191 
Q 1672 116 1822 116 
L 1975 116 
z
" transform="scale(0.015625)"/>
       <path id="TimesNewRomanPSMT-76" d="M 53 2863 
L 1400 2863 
L 1400 2747 
L 1313 2747 
Q 1191 2747 1127 2687 
Q 1063 2628 1063 2528 
Q 1063 2419 1128 2269 
L 1794 688 
L 2463 2328 
Q 2534 2503 2534 2594 
Q 2534 2638 2509 2666 
Q 2475 2713 2422 2730 
Q 2369 2747 2206 2747 
L 2206 2863 
L 3141 2863 
L 3141 2747 
Q 2978 2734 2916 2681 
Q 2806 2588 2719 2369 
L 1703 -88 
L 1575 -88 
L 553 2328 
Q 484 2497 421 2570 
Q 359 2644 263 2694 
Q 209 2722 53 2747 
L 53 2863 
z
" transform="scale(0.015625)"/>
       <path id="TimesNewRomanPSMT-61" d="M 1822 413 
Q 1381 72 1269 19 
Q 1100 -59 909 -59 
Q 613 -59 420 144 
Q 228 347 228 678 
Q 228 888 322 1041 
Q 450 1253 767 1440 
Q 1084 1628 1822 1897 
L 1822 2009 
Q 1822 2438 1686 2597 
Q 1550 2756 1291 2756 
Q 1094 2756 978 2650 
Q 859 2544 859 2406 
L 866 2225 
Q 866 2081 792 2003 
Q 719 1925 600 1925 
Q 484 1925 411 2006 
Q 338 2088 338 2228 
Q 338 2497 613 2722 
Q 888 2947 1384 2947 
Q 1766 2947 2009 2819 
Q 2194 2722 2281 2516 
Q 2338 2381 2338 1966 
L 2338 994 
Q 2338 584 2353 492 
Q 2369 400 2405 369 
Q 2441 338 2488 338 
Q 2538 338 2575 359 
Q 2641 400 2828 588 
L 2828 413 
Q 2478 -56 2159 -56 
Q 2006 -56 1915 50 
Q 1825 156 1822 413 
z
M 1822 616 
L 1822 1706 
Q 1350 1519 1213 1441 
Q 966 1303 859 1153 
Q 753 1003 753 825 
Q 753 600 887 451 
Q 1022 303 1197 303 
Q 1434 303 1822 616 
z
" transform="scale(0.015625)"/>
       <path id="TimesNewRomanPSMT-72" d="M 1038 2947 
L 1038 2303 
Q 1397 2947 1775 2947 
Q 1947 2947 2059 2842 
Q 2172 2738 2172 2600 
Q 2172 2478 2090 2393 
Q 2009 2309 1897 2309 
Q 1788 2309 1652 2417 
Q 1516 2525 1450 2525 
Q 1394 2525 1328 2463 
Q 1188 2334 1038 2041 
L 1038 669 
Q 1038 431 1097 309 
Q 1138 225 1241 169 
Q 1344 113 1538 113 
L 1538 0 
L 72 0 
L 72 113 
Q 291 113 397 181 
Q 475 231 506 341 
Q 522 394 522 644 
L 522 1753 
Q 522 2253 501 2348 
Q 481 2444 426 2487 
Q 372 2531 291 2531 
Q 194 2531 72 2484 
L 41 2597 
L 906 2947 
L 1038 2947 
z
" transform="scale(0.015625)"/>
       <path id="TimesNewRomanPSMT-74" d="M 1031 3803 
L 1031 2863 
L 1700 2863 
L 1700 2644 
L 1031 2644 
L 1031 788 
Q 1031 509 1111 412 
Q 1191 316 1316 316 
Q 1419 316 1516 380 
Q 1613 444 1666 569 
L 1788 569 
Q 1678 263 1478 108 
Q 1278 -47 1066 -47 
Q 922 -47 784 33 
Q 647 113 581 261 
Q 516 409 516 719 
L 516 2644 
L 63 2644 
L 63 2747 
Q 234 2816 414 2980 
Q 594 3144 734 3369 
Q 806 3488 934 3803 
L 1031 3803 
z
" transform="scale(0.015625)"/>
       <path id="TimesNewRomanPSMT-6f" d="M 1600 2947 
Q 2250 2947 2644 2453 
Q 2978 2031 2978 1484 
Q 2978 1100 2793 706 
Q 2609 313 2286 112 
Q 1963 -88 1566 -88 
Q 919 -88 538 428 
Q 216 863 216 1403 
Q 216 1797 411 2186 
Q 606 2575 925 2761 
Q 1244 2947 1600 2947 
z
M 1503 2744 
Q 1338 2744 1170 2645 
Q 1003 2547 900 2300 
Q 797 2053 797 1666 
Q 797 1041 1045 587 
Q 1294 134 1700 134 
Q 2003 134 2200 384 
Q 2397 634 2397 1244 
Q 2397 2006 2069 2444 
Q 1847 2744 1503 2744 
z
" transform="scale(0.015625)"/>
       <path id="TimesNewRomanPSMT-6e" d="M 1034 2341 
Q 1538 2947 1994 2947 
Q 2228 2947 2397 2830 
Q 2566 2713 2666 2444 
Q 2734 2256 2734 1869 
L 2734 647 
Q 2734 375 2778 278 
Q 2813 200 2889 156 
Q 2966 113 3172 113 
L 3172 0 
L 1756 0 
L 1756 113 
L 1816 113 
Q 2016 113 2095 173 
Q 2175 234 2206 353 
Q 2219 400 2219 647 
L 2219 1819 
Q 2219 2209 2117 2386 
Q 2016 2563 1775 2563 
Q 1403 2563 1034 2156 
L 1034 647 
Q 1034 356 1069 288 
Q 1113 197 1189 155 
Q 1266 113 1500 113 
L 1500 0 
L 84 0 
L 84 113 
L 147 113 
Q 366 113 442 223 
Q 519 334 519 647 
L 519 1709 
Q 519 2225 495 2337 
Q 472 2450 423 2490 
Q 375 2531 294 2531 
Q 206 2531 84 2484 
L 38 2597 
L 900 2947 
L 1034 2947 
L 1034 2341 
z
" transform="scale(0.015625)"/>
      </defs>
      <use xlink:href="#TimesNewRomanPSMT-52"/>
      <use xlink:href="#TimesNewRomanPSMT-49" x="66.699219"/>
      <use xlink:href="#TimesNewRomanPSMT-20" x="100"/>
      <use xlink:href="#TimesNewRomanPSMT-76" x="125"/>
      <use xlink:href="#TimesNewRomanPSMT-61" x="175"/>
      <use xlink:href="#TimesNewRomanPSMT-72" x="219.384766"/>
      <use xlink:href="#TimesNewRomanPSMT-69" x="252.685547"/>
      <use xlink:href="#TimesNewRomanPSMT-61" x="280.46875"/>
      <use xlink:href="#TimesNewRomanPSMT-74" x="324.853516"/>
      <use xlink:href="#TimesNewRomanPSMT-69" x="352.636719"/>
      <use xlink:href="#TimesNewRomanPSMT-6f" x="380.419922"/>
      <use xlink:href="#TimesNewRomanPSMT-6e" x="430.419922"/>
     </g>
    </g>
   </g>
   <g id="line2d_17">
    <path d="M 65.416734 134.291339 
L 65.787769 129.044982 
L 66.900506 108.103459 
L 67.271542 104.459546 
L 68.013428 92.869269 
L 68.755314 87.776572 
L 69.126164 86.261933 
L 69.4972 85.537541 
L 69.856936 86.964374 
L 70.227787 82.398507 
L 70.598822 80.532648 
L 70.969673 76.80093 
L 71.340708 75.571659 
L 71.711559 74.847266 
L 72.082595 75.791172 
L 72.824481 69.205787 
L 73.195516 73.661897 
L 73.566367 69.315543 
L 73.937403 68.700907 
L 74.319553 65.737484 
L 74.690403 66.198461 
L 75.061439 67.361879 
L 75.432475 63.191136 
L 76.174361 65.32041 
L 76.545211 62.24723 
L 76.916247 64.63992 
L 77.287097 60.491128 
L 77.658133 62.356987 
L 78.028983 60.666738 
L 78.38872 61.7204 
L 78.748456 59.415515 
L 79.119491 59.196002 
L 79.490342 55.266723 
L 79.861377 54.520379 
L 80.232228 56.737459 
L 80.603264 57.308192 
L 80.974114 55.266723 
L 81.34515 57.527705 
L 81.716 51.886225 
L 82.087036 49.998415 
L 82.457886 51.644761 
L 82.828922 51.952079 
L 83.199773 49.383779 
L 83.570808 51.97403 
L 83.941659 51.535005 
L 84.312694 53.752084 
L 84.68373 51.930128 
L 85.054581 47.781335 
L 85.425616 49.164266 
L 85.796467 49.954512 
L 86.167502 50.042317 
L 86.538353 48.264264 
L 86.909389 50.547197 
L 87.280239 51.271589 
L 87.639975 48.615484 
L 88.011011 48.681338 
L 88.381861 49.647194 
L 88.752897 49.295974 
L 89.123747 47.276456 
L 89.494783 50.788661 
L 89.865634 45.344743 
L 90.236669 44.795961 
L 90.60752 45.717915 
L 90.978555 43.852056 
L 91.349591 43.522787 
L 91.720442 42.008148 
L 92.091477 42.688638 
L 92.462328 42.513028 
L 92.833363 38.188625 
L 93.204214 42.491076 
L 93.57525 43.149615 
L 93.9461 41.87644 
L 94.317136 43.083761 
L 94.687986 42.008148 
L 95.059022 42.38132 
L 95.429872 41.678879 
L 96.171758 43.215469 
L 96.542794 39.220335 
L 96.91383 42.074002 
L 97.273381 40.822779 
L 97.655716 38.978871 
L 98.015267 42.359369 
L 98.386303 44.686205 
L 98.757338 38.430089 
L 99.128189 41.283756 
L 99.499224 37.113012 
L 99.870075 39.417897 
L 100.241111 40.098387 
L 100.982997 38.034966 
L 101.353847 36.542279 
L 101.724883 39.769117 
L 102.095733 37.42033 
L 102.466769 38.825212 
L 102.837619 36.717889 
L 103.208655 37.091061 
L 103.579506 37.793502 
L 104.321577 35.005689 
L 104.692427 33.99593 
L 105.052164 34.895933 
L 105.79405 35.839838 
L 106.165085 38.583748 
L 106.906972 35.905692 
L 107.277822 36.037399 
L 107.648858 36.959353 
L 108.019708 38.430089 
L 108.390744 34.961787 
L 108.761594 37.508135 
L 109.13263 37.991064 
L 109.50348 37.639843 
L 110.245367 39.681312 
L 110.616402 37.266671 
L 110.987438 37.091061 
L 111.358288 35.071543 
L 111.729324 34.237394 
L 112.100175 33.732515 
L 112.47121 35.971546 
L 112.842061 36.893499 
L 113.213096 36.56423 
L 113.583947 36.586181 
L 113.943683 34.347151 
L 114.314719 34.303248 
L 114.685569 31.888607 
L 115.056605 33.710564 
L 115.427455 34.588615 
L 115.798491 31.734948 
L 116.169341 31.449581 
L 116.540377 32.525194 
L 116.911228 32.547146 
L 117.653114 34.083735 
L 118.024149 31.888607 
L 118.395185 31.669094 
L 118.777335 35.35691 
L 119.148186 32.261779 
L 119.519221 32.722756 
L 119.878957 26.378835 
L 120.249808 30.39592 
L 120.620844 32.832512 
L 120.991694 33.864222 
L 121.36273 31.647143 
L 121.73358 32.78861 
L 122.104616 32.327633 
L 122.475466 29.649576 
L 122.835202 31.866656 
L 123.206238 29.36421 
L 123.577089 28.354451 
L 123.948124 33.403246 
L 124.318975 29.254453 
L 124.69001 29.078843 
L 125.060861 26.927617 
L 125.431897 30.132505 
L 125.814047 28.464207 
L 126.185082 32.173974 
L 126.544818 32.591048 
L 126.915669 28.639817 
L 127.286705 30.352017 
L 127.657555 25.764199 
L 128.028591 29.056892 
L 128.399441 28.793476 
L 128.770477 29.408112 
L 129.141327 28.420305 
L 129.512363 31.339825 
L 129.883214 27.103228 
L 130.254249 29.36421 
L 130.625285 27.278838 
L 130.996135 29.583722 
L 131.367171 26.686153 
L 131.738022 27.849571 
L 132.097758 29.605674 
L 132.468793 28.310548 
L 132.839644 28.815428 
L 133.210679 28.639817 
L 133.58153 28.112987 
L 133.952566 27.893474 
L 134.323416 28.376402 
L 134.694452 26.488592 
L 135.436338 29.122746 
L 135.807188 28.266646 
L 136.178224 28.244694 
L 136.549075 26.093469 
L 136.92011 28.749574 
L 137.290961 30.242261 
L 137.661996 27.191033 
L 138.033032 29.495917 
L 138.403883 29.254453 
L 138.774918 28.815428 
L 139.145769 29.012989 
L 139.516804 29.03494 
L 139.887655 29.495917 
L 140.247391 29.386161 
L 140.618427 29.825187 
L 140.989277 27.871522 
L 141.360313 28.134938 
L 141.731163 28.00323 
L 142.102199 31.844705 
L 142.473049 26.554446 
L 142.844085 29.144697 
L 143.214935 28.222743 
L 143.956822 28.595915 
L 144.327857 28.156889 
L 144.698893 29.869089 
L 145.081043 27.256887 
L 145.440779 28.266646 
L 145.81163 30.659335 
L 146.553516 28.17884 
L 146.924552 25.742248 
L 147.295402 27.673961 
L 147.666438 25.632492 
L 148.037288 25.61054 
L 148.408324 24.644684 
L 148.779174 22.295897 
L 149.13891 27.037374 
L 149.52106 27.015422 
L 149.892096 24.512976 
L 150.263132 25.369076 
L 150.622683 27.14713 
L 150.993718 25.281271 
L 151.364569 26.049566 
L 151.735604 28.200792 
L 152.10664 25.149563 
L 152.477491 25.566638 
L 152.848526 26.444689 
L 153.219377 25.852004 
L 153.590413 22.581263 
L 153.961263 26.949569 
L 154.332299 24.205658 
L 154.703149 24.381269 
L 155.074185 27.893474 
L 155.445035 25.873956 
L 155.816071 22.405653 
L 156.186921 24.491025 
L 156.557957 23.986146 
L 156.928808 21.15443 
L 157.299843 23.942243 
L 157.670879 19.288571 
L 158.041729 25.764199 
L 158.412765 24.688587 
L 158.783616 22.603215 
L 159.154651 23.656876 
L 159.514387 23.217851 
L 159.885238 25.764199 
L 160.256273 25.830053 
L 160.627124 20.781258 
L 160.99816 21.110528 
L 161.36901 23.020289 
L 161.740046 21.681261 
L 162.110896 21.483699 
L 162.852782 25.720297 
L 163.223818 24.842246 
L 163.594669 25.237369 
L 163.977004 25.852004 
L 164.70759 22.405653 
L 165.078626 24.008097 
L 165.449477 22.998338 
L 165.820512 25.742248 
L 166.191363 25.742248 
L 166.562398 23.810535 
L 166.933249 24.271512 
L 167.292985 25.369076 
L 167.664021 26.027615 
L 168.034871 24.666635 
L 168.405907 22.69102 
L 168.776757 24.886148 
L 169.518643 21.198333 
L 169.900979 25.830053 
L 170.271829 21.066625 
L 170.631565 23.634925 
L 171.002416 24.644684 
L 171.373451 23.503217 
L 171.744487 24.75444 
L 172.115338 26.532494 
L 172.486373 25.654443 
L 172.857224 26.005663 
L 173.228259 25.43493 
L 173.59911 23.437363 
L 174.340996 24.293463 
L 174.712032 22.603215 
L 175.094182 25.08371 
L 176.184504 23.37151 
L 176.55554 20.80321 
L 176.926391 25.369076 
L 177.668277 23.920292 
L 178.039312 20.451989 
L 178.410163 20.12272 
L 178.781199 25.412979 
L 179.152234 24.534928 
L 179.523085 23.239802 
L 179.89412 26.554446 
L 180.636007 24.117853 
L 181.006857 25.895907 
L 181.377893 25.566638 
L 181.748743 23.283704 
L 182.119779 23.261753 
L 182.490629 24.205658 
L 182.861665 22.01053 
L 183.232515 24.644684 
L 183.603551 24.469074 
L 183.974587 24.842246 
L 184.334138 25.478833 
L 184.705173 25.456881 
L 185.076024 24.22761 
L 185.44706 25.917858 
L 185.818095 24.161756 
L 186.188946 21.286138 
L 186.559981 24.40322 
L 186.930832 23.832487 
L 187.684018 24.776392 
L 188.054868 22.164189 
L 188.414604 21.286138 
L 188.78564 23.569071 
L 189.15649 22.51541 
L 189.527526 23.04224 
L 189.898376 21.308089 
L 190.269412 21.220284 
L 190.640263 20.715404 
L 191.011298 20.891015 
L 191.382334 18.476374 
L 191.753184 21.527602 
L 192.495071 20.254428 
L 192.866106 21.417845 
L 193.225842 22.142238 
L 193.596693 23.678828 
L 193.967729 22.273945 
L 194.338579 22.098335 
L 194.709615 21.703212 
L 195.080465 20.671502 
L 195.451501 23.964194 
L 195.822351 21.33004 
L 196.193387 22.493458 
L 196.564237 21.747115 
L 196.935273 22.18614 
L 197.306124 22.800776 
L 197.677159 21.571504 
L 198.048195 22.471507 
L 198.419045 21.395894 
L 198.790081 21.33004 
L 199.160932 20.847112 
L 199.531967 19.44223 
L 199.902818 22.603215 
L 200.273853 22.449556 
L 201.01574 20.627599 
L 201.38659 21.615407 
L 201.757626 22.273945 
L 202.117362 21.900774 
L 202.488212 21.15443 
L 202.859248 14.744656 
L 203.230098 16.610515 
L 203.601134 15.66661 
L 203.971985 15.578804 
L 204.34302 17.883689 
L 204.72517 17.027589 
L 205.084906 17.861738 
L 205.467057 15.249535 
L 205.838092 17.422712 
L 206.197828 18.498325 
L 206.568679 19.244669 
L 206.939714 22.361751 
L 207.681601 22.800776 
L 208.423487 20.956869 
L 208.794337 21.725163 
L 209.536223 20.934917 
L 209.907259 21.549553 
L 210.27811 22.669069 
L 210.637846 22.054433 
L 211.008881 21.900774 
L 212.132918 23.305656 
L 212.503953 21.791017 
L 212.874804 21.988579 
L 213.245839 20.847112 
L 213.61669 21.439797 
L 213.976426 22.51541 
L 214.347462 19.991012 
L 214.718312 22.098335 
L 215.089348 21.725163 
L 215.460198 18.783692 
L 215.831234 21.856871 
L 216.202084 21.33004 
L 216.57312 21.483699 
L 217.315006 20.934917 
L 217.686042 21.264187 
L 218.056892 22.032481 
L 218.427928 23.481266 
L 218.798779 24.008097 
L 219.169814 23.854438 
L 219.52955 22.427604 
L 219.900401 20.47394 
L 220.271436 20.561745 
L 221.013323 18.037348 
L 221.384173 19.003204 
L 222.126059 20.056866 
L 222.497095 16.083684 
L 222.867945 14.48124 
L 223.238981 14.98612 
L 223.609832 13.317822 
L 223.980867 14.48124 
L 224.351718 16.127586 
L 224.722753 20.056866 
L 225.104903 18.278812 
L 225.475939 17.751981 
L 225.84679 18.827594 
L 226.217825 18.344666 
L 226.577561 18.23491 
L 226.948412 15.425145 
L 227.690298 18.937351 
L 228.061334 17.291004 
L 228.42107 16.259294 
L 228.79192 14.547094 
L 229.162956 16.566612 
L 229.533806 16.588563 
L 230.275693 13.427579 
L 231.017579 16.676369 
L 231.388614 18.015397 
L 232.130501 18.608081 
L 232.501536 14.13002 
L 232.872387 16.851979 
L 233.243422 16.917833 
L 233.614273 18.015397 
L 233.985309 17.839786 
L 234.356159 16.259294 
L 234.727195 17.993445 
L 235.098045 17.312956 
L 235.469081 15.073925 
L 235.839931 16.215392 
L 236.210967 13.251969 
L 236.581817 15.051974 
L 237.312589 16.983686 
L 237.68344 17.115394 
L 238.054475 14.108069 
L 238.425326 15.051974 
L 238.796362 14.371484 
L 238.796362 14.371484 
" clip-path="url(#pf41913f78a)" style="fill: none; stroke: #1f77b4; stroke-width: 1.5; stroke-linecap: square"/>
   </g>
   <g id="line2d_18">
    <path d="M 65.416734 134.291339 
L 65.787769 132.118162 
L 66.15862 127.266928 
L 66.900506 121.405936 
L 68.013428 102.879054 
L 68.384463 105.20589 
L 69.12635 96.513182 
L 69.4972 98.159528 
L 69.856936 97.369282 
L 70.227972 95.766838 
L 70.598822 90.65219 
L 70.969858 91.200972 
L 71.340708 90.454628 
L 71.711744 85.230223 
L 72.082595 86.942423 
L 72.46493 82.552166 
L 72.824481 81.630213 
L 73.195516 84.988759 
L 73.937403 76.361905 
L 74.308438 81.213138 
L 74.701703 72.630187 
L 75.443589 70.325302 
L 75.792211 75.330195 
L 76.163061 78.644838 
L 76.534097 78.118007 
L 76.904947 72.893602 
L 77.287097 73.003359 
L 77.646833 76.669223 
L 78.017869 71.708233 
L 78.377605 77.942397 
L 78.748456 74.693607 
L 79.119491 76.62532 
L 79.490342 74.627754 
L 79.861377 74.803364 
L 80.232228 68.74481 
L 80.614563 67.625295 
L 80.974114 74.496046 
L 81.34515 74.078971 
L 81.716185 74.364338 
L 82.087036 72.586284 
L 82.458072 72.037502 
L 82.828922 66.922853 
L 83.211072 71.093597 
L 83.570808 66.461877 
L 83.941844 72.696041 
L 84.312694 66.35212 
L 85.06588 74.715559 
L 85.425616 75.022877 
L 85.796467 74.166777 
L 86.167502 71.071646 
L 86.898089 72.761895 
L 87.269125 66.900902 
L 87.651275 69.996033 
L 88.011011 71.817989 
L 88.381861 67.844807 
L 88.752897 65.100897 
L 89.123933 68.722859 
L 89.494783 70.852133 
L 89.865819 71.598477 
L 90.247969 65.539923 
L 90.607705 67.38383 
L 90.978555 64.178943 
L 91.349591 62.510646 
L 91.720442 69.381397 
L 92.091477 65.847241 
L 92.462328 66.066753 
L 92.844663 62.510646 
L 93.204214 69.513105 
L 93.57525 71.225305 
L 93.946285 69.60091 
L 94.317136 70.676523 
L 94.699286 69.117982 
L 95.059022 62.554548 
L 95.430058 61.874059 
L 95.800908 63.10333 
L 96.160644 67.976515 
L 96.90253 68.349687 
L 97.273566 66.374071 
L 97.655716 69.732618 
L 98.015452 66.17651 
L 98.386303 69.77652 
L 98.757338 61.830156 
L 99.128189 64.376505 
L 99.499224 63.674064 
L 99.870075 62.664305 
L 100.241111 71.049695 
L 100.623261 68.349687 
L 100.982997 70.413107 
L 101.354032 65.342361 
L 101.724883 67.647246 
L 102.095919 69.161884 
L 102.466769 66.813097 
L 102.837805 60.205761 
L 103.208655 66.022851 
L 103.579691 58.998441 
L 103.950541 65.210653 
L 104.321577 61.259423 
L 104.681313 63.60821 
L 105.052164 63.586259 
L 105.423199 62.422841 
L 105.79405 58.361853 
L 106.165085 57.527705 
L 106.535936 58.888684 
L 106.918271 58.405756 
L 107.277822 65.386264 
L 107.648858 66.330169 
L 108.019893 66.703341 
L 108.390744 58.625269 
L 108.76178 60.074053 
L 109.13263 63.542356 
L 109.503666 63.213087 
L 109.885816 67.625295 
L 110.245552 62.269182 
L 110.616402 66.703341 
L 110.987438 60.0082 
L 111.358288 67.757002 
L 111.729324 66.944805 
L 112.100175 62.598451 
L 112.47121 66.769195 
L 112.85336 66.220412 
L 113.201797 58.186243 
L 113.572833 63.717966 
L 113.954983 61.676497 
L 114.314719 64.46431 
L 114.685569 60.666738 
L 115.056605 61.325277 
L 115.427641 62.466743 
L 115.798491 59.898443 
L 116.169527 64.596018 
L 116.540377 55.661846 
L 116.911413 61.369179 
L 117.282263 58.361853 
L 118.024149 62.093571 
L 118.395185 62.598451 
L 118.766036 58.208194 
L 119.137071 63.213087 
L 119.507922 59.635028 
L 119.890257 59.415515 
L 120.249808 55.574041 
L 120.620844 60.425274 
L 120.991879 55.859407 
L 121.36273 58.581366 
L 121.733765 55.617943 
L 122.093316 55.025259 
L 122.464352 56.737459 
L 122.835388 59.700882 
L 123.206238 55.683797 
L 123.577274 57.637461 
L 123.959424 61.061861 
L 124.31916 59.064294 
L 124.69001 54.674038 
L 125.061046 56.430141 
L 125.431897 55.244771 
L 125.802932 60.35942 
L 126.173783 59.656979 
L 126.544818 61.698448 
L 127.286705 54.761843 
L 127.65774 62.466743 
L 128.028591 54.300866 
L 128.770477 50.437441 
L 129.141513 53.203302 
L 129.512363 52.939887 
L 129.894513 58.82283 
L 130.254249 62.291133 
L 130.625285 57.527705 
L 130.985021 55.530138 
L 131.355871 56.013066 
L 131.738022 58.954538 
L 132.097758 58.691123 
L 132.468793 55.969164 
L 132.839644 54.674038 
L 133.210679 52.149641 
L 133.58153 52.917935 
L 133.952566 53.071594 
L 134.323416 57.769169 
L 134.694452 52.676471 
L 135.065487 61.281374 
L 135.436338 55.464284 
L 135.807374 59.569174 
L 136.189524 61.435033 
L 136.54926 55.288674 
L 136.92011 60.205761 
L 137.291146 57.088679 
L 137.661996 64.113089 
L 138.033032 60.952105 
L 138.403883 55.881359 
L 138.786218 61.017959 
L 139.145769 61.742351 
L 139.516804 56.715507 
L 139.87654 57.747218 
L 140.247391 55.39843 
L 140.989277 58.537464 
L 141.731348 50.810612 
L 142.102199 57.374046 
L 142.473235 60.337469 
L 142.844085 60.447225 
L 143.226235 61.347228 
L 143.957007 51.79842 
L 144.327857 52.47891 
L 144.698893 54.037451 
L 145.069744 59.898443 
L 145.440779 60.820397 
L 145.822929 63.78382 
L 146.182665 53.400864 
L 146.564815 60.908202 
L 146.924552 54.169159 
L 147.295587 61.435033 
L 148.037473 62.444792 
L 148.408324 62.269182 
L 148.76806 60.908202 
L 149.139096 60.600884 
L 149.509946 62.291133 
L 149.880982 61.281374 
L 150.251832 57.549656 
L 150.993718 61.325277 
L 151.364754 55.113064 
L 151.735604 62.488694 
L 152.11794 59.832589 
L 152.477491 61.786253 
L 152.848526 54.937453 
L 153.219377 61.369179 
L 153.590413 55.069161 
L 153.972563 58.713074 
L 154.332299 54.322818 
L 154.703334 57.11063 
L 155.074185 57.242338 
L 155.445221 60.622836 
L 155.816071 62.444792 
L 156.187107 62.686256 
L 156.557957 58.383805 
L 156.928993 55.815505 
L 157.288729 50.5911 
L 158.030615 53.774035 
L 158.401465 56.869166 
L 158.783616 62.093571 
L 159.143352 56.75941 
L 159.514387 54.761843 
L 160.256273 63.344794 
L 160.627124 60.425274 
L 160.99816 61.149666 
L 161.369195 52.017933 
L 161.740046 61.7204 
L 162.111081 61.017959 
L 162.481932 62.444792 
L 162.852968 62.203328 
L 163.223818 60.403323 
L 163.594854 55.156966 
L 163.965704 59.174051 
L 164.34804 60.688689 
L 164.70759 60.074053 
L 165.078626 60.952105 
L 165.449477 55.771602 
L 165.820512 60.0082 
L 166.180248 61.193569 
L 166.551099 63.300892 
L 166.922134 62.093571 
L 167.292985 61.347228 
L 167.664021 57.242338 
L 168.034871 59.174051 
L 168.405907 63.410648 
L 168.788057 62.708207 
L 169.147793 60.556982 
L 169.518829 61.478936 
L 169.889679 61.259423 
L 170.260715 62.225279 
L 170.631565 59.591125 
L 171.002601 58.449659 
L 171.384751 60.491128 
L 171.744487 59.656979 
L 172.115338 60.710641 
L 172.857224 60.996007 
L 173.228259 62.642353 
L 173.599295 63.278941 
L 173.981445 61.786253 
L 174.341181 61.303325 
L 174.712032 62.664305 
L 175.071768 62.993574 
L 175.442803 60.952105 
L 176.18469 60.271615 
L 176.55554 61.325277 
L 176.93769 60.622836 
L 177.297426 61.500887 
L 177.668462 60.622836 
L 178.039312 56.847215 
L 178.410348 57.417948 
L 178.781199 60.842348 
L 179.523085 57.96673 
L 179.89412 57.725266 
L 180.264971 59.920394 
L 180.636007 60.952105 
L 181.007042 51.732566 
L 181.377893 54.564282 
L 181.748928 53.774035 
L 182.119779 53.708182 
L 182.501929 59.722833 
L 182.861665 58.82283 
L 183.232701 60.469177 
L 183.592437 59.415515 
L 183.963287 53.049643 
L 184.345437 59.854541 
L 184.705173 52.874033 
L 185.076209 56.737459 
L 185.44706 51.491102 
L 185.818095 51.842323 
L 186.200245 57.308192 
L 186.559981 60.578933 
L 187.301868 57.637461 
L 187.672903 57.988682 
L 188.055053 59.591125 
L 188.414789 58.559415 
L 188.78564 56.825264 
L 189.156676 51.359394 
L 189.527526 57.900877 
L 189.898562 60.315518 
L 190.269412 59.722833 
L 190.651562 52.3033 
L 191.011298 52.939887 
L 191.382334 56.166725 
L 191.753184 53.1594 
L 192.12422 52.544764 
L 192.495071 50.152074 
L 192.854807 52.500861 
L 193.225842 56.693556 
L 193.596693 48.330117 
L 193.967729 50.656953 
L 194.338579 49.669146 
L 195.08065 50.020366 
L 195.451501 47.144748 
L 195.822537 45.871574 
L 196.193387 52.698423 
L 196.564423 48.769143 
L 196.935273 52.544764 
L 197.306309 51.820371 
L 197.688459 51.688664 
L 198.048195 56.144774 
L 198.430345 55.90331 
L 198.790081 51.732566 
L 199.903003 44.334984 
L 200.273853 46.793528 
L 200.644889 52.105738 
L 201.01574 48.220361 
L 201.375476 49.383779 
L 202.117362 47.364261 
L 202.488398 48.154507 
L 202.859248 44.795961 
L 203.601134 54.761843 
L 204.34302 51.030125 
L 204.714056 57.308192 
L 205.084906 50.481343 
L 205.455942 55.90331 
L 205.826793 51.864274 
L 206.197828 50.635002 
L 206.568679 48.154507 
L 206.939714 53.839889 
L 207.31075 46.442307 
L 207.681601 48.19841 
L 208.052636 48.066702 
L 208.434786 55.22282 
L 208.794522 50.195976 
L 209.165373 49.40573 
L 209.536409 44.708156 
L 209.907259 52.676471 
L 210.266995 49.40573 
L 210.638031 47.561823 
L 211.020181 47.671579 
L 211.379917 51.600859 
L 211.762067 48.966705 
L 212.121803 51.62281 
L 212.492654 55.771602 
L 212.863689 55.420382 
L 213.23454 53.181351 
L 213.605575 52.676471 
L 213.976426 57.308192 
L 214.347462 57.417948 
L 214.718497 52.127689 
L 215.100647 56.869166 
L 215.460383 58.47161 
L 215.831234 59.196002 
L 216.20227 53.378912 
L 216.944156 51.271589 
L 217.315006 56.320384 
L 217.686042 55.266723 
L 218.056892 57.79112 
L 218.439228 50.26183 
L 218.787664 55.969164 
L 219.158515 54.081353 
L 219.900401 52.347202 
L 220.271436 57.176484 
L 220.642287 55.859407 
L 221.013323 56.891118 
L 221.384358 56.5838 
L 221.755209 48.571582 
L 222.126244 48.154507 
L 222.497095 54.849648 
L 222.868131 57.176484 
L 223.238981 52.874033 
L 223.621131 54.783794 
L 223.980867 50.854515 
L 224.351903 56.100871 
L 224.722753 53.203302 
L 225.46464 50.744759 
L 225.835675 49.515487 
L 226.206526 52.369153 
L 226.577561 52.588666 
L 226.948597 53.444766 
L 227.319448 49.998415 
L 227.679184 54.893551 
L 228.061334 47.364261 
L 228.42107 51.469151 
L 228.792105 50.26183 
L 229.162956 47.495969 
L 229.533992 45.717915 
L 229.916142 54.520379 
L 230.275878 51.952079 
L 230.646728 51.864274 
L 231.017764 50.437441 
L 231.388614 50.174025 
L 231.75965 44.686205 
L 232.130501 45.059376 
L 232.512836 43.939861 
L 232.872387 44.488643 
L 233.243422 49.603292 
L 233.614458 49.142315 
L 233.985309 53.839889 
L 234.356344 50.569148 
L 234.727195 54.761843 
L 235.469081 46.244746 
L 235.840117 53.51062 
L 236.210967 49.23012 
L 236.570703 54.827697 
L 236.941739 54.059402 
L 237.312589 49.976464 
L 237.683625 50.26183 
L 238.054475 51.578907 
L 238.425511 50.964271 
L 238.796362 44.466692 
L 239.167397 44.817912 
L 239.920583 50.986223 
L 239.920583 50.986223 
" clip-path="url(#pf41913f78a)" style="fill: none; stroke: #ff7f0e; stroke-width: 1.5; stroke-linecap: square"/>
   </g>
   <g id="line2d_19">
    <path d="M 65.416734 134.291339 
L 65.787769 127.46449 
L 66.15862 124.566921 
L 66.529655 119.474223 
L 66.900506 117.454705 
L 68.384278 103.888813 
L 68.755314 101.649782 
L 69.137464 101.979051 
L 69.4972 100.991243 
L 69.868236 96.491231 
L 70.239086 96.381474 
L 70.610122 94.998543 
L 70.980972 92.561951 
L 71.352008 95.218056 
L 71.734158 91.17902 
L 72.093894 91.749754 
L 72.45363 88.457061 
L 72.824481 87.074131 
L 73.195516 88.369256 
L 73.566367 87.469254 
L 73.937403 85.208272 
L 74.319553 87.4034 
L 74.679289 84.286318 
L 75.421175 86.437543 
L 75.792025 84.8351 
L 76.163061 87.096082 
L 76.534097 83.232656 
L 76.916247 82.903387 
L 77.275983 80.598502 
L 77.646833 81.366797 
L 78.017869 78.51313 
L 78.38872 77.722884 
L 78.759755 77.569225 
L 79.130606 80.642405 
L 79.501641 79.149718 
L 79.872492 79.083864 
L 80.243528 76.62532 
L 80.985414 76.822882 
L 81.34515 76.120441 
L 81.7273 77.722884 
L 82.087036 76.230197 
L 82.457886 76.44971 
L 82.828922 80.335087 
L 83.199773 76.361905 
L 83.570808 77.525323 
L 83.941844 75.000925 
L 84.323994 77.65703 
L 84.68373 76.230197 
L 85.054581 75.813123 
L 85.796467 76.647272 
L 86.167502 75.330195 
L 86.538353 76.44971 
L 86.909389 77.042395 
L 87.280239 76.405807 
L 87.651275 76.208246 
L 88.022125 78.557033 
L 88.393161 76.383856 
L 89.135047 74.210679 
L 89.506083 76.559466 
L 89.876933 74.188728 
L 90.60752 78.118007 
L 90.978555 74.364338 
L 91.349591 73.37653 
L 91.731741 70.522864 
L 92.091477 72.805797 
L 92.462328 73.530189 
L 92.833363 73.135066 
L 93.204214 46.134989 
L 93.57525 74.978974 
L 93.9461 71.554574 
L 94.317136 74.276533 
L 94.687986 73.947264 
L 95.059022 74.759461 
L 95.429872 72.827748 
L 95.800908 69.491154 
L 96.171944 71.971648 
L 96.554094 69.996033 
L 96.91383 68.766761 
L 97.28468 71.883843 
L 97.655716 73.639946 
L 98.026566 69.77652 
L 98.408717 72.827748 
L 98.757338 69.381397 
L 99.128189 72.037502 
L 99.499224 72.827748 
L 99.870075 72.498479 
L 100.241111 75.76922 
L 100.611961 70.961889 
L 100.982997 72.191161 
L 101.353847 46.134989 
L 101.724883 71.093597 
L 102.095733 73.88141 
L 102.466769 40.559364 
L 102.837619 69.842374 
L 103.208655 73.617995 
L 103.579691 69.974082 
L 103.950541 69.491154 
L 104.332691 71.66433 
L 104.692427 72.739943 
L 105.063463 70.676523 
L 105.434314 71.66433 
L 105.805349 41.327658 
L 106.1762 68.305784 
L 106.547235 72.388723 
L 106.918086 70.830182 
L 107.289122 72.476528 
L 107.659972 71.927746 
L 108.019708 68.196028 
L 108.390744 70.786279 
L 108.761594 39.791069 
L 109.13263 69.60091 
L 109.50348 71.093597 
L 109.874516 67.691148 
L 110.245552 70.939938 
L 110.987438 67.910661 
L 111.358288 68.964323 
L 111.729324 68.854566 
L 112.100175 67.778954 
L 112.47121 67.778954 
L 112.842061 70.303351 
L 113.213096 69.886277 
L 113.583947 68.5692 
L 113.954983 68.108223 
L 114.325833 69.139933 
L 114.696869 71.31311 
L 115.067719 69.798471 
L 115.438755 72.125307 
L 115.809791 69.161884 
L 116.180641 72.432625 
L 116.540377 68.042369 
L 116.911228 67.910661 
L 117.282263 67.647246 
L 117.653299 69.820423 
L 118.024149 74.715559 
L 118.395185 70.45701 
L 118.766036 71.839941 
L 119.137071 72.015551 
L 119.507922 70.127741 
L 119.878957 43.127664 
L 120.249808 70.083838 
L 120.620844 70.083838 
L 120.991694 72.981407 
L 121.36273 73.222871 
L 122.475652 70.500912 
L 122.846502 71.532623 
L 123.228652 43.105712 
L 123.588388 75.176536 
L 123.970538 44.247179 
L 124.330274 42.820346 
L 124.712424 70.742377 
L 125.072161 44.444741 
L 125.443196 44.159374 
L 125.802932 70.544815 
L 126.185082 70.676523 
L 126.544818 75.286292 
L 126.926969 74.583851 
L 127.286705 70.391156 
L 127.657555 75.308243 
L 128.028591 42.644735 
L 128.410741 71.642379 
L 128.770477 74.891169 
L 129.141327 71.159451 
L 129.512363 43.149615 
L 129.883399 70.698474 
L 130.254249 68.74481 
L 130.625285 75.286292 
L 130.996135 74.166777 
L 131.367171 71.927746 
L 131.738022 73.574092 
L 132.109057 73.617995 
L 132.479908 73.266774 
L 132.850943 72.278966 
L 133.221794 74.693607 
L 133.59283 71.466769 
L 133.952566 73.091164 
L 134.323416 72.893602 
L 134.694452 71.598477 
L 135.065302 72.739943 
L 135.436338 70.347254 
L 135.807188 74.803364 
L 136.178224 73.178969 
L 136.549075 69.644812 
L 136.92011 70.413107 
L 137.291146 47.934994 
L 137.661996 73.135066 
L 138.033032 71.971648 
L 138.403883 74.517997 
L 138.774918 75.066779 
L 139.157068 69.644812 
L 139.516804 67.427733 
L 139.887655 72.213113 
L 140.258691 71.598477 
L 140.629541 71.839941 
L 141.000577 71.335061 
L 141.371427 46.003282 
L 141.742463 69.864325 
L 142.113499 70.347254 
L 142.484349 72.783846 
L 142.844085 40.49351 
L 143.214935 39.725215 
L 143.585971 70.63262 
L 143.957007 72.696041 
L 144.327857 72.16921 
L 144.710007 72.476528 
L 145.069744 69.205787 
L 145.451894 68.174077 
L 145.81163 72.278966 
L 146.19378 45.432548 
L 146.553516 43.391079 
L 146.935666 42.776443 
L 147.295402 69.052128 
L 147.677737 72.059454 
L 148.037288 73.574092 
L 148.419623 44.203276 
L 148.779174 40.800828 
L 149.15021 68.481395 
L 149.521246 71.66433 
L 149.892096 71.115548 
L 150.263132 41.195951 
L 150.633982 40.888633 
L 151.005018 71.291159 
L 151.375868 72.125307 
L 151.735604 72.366771 
L 152.10664 71.422866 
L 152.48879 45.674012 
L 152.848526 69.864325 
L 153.219377 72.937505 
L 153.590413 46.530112 
L 153.961263 71.532623 
L 154.332299 71.598477 
L 154.703149 38.45204 
L 155.074185 73.617995 
L 155.445035 40.230094 
L 155.827371 48.330117 
L 156.187107 72.278966 
L 156.557957 69.666764 
L 156.928993 68.92042 
L 157.299843 41.437415 
L 157.681993 73.069213 
L 158.412765 70.325302 
L 158.783616 46.83743 
L 159.154651 46.288648 
L 159.536801 73.266774 
L 159.896537 48.813046 
L 160.267388 46.464258 
L 160.627124 40.537412 
L 160.99816 71.093597 
L 161.36901 73.859459 
L 161.740046 41.34961 
L 162.110896 73.37653 
L 162.481932 48.308166 
L 162.852782 71.247256 
L 163.223818 71.949697 
L 163.594854 45.388646 
L 163.965704 71.247256 
L 164.33674 41.942294 
L 164.70759 38.627651 
L 165.078626 39.417897 
L 165.449477 42.754492 
L 165.820512 70.676523 
L 166.202662 39.044725 
L 166.933249 40.66912 
L 167.304285 71.949697 
L 167.675135 69.578959 
L 168.046171 39.63741 
L 168.417206 68.722859 
L 168.788057 70.983841 
L 169.159093 68.196028 
L 169.518643 72.432625 
L 169.889679 71.027743 
L 170.26053 38.737407 
L 170.631565 45.520353 
L 171.002601 69.974082 
L 171.373451 70.259448 
L 171.755602 40.866682 
L 172.115338 68.657005 
L 172.497488 50.042317 
L 172.857224 72.476528 
L 173.228259 70.874084 
L 173.59911 70.852133 
L 173.970146 42.183758 
L 174.340996 41.239853 
L 174.712032 71.31311 
L 175.082882 46.3106 
L 175.453918 42.864248 
L 175.824954 73.003359 
L 176.195804 47.956946 
L 176.56684 45.388646 
L 176.93769 69.249689 
L 177.308726 48.659387 
L 177.679576 47.276456 
L 178.039312 44.971571 
L 178.410348 47.276456 
L 178.781199 39.264238 
L 179.152234 72.959456 
L 179.523085 72.015551 
L 179.89412 48.330117 
L 180.264971 72.037502 
L 180.636007 47.210602 
L 181.006857 46.617917 
L 181.377893 45.234987 
L 181.748743 48.681338 
L 182.119779 70.347254 
L 182.501929 44.993523 
L 182.861665 47.100846 
L 183.232701 39.264238 
L 183.603551 70.961889 
L 183.974587 71.31311 
L 184.345437 69.710666 
L 184.716473 46.639869 
L 185.098623 48.593533 
L 185.458359 47.561823 
L 185.82921 69.77652 
L 186.200245 70.896036 
L 186.571096 40.910584 
L 186.942131 39.571556 
L 187.301868 68.613102 
L 187.672718 69.139933 
L 188.043754 68.942371 
L 188.414604 70.544815 
L 189.15649 68.722859 
L 189.527526 47.1667 
L 189.898562 69.183836 
L 190.269412 67.427733 
L 191.011298 71.1375 
L 191.382334 67.998466 
L 191.753184 67.581392 
L 192.12422 67.38383 
L 192.495071 67.7131 
L 192.866106 68.854566 
L 193.236957 66.988707 
L 193.607992 67.800905 
L 193.978843 47.034992 
L 194.349879 69.381397 
L 194.732029 69.074079 
L 195.091765 68.108223 
L 195.4628 65.781387 
L 195.822351 67.625295 
L 196.193387 67.735051 
L 196.564237 64.727725 
L 196.935273 66.044802 
L 197.306309 66.483828 
L 197.688459 66.615536 
L 198.048195 36.542279 
L 198.419045 64.727725 
L 198.790081 64.508212 
L 199.160932 67.230171 
L 199.531967 66.330169 
L 199.902818 64.947238 
L 200.273853 64.135041 
L 200.644704 66.154559 
L 201.01574 63.761869 
L 201.38659 38.825212 
L 201.757626 43.720348 
L 202.128661 62.137474 
L 202.499512 65.078946 
L 202.870548 61.478936 
L 203.241398 65.1448 
L 203.612434 65.737484 
L 203.983284 66.857 
L 204.35432 65.100897 
L 204.714056 61.830156 
L 205.084906 62.883818 
L 205.455942 62.510646 
L 205.826793 63.542356 
L 206.197828 32.722756 
L 206.579978 36.586181 
L 206.939714 64.310651 
L 207.310565 66.549682 
L 207.6929 41.481317 
L 208.052451 64.859433 
L 208.423487 64.398456 
L 208.805637 65.978948 
L 209.165373 65.035043 
L 209.536409 63.476502 
L 209.918559 63.761869 
L 210.649145 66.922853 
L 211.020181 63.520405 
L 211.762067 65.474069 
L 212.132918 65.517971 
L 212.515253 59.196002 
L 212.874804 62.642353 
L 213.23454 63.95943 
L 213.605575 62.861866 
L 214.347462 66.242364 
L 214.718312 65.452118 
L 215.089348 63.015525 
L 215.460198 65.67163 
L 215.831234 64.969189 
L 216.202084 61.654546 
L 216.57312 62.796012 
L 216.944156 61.544789 
L 217.315006 64.508212 
L 217.686042 64.508212 
L 218.056892 64.003333 
L 218.427928 36.849597 
L 218.810078 63.630161 
L 219.169814 67.339928 
L 219.540665 64.683823 
L 219.9117 65.67163 
L 220.282551 42.995956 
L 220.653587 63.78382 
L 221.024437 63.454551 
L 221.395473 64.574066 
L 221.766508 63.915528 
L 222.126059 40.822779 
L 222.497095 40.449607 
L 222.867945 40.405705 
L 223.238981 63.739918 
L 223.610017 33.073976 
L 223.980867 30.988605 
L 224.351903 62.269182 
L 224.722753 61.830156 
L 225.104903 62.356987 
L 225.46464 62.115523 
L 225.835675 40.273997 
L 226.217825 61.347228 
L 226.577561 34.873981 
L 226.948412 63.652112 
L 227.319448 39.000823 
L 227.690298 61.654546 
L 228.061334 62.313084 
L 228.432184 39.30814 
L 228.80322 61.413082 
L 229.174256 64.749677 
L 229.545106 42.666687 
L 229.927256 62.159425 
L 230.286992 34.017881 
L 230.658028 64.596018 
L 231.017764 61.369179 
L 231.388614 65.693582 
L 231.75965 38.978871 
L 232.130501 34.522761 
L 232.501536 39.154482 
L 232.872387 59.283807 
L 233.243422 36.981305 
L 233.625572 30.637384 
L 233.985309 29.232502 
L 234.356159 32.415438 
L 234.727195 36.827646 
L 235.098045 29.452015 
L 235.469081 33.31544 
L 235.840117 56.056969 
L 236.210967 56.452092 
L 236.582003 30.264212 
L 237.335003 35.466666 
L 237.694739 40.427656 
L 238.065775 41.239853 
L 238.447925 33.249587 
L 238.807661 39.98863 
L 239.178512 65.759436 
L 239.538248 68.525297 
L 239.920398 69.732618 
L 240.280134 67.976515 
L 240.65117 46.156941 
L 241.02202 70.939938 
L 241.393056 73.749702 
L 241.763906 53.400864 
L 241.763906 53.400864 
" clip-path="url(#pf41913f78a)" style="fill: none; stroke: #2ca02c; stroke-width: 1.5; stroke-linecap: square"/>
   </g>
   <g id="patch_3">
    <path d="M 56.599375 140.343307 
L 56.599375 7.2 
" style="fill: none; stroke: #000000; stroke-width: 0.8; stroke-linejoin: miter; stroke-linecap: square"/>
   </g>
   <g id="patch_4">
    <path d="M 250.581265 140.343307 
L 250.581265 7.2 
" style="fill: none; stroke: #000000; stroke-width: 0.8; stroke-linejoin: miter; stroke-linecap: square"/>
   </g>
   <g id="patch_5">
    <path d="M 56.599375 140.343307 
L 250.581265 140.343307 
" style="fill: none; stroke: #000000; stroke-width: 0.8; stroke-linejoin: miter; stroke-linecap: square"/>
   </g>
   <g id="patch_6">
    <path d="M 56.599375 7.2 
L 250.581265 7.2 
" style="fill: none; stroke: #000000; stroke-width: 0.8; stroke-linejoin: miter; stroke-linecap: square"/>
   </g>
   <g id="legend_1">
    <g id="patch_7">
     <path d="M 200.495015 136.343307 
L 244.981265 136.343307 
Q 246.581265 136.343307 246.581265 134.743307 
L 246.581265 101.609557 
Q 246.581265 100.009557 244.981265 100.009557 
L 200.495015 100.009557 
Q 198.895015 100.009557 198.895015 101.609557 
L 198.895015 134.743307 
Q 198.895015 136.343307 200.495015 136.343307 
z
" style="fill: #ffffff; opacity: 0.8; stroke: #cccccc; stroke-linejoin: miter"/>
    </g>
    <g id="line2d_20">
     <path d="M 202.095015 106.009557 
L 210.095015 106.009557 
L 218.095015 106.009557 
" style="fill: none; stroke: #1f77b4; stroke-width: 1.5; stroke-linecap: square"/>
    </g>
    <g id="text_11">
     <!-- Exp 1 -->
     <g transform="translate(224.495015 108.809557) scale(0.08 -0.08)">
      <defs>
       <path id="TimesNewRomanPSMT-45" d="M 1338 4006 
L 1338 2331 
L 2269 2331 
Q 2631 2331 2753 2441 
Q 2916 2584 2934 2947 
L 3050 2947 
L 3050 1472 
L 2934 1472 
Q 2891 1781 2847 1869 
Q 2791 1978 2662 2040 
Q 2534 2103 2269 2103 
L 1338 2103 
L 1338 706 
Q 1338 425 1363 364 
Q 1388 303 1450 267 
Q 1513 231 1688 231 
L 2406 231 
Q 2766 231 2928 281 
Q 3091 331 3241 478 
Q 3434 672 3638 1063 
L 3763 1063 
L 3397 0 
L 131 0 
L 131 116 
L 281 116 
Q 431 116 566 188 
Q 666 238 702 338 
Q 738 438 738 747 
L 738 3500 
Q 738 3903 656 3997 
Q 544 4122 281 4122 
L 131 4122 
L 131 4238 
L 3397 4238 
L 3444 3309 
L 3322 3309 
Q 3256 3644 3176 3769 
Q 3097 3894 2941 3959 
Q 2816 4006 2500 4006 
L 1338 4006 
z
" transform="scale(0.015625)"/>
       <path id="TimesNewRomanPSMT-78" d="M 84 2863 
L 1431 2863 
L 1431 2747 
Q 1303 2747 1251 2703 
Q 1200 2659 1200 2588 
Q 1200 2513 1309 2356 
Q 1344 2306 1413 2200 
L 1616 1875 
L 1850 2200 
Q 2075 2509 2075 2591 
Q 2075 2656 2022 2701 
Q 1969 2747 1850 2747 
L 1850 2863 
L 2819 2863 
L 2819 2747 
Q 2666 2738 2553 2663 
Q 2400 2556 2134 2200 
L 1744 1678 
L 2456 653 
Q 2719 275 2831 198 
Q 2944 122 3122 113 
L 3122 0 
L 1772 0 
L 1772 113 
Q 1913 113 1991 175 
Q 2050 219 2050 291 
Q 2050 363 1850 653 
L 1431 1266 
L 972 653 
Q 759 369 759 316 
Q 759 241 829 180 
Q 900 119 1041 113 
L 1041 0 
L 106 0 
L 106 113 
Q 219 128 303 191 
Q 422 281 703 653 
L 1303 1450 
L 759 2238 
Q 528 2575 401 2661 
Q 275 2747 84 2747 
L 84 2863 
z
" transform="scale(0.015625)"/>
       <path id="TimesNewRomanPSMT-70" d="M -6 2578 
L 875 2934 
L 994 2934 
L 994 2266 
Q 1216 2644 1439 2795 
Q 1663 2947 1909 2947 
Q 2341 2947 2628 2609 
Q 2981 2197 2981 1534 
Q 2981 794 2556 309 
Q 2206 -88 1675 -88 
Q 1444 -88 1275 -22 
Q 1150 25 994 166 
L 994 -706 
Q 994 -1000 1030 -1079 
Q 1066 -1159 1155 -1206 
Q 1244 -1253 1478 -1253 
L 1478 -1369 
L -22 -1369 
L -22 -1253 
L 56 -1253 
Q 228 -1256 350 -1188 
Q 409 -1153 442 -1076 
Q 475 -1000 475 -688 
L 475 2019 
Q 475 2297 450 2372 
Q 425 2447 370 2484 
Q 316 2522 222 2522 
Q 147 2522 31 2478 
L -6 2578 
z
M 994 2081 
L 994 1013 
Q 994 666 1022 556 
Q 1066 375 1236 237 
Q 1406 100 1666 100 
Q 1978 100 2172 344 
Q 2425 663 2425 1241 
Q 2425 1897 2138 2250 
Q 1938 2494 1663 2494 
Q 1513 2494 1366 2419 
Q 1253 2363 994 2081 
z
" transform="scale(0.015625)"/>
       <path id="TimesNewRomanPSMT-31" d="M 750 3822 
L 1781 4325 
L 1884 4325 
L 1884 747 
Q 1884 391 1914 303 
Q 1944 216 2037 169 
Q 2131 122 2419 116 
L 2419 0 
L 825 0 
L 825 116 
Q 1125 122 1212 167 
Q 1300 213 1334 289 
Q 1369 366 1369 747 
L 1369 3034 
Q 1369 3497 1338 3628 
Q 1316 3728 1258 3775 
Q 1200 3822 1119 3822 
Q 1003 3822 797 3725 
L 750 3822 
z
" transform="scale(0.015625)"/>
      </defs>
      <use xlink:href="#TimesNewRomanPSMT-45"/>
      <use xlink:href="#TimesNewRomanPSMT-78" x="61.083984"/>
      <use xlink:href="#TimesNewRomanPSMT-70" x="111.083984"/>
      <use xlink:href="#TimesNewRomanPSMT-20" x="161.083984"/>
      <use xlink:href="#TimesNewRomanPSMT-31" x="186.083984"/>
     </g>
    </g>
    <g id="line2d_21">
     <path d="M 202.095015 117.320807 
L 210.095015 117.320807 
L 218.095015 117.320807 
" style="fill: none; stroke: #ff7f0e; stroke-width: 1.5; stroke-linecap: square"/>
    </g>
    <g id="text_12">
     <!-- Exp 2 -->
     <g transform="translate(224.495015 120.120807) scale(0.08 -0.08)">
      <use xlink:href="#TimesNewRomanPSMT-45"/>
      <use xlink:href="#TimesNewRomanPSMT-78" x="61.083984"/>
      <use xlink:href="#TimesNewRomanPSMT-70" x="111.083984"/>
      <use xlink:href="#TimesNewRomanPSMT-20" x="161.083984"/>
      <use xlink:href="#TimesNewRomanPSMT-32" x="186.083984"/>
     </g>
    </g>
    <g id="line2d_22">
     <path d="M 202.095015 128.632057 
L 210.095015 128.632057 
L 218.095015 128.632057 
" style="fill: none; stroke: #2ca02c; stroke-width: 1.5; stroke-linecap: square"/>
    </g>
    <g id="text_13">
     <!-- Exp 3 -->
     <g transform="translate(224.495015 131.432057) scale(0.08 -0.08)">
      <defs>
       <path id="TimesNewRomanPSMT-33" d="M 325 3431 
Q 506 3859 782 4092 
Q 1059 4325 1472 4325 
Q 1981 4325 2253 3994 
Q 2459 3747 2459 3466 
Q 2459 3003 1878 2509 
Q 2269 2356 2469 2072 
Q 2669 1788 2669 1403 
Q 2669 853 2319 450 
Q 1863 -75 997 -75 
Q 569 -75 414 31 
Q 259 138 259 259 
Q 259 350 332 419 
Q 406 488 509 488 
Q 588 488 669 463 
Q 722 447 909 348 
Q 1097 250 1169 231 
Q 1284 197 1416 197 
Q 1734 197 1970 444 
Q 2206 691 2206 1028 
Q 2206 1275 2097 1509 
Q 2016 1684 1919 1775 
Q 1784 1900 1550 2001 
Q 1316 2103 1072 2103 
L 972 2103 
L 972 2197 
Q 1219 2228 1467 2375 
Q 1716 2522 1828 2728 
Q 1941 2934 1941 3181 
Q 1941 3503 1739 3701 
Q 1538 3900 1238 3900 
Q 753 3900 428 3381 
L 325 3431 
z
" transform="scale(0.015625)"/>
      </defs>
      <use xlink:href="#TimesNewRomanPSMT-45"/>
      <use xlink:href="#TimesNewRomanPSMT-78" x="61.083984"/>
      <use xlink:href="#TimesNewRomanPSMT-70" x="111.083984"/>
      <use xlink:href="#TimesNewRomanPSMT-20" x="161.083984"/>
      <use xlink:href="#TimesNewRomanPSMT-33" x="186.083984"/>
     </g>
    </g>
   </g>
  </g>
 </g>
 <defs>
  <clipPath id="pf41913f78a">
   <rect x="56.599375" y="7.2" width="193.98189" height="133.143307"/>
  </clipPath>
 </defs>
</svg>
