<?xml version="1.0" encoding="utf-8" standalone="no"?>
<!DOCTYPE svg PUBLIC "-//W3C//DTD SVG 1.1//EN"
  "http://www.w3.org/Graphics/SVG/1.1/DTD/svg11.dtd">
<svg xmlns:xlink="http://www.w3.org/1999/xlink" width="267.490294pt" height="178.525495pt" viewBox="0 0 267.490294 178.525495" xmlns="http://www.w3.org/2000/svg" version="1.1">
 <metadata>
  <rdf:RDF xmlns:dc="http://purl.org/dc/elements/1.1/" xmlns:cc="http://creativecommons.org/ns#" xmlns:rdf="http://www.w3.org/1999/02/22-rdf-syntax-ns#">
   <cc:Work>
    <dc:type rdf:resource="http://purl.org/dc/dcmitype/StillImage"/>
    <dc:date>2025-09-03T17:20:35.692654</dc:date>
    <dc:format>image/svg+xml</dc:format>
    <dc:creator>
     <cc:Agent>
      <dc:title>Matplotlib v3.9.2, https://matplotlib.org/</dc:title>
     </cc:Agent>
    </dc:creator>
   </cc:Work>
  </rdf:RDF>
 </metadata>
 <defs>
  <style type="text/css">*{stroke-linejoin: round; stroke-linecap: butt}</style>
 </defs>
 <g id="figure_1">
  <g id="patch_1">
   <path d="M 0 178.525495 
L 267.490294 178.525495 
L 267.490294 0 
L 0 0 
L 0 178.525495 
z
" style="fill: none"/>
  </g>
  <g id="axes_1">
   <g id="patch_2">
    <path d="M 56.621875 140.343307 
L 250.603765 140.343307 
L 250.603765 7.2 
L 56.621875 7.2 
L 56.621875 140.343307 
z
" style="fill: none"/>
   </g>
   <g id="matplotlib.axis_1">
    <g id="xtick_1">
     <g id="line2d_1">
      <path d="M 65.439234 140.343307 
L 65.439234 7.2 
" clip-path="url(#p923cc65e24)" style="fill: none; stroke: #b0b0b0; stroke-width: 0.8; stroke-linecap: square"/>
     </g>
     <g id="line2d_2">
      <defs>
       <path id="macb07710c2" d="M 0 0 
L 0 3.5 
" style="stroke: #000000; stroke-width: 0.8"/>
      </defs>
      <g>
       <use xlink:href="#macb07710c2" x="65.439234" y="140.343307" style="stroke: #000000; stroke-width: 0.8"/>
      </g>
     </g>
     <g id="text_1">
      <!-- 0 -->
      <g transform="translate(62.939234 154.287057) scale(0.1 -0.1)">
       <defs>
        <path id="TimesNewRomanPSMT-30" d="M 231 2094 
Q 231 2819 450 3342 
Q 669 3866 1031 4122 
Q 1313 4325 1613 4325 
Q 2100 4325 2488 3828 
Q 2972 3213 2972 2159 
Q 2972 1422 2759 906 
Q 2547 391 2217 158 
Q 1888 -75 1581 -75 
Q 975 -75 572 641 
Q 231 1244 231 2094 
z
M 844 2016 
Q 844 1141 1059 588 
Q 1238 122 1591 122 
Q 1759 122 1940 273 
Q 2122 425 2216 781 
Q 2359 1319 2359 2297 
Q 2359 3022 2209 3506 
Q 2097 3866 1919 4016 
Q 1791 4119 1609 4119 
Q 1397 4119 1231 3928 
Q 1006 3669 925 3112 
Q 844 2556 844 2016 
z
" transform="scale(0.015625)"/>
       </defs>
       <use xlink:href="#TimesNewRomanPSMT-30"/>
      </g>
     </g>
    </g>
    <g id="xtick_2">
     <g id="line2d_3">
      <path d="M 102.409446 140.343307 
L 102.409446 7.2 
" clip-path="url(#p923cc65e24)" style="fill: none; stroke: #b0b0b0; stroke-width: 0.8; stroke-linecap: square"/>
     </g>
     <g id="line2d_4">
      <g>
       <use xlink:href="#macb07710c2" x="102.409446" y="140.343307" style="stroke: #000000; stroke-width: 0.8"/>
      </g>
     </g>
     <g id="text_2">
      <!-- 200 -->
      <g transform="translate(94.909446 154.287057) scale(0.1 -0.1)">
       <defs>
        <path id="TimesNewRomanPSMT-32" d="M 2934 816 
L 2638 0 
L 138 0 
L 138 116 
Q 1241 1122 1691 1759 
Q 2141 2397 2141 2925 
Q 2141 3328 1894 3587 
Q 1647 3847 1303 3847 
Q 991 3847 742 3664 
Q 494 3481 375 3128 
L 259 3128 
Q 338 3706 661 4015 
Q 984 4325 1469 4325 
Q 1984 4325 2329 3994 
Q 2675 3663 2675 3213 
Q 2675 2891 2525 2569 
Q 2294 2063 1775 1497 
Q 997 647 803 472 
L 1909 472 
Q 2247 472 2383 497 
Q 2519 522 2628 598 
Q 2738 675 2819 816 
L 2934 816 
z
" transform="scale(0.015625)"/>
       </defs>
       <use xlink:href="#TimesNewRomanPSMT-32"/>
       <use xlink:href="#TimesNewRomanPSMT-30" x="50"/>
       <use xlink:href="#TimesNewRomanPSMT-30" x="100"/>
      </g>
     </g>
    </g>
    <g id="xtick_3">
     <g id="line2d_5">
      <path d="M 139.379658 140.343307 
L 139.379658 7.2 
" clip-path="url(#p923cc65e24)" style="fill: none; stroke: #b0b0b0; stroke-width: 0.8; stroke-linecap: square"/>
     </g>
     <g id="line2d_6">
      <g>
       <use xlink:href="#macb07710c2" x="139.379658" y="140.343307" style="stroke: #000000; stroke-width: 0.8"/>
      </g>
     </g>
     <g id="text_3">
      <!-- 400 -->
      <g transform="translate(131.879658 154.287057) scale(0.1 -0.1)">
       <defs>
        <path id="TimesNewRomanPSMT-34" d="M 2978 1563 
L 2978 1119 
L 2409 1119 
L 2409 0 
L 1894 0 
L 1894 1119 
L 100 1119 
L 100 1519 
L 2066 4325 
L 2409 4325 
L 2409 1563 
L 2978 1563 
z
M 1894 1563 
L 1894 3666 
L 406 1563 
L 1894 1563 
z
" transform="scale(0.015625)"/>
       </defs>
       <use xlink:href="#TimesNewRomanPSMT-34"/>
       <use xlink:href="#TimesNewRomanPSMT-30" x="50"/>
       <use xlink:href="#TimesNewRomanPSMT-30" x="100"/>
      </g>
     </g>
    </g>
    <g id="xtick_4">
     <g id="line2d_7">
      <path d="M 176.34987 140.343307 
L 176.34987 7.2 
" clip-path="url(#p923cc65e24)" style="fill: none; stroke: #b0b0b0; stroke-width: 0.8; stroke-linecap: square"/>
     </g>
     <g id="line2d_8">
      <g>
       <use xlink:href="#macb07710c2" x="176.34987" y="140.343307" style="stroke: #000000; stroke-width: 0.8"/>
      </g>
     </g>
     <g id="text_4">
      <!-- 600 -->
      <g transform="translate(168.84987 154.287057) scale(0.1 -0.1)">
       <defs>
        <path id="TimesNewRomanPSMT-36" d="M 2869 4325 
L 2869 4209 
Q 2456 4169 2195 4045 
Q 1934 3922 1679 3669 
Q 1425 3416 1258 3105 
Q 1091 2794 978 2366 
Q 1428 2675 1881 2675 
Q 2316 2675 2634 2325 
Q 2953 1975 2953 1425 
Q 2953 894 2631 456 
Q 2244 -75 1606 -75 
Q 1172 -75 869 213 
Q 275 772 275 1663 
Q 275 2231 503 2743 
Q 731 3256 1154 3653 
Q 1578 4050 1965 4187 
Q 2353 4325 2688 4325 
L 2869 4325 
z
M 925 2138 
Q 869 1716 869 1456 
Q 869 1156 980 804 
Q 1091 453 1309 247 
Q 1469 100 1697 100 
Q 1969 100 2183 356 
Q 2397 613 2397 1088 
Q 2397 1622 2184 2012 
Q 1972 2403 1581 2403 
Q 1463 2403 1327 2353 
Q 1191 2303 925 2138 
z
" transform="scale(0.015625)"/>
       </defs>
       <use xlink:href="#TimesNewRomanPSMT-36"/>
       <use xlink:href="#TimesNewRomanPSMT-30" x="50"/>
       <use xlink:href="#TimesNewRomanPSMT-30" x="100"/>
      </g>
     </g>
    </g>
    <g id="xtick_5">
     <g id="line2d_9">
      <path d="M 213.320082 140.343307 
L 213.320082 7.2 
" clip-path="url(#p923cc65e24)" style="fill: none; stroke: #b0b0b0; stroke-width: 0.8; stroke-linecap: square"/>
     </g>
     <g id="line2d_10">
      <g>
       <use xlink:href="#macb07710c2" x="213.320082" y="140.343307" style="stroke: #000000; stroke-width: 0.8"/>
      </g>
     </g>
     <g id="text_5">
      <!-- 800 -->
      <g transform="translate(205.820082 154.287057) scale(0.1 -0.1)">
       <defs>
        <path id="TimesNewRomanPSMT-38" d="M 1228 2134 
Q 725 2547 579 2797 
Q 434 3047 434 3316 
Q 434 3728 753 4026 
Q 1072 4325 1600 4325 
Q 2113 4325 2425 4047 
Q 2738 3769 2738 3413 
Q 2738 3175 2569 2928 
Q 2400 2681 1866 2347 
Q 2416 1922 2594 1678 
Q 2831 1359 2831 1006 
Q 2831 559 2490 242 
Q 2150 -75 1597 -75 
Q 994 -75 656 303 
Q 388 606 388 966 
Q 388 1247 577 1523 
Q 766 1800 1228 2134 
z
M 1719 2469 
Q 2094 2806 2194 3001 
Q 2294 3197 2294 3444 
Q 2294 3772 2109 3958 
Q 1925 4144 1606 4144 
Q 1288 4144 1088 3959 
Q 888 3775 888 3528 
Q 888 3366 970 3203 
Q 1053 3041 1206 2894 
L 1719 2469 
z
M 1375 2016 
Q 1116 1797 991 1539 
Q 866 1281 866 981 
Q 866 578 1086 336 
Q 1306 94 1647 94 
Q 1984 94 2187 284 
Q 2391 475 2391 747 
Q 2391 972 2272 1150 
Q 2050 1481 1375 2016 
z
" transform="scale(0.015625)"/>
       </defs>
       <use xlink:href="#TimesNewRomanPSMT-38"/>
       <use xlink:href="#TimesNewRomanPSMT-30" x="50"/>
       <use xlink:href="#TimesNewRomanPSMT-30" x="100"/>
      </g>
     </g>
    </g>
    <g id="xtick_6">
     <g id="line2d_11">
      <path d="M 250.290294 140.343307 
L 250.290294 7.2 
" clip-path="url(#p923cc65e24)" style="fill: none; stroke: #b0b0b0; stroke-width: 0.8; stroke-linecap: square"/>
     </g>
     <g id="line2d_12">
      <g>
       <use xlink:href="#macb07710c2" x="250.290294" y="140.343307" style="stroke: #000000; stroke-width: 0.8"/>
      </g>
     </g>
     <g id="text_6">
      <!-- 1000 -->
      <g transform="translate(240.290294 154.287057) scale(0.1 -0.1)">
       <defs>
        <path id="TimesNewRomanPSMT-31" d="M 750 3822 
L 1781 4325 
L 1884 4325 
L 1884 747 
Q 1884 391 1914 303 
Q 1944 216 2037 169 
Q 2131 122 2419 116 
L 2419 0 
L 825 0 
L 825 116 
Q 1125 122 1212 167 
Q 1300 213 1334 289 
Q 1369 366 1369 747 
L 1369 3034 
Q 1369 3497 1338 3628 
Q 1316 3728 1258 3775 
Q 1200 3822 1119 3822 
Q 1003 3822 797 3725 
L 750 3822 
z
" transform="scale(0.015625)"/>
       </defs>
       <use xlink:href="#TimesNewRomanPSMT-31"/>
       <use xlink:href="#TimesNewRomanPSMT-30" x="50"/>
       <use xlink:href="#TimesNewRomanPSMT-30" x="100"/>
       <use xlink:href="#TimesNewRomanPSMT-30" x="150"/>
      </g>
     </g>
    </g>
    <g id="text_7">
     <!-- Time (s) -->
     <g transform="translate(133.330007 168.75862) scale(0.12 -0.12)">
      <defs>
       <path id="TimesNewRomanPSMT-54" d="M 3703 4238 
L 3750 3244 
L 3631 3244 
Q 3597 3506 3538 3619 
Q 3441 3800 3280 3886 
Q 3119 3972 2856 3972 
L 2259 3972 
L 2259 734 
Q 2259 344 2344 247 
Q 2463 116 2709 116 
L 2856 116 
L 2856 0 
L 1059 0 
L 1059 116 
L 1209 116 
Q 1478 116 1591 278 
Q 1659 378 1659 734 
L 1659 3972 
L 1150 3972 
Q 853 3972 728 3928 
Q 566 3869 450 3700 
Q 334 3531 313 3244 
L 194 3244 
L 244 4238 
L 3703 4238 
z
" transform="scale(0.015625)"/>
       <path id="TimesNewRomanPSMT-69" d="M 928 4444 
Q 1059 4444 1151 4351 
Q 1244 4259 1244 4128 
Q 1244 3997 1151 3903 
Q 1059 3809 928 3809 
Q 797 3809 703 3903 
Q 609 3997 609 4128 
Q 609 4259 701 4351 
Q 794 4444 928 4444 
z
M 1188 2947 
L 1188 647 
Q 1188 378 1227 289 
Q 1266 200 1342 156 
Q 1419 113 1622 113 
L 1622 0 
L 231 0 
L 231 113 
Q 441 113 512 153 
Q 584 194 626 287 
Q 669 381 669 647 
L 669 1750 
Q 669 2216 641 2353 
Q 619 2453 572 2492 
Q 525 2531 444 2531 
Q 356 2531 231 2484 
L 188 2597 
L 1050 2947 
L 1188 2947 
z
" transform="scale(0.015625)"/>
       <path id="TimesNewRomanPSMT-6d" d="M 1050 2338 
Q 1363 2650 1419 2697 
Q 1559 2816 1721 2881 
Q 1884 2947 2044 2947 
Q 2313 2947 2506 2790 
Q 2700 2634 2766 2338 
Q 3088 2713 3309 2830 
Q 3531 2947 3766 2947 
Q 3994 2947 4170 2830 
Q 4347 2713 4450 2447 
Q 4519 2266 4519 1878 
L 4519 647 
Q 4519 378 4559 278 
Q 4591 209 4675 161 
Q 4759 113 4950 113 
L 4950 0 
L 3538 0 
L 3538 113 
L 3597 113 
Q 3781 113 3884 184 
Q 3956 234 3988 344 
Q 4000 397 4000 647 
L 4000 1878 
Q 4000 2228 3916 2372 
Q 3794 2572 3525 2572 
Q 3359 2572 3192 2489 
Q 3025 2406 2788 2181 
L 2781 2147 
L 2788 2013 
L 2788 647 
Q 2788 353 2820 281 
Q 2853 209 2943 161 
Q 3034 113 3253 113 
L 3253 0 
L 1806 0 
L 1806 113 
Q 2044 113 2133 169 
Q 2222 225 2256 338 
Q 2272 391 2272 647 
L 2272 1878 
Q 2272 2228 2169 2381 
Q 2031 2581 1784 2581 
Q 1616 2581 1450 2491 
Q 1191 2353 1050 2181 
L 1050 647 
Q 1050 366 1089 281 
Q 1128 197 1204 155 
Q 1281 113 1516 113 
L 1516 0 
L 100 0 
L 100 113 
Q 297 113 375 155 
Q 453 197 493 289 
Q 534 381 534 647 
L 534 1741 
Q 534 2213 506 2350 
Q 484 2453 437 2492 
Q 391 2531 309 2531 
Q 222 2531 100 2484 
L 53 2597 
L 916 2947 
L 1050 2947 
L 1050 2338 
z
" transform="scale(0.015625)"/>
       <path id="TimesNewRomanPSMT-65" d="M 681 1784 
Q 678 1147 991 784 
Q 1303 422 1725 422 
Q 2006 422 2214 576 
Q 2422 731 2563 1106 
L 2659 1044 
Q 2594 616 2278 264 
Q 1963 -88 1488 -88 
Q 972 -88 605 314 
Q 238 716 238 1394 
Q 238 2128 614 2539 
Q 991 2950 1559 2950 
Q 2041 2950 2350 2633 
Q 2659 2316 2659 1784 
L 681 1784 
z
M 681 1966 
L 2006 1966 
Q 1991 2241 1941 2353 
Q 1863 2528 1708 2628 
Q 1553 2728 1384 2728 
Q 1125 2728 920 2526 
Q 716 2325 681 1966 
z
" transform="scale(0.015625)"/>
       <path id="TimesNewRomanPSMT-20" transform="scale(0.015625)"/>
       <path id="TimesNewRomanPSMT-28" d="M 1988 -1253 
L 1988 -1369 
Q 1516 -1131 1200 -813 
Q 750 -359 506 256 
Q 263 872 263 1534 
Q 263 2503 741 3301 
Q 1219 4100 1988 4444 
L 1988 4313 
Q 1603 4100 1356 3731 
Q 1109 3363 987 2797 
Q 866 2231 866 1616 
Q 866 947 969 400 
Q 1050 -31 1165 -292 
Q 1281 -553 1476 -793 
Q 1672 -1034 1988 -1253 
z
" transform="scale(0.015625)"/>
       <path id="TimesNewRomanPSMT-73" d="M 2050 2947 
L 2050 1972 
L 1947 1972 
Q 1828 2431 1642 2597 
Q 1456 2763 1169 2763 
Q 950 2763 815 2647 
Q 681 2531 681 2391 
Q 681 2216 781 2091 
Q 878 1963 1175 1819 
L 1631 1597 
Q 2266 1288 2266 781 
Q 2266 391 1970 151 
Q 1675 -88 1309 -88 
Q 1047 -88 709 6 
Q 606 38 541 38 
Q 469 38 428 -44 
L 325 -44 
L 325 978 
L 428 978 
Q 516 541 762 319 
Q 1009 97 1316 97 
Q 1531 97 1667 223 
Q 1803 350 1803 528 
Q 1803 744 1651 891 
Q 1500 1038 1047 1263 
Q 594 1488 453 1669 
Q 313 1847 313 2119 
Q 313 2472 555 2709 
Q 797 2947 1181 2947 
Q 1350 2947 1591 2875 
Q 1750 2828 1803 2828 
Q 1853 2828 1881 2850 
Q 1909 2872 1947 2947 
L 2050 2947 
z
" transform="scale(0.015625)"/>
       <path id="TimesNewRomanPSMT-29" d="M 144 4313 
L 144 4444 
Q 619 4209 934 3891 
Q 1381 3434 1625 2820 
Q 1869 2206 1869 1541 
Q 1869 572 1392 -226 
Q 916 -1025 144 -1369 
L 144 -1253 
Q 528 -1038 776 -670 
Q 1025 -303 1145 264 
Q 1266 831 1266 1447 
Q 1266 2113 1163 2663 
Q 1084 3094 967 3353 
Q 850 3613 656 3853 
Q 463 4094 144 4313 
z
" transform="scale(0.015625)"/>
      </defs>
      <use xlink:href="#TimesNewRomanPSMT-54"/>
      <use xlink:href="#TimesNewRomanPSMT-69" x="57.583984"/>
      <use xlink:href="#TimesNewRomanPSMT-6d" x="85.367188"/>
      <use xlink:href="#TimesNewRomanPSMT-65" x="163.150391"/>
      <use xlink:href="#TimesNewRomanPSMT-20" x="207.535156"/>
      <use xlink:href="#TimesNewRomanPSMT-28" x="232.535156"/>
      <use xlink:href="#TimesNewRomanPSMT-73" x="265.835938"/>
      <use xlink:href="#TimesNewRomanPSMT-29" x="304.751953"/>
     </g>
    </g>
   </g>
   <g id="matplotlib.axis_2">
    <g id="ytick_1">
     <g id="line2d_13">
      <path d="M 56.621875 134.291339 
L 250.603765 134.291339 
" clip-path="url(#p923cc65e24)" style="fill: none; stroke: #b0b0b0; stroke-width: 0.8; stroke-linecap: square"/>
     </g>
     <g id="line2d_14">
      <defs>
       <path id="mc320afc221" d="M 0 0 
L -3.5 0 
" style="stroke: #000000; stroke-width: 0.8"/>
      </defs>
      <g>
       <use xlink:href="#mc320afc221" x="56.621875" y="134.291339" style="stroke: #000000; stroke-width: 0.8"/>
      </g>
     </g>
     <g id="text_8">
      <!-- 0.0000 -->
      <g transform="translate(22.121875 137.763214) scale(0.1 -0.1)">
       <defs>
        <path id="TimesNewRomanPSMT-2e" d="M 800 606 
Q 947 606 1047 504 
Q 1147 403 1147 259 
Q 1147 116 1045 14 
Q 944 -88 800 -88 
Q 656 -88 554 14 
Q 453 116 453 259 
Q 453 406 554 506 
Q 656 606 800 606 
z
" transform="scale(0.015625)"/>
       </defs>
       <use xlink:href="#TimesNewRomanPSMT-30"/>
       <use xlink:href="#TimesNewRomanPSMT-2e" x="50"/>
       <use xlink:href="#TimesNewRomanPSMT-30" x="75"/>
       <use xlink:href="#TimesNewRomanPSMT-30" x="125"/>
       <use xlink:href="#TimesNewRomanPSMT-30" x="175"/>
       <use xlink:href="#TimesNewRomanPSMT-30" x="225"/>
      </g>
     </g>
    </g>
    <g id="ytick_2">
     <g id="line2d_15">
      <path d="M 56.621875 90.915825 
L 250.603765 90.915825 
" clip-path="url(#p923cc65e24)" style="fill: none; stroke: #b0b0b0; stroke-width: 0.8; stroke-linecap: square"/>
     </g>
     <g id="line2d_16">
      <g>
       <use xlink:href="#mc320afc221" x="56.621875" y="90.915825" style="stroke: #000000; stroke-width: 0.8"/>
      </g>
     </g>
     <g id="text_9">
      <!-- 0.0002 -->
      <g transform="translate(22.121875 94.3877) scale(0.1 -0.1)">
       <use xlink:href="#TimesNewRomanPSMT-30"/>
       <use xlink:href="#TimesNewRomanPSMT-2e" x="50"/>
       <use xlink:href="#TimesNewRomanPSMT-30" x="75"/>
       <use xlink:href="#TimesNewRomanPSMT-30" x="125"/>
       <use xlink:href="#TimesNewRomanPSMT-30" x="175"/>
       <use xlink:href="#TimesNewRomanPSMT-32" x="225"/>
      </g>
     </g>
    </g>
    <g id="ytick_3">
     <g id="line2d_17">
      <path d="M 56.621875 47.540312 
L 250.603765 47.540312 
" clip-path="url(#p923cc65e24)" style="fill: none; stroke: #b0b0b0; stroke-width: 0.8; stroke-linecap: square"/>
     </g>
     <g id="line2d_18">
      <g>
       <use xlink:href="#mc320afc221" x="56.621875" y="47.540312" style="stroke: #000000; stroke-width: 0.8"/>
      </g>
     </g>
     <g id="text_10">
      <!-- 0.0004 -->
      <g transform="translate(22.121875 51.012187) scale(0.1 -0.1)">
       <use xlink:href="#TimesNewRomanPSMT-30"/>
       <use xlink:href="#TimesNewRomanPSMT-2e" x="50"/>
       <use xlink:href="#TimesNewRomanPSMT-30" x="75"/>
       <use xlink:href="#TimesNewRomanPSMT-30" x="125"/>
       <use xlink:href="#TimesNewRomanPSMT-30" x="175"/>
       <use xlink:href="#TimesNewRomanPSMT-34" x="225"/>
      </g>
     </g>
    </g>
    <g id="text_11">
     <!-- Change in Refractive Index -->
     <g transform="translate(15.5325 139.914154) rotate(-90) scale(0.12 -0.12)">
      <defs>
       <path id="TimesNewRomanPSMT-43" d="M 3853 4334 
L 3950 2894 
L 3853 2894 
Q 3659 3541 3300 3825 
Q 2941 4109 2438 4109 
Q 2016 4109 1675 3895 
Q 1334 3681 1139 3212 
Q 944 2744 944 2047 
Q 944 1472 1128 1050 
Q 1313 628 1683 403 
Q 2053 178 2528 178 
Q 2941 178 3256 354 
Q 3572 531 3950 1056 
L 4047 994 
Q 3728 428 3303 165 
Q 2878 -97 2294 -97 
Q 1241 -97 663 684 
Q 231 1266 231 2053 
Q 231 2688 515 3219 
Q 800 3750 1298 4042 
Q 1797 4334 2388 4334 
Q 2847 4334 3294 4109 
Q 3425 4041 3481 4041 
Q 3566 4041 3628 4100 
Q 3709 4184 3744 4334 
L 3853 4334 
z
" transform="scale(0.015625)"/>
       <path id="TimesNewRomanPSMT-68" d="M 1041 4444 
L 1041 2350 
Q 1388 2731 1591 2839 
Q 1794 2947 1997 2947 
Q 2241 2947 2416 2812 
Q 2591 2678 2675 2391 
Q 2734 2191 2734 1659 
L 2734 647 
Q 2734 375 2778 275 
Q 2809 200 2884 156 
Q 2959 113 3159 113 
L 3159 0 
L 1753 0 
L 1753 113 
L 1819 113 
Q 2019 113 2097 173 
Q 2175 234 2206 353 
Q 2216 403 2216 647 
L 2216 1659 
Q 2216 2128 2167 2275 
Q 2119 2422 2012 2495 
Q 1906 2569 1756 2569 
Q 1603 2569 1437 2487 
Q 1272 2406 1041 2159 
L 1041 647 
Q 1041 353 1073 281 
Q 1106 209 1195 161 
Q 1284 113 1503 113 
L 1503 0 
L 84 0 
L 84 113 
Q 275 113 384 172 
Q 447 203 484 290 
Q 522 378 522 647 
L 522 3238 
Q 522 3728 498 3840 
Q 475 3953 426 3993 
Q 378 4034 297 4034 
Q 231 4034 84 3984 
L 41 4094 
L 897 4444 
L 1041 4444 
z
" transform="scale(0.015625)"/>
       <path id="TimesNewRomanPSMT-61" d="M 1822 413 
Q 1381 72 1269 19 
Q 1100 -59 909 -59 
Q 613 -59 420 144 
Q 228 347 228 678 
Q 228 888 322 1041 
Q 450 1253 767 1440 
Q 1084 1628 1822 1897 
L 1822 2009 
Q 1822 2438 1686 2597 
Q 1550 2756 1291 2756 
Q 1094 2756 978 2650 
Q 859 2544 859 2406 
L 866 2225 
Q 866 2081 792 2003 
Q 719 1925 600 1925 
Q 484 1925 411 2006 
Q 338 2088 338 2228 
Q 338 2497 613 2722 
Q 888 2947 1384 2947 
Q 1766 2947 2009 2819 
Q 2194 2722 2281 2516 
Q 2338 2381 2338 1966 
L 2338 994 
Q 2338 584 2353 492 
Q 2369 400 2405 369 
Q 2441 338 2488 338 
Q 2538 338 2575 359 
Q 2641 400 2828 588 
L 2828 413 
Q 2478 -56 2159 -56 
Q 2006 -56 1915 50 
Q 1825 156 1822 413 
z
M 1822 616 
L 1822 1706 
Q 1350 1519 1213 1441 
Q 966 1303 859 1153 
Q 753 1003 753 825 
Q 753 600 887 451 
Q 1022 303 1197 303 
Q 1434 303 1822 616 
z
" transform="scale(0.015625)"/>
       <path id="TimesNewRomanPSMT-6e" d="M 1034 2341 
Q 1538 2947 1994 2947 
Q 2228 2947 2397 2830 
Q 2566 2713 2666 2444 
Q 2734 2256 2734 1869 
L 2734 647 
Q 2734 375 2778 278 
Q 2813 200 2889 156 
Q 2966 113 3172 113 
L 3172 0 
L 1756 0 
L 1756 113 
L 1816 113 
Q 2016 113 2095 173 
Q 2175 234 2206 353 
Q 2219 400 2219 647 
L 2219 1819 
Q 2219 2209 2117 2386 
Q 2016 2563 1775 2563 
Q 1403 2563 1034 2156 
L 1034 647 
Q 1034 356 1069 288 
Q 1113 197 1189 155 
Q 1266 113 1500 113 
L 1500 0 
L 84 0 
L 84 113 
L 147 113 
Q 366 113 442 223 
Q 519 334 519 647 
L 519 1709 
Q 519 2225 495 2337 
Q 472 2450 423 2490 
Q 375 2531 294 2531 
Q 206 2531 84 2484 
L 38 2597 
L 900 2947 
L 1034 2947 
L 1034 2341 
z
" transform="scale(0.015625)"/>
       <path id="TimesNewRomanPSMT-67" d="M 966 1044 
Q 703 1172 562 1401 
Q 422 1631 422 1909 
Q 422 2334 742 2640 
Q 1063 2947 1563 2947 
Q 1972 2947 2272 2747 
L 2878 2747 
Q 3013 2747 3034 2739 
Q 3056 2731 3066 2713 
Q 3084 2684 3084 2613 
Q 3084 2531 3069 2500 
Q 3059 2484 3036 2475 
Q 3013 2466 2878 2466 
L 2506 2466 
Q 2681 2241 2681 1891 
Q 2681 1491 2375 1206 
Q 2069 922 1553 922 
Q 1341 922 1119 984 
Q 981 866 932 777 
Q 884 688 884 625 
Q 884 572 936 522 
Q 988 472 1138 450 
Q 1225 438 1575 428 
Q 2219 413 2409 384 
Q 2700 344 2873 169 
Q 3047 -6 3047 -263 
Q 3047 -616 2716 -925 
Q 2228 -1381 1444 -1381 
Q 841 -1381 425 -1109 
Q 191 -953 191 -784 
Q 191 -709 225 -634 
Q 278 -519 444 -313 
Q 466 -284 763 25 
Q 600 122 533 198 
Q 466 275 466 372 
Q 466 481 555 628 
Q 644 775 966 1044 
z
M 1509 2797 
Q 1278 2797 1122 2612 
Q 966 2428 966 2047 
Q 966 1553 1178 1281 
Q 1341 1075 1591 1075 
Q 1828 1075 1981 1253 
Q 2134 1431 2134 1813 
Q 2134 2309 1919 2591 
Q 1759 2797 1509 2797 
z
M 934 0 
Q 788 -159 713 -296 
Q 638 -434 638 -550 
Q 638 -700 819 -813 
Q 1131 -1006 1722 -1006 
Q 2284 -1006 2551 -807 
Q 2819 -609 2819 -384 
Q 2819 -222 2659 -153 
Q 2497 -84 2016 -72 
Q 1313 -53 934 0 
z
" transform="scale(0.015625)"/>
       <path id="TimesNewRomanPSMT-52" d="M 4325 0 
L 3194 0 
L 1759 1981 
Q 1600 1975 1500 1975 
Q 1459 1975 1412 1976 
Q 1366 1978 1316 1981 
L 1316 750 
Q 1316 350 1403 253 
Q 1522 116 1759 116 
L 1925 116 
L 1925 0 
L 109 0 
L 109 116 
L 269 116 
Q 538 116 653 291 
Q 719 388 719 750 
L 719 3488 
Q 719 3888 631 3984 
Q 509 4122 269 4122 
L 109 4122 
L 109 4238 
L 1653 4238 
Q 2328 4238 2648 4139 
Q 2969 4041 3192 3777 
Q 3416 3513 3416 3147 
Q 3416 2756 3161 2468 
Q 2906 2181 2372 2063 
L 3247 847 
Q 3547 428 3762 290 
Q 3978 153 4325 116 
L 4325 0 
z
M 1316 2178 
Q 1375 2178 1419 2176 
Q 1463 2175 1491 2175 
Q 2097 2175 2405 2437 
Q 2713 2700 2713 3106 
Q 2713 3503 2464 3751 
Q 2216 4000 1806 4000 
Q 1625 4000 1316 3941 
L 1316 2178 
z
" transform="scale(0.015625)"/>
       <path id="TimesNewRomanPSMT-66" d="M 1319 2638 
L 1319 756 
Q 1319 356 1406 250 
Q 1522 113 1716 113 
L 1975 113 
L 1975 0 
L 266 0 
L 266 113 
L 394 113 
Q 519 113 622 175 
Q 725 238 764 344 
Q 803 450 803 756 
L 803 2638 
L 247 2638 
L 247 2863 
L 803 2863 
L 803 3050 
Q 803 3478 940 3775 
Q 1078 4072 1361 4255 
Q 1644 4438 1997 4438 
Q 2325 4438 2600 4225 
Q 2781 4084 2781 3909 
Q 2781 3816 2700 3733 
Q 2619 3650 2525 3650 
Q 2453 3650 2373 3701 
Q 2294 3753 2178 3923 
Q 2063 4094 1966 4153 
Q 1869 4213 1750 4213 
Q 1606 4213 1506 4136 
Q 1406 4059 1362 3898 
Q 1319 3738 1319 3069 
L 1319 2863 
L 2056 2863 
L 2056 2638 
L 1319 2638 
z
" transform="scale(0.015625)"/>
       <path id="TimesNewRomanPSMT-72" d="M 1038 2947 
L 1038 2303 
Q 1397 2947 1775 2947 
Q 1947 2947 2059 2842 
Q 2172 2738 2172 2600 
Q 2172 2478 2090 2393 
Q 2009 2309 1897 2309 
Q 1788 2309 1652 2417 
Q 1516 2525 1450 2525 
Q 1394 2525 1328 2463 
Q 1188 2334 1038 2041 
L 1038 669 
Q 1038 431 1097 309 
Q 1138 225 1241 169 
Q 1344 113 1538 113 
L 1538 0 
L 72 0 
L 72 113 
Q 291 113 397 181 
Q 475 231 506 341 
Q 522 394 522 644 
L 522 1753 
Q 522 2253 501 2348 
Q 481 2444 426 2487 
Q 372 2531 291 2531 
Q 194 2531 72 2484 
L 41 2597 
L 906 2947 
L 1038 2947 
z
" transform="scale(0.015625)"/>
       <path id="TimesNewRomanPSMT-63" d="M 2631 1088 
Q 2516 522 2178 217 
Q 1841 -88 1431 -88 
Q 944 -88 581 321 
Q 219 731 219 1428 
Q 219 2103 620 2525 
Q 1022 2947 1584 2947 
Q 2006 2947 2278 2723 
Q 2550 2500 2550 2259 
Q 2550 2141 2473 2067 
Q 2397 1994 2259 1994 
Q 2075 1994 1981 2113 
Q 1928 2178 1911 2362 
Q 1894 2547 1784 2644 
Q 1675 2738 1481 2738 
Q 1169 2738 978 2506 
Q 725 2200 725 1697 
Q 725 1184 976 792 
Q 1228 400 1656 400 
Q 1963 400 2206 609 
Q 2378 753 2541 1131 
L 2631 1088 
z
" transform="scale(0.015625)"/>
       <path id="TimesNewRomanPSMT-74" d="M 1031 3803 
L 1031 2863 
L 1700 2863 
L 1700 2644 
L 1031 2644 
L 1031 788 
Q 1031 509 1111 412 
Q 1191 316 1316 316 
Q 1419 316 1516 380 
Q 1613 444 1666 569 
L 1788 569 
Q 1678 263 1478 108 
Q 1278 -47 1066 -47 
Q 922 -47 784 33 
Q 647 113 581 261 
Q 516 409 516 719 
L 516 2644 
L 63 2644 
L 63 2747 
Q 234 2816 414 2980 
Q 594 3144 734 3369 
Q 806 3488 934 3803 
L 1031 3803 
z
" transform="scale(0.015625)"/>
       <path id="TimesNewRomanPSMT-76" d="M 53 2863 
L 1400 2863 
L 1400 2747 
L 1313 2747 
Q 1191 2747 1127 2687 
Q 1063 2628 1063 2528 
Q 1063 2419 1128 2269 
L 1794 688 
L 2463 2328 
Q 2534 2503 2534 2594 
Q 2534 2638 2509 2666 
Q 2475 2713 2422 2730 
Q 2369 2747 2206 2747 
L 2206 2863 
L 3141 2863 
L 3141 2747 
Q 2978 2734 2916 2681 
Q 2806 2588 2719 2369 
L 1703 -88 
L 1575 -88 
L 553 2328 
Q 484 2497 421 2570 
Q 359 2644 263 2694 
Q 209 2722 53 2747 
L 53 2863 
z
" transform="scale(0.015625)"/>
       <path id="TimesNewRomanPSMT-49" d="M 1975 116 
L 1975 0 
L 159 0 
L 159 116 
L 309 116 
Q 572 116 691 269 
Q 766 369 766 750 
L 766 3488 
Q 766 3809 725 3913 
Q 694 3991 597 4047 
Q 459 4122 309 4122 
L 159 4122 
L 159 4238 
L 1975 4238 
L 1975 4122 
L 1822 4122 
Q 1563 4122 1444 3969 
Q 1366 3869 1366 3488 
L 1366 750 
Q 1366 428 1406 325 
Q 1438 247 1538 191 
Q 1672 116 1822 116 
L 1975 116 
z
" transform="scale(0.015625)"/>
       <path id="TimesNewRomanPSMT-64" d="M 2222 322 
Q 2013 103 1813 7 
Q 1613 -88 1381 -88 
Q 913 -88 563 304 
Q 213 697 213 1313 
Q 213 1928 600 2439 
Q 988 2950 1597 2950 
Q 1975 2950 2222 2709 
L 2222 3238 
Q 2222 3728 2198 3840 
Q 2175 3953 2125 3993 
Q 2075 4034 2000 4034 
Q 1919 4034 1784 3984 
L 1744 4094 
L 2597 4444 
L 2738 4444 
L 2738 1134 
Q 2738 631 2761 520 
Q 2784 409 2836 365 
Q 2888 322 2956 322 
Q 3041 322 3181 375 
L 3216 266 
L 2366 -88 
L 2222 -88 
L 2222 322 
z
M 2222 541 
L 2222 2016 
Q 2203 2228 2109 2403 
Q 2016 2578 1861 2667 
Q 1706 2756 1559 2756 
Q 1284 2756 1069 2509 
Q 784 2184 784 1559 
Q 784 928 1059 592 
Q 1334 256 1672 256 
Q 1956 256 2222 541 
z
" transform="scale(0.015625)"/>
       <path id="TimesNewRomanPSMT-78" d="M 84 2863 
L 1431 2863 
L 1431 2747 
Q 1303 2747 1251 2703 
Q 1200 2659 1200 2588 
Q 1200 2513 1309 2356 
Q 1344 2306 1413 2200 
L 1616 1875 
L 1850 2200 
Q 2075 2509 2075 2591 
Q 2075 2656 2022 2701 
Q 1969 2747 1850 2747 
L 1850 2863 
L 2819 2863 
L 2819 2747 
Q 2666 2738 2553 2663 
Q 2400 2556 2134 2200 
L 1744 1678 
L 2456 653 
Q 2719 275 2831 198 
Q 2944 122 3122 113 
L 3122 0 
L 1772 0 
L 1772 113 
Q 1913 113 1991 175 
Q 2050 219 2050 291 
Q 2050 363 1850 653 
L 1431 1266 
L 972 653 
Q 759 369 759 316 
Q 759 241 829 180 
Q 900 119 1041 113 
L 1041 0 
L 106 0 
L 106 113 
Q 219 128 303 191 
Q 422 281 703 653 
L 1303 1450 
L 759 2238 
Q 528 2575 401 2661 
Q 275 2747 84 2747 
L 84 2863 
z
" transform="scale(0.015625)"/>
      </defs>
      <use xlink:href="#TimesNewRomanPSMT-43"/>
      <use xlink:href="#TimesNewRomanPSMT-68" x="66.699219"/>
      <use xlink:href="#TimesNewRomanPSMT-61" x="116.699219"/>
      <use xlink:href="#TimesNewRomanPSMT-6e" x="161.083984"/>
      <use xlink:href="#TimesNewRomanPSMT-67" x="211.083984"/>
      <use xlink:href="#TimesNewRomanPSMT-65" x="261.083984"/>
      <use xlink:href="#TimesNewRomanPSMT-20" x="305.46875"/>
      <use xlink:href="#TimesNewRomanPSMT-69" x="330.46875"/>
      <use xlink:href="#TimesNewRomanPSMT-6e" x="358.251953"/>
      <use xlink:href="#TimesNewRomanPSMT-20" x="408.251953"/>
      <use xlink:href="#TimesNewRomanPSMT-52" x="433.251953"/>
      <use xlink:href="#TimesNewRomanPSMT-65" x="499.951172"/>
      <use xlink:href="#TimesNewRomanPSMT-66" x="544.335938"/>
      <use xlink:href="#TimesNewRomanPSMT-72" x="577.636719"/>
      <use xlink:href="#TimesNewRomanPSMT-61" x="610.9375"/>
      <use xlink:href="#TimesNewRomanPSMT-63" x="655.322266"/>
      <use xlink:href="#TimesNewRomanPSMT-74" x="699.707031"/>
      <use xlink:href="#TimesNewRomanPSMT-69" x="727.490234"/>
      <use xlink:href="#TimesNewRomanPSMT-76" x="755.273438"/>
      <use xlink:href="#TimesNewRomanPSMT-65" x="805.273438"/>
      <use xlink:href="#TimesNewRomanPSMT-20" x="849.658203"/>
      <use xlink:href="#TimesNewRomanPSMT-49" x="874.658203"/>
      <use xlink:href="#TimesNewRomanPSMT-6e" x="907.958984"/>
      <use xlink:href="#TimesNewRomanPSMT-64" x="957.958984"/>
      <use xlink:href="#TimesNewRomanPSMT-65" x="1007.958984"/>
      <use xlink:href="#TimesNewRomanPSMT-78" x="1052.34375"/>
     </g>
    </g>
   </g>
   <g id="line2d_19">
    <path d="M 65.439234 134.291339 
L 65.80949 131.970749 
L 66.190838 127.22113 
L 67.301423 107.59371 
L 68.759528 90.243505 
L 69.129785 87.96629 
L 69.499857 84.517937 
L 69.870114 82.305786 
L 70.240185 81.416588 
L 70.99179 75.127138 
L 71.350771 74.389755 
L 71.721027 73.37043 
L 72.102375 71.028152 
L 72.461356 69.683511 
L 72.831428 69.444946 
L 73.201684 69.98714 
L 73.942013 63.41575 
L 74.312085 62.786805 
L 74.682341 65.476087 
L 75.052413 64.413387 
L 75.42267 60.574654 
L 75.792742 59.728831 
L 76.162998 60.834907 
L 76.533255 58.926384 
L 76.903327 57.928747 
L 77.273583 57.885372 
L 77.632379 56.0636 
L 78.013912 55.543094 
L 78.372893 58.319127 
L 79.113221 54.827398 
L 79.494569 54.155078 
L 79.85355 52.333306 
L 80.223621 53.634571 
L 80.593878 50.641661 
L 80.96395 52.788749 
L 81.334207 50.121155 
L 81.704278 49.123518 
L 82.074535 51.010353 
L 82.814864 50.186218 
L 83.196211 50.186218 
L 83.555192 50.012716 
L 83.925449 49.6874 
L 84.295521 47.236683 
L 84.665777 47.236683 
L 85.035849 47.605375 
L 85.406106 47.713814 
L 85.776178 49.231957 
L 86.146434 48.277696 
L 86.505415 48.971704 
L 86.875487 45.414912 
L 87.245744 45.219722 
L 87.615815 44.438963 
L 87.986072 44.590777 
L 88.356144 47.605375 
L 88.726401 46.000481 
L 89.096472 42.422001 
L 89.466729 42.508752 
L 89.836801 42.443689 
L 90.207058 43.050946 
L 90.958662 40.730356 
L 91.317643 41.315926 
L 91.687715 41.66293 
L 92.057971 42.248499 
L 92.428043 43.20276 
L 92.7983 41.706305 
L 93.168372 40.947234 
L 93.549904 39.906221 
L 93.919976 42.226811 
L 94.278957 40.101411 
L 94.649029 39.732719 
L 95.019285 40.903858 
L 95.378266 41.099048 
L 95.748338 41.055673 
L 96.118594 40.40504 
L 96.488666 40.144787 
L 96.858923 40.556854 
L 97.22918 40.686981 
L 97.599251 41.641242 
L 97.969508 38.127825 
L 98.33958 40.621917 
L 98.709837 38.691707 
L 99.079908 39.385715 
L 99.461256 39.732719 
L 99.820237 38.301327 
L 100.190494 39.407403 
L 100.560565 38.800146 
L 100.930822 38.47483 
L 101.300894 39.472466 
L 102.052498 40.318289 
L 102.411479 38.843521 
L 102.781736 39.14715 
L 103.151808 37.433817 
L 103.881045 38.583268 
L 104.262393 37.867572 
L 104.621374 37.672383 
L 104.991445 36.522931 
L 105.361702 37.650695 
L 105.731774 37.130189 
L 106.102031 36.067489 
L 106.472102 36.718121 
L 106.85345 35.937362 
L 107.212431 36.024113 
L 107.582688 36.501244 
L 107.952759 33.877025 
L 108.323016 33.508333 
L 108.693088 33.985464 
L 109.063345 33.551709 
L 109.433601 35.677109 
L 109.803673 36.262678 
L 110.544002 33.378207 
L 110.914258 35.221666 
L 111.28433 33.83365 
L 111.654587 34.744535 
L 112.024659 33.855337 
L 112.394915 35.265042 
L 113.123968 32.792637 
L 113.864296 34.072215 
L 114.234553 36.219303 
L 114.974881 32.749262 
L 115.71521 33.746899 
L 116.085467 34.89635 
L 116.466814 33.746899 
L 116.825795 34.874662 
L 117.207143 33.530021 
L 117.566124 35.633733 
L 118.306452 33.031203 
L 118.676524 33.660148 
L 119.046781 34.89635 
L 119.428128 34.744535 
L 119.787109 32.467321 
L 120.157181 31.860064 
L 120.527438 33.920401 
L 120.897694 34.354156 
L 121.267766 32.857701 
L 121.996819 32.792637 
L 122.378351 34.245717 
L 123.11868 34.636097 
L 123.477661 34.072215 
L 123.847732 32.510696 
L 124.217989 34.31078 
L 124.588061 32.207068 
L 124.958318 33.009515 
L 125.328389 32.163692 
L 125.698646 32.792637 
L 126.068718 31.860064 
L 126.438975 30.05998 
L 126.809046 31.664874 
L 127.179303 32.467321 
L 127.549375 33.573397 
L 127.919632 30.884115 
L 128.289888 31.686562 
L 128.671236 34.028839 
L 129.041308 33.681835 
L 129.400289 30.992553 
L 129.770545 33.117954 
L 130.140617 29.778039 
L 130.499598 30.623862 
L 130.869854 30.775676 
L 131.239926 32.337194 
L 131.610183 29.539474 
L 131.980255 28.390023 
L 132.350511 30.580486 
L 132.720583 31.187743 
L 133.09084 30.558798 
L 133.460912 28.6069 
L 133.842444 28.867153 
L 134.20124 27.218884 
L 134.571497 28.455086 
L 134.941754 28.476774 
L 135.311825 29.279221 
L 135.682082 27.782765 
L 136.052154 31.035929 
L 136.422411 29.908166 
L 136.792482 28.324959 
L 137.162739 30.428672 
L 137.532811 29.235845 
L 137.903068 26.394749 
L 138.273139 27.696014 
L 138.643396 28.585212 
L 139.024744 28.6069 
L 139.742705 27.847829 
L 140.112777 28.867153 
L 140.483034 26.199559 
L 140.853106 30.25517 
L 141.223362 30.233482 
L 141.593434 29.973229 
L 141.963691 28.368335 
L 142.333948 27.977955 
L 142.704019 28.99728 
L 143.085367 26.112808 
L 143.444348 29.235845 
L 143.814605 29.084031 
L 144.195952 29.86479 
L 144.554933 29.496098 
L 144.925005 28.043019 
L 145.295262 27.088757 
L 145.665333 27.674327 
L 146.405662 27.240572 
L 146.775919 24.724792 
L 147.146175 27.609263 
L 147.516247 28.238208 
L 147.875228 25.635678 
L 148.2453 27.652639 
L 148.615556 27.717702 
L 148.985813 27.435761 
L 149.367161 27.479137 
L 149.726141 28.194833 
L 150.096213 25.158547 
L 150.46647 25.483863 
L 150.847818 26.67669 
L 151.206798 27.414074 
L 151.57687 26.112808 
L 151.947127 25.960994 
L 152.317199 24.464539 
L 152.687455 25.895931 
L 153.057527 25.158547 
L 153.427784 25.332049 
L 154.168112 26.177871 
L 154.538369 26.004369 
L 154.908441 24.638041 
L 155.278698 26.589939 
L 155.648769 25.830867 
L 156.019026 25.722429 
L 156.389098 26.242935 
L 156.748079 24.659729 
L 157.118335 24.703104 
L 157.499683 26.264623 
L 157.858664 26.611627 
L 158.969064 24.572977 
L 159.339321 24.507914 
L 159.709393 23.358463 
L 160.079649 24.833231 
L 160.449721 23.2934 
L 160.819978 23.792218 
L 161.190235 25.939306 
L 161.560306 25.852555 
L 161.930563 25.22361 
L 162.300635 25.4188 
L 162.670892 24.291037 
L 163.040963 25.136859 
L 163.41122 25.136859 
L 163.781292 25.939306 
L 164.151549 24.811543 
L 164.52162 25.4188 
L 164.891877 26.459812 
L 165.261949 26.87188 
L 165.62093 25.266986 
L 166.002462 25.02842 
L 166.361258 24.963357 
L 166.731515 23.250024 
L 167.101587 25.158547 
L 167.471843 25.22361 
L 167.8421 24.876606 
L 168.212172 23.77053 
L 168.582428 25.700741 
L 168.9525 25.982682 
L 169.692829 22.968084 
L 170.063085 24.941669 
L 170.433157 24.594665 
L 170.803414 24.638041 
L 171.173486 24.204286 
L 171.543742 22.360826 
L 171.913814 23.09821 
L 172.654143 22.968084 
L 173.035675 23.510277 
L 173.405747 23.662092 
L 173.764728 23.618716 
L 174.134985 24.030784 
L 174.864037 20.820996 
L 175.234294 22.382514 
L 175.604366 20.126987 
L 175.974622 20.604118 
L 176.344694 22.70783 
L 176.714951 21.84032 
L 177.085023 23.423526 
L 177.455279 22.751206 
L 177.825351 20.495679 
L 178.195608 21.515004 
L 178.56568 21.406565 
L 178.935936 19.888422 
L 179.306008 20.929434 
L 179.676265 19.498042 
L 180.046522 19.085975 
L 180.416593 19.216102 
L 180.78685 21.037873 
L 181.156922 20.192051 
L 181.527179 22.013822 
L 181.89725 19.671544 
L 182.267507 21.449941 
L 182.637579 19.411291 
L 183.007836 18.804034 
L 183.377907 19.953485 
L 184.107145 19.584793 
L 184.477217 19.91011 
L 184.847473 19.454667 
L 185.217545 20.647494 
L 185.599078 16.72201 
L 185.957874 19.237789 
L 186.32813 18.782346 
L 186.698387 18.522093 
L 187.068459 16.938887 
L 187.438715 16.33163 
L 187.808787 19.151038 
L 188.179044 18.977536 
L 188.549116 17.936524 
L 188.919372 18.543781 
L 189.289444 16.52682 
L 189.659701 17.741334 
L 190.029773 16.201503 
L 190.770101 18.717283 
L 191.151634 18.175089 
L 191.51043 17.416018 
L 191.869411 19.454667 
L 192.239667 20.473991 
L 192.609739 17.481081 
L 192.979996 17.19914 
L 193.350068 17.350955 
L 193.7316 16.700322 
L 194.090581 16.505132 
L 194.460653 16.787073 
L 194.830909 18.608844 
L 195.200981 16.375005 
L 195.571238 16.72201 
L 195.94131 16.656946 
L 196.311566 17.914836 
L 196.681638 17.155765 
L 197.051895 17.069014 
L 197.433243 17.155765 
L 197.792223 16.223191 
L 198.162295 14.921926 
L 198.532552 17.741334 
L 198.902809 16.982263 
L 199.27288 17.350955 
L 199.643137 17.220828 
L 200.383466 17.567832 
L 200.742446 18.305216 
L 201.112518 18.326904 
L 201.482775 18.06665 
L 201.852847 17.069014 
L 202.223103 16.982263 
L 202.593175 18.717283 
L 202.963432 18.934161 
L 203.34478 18.934161 
L 203.70376 17.112389 
L 204.085108 18.500406 
L 204.444089 17.285891 
L 204.814161 18.26184 
L 205.184417 17.719646 
L 205.554489 17.849773 
L 205.924746 16.787073 
L 206.295002 17.78471 
L 206.665074 17.502769 
L 207.035331 18.044963 
L 207.405403 16.808761 
L 207.775659 17.242516 
L 208.145731 18.240153 
L 208.527079 18.934161 
L 208.88606 18.283528 
L 209.256316 18.522093 
L 209.615297 18.06665 
L 209.985369 19.172726 
L 210.355626 18.977536 
L 210.736973 17.481081 
L 211.095954 18.023275 
L 211.466026 19.0426 
L 212.206355 16.960575 
L 212.576611 14.748424 
L 213.328216 15.94125 
L 213.698287 15.07374 
L 214.057268 17.19914 
L 214.427525 16.570195 
L 214.797597 16.33163 
L 215.167853 16.483444 
L 215.537925 17.090701 
L 215.908182 18.153402 
L 216.278254 17.069014 
L 216.64851 16.635259 
L 217.018582 14.336356 
L 217.388839 14.20623 
L 217.759096 14.748424 
L 218.117891 16.548508 
L 218.488148 15.247242 
L 218.85822 16.223191 
L 219.598733 14.900238 
L 219.968805 15.355681 
L 220.339062 17.19914 
L 220.709134 13.794162 
L 221.07939 15.550871 
L 221.449462 16.440069 
L 221.819719 14.162854 
L 222.189791 15.46412 
L 222.560047 15.550871 
L 222.930119 15.247242 
L 223.670448 13.251969 
L 224.040704 16.114752 
L 224.781033 14.661673 
L 225.151289 16.505132 
L 225.521361 15.07374 
L 225.891618 16.13644 
L 226.26169 14.032728 
L 226.631946 14.314669 
L 226.990927 15.485807 
L 227.360999 15.399056 
L 227.731256 16.158128 
L 228.101328 14.87855 
L 228.471584 16.570195 
L 228.852932 16.049689 
L 229.223004 13.512222 
L 229.581985 15.399056 
L 229.952241 14.726736 
L 230.322313 16.52682 
L 230.69257 15.138803 
L 231.062642 17.177452 
L 231.432898 17.372642 
L 231.814246 16.223191 
L 232.173227 16.223191 
L 232.543483 14.488171 
L 232.913555 14.076103 
L 233.283812 14.553234 
L 234.035231 16.201503 
L 234.394212 14.726736 
L 234.764469 14.835175 
L 235.134541 14.791799 
L 235.504797 15.377369 
L 235.863778 15.247242 
L 236.23385 16.201503 
L 236.604107 15.26893 
L 236.985454 15.594246 
L 237.344435 14.249605 
L 237.714507 14.40142 
L 238.084764 14.227918 
L 238.454835 15.420744 
L 238.825092 16.006314 
L 239.195349 14.292981 
L 239.565421 15.962938 
L 239.565421 15.962938 
" clip-path="url(#p923cc65e24)" style="fill: none; stroke: #1f77b4; stroke-width: 1.5; stroke-linecap: square"/>
   </g>
   <g id="line2d_20">
    <path d="M 65.439234 134.291339 
L 66.179562 132.426192 
L 66.919891 129.454969 
L 67.290147 123.534211 
L 67.660219 121.083495 
L 68.030476 119.39185 
L 68.400548 116.20375 
L 68.770804 115.704931 
L 69.141061 111.952949 
L 69.522409 110.499869 
L 69.881389 106.899702 
L 70.251461 106.747888 
L 70.621718 104.904428 
L 70.980699 104.340547 
L 71.350771 100.566877 
L 71.721027 101.69464 
L 72.102375 100.566877 
L 72.461356 100.393375 
L 72.831428 96.858271 
L 73.201684 96.684768 
L 73.571756 96.294389 
L 73.942013 95.600381 
L 74.312085 95.817258 
L 74.682341 94.082238 
L 75.052413 91.653209 
L 75.42267 91.891774 
L 75.792742 91.176078 
L 76.162998 90.200129 
L 76.544346 89.80975 
L 76.903327 90.764011 
L 77.273583 87.272282 
L 77.643655 88.681986 
L 78.013912 89.22418 
L 78.75424 85.84089 
L 79.124312 84.908317 
L 79.494569 84.821566 
L 79.85355 86.860215 
L 80.593878 83.693802 
L 80.96395 84.344435 
L 81.334207 83.628739 
L 81.704278 83.997431 
L 82.074535 84.561312 
L 82.444607 83.607051 
L 82.82614 84.756502 
L 83.196211 84.431186 
L 83.555192 84.995068 
L 83.925449 84.062494 
L 84.295521 83.585363 
L 84.665777 84.257684 
L 85.035849 81.221398 
L 85.406106 81.893718 
L 85.776178 82.153972 
L 86.146434 81.633465 
L 86.516506 81.980469 
L 87.256835 80.917769 
L 87.638367 82.65279 
L 87.997348 80.158698 
L 88.36742 79.616504 
L 88.726401 80.700892 
L 89.466729 80.52739 
L 89.836986 80.809331 
L 90.207058 80.809331 
L 90.577314 80.028571 
L 90.947386 78.618867 
L 91.317643 76.580218 
L 91.687715 77.230851 
L 92.428043 81.828655 
L 92.7983 79.334563 
L 93.168372 78.098361 
L 93.538628 78.640555 
L 93.9087 80.462326 
L 94.290233 78.40199 
L 94.649029 80.939457 
L 95.019285 81.112959 
L 95.389542 78.900808 
L 96.140961 79.790006 
L 96.511218 78.900808 
L 96.870199 78.510428 
L 97.240271 77.751357 
L 97.599251 77.859796 
L 97.969508 78.87912 
L 98.33958 77.642918 
L 98.709837 75.972961 
L 99.079908 76.710345 
L 99.450165 76.992285 
L 99.820237 78.987559 
L 100.190494 78.640555 
L 100.560565 77.079036 
L 100.942098 77.491104 
L 101.300894 77.360977 
L 101.671151 76.146463 
L 102.041407 75.842834 
L 102.781736 78.054985 
L 103.151808 78.488741 
L 103.522064 77.968234 
L 103.892136 77.751357 
L 104.262393 77.317602 
L 104.632465 76.211526 
L 105.002721 74.23794 
L 105.372793 75.213889 
L 105.74305 75.734396 
L 106.102031 78.553804 
L 106.472102 75.734396 
L 106.842359 76.797096 
L 107.212431 76.233214 
L 107.582688 73.934312 
L 107.952759 76.0814 
L 108.323016 73.435493 
L 108.693088 73.066801 
L 109.063345 74.107814 
L 109.433601 75.712708 
L 109.803673 75.539206 
L 110.17393 77.317602 
L 110.544002 74.715071 
L 110.914258 74.62832 
L 111.295606 75.734396 
L 111.665678 75.712708 
L 112.024659 74.866885 
L 112.394915 74.736759 
L 112.764987 75.322328 
L 113.135244 72.98005 
L 113.505316 74.650008 
L 113.875572 73.674059 
L 114.245829 74.324691 
L 114.627177 72.611359 
L 114.974881 72.784861 
L 115.344953 73.392118 
L 115.71521 72.849924 
L 116.085467 74.910261 
L 116.455538 74.845197 
L 116.825795 74.43313 
L 117.195867 71.982414 
L 117.566124 72.849924 
L 117.936195 72.264354 
L 118.306452 72.741485 
L 118.6878 72.177603 
L 119.046781 71.960726 
L 119.416852 72.459544 
L 119.787109 73.435493 
L 120.157181 73.131865 
L 120.527438 73.435493 
L 120.897694 73.587308 
L 121.267766 73.435493 
L 121.638023 75.756083 
L 122.008095 75.148826 
L 122.378351 76.428404 
L 122.748423 75.474142 
L 123.129771 73.847561 
L 123.488752 75.734396 
L 123.847732 74.498193 
L 124.217989 73.717434 
L 124.588061 73.478869 
L 124.958318 74.172877 
L 125.328389 72.546295 
L 125.698646 72.025789 
L 126.068718 73.435493 
L 126.438975 72.416169 
L 126.809046 72.394481 
L 127.179303 72.069165 
L 127.549375 73.630683 
L 127.919632 73.674059 
L 128.65996 72.177603 
L 129.030217 72.134228 
L 129.400289 73.066801 
L 129.770545 73.478869 
L 130.151893 74.650008 
L 130.880946 73.218616 
L 131.251202 72.589671 
L 131.621274 71.136591 
L 131.991531 70.399207 
L 132.361603 72.090852 
L 132.720583 72.893299 
L 133.09084 70.464271 
L 133.472188 71.158279 
L 133.842444 71.375156 
L 134.20124 71.743848 
L 134.571497 71.158279 
L 134.941754 72.416169 
L 135.311825 73.153552 
L 135.682082 70.811275 
L 136.052154 71.353469 
L 136.422411 71.071528 
L 136.803758 69.922077 
L 137.544087 69.336507 
L 137.914159 71.570346 
L 138.273139 71.114903 
L 138.643396 72.633046 
L 139.013468 72.676422 
L 139.753796 71.24503 
L 140.124053 71.44022 
L 140.49431 73.435493 
L 140.864382 72.372793 
L 141.234638 73.153552 
L 141.593434 72.437857 
L 141.963691 72.654734 
L 142.704019 70.312456 
L 143.074276 69.076254 
L 143.444348 68.707562 
L 143.814605 67.991866 
L 144.184676 68.92444 
L 144.554933 70.832963 
L 144.925005 67.709926 
L 145.295262 68.664187 
L 145.665333 72.004101 
L 146.03559 69.531697 
L 146.405662 70.984777 
L 146.775919 70.529334 
L 147.146175 70.442583 
L 147.516247 68.967815 
L 147.886504 65.953217 
L 148.267851 69.076254 
L 148.626832 69.228069 
L 148.996904 68.599124 
L 149.378252 70.204018 
L 149.737233 68.92444 
L 150.096213 68.230432 
L 150.46647 68.230432 
L 150.836542 68.837689 
L 151.206798 68.33887 
L 151.57687 67.254483 
L 151.947127 66.690601 
L 152.328475 67.731613 
L 153.068803 63.697691 
L 153.427784 65.54115 
L 153.798041 66.712289 
L 154.168112 66.625538 
L 154.908441 65.432711 
L 155.278698 65.714652 
L 155.648769 65.692964 
L 156.019026 65.129083 
L 156.400374 65.34596 
L 156.759355 65.280897 
L 157.140702 65.649589 
L 157.869755 64.998956 
L 158.240012 65.562838 
L 158.610083 63.676003 
L 158.969064 63.22056 
L 159.339321 65.432711 
L 159.720669 65.280897 
L 160.079649 64.608576 
L 160.460997 65.020644 
L 160.819978 63.741066 
L 161.190235 65.129083 
L 161.930563 66.191783 
L 162.300635 66.018281 
L 162.670892 65.020644 
L 163.040963 64.890517 
L 163.422311 65.953217 
L 163.781292 62.938619 
L 164.162824 64.456762 
L 164.52162 64.28326 
L 164.891877 64.998956 
L 165.261949 65.367648 
L 165.632206 64.630264 
L 166.002462 64.977268 
L 166.372534 63.198872 
L 166.742791 63.112121 
L 167.112863 64.47845 
L 167.8421 65.280897 
L 168.212172 65.714652 
L 168.9525 63.307311 
L 169.322757 66.473723 
L 169.692829 66.256846 
L 170.063085 66.517099 
L 170.433157 67.905115 
L 170.803414 65.714652 
L 171.173486 67.731613 
L 171.555018 65.34596 
L 171.913814 65.649589 
L 172.284071 66.148407 
L 172.654328 66.365285 
L 173.024399 67.297858 
L 173.394656 66.278534 
L 173.764728 68.447309 
L 174.505056 67.991866 
L 174.875313 69.076254 
L 175.245385 67.514736 
L 175.615642 67.948491 
L 176.35597 68.143681 
L 176.726042 65.823091 
L 177.085023 66.668913 
L 177.455279 66.430348 
L 177.825351 69.184693 
L 178.195608 68.425622 
L 178.935936 69.510009 
L 179.306008 69.336507 
L 179.676265 69.423258 
L 180.046522 67.167732 
L 180.416593 65.866466 
L 180.78685 68.230432 
L 181.156922 67.601487 
L 181.527179 68.035242 
L 181.89725 67.601487 
L 182.267507 69.228069 
L 182.637579 66.668913 
L 183.007836 67.883428 
L 183.377907 70.052203 
L 183.748164 69.922077 
L 184.118236 69.553385 
L 184.488493 69.98714 
L 184.858749 70.052203 
L 185.217545 66.538787 
L 185.587802 66.842415 
L 185.957874 68.425622 
L 186.32813 66.365285 
L 186.709478 67.102668 
L 187.068459 65.801403 
L 187.438715 66.452036 
L 187.808787 68.165368 
L 188.179044 66.538787 
L 188.549116 66.972542 
L 188.919372 68.512373 
L 189.289444 66.538787 
L 189.659701 65.606213 
L 190.029773 66.538787 
L 190.400029 64.760391 
L 190.770101 67.124356 
L 191.140358 67.948491 
L 191.51043 67.362921 
L 191.880686 68.707562 
L 192.250943 64.630264 
L 192.621015 66.668913 
L 192.991272 65.996593 
L 193.361343 64.109758 
L 193.7316 66.625538 
L 194.090581 66.733976 
L 194.460653 68.425622 
L 194.830909 66.560474 
L 195.200981 66.473723 
L 195.571238 67.146044 
L 195.952586 63.480813 
L 196.311566 65.237521 
L 196.681638 64.239884 
L 197.051895 64.95558 
L 197.421967 65.302585 
L 198.162295 64.326636 
L 198.532552 64.803766 
L 198.902809 65.064019 
L 199.27288 64.08807 
L 199.643137 65.042331 
L 200.383466 64.370011 
L 200.753537 64.630264 
L 201.123794 65.54115 
L 201.493866 63.957944 
L 201.864123 64.543513 
L 202.234194 65.367648 
L 202.604451 65.280897 
L 203.333504 68.447309 
L 203.70376 66.625538 
L 204.444089 66.061656 
L 204.814161 67.146044 
L 205.184417 67.211107 
L 205.554674 68.143681 
L 205.924746 64.933893 
L 206.295002 64.695327 
L 206.665074 66.972542 
L 207.405403 67.796677 
L 207.775659 66.733976 
L 208.157007 67.66655 
L 208.527079 65.909842 
L 208.897336 66.842415 
L 209.267592 66.60385 
L 209.637664 66.018281 
L 210.007921 67.27617 
L 210.377993 66.625538 
L 210.748249 64.131446 
L 211.10723 65.953217 
L 211.466026 64.760391 
L 211.836283 64.348323 
L 212.206355 66.039968 
L 212.576611 65.823091 
L 212.946868 63.133809 
L 213.31694 63.263935 
L 213.687196 62.548239 
L 214.057268 65.649589 
L 214.427525 66.929166 
L 214.797597 64.651952 
L 215.167853 63.719378 
L 215.908182 64.847142 
L 216.278254 64.413387 
L 216.64851 64.47845 
L 217.018582 65.779715 
L 217.388839 65.73634 
L 217.759096 65.194146 
L 218.129167 62.526552 
L 218.499424 63.654315 
L 218.869496 63.89288 
L 219.239753 65.34596 
L 219.609824 64.500138 
L 219.980081 65.779715 
L 220.339062 65.519462 
L 220.709134 63.350686 
L 221.07939 65.671276 
L 221.449462 62.504864 
L 221.83081 63.676003 
L 222.571323 63.198872 
L 222.941395 64.912205 
L 223.311652 63.155497 
L 223.670448 65.606213 
L 224.040704 63.350686 
L 224.422052 65.324272 
L 224.792309 64.803766 
L 225.162381 63.676003 
L 225.521361 63.697691 
L 225.891618 64.131446 
L 226.26169 64.08807 
L 226.631946 64.348323 
L 228.112603 60.683092 
L 228.482675 64.239884 
L 228.852932 63.22056 
L 229.223004 62.938619 
L 229.963517 65.758027 
L 230.333589 65.888154 
L 230.703846 63.806129 
L 231.073917 64.066382 
L 231.803155 64.08807 
L 232.173227 65.627901 
L 232.543483 64.456762 
L 232.924831 66.560474 
L 233.294903 64.890517 
L 233.66516 65.519462 
L 234.035231 63.589252 
L 234.405488 63.372374 
L 234.775745 61.875919 
L 235.134541 62.938619 
L 235.504797 65.237521 
L 235.874869 64.456762 
L 236.256402 61.96267 
L 236.626474 64.239884 
L 236.985454 65.714652 
L 237.355711 65.172458 
L 237.725783 62.418113 
L 238.084764 61.246974 
L 238.45502 62.027733 
L 238.825092 63.242248 
L 239.195349 63.285623 
L 239.576697 63.676003 
L 240.305749 61.312037 
L 240.676006 62.244611 
L 241.046078 60.769843 
L 241.416334 64.239884 
L 241.786406 63.914568 
L 241.786406 63.914568 
" clip-path="url(#p923cc65e24)" style="fill: none; stroke: #ff7f0e; stroke-width: 1.5; stroke-linecap: square"/>
   </g>
   <g id="line2d_21">
    <path d="M 65.439234 134.291339 
L 65.80949 132.990073 
L 66.179747 132.231002 
L 66.549819 132.881634 
L 66.920075 132.968385 
L 67.301423 132.621381 
L 67.660404 130.951424 
L 68.030476 130.929736 
L 68.400732 127.438007 
L 68.770804 122.558262 
L 69.141061 123.989654 
L 69.511133 122.276321 
L 69.881389 118.61109 
L 70.262737 116.941133 
L 70.621718 116.312188 
L 70.99179 115.2278 
L 71.362046 112.365017 
L 71.732303 110.868561 
L 72.102375 107.094892 
L 72.472632 106.7262 
L 72.831428 106.118943 
L 73.201684 104.232108 
L 73.571941 105.099618 
L 73.942013 102.692277 
L 74.312269 102.215146 
L 74.682341 100.63194 
L 75.052598 100.82713 
L 75.42267 99.243924 
L 75.792926 95.99076 
L 76.162998 95.253377 
L 76.533255 95.231689 
L 76.903327 96.901646 
L 77.273583 96.402828 
L 77.643655 96.641393 
L 78.013912 95.275064 
L 78.384169 91.848399 
L 78.75424 93.626795 
L 79.494569 92.021901 
L 79.864826 92.303842 
L 80.234897 91.024264 
L 80.605154 88.812113 
L 80.975226 91.913462 
L 81.345483 91.371268 
L 81.704463 91.436331 
L 82.074535 89.137429 
L 82.444792 88.638611 
L 83.196396 90.764011 
L 83.555192 90.633884 
L 83.925449 90.785699 
L 84.665777 86.751776 
L 85.035849 87.315658 
L 85.406106 89.484433 
L 85.776362 88.703674 
L 86.146434 88.74705 
L 86.516691 88.334982 
L 86.886763 88.400045 
L 87.257019 89.007303 
L 87.627091 88.833801 
L 87.997348 85.211945 
L 88.36742 85.472198 
L 88.737676 86.057768 
L 89.107748 86.209582 
L 89.489281 87.857852 
L 89.848077 87.272282 
L 90.218333 87.077092 
L 90.577314 87.510847 
L 90.947386 87.207219 
L 91.317643 87.836164 
L 92.057971 85.385447 
L 92.428228 85.081819 
L 92.7983 84.084182 
L 93.168556 84.908317 
L 93.538628 87.879539 
L 93.908885 87.142156 
L 94.278957 87.185531 
L 94.649213 87.09878 
L 95.019285 86.513211 
L 95.389542 87.944603 
L 95.759614 85.6457 
L 96.12987 86.578274 
L 96.499942 85.689076 
L 96.870199 86.252958 
L 97.240456 85.6457 
L 97.621803 85.580637 
L 97.980784 85.320384 
L 98.350856 83.823929 
L 98.721113 85.905953 
L 99.080093 84.886629 
L 99.450165 84.496249 
L 99.820422 84.496249 
L 100.190494 83.151608 
L 100.56075 83.455237 
L 100.930822 84.235996 
L 101.301079 84.561312 
L 101.671151 86.101143 
L 102.041407 84.409498 
L 102.411479 84.561312 
L 102.781736 84.019119 
L 103.151808 83.954055 
L 103.522064 85.624013 
L 103.892136 83.650427 
L 104.262393 84.583 
L 104.632649 83.260047 
L 105.002721 83.845617 
L 105.372978 82.978106 
L 105.74305 84.756502 
L 106.124398 83.650427 
L 106.483378 83.411861 
L 106.853635 84.084182 
L 107.223707 80.939457 
L 107.605239 82.869667 
L 107.952944 81.481651 
L 108.323016 84.040806 
L 108.693273 83.585363 
L 109.063345 81.481651 
L 109.433601 84.019119 
L 109.803673 83.71549 
L 110.17393 81.958782 
L 110.544002 82.06722 
L 110.914258 83.260047 
L 111.284515 80.896082 
L 111.665863 82.674478 
L 112.024843 80.592453 
L 112.394915 83.802241 
L 112.765172 80.787643 
L 113.135244 81.047896 
L 113.875572 82.4576 
L 114.245829 82.197347 
L 114.615901 82.999794 
L 114.986157 82.522663 
L 115.356229 83.780553 
L 115.726486 83.888992 
L 116.096558 82.631102 
L 116.466814 82.978106 
L 116.825795 82.06722 
L 117.195867 81.655153 
L 117.566124 78.900808 
L 117.936195 81.243086 
L 118.306452 81.19971 
L 118.6878 82.609414 
L 119.046781 81.373212 
L 119.417037 82.392537 
L 119.787109 82.045533 
L 120.157366 83.281735 
L 120.527438 83.411861 
L 120.897694 79.790006 
L 121.267766 80.006884 
L 121.649299 82.088908 
L 122.008095 82.132284 
L 122.378351 81.329837 
L 122.759699 81.026208 
L 123.488936 82.566039 
L 123.859008 82.349161 
L 124.229265 83.563676 
L 124.610613 83.563676 
L 124.969593 82.587727 
L 125.698646 84.301059 
L 126.068903 82.284098 
L 126.45025 84.431186 
L 126.809231 83.455237 
L 127.179303 84.583 
L 127.54956 83.693802 
L 128.289888 79.746631 
L 128.65996 83.91068 
L 129.030217 83.693802 
L 129.400289 81.329837 
L 129.770545 82.956419 
L 130.140617 83.368486 
L 130.510874 81.828655 
L 131.251202 83.32511 
L 131.621459 82.522663 
L 132.361787 80.028571 
L 132.731859 80.006884 
L 133.113207 80.831018 
L 133.472188 80.202073 
L 133.85372 81.459963 
L 134.212516 81.872031 
L 134.582773 83.368486 
L 134.941754 82.978106 
L 135.311825 81.047896 
L 135.682082 80.982833 
L 136.052154 80.700892 
L 136.422411 81.416588 
L 136.792482 80.223761 
L 137.162739 82.002157 
L 137.532996 81.503339 
L 137.903068 83.303423 
L 138.273324 80.852706 
L 138.643396 82.826292 
L 139.013653 83.064857 
L 139.383725 82.739541 
L 139.753981 82.197347 
L 140.135329 82.26241 
L 140.49431 81.78528 
L 140.864382 82.088908 
L 141.234638 82.717853 
L 141.974967 79.659879 
L 142.345039 81.958782 
L 142.715295 82.631102 
L 143.074276 81.698529 
L 143.444348 82.045533 
L 144.195952 79.898445 
L 144.554933 78.40199 
L 144.92519 82.587727 
L 145.295262 81.19971 
L 146.046866 82.674478 
L 146.405847 82.631102 
L 146.775919 81.698529 
L 147.516247 78.532116 
L 147.886504 81.741904 
L 148.256576 81.329837 
L 148.626832 80.679204 
L 148.996904 80.592453 
L 149.367161 79.07431 
L 149.737417 80.635829 
L 150.107489 80.484014 
L 150.477746 82.696165 
L 150.847818 80.570765 
L 151.218074 82.240723 
L 151.588146 80.115322 
L 151.947127 81.915406 
L 152.317384 80.570765 
L 152.687455 81.806967 
L 153.057712 81.416588 
L 153.427784 80.657516 
L 153.798041 81.373212 
L 154.168112 81.047896 
L 154.538369 80.549078 
L 154.908441 81.459963 
L 155.648769 77.881483 
L 156.019026 78.076673 
L 156.400374 81.112959 
L 157.129611 78.01161 
L 157.499683 81.091271 
L 157.86994 80.288824 
L 158.240012 80.700892 
L 158.610268 80.093635 
L 158.98034 79.855069 
L 159.350597 78.575492 
L 159.720669 80.050259 
L 160.090925 80.3322 
L 160.472273 80.288824 
L 160.819978 79.833382 
L 161.190235 78.076673 
L 161.560306 80.288824 
L 161.930563 79.334563 
L 162.300635 79.790006 
L 162.670892 78.87912 
L 163.052239 79.594816 
L 163.41122 80.028571 
L 163.781477 77.924859 
L 164.151549 78.467053 
L 164.521805 79.247812 
L 164.891877 78.293551 
L 165.262134 78.553804 
L 165.632206 78.640555 
L 166.002462 76.580218 
L 166.742791 79.161061 
L 167.483119 76.623594 
L 167.853191 78.033298 
L 168.963776 78.076673 
L 169.334033 78.163424 
L 169.692829 78.575492 
L 170.063085 78.553804 
L 170.433342 77.447728 
L 170.803414 78.575492 
L 171.173671 78.445365 
L 171.543742 79.334563 
L 171.913999 79.811694 
L 172.284071 79.009247 
L 172.654328 77.100724 
L 173.024399 77.426041 
L 173.394656 78.68393 
L 173.764728 79.377939 
L 174.134985 77.968234 
L 174.505056 78.01161 
L 174.886589 77.122412 
L 175.245385 76.688657 
L 175.615642 75.148826 
L 175.985898 75.69102 
L 176.35597 78.2068 
L 176.737318 78.271863 
L 177.096299 76.146463 
L 177.466555 78.293551 
L 177.836627 77.838108 
L 178.195608 76.254902 
L 178.565865 78.748994 
L 178.935936 78.662243 
L 179.306193 77.360977 
L 179.676265 78.575492 
L 180.057613 76.710345 
L 180.416593 80.549078 
L 180.78685 79.2695 
L 181.156922 78.618867 
L 181.527179 79.46469 
L 181.89725 78.900808 
L 182.267507 80.093635 
L 182.648855 77.122412 
L 183.007836 77.968234 
L 183.378092 80.657516 
L 183.748164 78.597179 
L 184.118421 78.792369 
L 184.488493 77.664606 
L 184.858749 77.903171 
L 185.240097 77.317602 
L 185.599078 79.139373 
L 185.96915 78.532116 
L 186.339406 80.223761 
L 186.709478 78.033298 
L 187.068459 76.775408 
L 187.438715 77.512792 
L 187.808787 79.07431 
L 188.179044 78.293551 
L 188.549116 79.07431 
L 188.919372 78.185112 
L 189.289444 78.141737 
L 189.659701 76.124775 
L 190.041049 78.467053 
L 190.400029 79.095998 
L 190.770286 79.46469 
L 191.140358 78.163424 
L 191.891962 79.573128 
L 192.250943 76.688657 
L 192.621015 76.862159 
L 193.361343 75.409079 
L 194.101672 78.792369 
L 194.483205 79.030935 
L 194.842185 80.505702 
L 195.212257 78.814057 
L 195.582514 79.833382 
L 195.94131 76.94891 
L 196.311566 79.2695 
L 196.692914 78.835745 
L 197.051895 78.814057 
L 197.422152 79.724943 
L 197.792223 79.291188 
L 198.16248 79.551441 
L 198.532552 79.052622 
L 198.902809 79.07431 
L 199.27288 78.640555 
L 199.643137 75.170514 
L 200.753537 81.069584 
L 201.123794 79.356251 
L 201.493866 78.618867 
L 201.875398 78.640555 
L 202.234379 76.55853 
L 202.604451 78.163424 
L 202.974708 80.397263 
L 203.715036 78.033298 
L 204.085108 78.987559 
L 204.455365 79.161061 
L 204.814345 77.707981 
L 205.184417 77.230851 
L 205.554674 75.88621 
L 205.924746 78.662243 
L 206.295002 78.705618 
L 206.665074 77.469416 
L 207.035331 78.40199 
L 207.405403 77.62123 
L 207.775659 78.987559 
L 208.145731 77.62123 
L 208.515988 76.840471 
L 208.886245 76.36334 
L 209.256316 76.862159 
L 209.626573 77.165787 
L 209.996645 78.575492 
L 210.377993 78.640555 
L 210.736973 79.312875 
L 211.118321 77.751357 
L 211.477302 78.293551 
L 211.847559 77.642918 
L 212.21763 78.315239 
L 212.587887 78.640555 
L 212.957959 78.445365 
L 213.328216 78.87912 
L 213.687196 77.838108 
L 214.057268 78.987559 
L 214.427525 78.054985 
L 214.797597 77.794732 
L 215.167853 78.336926 
L 215.549201 78.2068 
L 215.908182 75.972961 
L 216.278439 78.944184 
L 216.64851 78.098361 
L 217.018767 78.185112 
L 217.388839 78.965871 
L 217.759096 78.358614 
L 218.499424 77.512792 
L 219.239753 77.707981 
L 219.6211 76.168151 
L 219.980081 77.707981 
L 220.350153 77.751357 
L 220.72041 76.666969 
L 221.090666 77.360977 
L 221.472014 75.062075 
L 221.830995 77.751357 
L 222.189791 78.076673 
L 222.560047 77.62123 
L 222.930304 76.55853 
L 223.300376 75.972961 
L 223.670632 77.512792 
L 224.040704 77.599543 
L 224.410961 76.992285 
L 225.151289 76.905534 
L 225.521361 75.192202 
L 225.891618 75.213889 
L 226.26169 74.606632 
L 226.631946 74.411442 
L 227.013294 74.43313 
L 227.372275 73.088489 
L 227.742532 73.652371 
L 228.112603 72.025789 
L 228.48286 75.647644 
L 228.852932 76.55853 
L 229.23428 76.970598 
L 229.59326 76.0814 
L 230.333589 75.409079 
L 231.062826 77.382665 
L 231.432898 77.469416 
L 231.803155 75.322328 
L 232.173227 74.780134 
L 232.543483 73.674059 
L 232.913555 75.235577 
L 233.283812 77.469416 
L 233.653884 77.707981 
L 234.035416 77.013973 
L 234.394212 77.881483 
L 234.764469 77.404353 
L 235.134726 79.573128 
L 235.504797 76.601906 
L 235.875054 78.120049 
L 236.985454 73.739122 
L 237.355711 76.168151 
L 237.725783 76.428404 
L 238.09604 75.105451 
L 238.466111 75.517518 
L 238.836368 77.274226 
L 239.565421 75.972961 
L 239.935677 74.997012 
L 240.305749 75.387391 
L 240.676006 76.471779 
L 240.676006 76.471779 
" clip-path="url(#p923cc65e24)" style="fill: none; stroke: #2ca02c; stroke-width: 1.5; stroke-linecap: square"/>
   </g>
   <g id="patch_3">
    <path d="M 56.621875 140.343307 
L 56.621875 7.2 
" style="fill: none; stroke: #000000; stroke-width: 0.8; stroke-linejoin: miter; stroke-linecap: square"/>
   </g>
   <g id="patch_4">
    <path d="M 250.603765 140.343307 
L 250.603765 7.2 
" style="fill: none; stroke: #000000; stroke-width: 0.8; stroke-linejoin: miter; stroke-linecap: square"/>
   </g>
   <g id="patch_5">
    <path d="M 56.621875 140.343307 
L 250.603765 140.343307 
" style="fill: none; stroke: #000000; stroke-width: 0.8; stroke-linejoin: miter; stroke-linecap: square"/>
   </g>
   <g id="patch_6">
    <path d="M 56.621875 7.2 
L 250.603765 7.2 
" style="fill: none; stroke: #000000; stroke-width: 0.8; stroke-linejoin: miter; stroke-linecap: square"/>
   </g>
   <g id="legend_1">
    <g id="patch_7">
     <path d="M 60.821875 37.450313 
L 94.186562 37.450313 
Q 95.386562 37.450313 95.386562 36.250313 
L 95.386562 11.4 
Q 95.386562 10.2 94.186562 10.2 
L 60.821875 10.2 
Q 59.621875 10.2 59.621875 11.4 
L 59.621875 36.250313 
Q 59.621875 37.450313 60.821875 37.450313 
z
" style="fill: #ffffff; opacity: 0.8; stroke: #cccccc; stroke-linejoin: miter"/>
    </g>
    <g id="line2d_22">
     <path d="M 62.021875 14.7 
L 68.021875 14.7 
L 74.021875 14.7 
" style="fill: none; stroke: #1f77b4; stroke-width: 1.5; stroke-linecap: square"/>
    </g>
    <g id="text_12">
     <!-- Part 1 -->
     <g transform="translate(78.821875 16.8) scale(0.06 -0.06)">
      <defs>
       <path id="TimesNewRomanPSMT-50" d="M 1313 1984 
L 1313 750 
Q 1313 350 1400 253 
Q 1519 116 1759 116 
L 1922 116 
L 1922 0 
L 106 0 
L 106 116 
L 266 116 
Q 534 116 650 291 
Q 713 388 713 750 
L 713 3488 
Q 713 3888 628 3984 
Q 506 4122 266 4122 
L 106 4122 
L 106 4238 
L 1659 4238 
Q 2228 4238 2556 4120 
Q 2884 4003 3109 3725 
Q 3334 3447 3334 3066 
Q 3334 2547 2992 2222 
Q 2650 1897 2025 1897 
Q 1872 1897 1694 1919 
Q 1516 1941 1313 1984 
z
M 1313 2163 
Q 1478 2131 1606 2115 
Q 1734 2100 1825 2100 
Q 2150 2100 2386 2351 
Q 2622 2603 2622 3003 
Q 2622 3278 2509 3514 
Q 2397 3750 2190 3867 
Q 1984 3984 1722 3984 
Q 1563 3984 1313 3925 
L 1313 2163 
z
" transform="scale(0.015625)"/>
      </defs>
      <use xlink:href="#TimesNewRomanPSMT-50"/>
      <use xlink:href="#TimesNewRomanPSMT-61" x="55.615234"/>
      <use xlink:href="#TimesNewRomanPSMT-72" x="100"/>
      <use xlink:href="#TimesNewRomanPSMT-74" x="133.300781"/>
      <use xlink:href="#TimesNewRomanPSMT-20" x="161.083984"/>
      <use xlink:href="#TimesNewRomanPSMT-31" x="186.083984"/>
     </g>
    </g>
    <g id="line2d_23">
     <path d="M 62.021875 23.183438 
L 68.021875 23.183438 
L 74.021875 23.183438 
" style="fill: none; stroke: #ff7f0e; stroke-width: 1.5; stroke-linecap: square"/>
    </g>
    <g id="text_13">
     <!-- Part 2 -->
     <g transform="translate(78.821875 25.283438) scale(0.06 -0.06)">
      <use xlink:href="#TimesNewRomanPSMT-50"/>
      <use xlink:href="#TimesNewRomanPSMT-61" x="55.615234"/>
      <use xlink:href="#TimesNewRomanPSMT-72" x="100"/>
      <use xlink:href="#TimesNewRomanPSMT-74" x="133.300781"/>
      <use xlink:href="#TimesNewRomanPSMT-20" x="161.083984"/>
      <use xlink:href="#TimesNewRomanPSMT-32" x="186.083984"/>
     </g>
    </g>
    <g id="line2d_24">
     <path d="M 62.021875 31.666875 
L 68.021875 31.666875 
L 74.021875 31.666875 
" style="fill: none; stroke: #2ca02c; stroke-width: 1.5; stroke-linecap: square"/>
    </g>
    <g id="text_14">
     <!-- Part 3 -->
     <g transform="translate(78.821875 33.766875) scale(0.06 -0.06)">
      <defs>
       <path id="TimesNewRomanPSMT-33" d="M 325 3431 
Q 506 3859 782 4092 
Q 1059 4325 1472 4325 
Q 1981 4325 2253 3994 
Q 2459 3747 2459 3466 
Q 2459 3003 1878 2509 
Q 2269 2356 2469 2072 
Q 2669 1788 2669 1403 
Q 2669 853 2319 450 
Q 1863 -75 997 -75 
Q 569 -75 414 31 
Q 259 138 259 259 
Q 259 350 332 419 
Q 406 488 509 488 
Q 588 488 669 463 
Q 722 447 909 348 
Q 1097 250 1169 231 
Q 1284 197 1416 197 
Q 1734 197 1970 444 
Q 2206 691 2206 1028 
Q 2206 1275 2097 1509 
Q 2016 1684 1919 1775 
Q 1784 1900 1550 2001 
Q 1316 2103 1072 2103 
L 972 2103 
L 972 2197 
Q 1219 2228 1467 2375 
Q 1716 2522 1828 2728 
Q 1941 2934 1941 3181 
Q 1941 3503 1739 3701 
Q 1538 3900 1238 3900 
Q 753 3900 428 3381 
L 325 3431 
z
" transform="scale(0.015625)"/>
      </defs>
      <use xlink:href="#TimesNewRomanPSMT-50"/>
      <use xlink:href="#TimesNewRomanPSMT-61" x="55.615234"/>
      <use xlink:href="#TimesNewRomanPSMT-72" x="100"/>
      <use xlink:href="#TimesNewRomanPSMT-74" x="133.300781"/>
      <use xlink:href="#TimesNewRomanPSMT-20" x="161.083984"/>
      <use xlink:href="#TimesNewRomanPSMT-33" x="186.083984"/>
     </g>
    </g>
   </g>
  </g>
 </g>
 <defs>
  <clipPath id="p923cc65e24">
   <rect x="56.621875" y="7.2" width="193.98189" height="133.143307"/>
  </clipPath>
 </defs>
</svg>
