<?xml version="1.0" encoding="utf-8" standalone="no"?>
<!DOCTYPE svg PUBLIC "-//W3C//DTD SVG 1.1//EN"
  "http://www.w3.org/Graphics/SVG/1.1/DTD/svg11.dtd">
<svg xmlns:xlink="http://www.w3.org/1999/xlink" width="255.809844pt" height="178.525495pt" viewBox="0 0 255.809844 178.525495" xmlns="http://www.w3.org/2000/svg" version="1.1">
 <metadata>
  <rdf:RDF xmlns:dc="http://purl.org/dc/elements/1.1/" xmlns:cc="http://creativecommons.org/ns#" xmlns:rdf="http://www.w3.org/1999/02/22-rdf-syntax-ns#">
   <cc:Work>
    <dc:type rdf:resource="http://purl.org/dc/dcmitype/StillImage"/>
    <dc:date>2025-08-12T09:46:35.377153</dc:date>
    <dc:format>image/svg+xml</dc:format>
    <dc:creator>
     <cc:Agent>
      <dc:title>Matplotlib v3.9.2, https://matplotlib.org/</dc:title>
     </cc:Agent>
    </dc:creator>
   </cc:Work>
  </rdf:RDF>
 </metadata>
 <defs>
  <style type="text/css">*{stroke-linejoin: round; stroke-linecap: butt}</style>
 </defs>
 <g id="figure_1">
  <g id="patch_1">
   <path d="M 0 178.525495 
L 255.809844 178.525495 
L 255.809844 0 
L 0 0 
L 0 178.525495 
z
" style="fill: none"/>
  </g>
  <g id="axes_1">
   <g id="patch_2">
    <path d="M 51.599375 140.343307 
L 245.581265 140.343307 
L 245.581265 7.2 
L 51.599375 7.2 
L 51.599375 140.343307 
z
" style="fill: none"/>
   </g>
   <g id="matplotlib.axis_1">
    <g id="xtick_1">
     <g id="line2d_1">
      <path d="M 60.416734 140.343307 
L 60.416734 7.2 
" clip-path="url(#pb84c307aac)" style="fill: none; stroke: #b0b0b0; stroke-width: 0.8; stroke-linecap: square"/>
     </g>
     <g id="line2d_2">
      <defs>
       <path id="m26a496b700" d="M 0 0 
L 0 3.5 
" style="stroke: #000000; stroke-width: 0.8"/>
      </defs>
      <g>
       <use xlink:href="#m26a496b700" x="60.416734" y="140.343307" style="stroke: #000000; stroke-width: 0.8"/>
      </g>
     </g>
     <g id="text_1">
      <!-- 0 -->
      <g transform="translate(57.916734 154.287057) scale(0.1 -0.1)">
       <defs>
        <path id="TimesNewRomanPSMT-30" d="M 231 2094 
Q 231 2819 450 3342 
Q 669 3866 1031 4122 
Q 1313 4325 1613 4325 
Q 2100 4325 2488 3828 
Q 2972 3213 2972 2159 
Q 2972 1422 2759 906 
Q 2547 391 2217 158 
Q 1888 -75 1581 -75 
Q 975 -75 572 641 
Q 231 1244 231 2094 
z
M 844 2016 
Q 844 1141 1059 588 
Q 1238 122 1591 122 
Q 1759 122 1940 273 
Q 2122 425 2216 781 
Q 2359 1319 2359 2297 
Q 2359 3022 2209 3506 
Q 2097 3866 1919 4016 
Q 1791 4119 1609 4119 
Q 1397 4119 1231 3928 
Q 1006 3669 925 3112 
Q 844 2556 844 2016 
z
" transform="scale(0.015625)"/>
       </defs>
       <use xlink:href="#TimesNewRomanPSMT-30"/>
      </g>
     </g>
    </g>
    <g id="xtick_2">
     <g id="line2d_3">
      <path d="M 96.055356 140.343307 
L 96.055356 7.2 
" clip-path="url(#pb84c307aac)" style="fill: none; stroke: #b0b0b0; stroke-width: 0.8; stroke-linecap: square"/>
     </g>
     <g id="line2d_4">
      <g>
       <use xlink:href="#m26a496b700" x="96.055356" y="140.343307" style="stroke: #000000; stroke-width: 0.8"/>
      </g>
     </g>
     <g id="text_2">
      <!-- 500 -->
      <g transform="translate(88.555356 154.287057) scale(0.1 -0.1)">
       <defs>
        <path id="TimesNewRomanPSMT-35" d="M 2778 4238 
L 2534 3706 
L 1259 3706 
L 981 3138 
Q 1809 3016 2294 2522 
Q 2709 2097 2709 1522 
Q 2709 1188 2573 903 
Q 2438 619 2231 419 
Q 2025 219 1772 97 
Q 1413 -75 1034 -75 
Q 653 -75 479 54 
Q 306 184 306 341 
Q 306 428 378 495 
Q 450 563 559 563 
Q 641 563 702 538 
Q 763 513 909 409 
Q 1144 247 1384 247 
Q 1750 247 2026 523 
Q 2303 800 2303 1197 
Q 2303 1581 2056 1914 
Q 1809 2247 1375 2428 
Q 1034 2569 447 2591 
L 1259 4238 
L 2778 4238 
z
" transform="scale(0.015625)"/>
       </defs>
       <use xlink:href="#TimesNewRomanPSMT-35"/>
       <use xlink:href="#TimesNewRomanPSMT-30" x="50"/>
       <use xlink:href="#TimesNewRomanPSMT-30" x="100"/>
      </g>
     </g>
    </g>
    <g id="xtick_3">
     <g id="line2d_5">
      <path d="M 131.693978 140.343307 
L 131.693978 7.2 
" clip-path="url(#pb84c307aac)" style="fill: none; stroke: #b0b0b0; stroke-width: 0.8; stroke-linecap: square"/>
     </g>
     <g id="line2d_6">
      <g>
       <use xlink:href="#m26a496b700" x="131.693978" y="140.343307" style="stroke: #000000; stroke-width: 0.8"/>
      </g>
     </g>
     <g id="text_3">
      <!-- 1000 -->
      <g transform="translate(121.693978 154.287057) scale(0.1 -0.1)">
       <defs>
        <path id="TimesNewRomanPSMT-31" d="M 750 3822 
L 1781 4325 
L 1884 4325 
L 1884 747 
Q 1884 391 1914 303 
Q 1944 216 2037 169 
Q 2131 122 2419 116 
L 2419 0 
L 825 0 
L 825 116 
Q 1125 122 1212 167 
Q 1300 213 1334 289 
Q 1369 366 1369 747 
L 1369 3034 
Q 1369 3497 1338 3628 
Q 1316 3728 1258 3775 
Q 1200 3822 1119 3822 
Q 1003 3822 797 3725 
L 750 3822 
z
" transform="scale(0.015625)"/>
       </defs>
       <use xlink:href="#TimesNewRomanPSMT-31"/>
       <use xlink:href="#TimesNewRomanPSMT-30" x="50"/>
       <use xlink:href="#TimesNewRomanPSMT-30" x="100"/>
       <use xlink:href="#TimesNewRomanPSMT-30" x="150"/>
      </g>
     </g>
    </g>
    <g id="xtick_4">
     <g id="line2d_7">
      <path d="M 167.3326 140.343307 
L 167.3326 7.2 
" clip-path="url(#pb84c307aac)" style="fill: none; stroke: #b0b0b0; stroke-width: 0.8; stroke-linecap: square"/>
     </g>
     <g id="line2d_8">
      <g>
       <use xlink:href="#m26a496b700" x="167.3326" y="140.343307" style="stroke: #000000; stroke-width: 0.8"/>
      </g>
     </g>
     <g id="text_4">
      <!-- 1500 -->
      <g transform="translate(157.3326 154.287057) scale(0.1 -0.1)">
       <use xlink:href="#TimesNewRomanPSMT-31"/>
       <use xlink:href="#TimesNewRomanPSMT-35" x="50"/>
       <use xlink:href="#TimesNewRomanPSMT-30" x="100"/>
       <use xlink:href="#TimesNewRomanPSMT-30" x="150"/>
      </g>
     </g>
    </g>
    <g id="xtick_5">
     <g id="line2d_9">
      <path d="M 202.971222 140.343307 
L 202.971222 7.2 
" clip-path="url(#pb84c307aac)" style="fill: none; stroke: #b0b0b0; stroke-width: 0.8; stroke-linecap: square"/>
     </g>
     <g id="line2d_10">
      <g>
       <use xlink:href="#m26a496b700" x="202.971222" y="140.343307" style="stroke: #000000; stroke-width: 0.8"/>
      </g>
     </g>
     <g id="text_5">
      <!-- 2000 -->
      <g transform="translate(192.971222 154.287057) scale(0.1 -0.1)">
       <defs>
        <path id="TimesNewRomanPSMT-32" d="M 2934 816 
L 2638 0 
L 138 0 
L 138 116 
Q 1241 1122 1691 1759 
Q 2141 2397 2141 2925 
Q 2141 3328 1894 3587 
Q 1647 3847 1303 3847 
Q 991 3847 742 3664 
Q 494 3481 375 3128 
L 259 3128 
Q 338 3706 661 4015 
Q 984 4325 1469 4325 
Q 1984 4325 2329 3994 
Q 2675 3663 2675 3213 
Q 2675 2891 2525 2569 
Q 2294 2063 1775 1497 
Q 997 647 803 472 
L 1909 472 
Q 2247 472 2383 497 
Q 2519 522 2628 598 
Q 2738 675 2819 816 
L 2934 816 
z
" transform="scale(0.015625)"/>
       </defs>
       <use xlink:href="#TimesNewRomanPSMT-32"/>
       <use xlink:href="#TimesNewRomanPSMT-30" x="50"/>
       <use xlink:href="#TimesNewRomanPSMT-30" x="100"/>
       <use xlink:href="#TimesNewRomanPSMT-30" x="150"/>
      </g>
     </g>
    </g>
    <g id="xtick_6">
     <g id="line2d_11">
      <path d="M 238.609844 140.343307 
L 238.609844 7.2 
" clip-path="url(#pb84c307aac)" style="fill: none; stroke: #b0b0b0; stroke-width: 0.8; stroke-linecap: square"/>
     </g>
     <g id="line2d_12">
      <g>
       <use xlink:href="#m26a496b700" x="238.609844" y="140.343307" style="stroke: #000000; stroke-width: 0.8"/>
      </g>
     </g>
     <g id="text_6">
      <!-- 2500 -->
      <g transform="translate(228.609844 154.287057) scale(0.1 -0.1)">
       <use xlink:href="#TimesNewRomanPSMT-32"/>
       <use xlink:href="#TimesNewRomanPSMT-35" x="50"/>
       <use xlink:href="#TimesNewRomanPSMT-30" x="100"/>
       <use xlink:href="#TimesNewRomanPSMT-30" x="150"/>
      </g>
     </g>
    </g>
    <g id="text_7">
     <!-- Time -->
     <g transform="translate(136.138445 168.75862) scale(0.12 -0.12)">
      <defs>
       <path id="TimesNewRomanPSMT-54" d="M 3703 4238 
L 3750 3244 
L 3631 3244 
Q 3597 3506 3538 3619 
Q 3441 3800 3280 3886 
Q 3119 3972 2856 3972 
L 2259 3972 
L 2259 734 
Q 2259 344 2344 247 
Q 2463 116 2709 116 
L 2856 116 
L 2856 0 
L 1059 0 
L 1059 116 
L 1209 116 
Q 1478 116 1591 278 
Q 1659 378 1659 734 
L 1659 3972 
L 1150 3972 
Q 853 3972 728 3928 
Q 566 3869 450 3700 
Q 334 3531 313 3244 
L 194 3244 
L 244 4238 
L 3703 4238 
z
" transform="scale(0.015625)"/>
       <path id="TimesNewRomanPSMT-69" d="M 928 4444 
Q 1059 4444 1151 4351 
Q 1244 4259 1244 4128 
Q 1244 3997 1151 3903 
Q 1059 3809 928 3809 
Q 797 3809 703 3903 
Q 609 3997 609 4128 
Q 609 4259 701 4351 
Q 794 4444 928 4444 
z
M 1188 2947 
L 1188 647 
Q 1188 378 1227 289 
Q 1266 200 1342 156 
Q 1419 113 1622 113 
L 1622 0 
L 231 0 
L 231 113 
Q 441 113 512 153 
Q 584 194 626 287 
Q 669 381 669 647 
L 669 1750 
Q 669 2216 641 2353 
Q 619 2453 572 2492 
Q 525 2531 444 2531 
Q 356 2531 231 2484 
L 188 2597 
L 1050 2947 
L 1188 2947 
z
" transform="scale(0.015625)"/>
       <path id="TimesNewRomanPSMT-6d" d="M 1050 2338 
Q 1363 2650 1419 2697 
Q 1559 2816 1721 2881 
Q 1884 2947 2044 2947 
Q 2313 2947 2506 2790 
Q 2700 2634 2766 2338 
Q 3088 2713 3309 2830 
Q 3531 2947 3766 2947 
Q 3994 2947 4170 2830 
Q 4347 2713 4450 2447 
Q 4519 2266 4519 1878 
L 4519 647 
Q 4519 378 4559 278 
Q 4591 209 4675 161 
Q 4759 113 4950 113 
L 4950 0 
L 3538 0 
L 3538 113 
L 3597 113 
Q 3781 113 3884 184 
Q 3956 234 3988 344 
Q 4000 397 4000 647 
L 4000 1878 
Q 4000 2228 3916 2372 
Q 3794 2572 3525 2572 
Q 3359 2572 3192 2489 
Q 3025 2406 2788 2181 
L 2781 2147 
L 2788 2013 
L 2788 647 
Q 2788 353 2820 281 
Q 2853 209 2943 161 
Q 3034 113 3253 113 
L 3253 0 
L 1806 0 
L 1806 113 
Q 2044 113 2133 169 
Q 2222 225 2256 338 
Q 2272 391 2272 647 
L 2272 1878 
Q 2272 2228 2169 2381 
Q 2031 2581 1784 2581 
Q 1616 2581 1450 2491 
Q 1191 2353 1050 2181 
L 1050 647 
Q 1050 366 1089 281 
Q 1128 197 1204 155 
Q 1281 113 1516 113 
L 1516 0 
L 100 0 
L 100 113 
Q 297 113 375 155 
Q 453 197 493 289 
Q 534 381 534 647 
L 534 1741 
Q 534 2213 506 2350 
Q 484 2453 437 2492 
Q 391 2531 309 2531 
Q 222 2531 100 2484 
L 53 2597 
L 916 2947 
L 1050 2947 
L 1050 2338 
z
" transform="scale(0.015625)"/>
       <path id="TimesNewRomanPSMT-65" d="M 681 1784 
Q 678 1147 991 784 
Q 1303 422 1725 422 
Q 2006 422 2214 576 
Q 2422 731 2563 1106 
L 2659 1044 
Q 2594 616 2278 264 
Q 1963 -88 1488 -88 
Q 972 -88 605 314 
Q 238 716 238 1394 
Q 238 2128 614 2539 
Q 991 2950 1559 2950 
Q 2041 2950 2350 2633 
Q 2659 2316 2659 1784 
L 681 1784 
z
M 681 1966 
L 2006 1966 
Q 1991 2241 1941 2353 
Q 1863 2528 1708 2628 
Q 1553 2728 1384 2728 
Q 1125 2728 920 2526 
Q 716 2325 681 1966 
z
" transform="scale(0.015625)"/>
      </defs>
      <use xlink:href="#TimesNewRomanPSMT-54"/>
      <use xlink:href="#TimesNewRomanPSMT-69" x="57.583984"/>
      <use xlink:href="#TimesNewRomanPSMT-6d" x="85.367188"/>
      <use xlink:href="#TimesNewRomanPSMT-65" x="163.150391"/>
     </g>
    </g>
   </g>
   <g id="matplotlib.axis_2">
    <g id="ytick_1">
     <g id="line2d_13">
      <path d="M 51.599375 132.378236 
L 245.581265 132.378236 
" clip-path="url(#pb84c307aac)" style="fill: none; stroke: #b0b0b0; stroke-width: 0.8; stroke-linecap: square"/>
     </g>
     <g id="line2d_14">
      <defs>
       <path id="m7990e26b18" d="M 0 0 
L -3.5 0 
" style="stroke: #000000; stroke-width: 0.8"/>
      </defs>
      <g>
       <use xlink:href="#m7990e26b18" x="51.599375" y="132.378236" style="stroke: #000000; stroke-width: 0.8"/>
      </g>
     </g>
     <g id="text_8">
      <!-- 0.000 -->
      <g transform="translate(22.099375 135.850111) scale(0.1 -0.1)">
       <defs>
        <path id="TimesNewRomanPSMT-2e" d="M 800 606 
Q 947 606 1047 504 
Q 1147 403 1147 259 
Q 1147 116 1045 14 
Q 944 -88 800 -88 
Q 656 -88 554 14 
Q 453 116 453 259 
Q 453 406 554 506 
Q 656 606 800 606 
z
" transform="scale(0.015625)"/>
       </defs>
       <use xlink:href="#TimesNewRomanPSMT-30"/>
       <use xlink:href="#TimesNewRomanPSMT-2e" x="50"/>
       <use xlink:href="#TimesNewRomanPSMT-30" x="75"/>
       <use xlink:href="#TimesNewRomanPSMT-30" x="125"/>
       <use xlink:href="#TimesNewRomanPSMT-30" x="175"/>
      </g>
     </g>
    </g>
    <g id="ytick_2">
     <g id="line2d_15">
      <path d="M 51.599375 99.892207 
L 245.581265 99.892207 
" clip-path="url(#pb84c307aac)" style="fill: none; stroke: #b0b0b0; stroke-width: 0.8; stroke-linecap: square"/>
     </g>
     <g id="line2d_16">
      <g>
       <use xlink:href="#m7990e26b18" x="51.599375" y="99.892207" style="stroke: #000000; stroke-width: 0.8"/>
      </g>
     </g>
     <g id="text_9">
      <!-- 0.002 -->
      <g transform="translate(22.099375 103.364082) scale(0.1 -0.1)">
       <use xlink:href="#TimesNewRomanPSMT-30"/>
       <use xlink:href="#TimesNewRomanPSMT-2e" x="50"/>
       <use xlink:href="#TimesNewRomanPSMT-30" x="75"/>
       <use xlink:href="#TimesNewRomanPSMT-30" x="125"/>
       <use xlink:href="#TimesNewRomanPSMT-32" x="175"/>
      </g>
     </g>
    </g>
    <g id="ytick_3">
     <g id="line2d_17">
      <path d="M 51.599375 67.406179 
L 245.581265 67.406179 
" clip-path="url(#pb84c307aac)" style="fill: none; stroke: #b0b0b0; stroke-width: 0.8; stroke-linecap: square"/>
     </g>
     <g id="line2d_18">
      <g>
       <use xlink:href="#m7990e26b18" x="51.599375" y="67.406179" style="stroke: #000000; stroke-width: 0.8"/>
      </g>
     </g>
     <g id="text_10">
      <!-- 0.004 -->
      <g transform="translate(22.099375 70.878054) scale(0.1 -0.1)">
       <defs>
        <path id="TimesNewRomanPSMT-34" d="M 2978 1563 
L 2978 1119 
L 2409 1119 
L 2409 0 
L 1894 0 
L 1894 1119 
L 100 1119 
L 100 1519 
L 2066 4325 
L 2409 4325 
L 2409 1563 
L 2978 1563 
z
M 1894 1563 
L 1894 3666 
L 406 1563 
L 1894 1563 
z
" transform="scale(0.015625)"/>
       </defs>
       <use xlink:href="#TimesNewRomanPSMT-30"/>
       <use xlink:href="#TimesNewRomanPSMT-2e" x="50"/>
       <use xlink:href="#TimesNewRomanPSMT-30" x="75"/>
       <use xlink:href="#TimesNewRomanPSMT-30" x="125"/>
       <use xlink:href="#TimesNewRomanPSMT-34" x="175"/>
      </g>
     </g>
    </g>
    <g id="ytick_4">
     <g id="line2d_19">
      <path d="M 51.599375 34.92015 
L 245.581265 34.92015 
" clip-path="url(#pb84c307aac)" style="fill: none; stroke: #b0b0b0; stroke-width: 0.8; stroke-linecap: square"/>
     </g>
     <g id="line2d_20">
      <g>
       <use xlink:href="#m7990e26b18" x="51.599375" y="34.92015" style="stroke: #000000; stroke-width: 0.8"/>
      </g>
     </g>
     <g id="text_11">
      <!-- 0.006 -->
      <g transform="translate(22.099375 38.392025) scale(0.1 -0.1)">
       <defs>
        <path id="TimesNewRomanPSMT-36" d="M 2869 4325 
L 2869 4209 
Q 2456 4169 2195 4045 
Q 1934 3922 1679 3669 
Q 1425 3416 1258 3105 
Q 1091 2794 978 2366 
Q 1428 2675 1881 2675 
Q 2316 2675 2634 2325 
Q 2953 1975 2953 1425 
Q 2953 894 2631 456 
Q 2244 -75 1606 -75 
Q 1172 -75 869 213 
Q 275 772 275 1663 
Q 275 2231 503 2743 
Q 731 3256 1154 3653 
Q 1578 4050 1965 4187 
Q 2353 4325 2688 4325 
L 2869 4325 
z
M 925 2138 
Q 869 1716 869 1456 
Q 869 1156 980 804 
Q 1091 453 1309 247 
Q 1469 100 1697 100 
Q 1969 100 2183 356 
Q 2397 613 2397 1088 
Q 2397 1622 2184 2012 
Q 1972 2403 1581 2403 
Q 1463 2403 1327 2353 
Q 1191 2303 925 2138 
z
" transform="scale(0.015625)"/>
       </defs>
       <use xlink:href="#TimesNewRomanPSMT-30"/>
       <use xlink:href="#TimesNewRomanPSMT-2e" x="50"/>
       <use xlink:href="#TimesNewRomanPSMT-30" x="75"/>
       <use xlink:href="#TimesNewRomanPSMT-30" x="125"/>
       <use xlink:href="#TimesNewRomanPSMT-36" x="175"/>
      </g>
     </g>
    </g>
    <g id="text_12">
     <!-- Refractive Index -->
     <g transform="translate(15.5325 113.918216) rotate(-90) scale(0.12 -0.12)">
      <defs>
       <path id="TimesNewRomanPSMT-52" d="M 4325 0 
L 3194 0 
L 1759 1981 
Q 1600 1975 1500 1975 
Q 1459 1975 1412 1976 
Q 1366 1978 1316 1981 
L 1316 750 
Q 1316 350 1403 253 
Q 1522 116 1759 116 
L 1925 116 
L 1925 0 
L 109 0 
L 109 116 
L 269 116 
Q 538 116 653 291 
Q 719 388 719 750 
L 719 3488 
Q 719 3888 631 3984 
Q 509 4122 269 4122 
L 109 4122 
L 109 4238 
L 1653 4238 
Q 2328 4238 2648 4139 
Q 2969 4041 3192 3777 
Q 3416 3513 3416 3147 
Q 3416 2756 3161 2468 
Q 2906 2181 2372 2063 
L 3247 847 
Q 3547 428 3762 290 
Q 3978 153 4325 116 
L 4325 0 
z
M 1316 2178 
Q 1375 2178 1419 2176 
Q 1463 2175 1491 2175 
Q 2097 2175 2405 2437 
Q 2713 2700 2713 3106 
Q 2713 3503 2464 3751 
Q 2216 4000 1806 4000 
Q 1625 4000 1316 3941 
L 1316 2178 
z
" transform="scale(0.015625)"/>
       <path id="TimesNewRomanPSMT-66" d="M 1319 2638 
L 1319 756 
Q 1319 356 1406 250 
Q 1522 113 1716 113 
L 1975 113 
L 1975 0 
L 266 0 
L 266 113 
L 394 113 
Q 519 113 622 175 
Q 725 238 764 344 
Q 803 450 803 756 
L 803 2638 
L 247 2638 
L 247 2863 
L 803 2863 
L 803 3050 
Q 803 3478 940 3775 
Q 1078 4072 1361 4255 
Q 1644 4438 1997 4438 
Q 2325 4438 2600 4225 
Q 2781 4084 2781 3909 
Q 2781 3816 2700 3733 
Q 2619 3650 2525 3650 
Q 2453 3650 2373 3701 
Q 2294 3753 2178 3923 
Q 2063 4094 1966 4153 
Q 1869 4213 1750 4213 
Q 1606 4213 1506 4136 
Q 1406 4059 1362 3898 
Q 1319 3738 1319 3069 
L 1319 2863 
L 2056 2863 
L 2056 2638 
L 1319 2638 
z
" transform="scale(0.015625)"/>
       <path id="TimesNewRomanPSMT-72" d="M 1038 2947 
L 1038 2303 
Q 1397 2947 1775 2947 
Q 1947 2947 2059 2842 
Q 2172 2738 2172 2600 
Q 2172 2478 2090 2393 
Q 2009 2309 1897 2309 
Q 1788 2309 1652 2417 
Q 1516 2525 1450 2525 
Q 1394 2525 1328 2463 
Q 1188 2334 1038 2041 
L 1038 669 
Q 1038 431 1097 309 
Q 1138 225 1241 169 
Q 1344 113 1538 113 
L 1538 0 
L 72 0 
L 72 113 
Q 291 113 397 181 
Q 475 231 506 341 
Q 522 394 522 644 
L 522 1753 
Q 522 2253 501 2348 
Q 481 2444 426 2487 
Q 372 2531 291 2531 
Q 194 2531 72 2484 
L 41 2597 
L 906 2947 
L 1038 2947 
z
" transform="scale(0.015625)"/>
       <path id="TimesNewRomanPSMT-61" d="M 1822 413 
Q 1381 72 1269 19 
Q 1100 -59 909 -59 
Q 613 -59 420 144 
Q 228 347 228 678 
Q 228 888 322 1041 
Q 450 1253 767 1440 
Q 1084 1628 1822 1897 
L 1822 2009 
Q 1822 2438 1686 2597 
Q 1550 2756 1291 2756 
Q 1094 2756 978 2650 
Q 859 2544 859 2406 
L 866 2225 
Q 866 2081 792 2003 
Q 719 1925 600 1925 
Q 484 1925 411 2006 
Q 338 2088 338 2228 
Q 338 2497 613 2722 
Q 888 2947 1384 2947 
Q 1766 2947 2009 2819 
Q 2194 2722 2281 2516 
Q 2338 2381 2338 1966 
L 2338 994 
Q 2338 584 2353 492 
Q 2369 400 2405 369 
Q 2441 338 2488 338 
Q 2538 338 2575 359 
Q 2641 400 2828 588 
L 2828 413 
Q 2478 -56 2159 -56 
Q 2006 -56 1915 50 
Q 1825 156 1822 413 
z
M 1822 616 
L 1822 1706 
Q 1350 1519 1213 1441 
Q 966 1303 859 1153 
Q 753 1003 753 825 
Q 753 600 887 451 
Q 1022 303 1197 303 
Q 1434 303 1822 616 
z
" transform="scale(0.015625)"/>
       <path id="TimesNewRomanPSMT-63" d="M 2631 1088 
Q 2516 522 2178 217 
Q 1841 -88 1431 -88 
Q 944 -88 581 321 
Q 219 731 219 1428 
Q 219 2103 620 2525 
Q 1022 2947 1584 2947 
Q 2006 2947 2278 2723 
Q 2550 2500 2550 2259 
Q 2550 2141 2473 2067 
Q 2397 1994 2259 1994 
Q 2075 1994 1981 2113 
Q 1928 2178 1911 2362 
Q 1894 2547 1784 2644 
Q 1675 2738 1481 2738 
Q 1169 2738 978 2506 
Q 725 2200 725 1697 
Q 725 1184 976 792 
Q 1228 400 1656 400 
Q 1963 400 2206 609 
Q 2378 753 2541 1131 
L 2631 1088 
z
" transform="scale(0.015625)"/>
       <path id="TimesNewRomanPSMT-74" d="M 1031 3803 
L 1031 2863 
L 1700 2863 
L 1700 2644 
L 1031 2644 
L 1031 788 
Q 1031 509 1111 412 
Q 1191 316 1316 316 
Q 1419 316 1516 380 
Q 1613 444 1666 569 
L 1788 569 
Q 1678 263 1478 108 
Q 1278 -47 1066 -47 
Q 922 -47 784 33 
Q 647 113 581 261 
Q 516 409 516 719 
L 516 2644 
L 63 2644 
L 63 2747 
Q 234 2816 414 2980 
Q 594 3144 734 3369 
Q 806 3488 934 3803 
L 1031 3803 
z
" transform="scale(0.015625)"/>
       <path id="TimesNewRomanPSMT-76" d="M 53 2863 
L 1400 2863 
L 1400 2747 
L 1313 2747 
Q 1191 2747 1127 2687 
Q 1063 2628 1063 2528 
Q 1063 2419 1128 2269 
L 1794 688 
L 2463 2328 
Q 2534 2503 2534 2594 
Q 2534 2638 2509 2666 
Q 2475 2713 2422 2730 
Q 2369 2747 2206 2747 
L 2206 2863 
L 3141 2863 
L 3141 2747 
Q 2978 2734 2916 2681 
Q 2806 2588 2719 2369 
L 1703 -88 
L 1575 -88 
L 553 2328 
Q 484 2497 421 2570 
Q 359 2644 263 2694 
Q 209 2722 53 2747 
L 53 2863 
z
" transform="scale(0.015625)"/>
       <path id="TimesNewRomanPSMT-20" transform="scale(0.015625)"/>
       <path id="TimesNewRomanPSMT-49" d="M 1975 116 
L 1975 0 
L 159 0 
L 159 116 
L 309 116 
Q 572 116 691 269 
Q 766 369 766 750 
L 766 3488 
Q 766 3809 725 3913 
Q 694 3991 597 4047 
Q 459 4122 309 4122 
L 159 4122 
L 159 4238 
L 1975 4238 
L 1975 4122 
L 1822 4122 
Q 1563 4122 1444 3969 
Q 1366 3869 1366 3488 
L 1366 750 
Q 1366 428 1406 325 
Q 1438 247 1538 191 
Q 1672 116 1822 116 
L 1975 116 
z
" transform="scale(0.015625)"/>
       <path id="TimesNewRomanPSMT-6e" d="M 1034 2341 
Q 1538 2947 1994 2947 
Q 2228 2947 2397 2830 
Q 2566 2713 2666 2444 
Q 2734 2256 2734 1869 
L 2734 647 
Q 2734 375 2778 278 
Q 2813 200 2889 156 
Q 2966 113 3172 113 
L 3172 0 
L 1756 0 
L 1756 113 
L 1816 113 
Q 2016 113 2095 173 
Q 2175 234 2206 353 
Q 2219 400 2219 647 
L 2219 1819 
Q 2219 2209 2117 2386 
Q 2016 2563 1775 2563 
Q 1403 2563 1034 2156 
L 1034 647 
Q 1034 356 1069 288 
Q 1113 197 1189 155 
Q 1266 113 1500 113 
L 1500 0 
L 84 0 
L 84 113 
L 147 113 
Q 366 113 442 223 
Q 519 334 519 647 
L 519 1709 
Q 519 2225 495 2337 
Q 472 2450 423 2490 
Q 375 2531 294 2531 
Q 206 2531 84 2484 
L 38 2597 
L 900 2947 
L 1034 2947 
L 1034 2341 
z
" transform="scale(0.015625)"/>
       <path id="TimesNewRomanPSMT-64" d="M 2222 322 
Q 2013 103 1813 7 
Q 1613 -88 1381 -88 
Q 913 -88 563 304 
Q 213 697 213 1313 
Q 213 1928 600 2439 
Q 988 2950 1597 2950 
Q 1975 2950 2222 2709 
L 2222 3238 
Q 2222 3728 2198 3840 
Q 2175 3953 2125 3993 
Q 2075 4034 2000 4034 
Q 1919 4034 1784 3984 
L 1744 4094 
L 2597 4444 
L 2738 4444 
L 2738 1134 
Q 2738 631 2761 520 
Q 2784 409 2836 365 
Q 2888 322 2956 322 
Q 3041 322 3181 375 
L 3216 266 
L 2366 -88 
L 2222 -88 
L 2222 322 
z
M 2222 541 
L 2222 2016 
Q 2203 2228 2109 2403 
Q 2016 2578 1861 2667 
Q 1706 2756 1559 2756 
Q 1284 2756 1069 2509 
Q 784 2184 784 1559 
Q 784 928 1059 592 
Q 1334 256 1672 256 
Q 1956 256 2222 541 
z
" transform="scale(0.015625)"/>
       <path id="TimesNewRomanPSMT-78" d="M 84 2863 
L 1431 2863 
L 1431 2747 
Q 1303 2747 1251 2703 
Q 1200 2659 1200 2588 
Q 1200 2513 1309 2356 
Q 1344 2306 1413 2200 
L 1616 1875 
L 1850 2200 
Q 2075 2509 2075 2591 
Q 2075 2656 2022 2701 
Q 1969 2747 1850 2747 
L 1850 2863 
L 2819 2863 
L 2819 2747 
Q 2666 2738 2553 2663 
Q 2400 2556 2134 2200 
L 1744 1678 
L 2456 653 
Q 2719 275 2831 198 
Q 2944 122 3122 113 
L 3122 0 
L 1772 0 
L 1772 113 
Q 1913 113 1991 175 
Q 2050 219 2050 291 
Q 2050 363 1850 653 
L 1431 1266 
L 972 653 
Q 759 369 759 316 
Q 759 241 829 180 
Q 900 119 1041 113 
L 1041 0 
L 106 0 
L 106 113 
Q 219 128 303 191 
Q 422 281 703 653 
L 1303 1450 
L 759 2238 
Q 528 2575 401 2661 
Q 275 2747 84 2747 
L 84 2863 
z
" transform="scale(0.015625)"/>
      </defs>
      <use xlink:href="#TimesNewRomanPSMT-52"/>
      <use xlink:href="#TimesNewRomanPSMT-65" x="66.699219"/>
      <use xlink:href="#TimesNewRomanPSMT-66" x="111.083984"/>
      <use xlink:href="#TimesNewRomanPSMT-72" x="144.384766"/>
      <use xlink:href="#TimesNewRomanPSMT-61" x="177.685547"/>
      <use xlink:href="#TimesNewRomanPSMT-63" x="222.070312"/>
      <use xlink:href="#TimesNewRomanPSMT-74" x="266.455078"/>
      <use xlink:href="#TimesNewRomanPSMT-69" x="294.238281"/>
      <use xlink:href="#TimesNewRomanPSMT-76" x="322.021484"/>
      <use xlink:href="#TimesNewRomanPSMT-65" x="372.021484"/>
      <use xlink:href="#TimesNewRomanPSMT-20" x="416.40625"/>
      <use xlink:href="#TimesNewRomanPSMT-49" x="441.40625"/>
      <use xlink:href="#TimesNewRomanPSMT-6e" x="474.707031"/>
      <use xlink:href="#TimesNewRomanPSMT-64" x="524.707031"/>
      <use xlink:href="#TimesNewRomanPSMT-65" x="574.707031"/>
      <use xlink:href="#TimesNewRomanPSMT-78" x="619.091797"/>
     </g>
    </g>
   </g>
   <g id="line2d_21">
    <path d="M 60.416734 132.378236 
L 60.702199 132.008886 
L 60.844967 131.805979 
L 60.987664 131.905451 
L 61.273201 131.660181 
L 62.272294 131.5898 
L 62.700528 130.919614 
L 62.981645 130.80242 
L 63.124414 131.051393 
L 63.409879 130.871859 
L 63.552576 130.877122 
L 63.695344 130.442231 
L 63.838041 130.777276 
L 64.127855 130.711053 
L 64.266275 130.201185 
L 64.556088 130.592642 
L 64.837206 130.583383 
L 64.979974 130.740778 
L 65.122671 130.578673 
L 65.265439 130.000097 
L 65.408136 130.118183 
L 65.550905 129.786339 
L 65.83637 130.320246 
L 65.979138 130.217266 
L 66.260256 130.042004 
L 66.402953 129.486655 
L 66.545721 129.563809 
L 66.68849 130.234158 
L 66.831187 129.536034 
L 66.973955 129.923754 
L 67.25942 129.385299 
L 67.402117 129.961926 
L 67.544886 129.435489 
L 67.687583 130.039892 
L 67.830351 129.776593 
L 67.973048 130.042491 
L 68.115816 129.278907 
L 68.258513 129.339818 
L 68.401282 129.862031 
L 68.543979 128.995466 
L 68.686747 129.752878 
L 68.829515 129.844164 
L 68.972213 129.328448 
L 69.114981 129.508096 
L 69.257678 128.873156 
L 69.681564 128.762704 
L 69.824332 128.67824 
L 70.109797 128.892161 
L 70.252494 128.754095 
L 70.395263 128.875755 
L 70.680728 128.839371 
L 70.823425 128.947549 
L 71.113238 128.594751 
L 71.256007 129.431104 
L 71.541472 128.795515 
L 71.679892 128.744674 
L 71.965358 128.381155 
L 72.250823 125.941292 
L 73.531105 105.422954 
L 74.102036 101.761778 
L 74.387501 100.952876 
L 74.815735 99.984793 
L 75.1012 99.518618 
L 75.386666 98.841284 
L 75.529363 98.909505 
L 75.957596 98.157454 
L 76.243062 98.172072 
L 76.952413 97.382662 
L 77.380646 97.735135 
L 77.666112 97.46875 
L 77.808809 97.712395 
L 77.951577 97.348551 
L 78.665205 97.593821 
L 78.807973 97.178 
L 79.093439 97.30632 
L 79.378904 97.127646 
L 79.521672 97.286828 
L 79.80279 97.150387 
L 80.088255 96.997702 
L 80.231023 97.15526 
L 80.516489 97.173127 
L 80.659186 97.176375 
L 80.801954 96.92136 
L 80.944651 97.290077 
L 81.230117 97.064299 
L 81.372885 97.194243 
L 81.515582 96.927857 
L 81.943816 97.036686 
L 82.086584 97.283579 
L 82.372049 96.948973 
L 82.514746 96.858012 
L 82.94298 97.129271 
L 83.0814 97.558086 
L 83.366866 97.626307 
L 83.509563 97.595445 
L 83.652331 97.283579 
L 83.795028 97.476871 
L 84.080494 97.49149 
L 84.36603 97.54834 
L 84.651496 97.312817 
L 84.794193 97.054553 
L 84.936961 97.598694 
L 85.507892 97.169878 
L 85.650589 97.577578 
L 85.936054 97.506109 
L 86.078822 97.249469 
L 86.221519 97.247845 
L 86.364288 97.418396 
L 86.502708 97.395656 
L 86.645405 97.538595 
L 86.788174 97.301447 
L 86.930871 97.348551 
L 87.073639 97.588948 
L 87.216407 97.488241 
L 87.363452 97.228353 
L 87.506149 97.460628 
L 87.648918 97.319314 
L 87.934383 97.3518 
L 88.072803 97.082166 
L 88.2155 97.150387 
L 88.362545 97.439512 
L 88.648082 97.400529 
L 88.786431 97.08379 
L 89.071896 97.039934 
L 89.214665 97.194243 
L 89.50013 97.06105 
L 89.785596 97.437888 
L 89.924016 97.48012 
L 90.066784 97.327436 
L 90.35225 97.471998 
L 90.780412 97.06105 
L 91.065877 97.444385 
L 91.208646 97.059426 
L 91.351343 97.114652 
L 91.494111 97.048056 
L 91.636808 97.178 
L 91.779576 96.916487 
L 91.922345 97.277082 
L 92.065042 97.121149 
L 92.20781 97.332308 
L 92.350507 97.290077 
L 92.493275 97.411899 
L 92.635973 97.247845 
L 92.925786 97.488241 
L 93.068483 97.515854 
L 93.345324 97.143889 
L 93.488092 97.239723 
L 93.630789 96.942476 
L 93.916254 96.986332 
L 94.059023 97.268961 
L 94.20172 97.270585 
L 94.344488 96.999327 
L 94.487185 97.07242 
L 94.772722 97.025315 
L 94.915419 97.062674 
L 95.200884 96.141695 
L 95.48635 95.124883 
L 95.771815 94.403693 
L 96.05728 93.78321 
L 96.485514 93.455101 
L 96.623934 93.56068 
L 97.052097 92.808629 
L 97.337562 92.664066 
L 97.48033 92.733911 
L 97.765796 92.246621 
L 97.908564 92.576354 
L 98.051261 92.254742 
L 98.194029 92.209262 
L 98.341074 91.989981 
L 98.62654 92.110179 
L 98.769308 91.801562 
L 99.054773 91.959119 
L 99.19747 91.731717 
L 99.340239 91.908766 
L 99.482936 91.601773 
L 99.625704 91.739839 
L 99.768401 91.614767 
L 99.906822 91.692734 
L 100.473476 91.159963 
L 100.758941 91.366249 
L 100.901638 91.215189 
L 101.044406 91.382492 
L 101.329872 90.825357 
L 101.615337 90.96992 
L 101.758034 90.779876 
L 101.900803 90.971544 
L 102.0435 90.939058 
L 102.186268 91.103112 
L 102.329036 90.968295 
L 102.471733 90.661302 
L 102.757199 90.822108 
L 102.899967 90.828605 
L 103.042664 90.697037 
L 103.328129 90.919566 
L 103.46655 90.723026 
L 103.894783 90.773379 
L 104.03748 90.623943 
L 104.180249 90.883832 
L 104.322946 90.481005 
L 105.32211 90.27147 
L 105.464879 89.951483 
L 105.750344 90.318575 
L 105.893041 90.224365 
L 106.035809 90.313702 
L 106.321275 90.261724 
L 106.60674 90.27147 
L 106.749437 90.323448 
L 106.892205 90.027825 
L 107.034974 90.238984 
L 107.320439 90.009958 
L 107.601557 90.432276 
L 107.744325 89.96935 
L 107.887022 90.180509 
L 108.02979 89.871892 
L 108.315256 90.092797 
L 108.743418 89.82966 
L 108.886186 90.068432 
L 109.028883 89.894632 
L 109.171652 89.998587 
L 109.314349 89.842654 
L 109.599814 89.922245 
L 110.028048 89.641241 
L 110.737399 89.883262 
L 111.022864 89.792301 
L 111.30833 89.96935 
L 111.451098 89.71271 
L 111.736563 89.936864 
L 111.87926 89.910875 
L 112.164726 90.061935 
L 112.450262 89.870268 
L 112.735728 89.659108 
L 112.878425 89.621749 
L 113.16389 89.855649 
L 113.449355 89.832909 
L 113.873241 89.485308 
L 114.158707 89.685097 
L 114.444172 89.452822 
L 115.015103 89.647738 
L 115.300639 89.469065 
L 115.447684 89.741948 
L 115.590381 89.512921 
L 115.73315 89.547032 
L 115.87157 89.077608 
L 116.157035 89.555153 
L 116.299732 89.631495 
L 116.442501 89.467441 
L 116.727966 89.517794 
L 116.870663 89.319629 
L 117.009084 89.483684 
L 117.294549 89.223796 
L 117.437317 89.597385 
L 117.580014 89.290392 
L 117.722783 89.277398 
L 117.86548 89.118216 
L 118.008248 89.355364 
L 118.155293 89.231917 
L 118.436482 89.537286 
L 118.579179 89.244912 
L 118.721947 89.371607 
L 118.864644 89.032128 
L 119.007412 89.275773 
L 119.435575 89.228669 
L 119.578343 89.444701 
L 119.72104 89.13121 
L 119.863809 89.298513 
L 120.006577 89.144205 
L 120.149274 89.314756 
L 120.292042 89.100349 
L 120.57316 89.316381 
L 120.858625 89.257906 
L 121.715021 89.19131 
L 121.857789 89.280646 
L 122.285952 89.056493 
L 122.571417 89.363486 
L 122.714186 89.137708 
L 122.856954 89.308259 
L 123.709002 89.300138 
L 123.85177 89.332624 
L 123.994467 89.188061 
L 124.279933 89.197807 
L 124.422701 89.48206 
L 124.565398 89.090603 
L 124.708166 89.28227 
L 124.993632 89.230293 
L 125.421865 89.335872 
L 125.56891 89.142581 
L 125.992796 89.311508 
L 126.278262 89.030504 
L 126.420959 89.173442 
L 126.706424 89.020758 
L 126.991889 88.775488 
L 127.13031 89.126338 
L 127.277355 89.124713 
L 127.420123 88.939543 
L 127.70124 89.134459 
L 127.844009 88.996393 
L 128.129474 89.212425 
L 128.272242 88.986648 
L 128.700405 89.038625 
L 128.843173 88.796604 
L 128.98587 89.11984 
L 129.128639 88.916803 
L 129.271336 88.929797 
L 129.414104 89.189685 
L 129.699569 88.78361 
L 129.842266 88.937919 
L 129.985035 88.90056 
L 130.127732 88.691025 
L 130.2705 88.897311 
L 130.413268 88.552959 
L 130.555965 89.032128 
L 130.984199 88.876195 
L 131.122619 88.843709 
L 131.408085 89.037001 
L 131.550782 88.663412 
L 131.69355 88.687776 
L 131.836247 88.82909 
L 132.121713 88.715389 
L 132.407178 89.028879 
L 132.692643 88.993145 
L 132.83976 89.038625 
L 133.120877 88.78361 
L 133.263645 88.902184 
L 133.406342 88.827466 
L 133.549111 89.030504 
L 133.691808 89.030504 
L 133.834576 88.887565 
L 134.401159 88.950913 
L 134.543927 88.804726 
L 134.686624 88.967156 
L 134.97209 88.694273 
L 135.119206 89.037001 
L 135.261903 88.684528 
L 135.54302 88.949289 
L 135.685789 88.864825 
L 136.114022 89.024007 
L 136.399488 89.007764 
L 136.542185 88.859952 
L 136.82765 88.9233 
L 136.970418 88.798229 
L 137.117463 88.981775 
L 137.537001 88.855079 
L 137.67977 88.665036 
L 137.822467 89.002891 
L 138.107932 88.895687 
L 138.2507 88.639047 
L 138.393397 88.614683 
L 138.536166 89.006139 
L 138.821631 88.845333 
L 138.964399 89.090603 
L 139.249865 88.910305 
L 139.392562 89.041874 
L 139.53533 89.017509 
L 139.820795 88.846958 
L 139.963492 88.916803 
L 140.106261 88.754372 
L 140.248958 88.949289 
L 140.672844 89.011012 
L 141.243846 88.913554 
L 141.386543 88.700771 
L 141.529311 88.931421 
L 141.819053 88.921676 
L 141.961821 88.959034 
L 142.242939 88.700771 
L 142.385707 88.869698 
L 142.813869 88.702395 
L 143.242103 88.671533 
L 143.384871 88.49286 
L 143.527569 88.718638 
L 143.955802 88.710516 
L 144.379688 88.773864 
L 144.80785 88.65529 
L 144.950619 88.898935 
L 145.093316 88.704019 
L 145.236084 88.790107 
L 145.521549 88.767367 
L 145.664246 88.812847 
L 145.807015 88.721886 
L 145.949783 88.788483 
L 146.520714 88.564329 
L 146.663411 88.798229 
L 146.948876 88.715389 
L 147.091645 88.652041 
L 147.51553 88.746251 
L 147.658227 88.691025 
L 147.800996 88.216729 
L 147.943693 88.354794 
L 148.229158 88.278452 
L 148.371926 88.449004 
L 148.518971 88.385656 
L 148.657392 88.44738 
L 148.804437 88.254088 
L 149.085625 88.494484 
L 149.228322 88.549711 
L 149.371091 88.780361 
L 149.799253 88.746251 
L 149.942022 88.676406 
L 150.227487 88.705643 
L 150.512952 88.720262 
L 150.79407 88.757621 
L 151.222303 88.832339 
L 151.369348 88.850206 
L 151.654814 88.752748 
L 151.940279 88.712141 
L 152.078699 88.791731 
L 152.221468 88.604937 
L 152.364165 88.76087 
L 152.506933 88.733257 
L 152.64963 88.5156 
L 152.792399 88.743002 
L 153.363329 88.674782 
L 153.648795 88.755997 
L 153.93426 88.902184 
L 154.215449 88.785234 
L 154.500914 88.647169 
L 154.786379 88.460374 
L 155.214542 88.60981 
L 155.500007 88.197237 
L 155.642776 88.234596 
L 155.785473 88.111149 
L 156.070938 88.31906 
L 156.213706 88.60981 
L 156.50352 88.439258 
L 156.788985 88.483114 
L 156.927405 88.474993 
L 157.070102 88.267082 
L 157.355568 88.52697 
L 157.779453 88.20211 
L 158.064919 88.35317 
L 158.350384 88.119271 
L 158.778618 88.45875 
L 159.064083 88.502606 
L 159.206852 88.171248 
L 159.349549 88.372662 
L 160.205945 88.406772 
L 160.348713 88.241093 
L 160.49141 88.325557 
L 160.634178 88.106276 
L 161.058064 88.382407 
L 161.200761 88.392153 
L 161.34353 88.169624 
L 161.628995 88.189116 
L 161.91446 88.640671 
L 162.057229 88.842085 
L 162.199926 88.790107 
L 162.342694 89.07436 
L 162.485391 89.009388 
L 162.628159 89.223796 
L 162.770856 89.209177 
L 162.913625 89.39922 
L 163.056322 89.316381 
L 163.341787 90.078178 
L 163.484555 89.80692 
L 163.770021 90.373801 
L 164.055486 89.987217 
L 164.336604 90.344564 
L 164.479372 89.824787 
L 164.764837 90.208122 
L 165.193071 90.703534 
L 165.478536 90.323448 
L 165.621233 90.375425 
L 165.764002 90.739269 
L 165.906699 90.443646 
L 166.192164 90.75876 
L 166.477701 90.394917 
L 166.620398 90.614198 
L 166.763166 90.458265 
L 167.048631 90.8416 
L 167.334097 90.927688 
L 167.757983 90.752263 
L 167.90068 90.952052 
L 168.043448 90.948804 
L 168.186145 91.085245 
L 168.328913 90.89845 
L 168.47161 91.062505 
L 168.614379 90.843224 
L 168.899844 90.908196 
L 169.185309 90.963422 
L 169.470775 90.825357 
L 169.613543 90.800992 
L 169.899008 91.008903 
L 170.041705 91.051135 
L 170.184474 90.906572 
L 170.616984 91.27204 
L 170.755405 91.194073 
L 170.898102 91.397111 
L 171.892918 90.83023 
L 172.178455 91.028395 
L 172.321152 90.662927 
L 172.606617 90.989411 
L 173.463013 91.169709 
L 173.605782 90.956925 
L 173.748479 90.986163 
L 174.034015 91.275288 
L 174.176712 91.213565 
L 174.319481 91.406857 
L 174.45783 91.051135 
L 174.886063 91.296404 
L 175.028832 91.286658 
L 175.314297 91.536801 
L 175.456994 91.388989 
L 175.742459 91.470204 
L 175.885228 91.327266 
L 176.027925 91.622889 
L 176.175041 91.592027 
L 176.317738 91.427973 
L 176.456159 91.616392 
L 176.741624 91.385741 
L 176.884392 91.55142 
L 177.169858 91.559541 
L 177.312555 91.671618 
L 178.021906 91.280161 
L 178.164674 91.073875 
L 178.307371 91.146969 
L 178.450139 90.991036 
L 178.739953 91.116107 
L 178.88265 90.948804 
L 179.163767 91.198946 
L 179.306536 90.917942 
L 179.449233 91.174582 
L 179.592001 90.921191 
L 179.734769 91.293156 
L 179.877466 91.156714 
L 180.020235 91.288283 
L 180.448397 91.169709 
L 180.591165 91.366249 
L 181.019328 91.140471 
L 181.443213 91.406857 
L 181.728679 91.319144 
L 181.871447 91.353255 
L 182.014144 91.168084 
L 182.870612 91.605022 
L 183.160354 91.462083 
L 183.303122 91.639132 
L 183.727008 91.385741 
L 183.869705 91.408481 
L 184.15517 91.929882 
L 184.297938 92.16703 
L 184.583404 93.326781 
L 185.150058 98.284149 
L 186.291919 110.573614 
L 186.86285 114.257529 
L 187.009895 114.619749 
L 187.433781 116.397384 
L 187.576549 116.43588 
L 188.004711 117.464388 
L 188.143132 117.39032 
L 188.571366 118.275564 
L 189.284993 120.301555 
L 189.570459 120.143673 
L 189.855995 120.962646 
L 190.141461 121.367909 
L 190.284158 121.564774 
L 190.426926 122.115413 
L 190.569623 121.89402 
L 190.855088 123.255835 
L 190.997857 122.385371 
L 191.283322 122.821821 
L 191.421743 122.792584 
L 191.56444 123.527905 
L 191.711485 123.509226 
L 191.854253 122.776828 
L 191.992673 122.828643 
L 192.13537 123.127027 
L 192.278139 123.156915 
L 192.420836 124.007724 
L 192.849069 124.266962 
L 192.991838 124.028677 
L 193.134535 124.376927 
L 193.277303 123.536676 
L 193.42 124.460417 
L 193.990931 120.043778 
L 194.133699 117.099895 
L 194.423512 102.682757 
L 195.128516 55.615374 
L 195.556749 42.781769 
L 195.984912 36.492474 
L 196.413145 34.107999 
L 196.984076 33.016468 
L 197.126773 33.19839 
L 197.41231 32.220561 
L 197.840472 30.40784 
L 197.987517 30.286018 
L 198.411403 29.136012 
L 198.692592 28.703948 
L 199.263522 29.352044 
L 199.548988 31.021826 
L 199.834453 35.607229 
L 200.262687 48.307642 
L 201.404548 85.008733 
L 202.113899 101.469404 
L 202.542062 107.464701 
L 203.113064 112.86063 
L 204.112157 117.996509 
L 204.964276 120.608386 
L 205.106973 120.866 
L 205.392439 121.580692 
L 205.535207 121.966464 
L 205.820672 122.091535 
L 205.963441 122.300583 
L 206.106138 123.177706 
L 206.248906 122.564694 
L 206.391603 122.592145 
L 206.677069 124.083903 
L 206.828461 123.273377 
L 206.966882 123.407544 
L 207.105302 123.104287 
L 207.247999 123.338349 
L 207.390768 124.383262 
L 207.533536 124.463178 
L 207.676233 123.63852 
L 207.819001 124.623334 
L 207.961698 124.540007 
L 208.104467 124.702113 
L 208.247164 124.688631 
L 208.385584 124.462041 
L 208.813818 121.182739 
L 208.956515 118.730368 
L 209.24198 106.162011 
L 209.955679 58.920828 
L 210.383913 45.320552 
L 210.669378 40.605205 
L 210.954844 38.800606 
L 211.668471 36.74424 
L 212.092357 34.509201 
L 212.663288 32.759829 
L 213.376987 32.075998 
L 213.662452 32.545421 
L 213.947918 34.777211 
L 214.233383 39.479564 
L 214.947082 62.785041 
L 215.946247 92.779391 
L 216.512829 105.046116 
L 216.941063 110.978065 
L 217.369225 114.244535 
L 217.797459 116.906278 
L 218.082924 118.758469 
L 218.649579 121.316256 
L 218.792276 121.34858 
L 219.363206 123.843507 
L 219.510251 123.876805 
L 219.648672 124.796972 
L 219.79144 124.953717 
L 219.934137 124.670439 
L 220.219602 125.715839 
L 221.218767 126.650787 
L 221.361535 126.467891 
L 221.50858 126.533512 
L 221.647001 126.422085 
L 221.789698 126.786579 
L 221.928118 126.816628 
L 222.070886 126.659883 
L 222.503397 127.08545 
L 222.784514 126.990104 
L 222.927282 127.020965 
L 223.069979 126.498103 
L 223.212748 126.408441 
L 223.502561 124.631293 
L 223.783678 116.075123 
L 224.211912 86.995254 
L 224.640075 60.921967 
L 225.068308 48.012019 
L 225.492194 41.971242 
L 225.920356 38.940296 
L 226.491358 37.372845 
L 226.634055 37.281884 
L 226.776824 37.379342 
L 227.490452 35.103696 
L 227.63322 35.030602 
L 227.918685 34.596914 
L 228.061454 34.335401 
L 228.346919 34.440981 
L 228.489616 34.283424 
L 228.632384 34.676505 
L 228.770805 34.725234 
L 229.05627 36.317049 
L 229.346012 40.658807 
L 229.912666 57.359874 
L 230.911831 88.669909 
L 231.625458 104.994138 
L 232.334809 113.963531 
L 232.620275 116.1271 
L 233.048509 118.618616 
L 233.904905 122.820684 
L 234.475835 124.993512 
L 234.761301 126.406979 
L 234.904069 125.876645 
L 235.189534 127.256651 
L 235.470652 127.570142 
L 235.470652 127.570142 
" clip-path="url(#pb84c307aac)" style="fill: none; stroke: #1f77b4; stroke-width: 1.5; stroke-linecap: square"/>
   </g>
   <g id="line2d_22">
    <path d="M 60.416734 132.378236 
L 60.559431 132.53841 
L 60.702199 131.989655 
L 60.849244 131.926632 
L 61.415827 131.104102 
L 61.56722 131.219281 
L 61.84406 130.881443 
L 61.986757 130.900593 
L 62.272294 130.437683 
L 62.414991 130.472768 
L 62.696109 129.999284 
L 62.838877 130.144497 
L 62.981574 129.868203 
L 63.267111 129.809566 
L 63.409808 129.625858 
L 63.552576 130.015365 
L 63.695273 129.430779 
L 63.838041 129.531973 
L 64.123507 129.244634 
L 64.556017 129.111604 
L 64.837134 129.386111 
L 64.979903 128.907916 
L 65.265368 129.315129 
L 65.693602 128.741588 
L 66.260185 129.070346 
L 66.402953 128.541636 
L 66.54565 128.64283 
L 66.688418 128.935042 
L 67.116581 128.706178 
L 67.402046 128.798763 
L 67.83028 128.844569 
L 67.973048 128.634222 
L 68.120093 128.874943 
L 68.258513 128.569412 
L 68.543979 128.704391 
L 68.686676 128.630161 
L 68.829444 128.883552 
L 69.257607 128.640394 
L 69.396027 128.867471 
L 69.824261 128.815331 
L 69.966958 128.285971 
L 70.252423 128.717061 
L 70.395191 128.577696 
L 70.53796 128.744836 
L 70.823425 128.511424 
L 70.966122 128.698381 
L 71.113167 128.493395 
L 71.394356 128.66151 
L 71.679821 128.419976 
L 71.822518 128.647541 
L 71.965287 128.230095 
L 72.107984 128.70764 
L 72.250752 128.304001 
L 72.393449 128.620577 
L 72.536217 128.357441 
L 72.817335 125.077164 
L 73.816499 107.951991 
L 74.244733 104.503599 
L 74.958361 101.625337 
L 75.101129 101.402808 
L 75.386594 100.543552 
L 75.67206 100.226814 
L 75.957525 99.695667 
L 76.238714 99.15315 
L 76.524179 99.473138 
L 76.666876 99.24736 
L 76.809644 99.377304 
L 77.09511 99.086554 
L 77.237807 99.192134 
L 77.808738 98.823417 
L 77.951506 98.542413 
L 78.094274 98.864025 
L 78.236971 98.807174 
L 78.37974 98.511551 
L 78.522437 98.529419 
L 78.665205 98.790931 
L 79.517253 98.414093 
L 79.802719 98.315011 
L 79.945487 97.80498 
L 80.088184 97.783864 
L 80.373649 98.323132 
L 80.516418 98.082736 
L 80.801883 98.22405 
L 80.948928 98.089233 
L 81.087348 98.328005 
L 81.515582 97.998272 
L 81.658279 98.183442 
L 82.514675 98.173697 
L 82.800212 97.882947 
L 82.938561 97.847212 
L 83.081329 98.016139 
L 83.224026 97.897565 
L 83.366795 97.964162 
L 83.509563 98.21268 
L 83.65226 97.886195 
L 83.937725 97.835842 
L 84.080494 97.946294 
L 84.223191 97.904063 
L 84.370236 97.543468 
L 84.508656 97.610064 
L 84.651424 97.533722 
L 84.798469 97.632804 
L 85.079587 97.962537 
L 85.654865 97.587324 
L 85.793286 97.869952 
L 85.936054 97.618185 
L 86.502637 97.796859 
L 86.645405 97.655544 
L 86.930871 97.727014 
L 87.073568 97.497987 
L 87.216336 97.718892 
L 87.359033 97.549965 
L 87.501801 97.655544 
L 87.929964 97.519103 
L 88.072732 97.738384 
L 88.358197 97.540219 
L 88.643663 97.683158 
L 88.929128 97.590572 
L 89.357362 97.817975 
L 89.500059 97.428142 
L 89.638479 97.873201 
L 89.923945 97.535346 
L 90.07099 97.588948 
L 90.20941 97.444385 
L 90.352178 96.981459 
L 90.494875 97.147138 
L 90.637644 96.903493 
L 90.923109 97.389159 
L 91.351343 97.104906 
L 91.636808 97.353424 
L 91.779505 96.970089 
L 92.064971 97.413523 
L 92.493204 97.434639 
L 92.635901 96.942476 
L 92.921438 97.400529 
L 93.202555 97.122774 
L 93.630789 97.44601 
L 93.773486 97.239723 
L 94.058951 97.512606 
L 94.20172 97.522352 
L 94.487185 97.126022 
L 94.63423 97.304695 
L 95.058116 97.127646 
L 95.914512 94.964077 
L 96.05728 95.136253 
L 96.342746 94.493029 
L 96.485443 94.614852 
L 96.766631 94.437803 
L 96.909328 94.059341 
L 97.194794 94.044722 
L 97.337562 93.658139 
L 97.480259 93.784834 
L 97.765724 93.391753 
L 97.908493 93.640271 
L 98.193958 93.001921 
L 98.336726 93.360891 
L 98.488048 92.72579 
L 98.773513 92.555238 
L 99.050354 93.170848 
L 99.193123 93.131865 
L 99.33582 92.745281 
L 99.482865 92.753403 
L 99.621285 93.024661 
L 99.764053 92.657569 
L 99.902474 93.11887 
L 100.045171 92.878474 
L 100.187939 93.021412 
L 100.330636 92.873601 
L 100.473404 92.886595 
L 100.616101 92.438288 
L 100.763218 92.355449 
L 100.901567 92.863855 
L 101.472569 92.681933 
L 101.615266 92.303471 
L 101.762311 92.612088 
L 101.900731 92.269361 
L 102.0435 92.730662 
L 102.186197 92.261239 
L 102.61443 92.902838 
L 102.757127 92.839491 
L 102.899896 92.610464 
L 103.181013 92.735535 
L 103.323781 92.301847 
L 103.609247 92.66569 
L 103.894712 92.168654 
L 104.180178 92.594221 
L 104.322946 92.649447 
L 104.469991 92.20114 
L 104.608411 92.337581 
L 104.893877 91.976987 
L 105.036574 92.485393 
L 105.179342 92.22388 
L 105.322039 92.240123 
L 105.469155 91.976987 
L 105.750273 92.621834 
L 105.893041 92.501636 
L 106.035738 92.581227 
L 106.182783 92.465901 
L 106.321203 91.980235 
L 106.463972 91.929882 
L 106.606669 92.020843 
L 106.745089 92.381438 
L 107.030555 92.409051 
L 107.173323 92.262864 
L 107.320368 92.511382 
L 107.458788 92.248245 
L 107.601485 92.51463 
L 107.744254 91.926633 
L 107.886951 92.115052 
L 108.172416 91.988357 
L 108.315184 92.60884 
L 108.462229 92.409051 
L 108.60065 92.561735 
L 108.743418 92.186521 
L 109.028883 92.46915 
L 109.17158 92.29535 
L 109.314349 91.806435 
L 109.457046 92.236875 
L 109.599814 91.717098 
L 109.742511 92.176776 
L 109.885279 91.884401 
L 110.0237 92.058202 
L 110.309165 91.970489 
L 110.594631 91.60827 
L 110.737328 91.708977 
L 110.884444 91.673242 
L 111.022793 92.18977 
L 111.30833 92.287228 
L 111.451027 91.689485 
L 111.593795 91.796689 
L 111.736492 92.053329 
L 111.87926 92.028964 
L 112.026305 92.355449 
L 112.164726 91.959119 
L 112.307423 92.287228 
L 112.450191 91.791816 
L 112.592888 92.365195 
L 112.735656 92.305095 
L 112.878353 91.983484 
L 113.021122 92.292101 
L 113.168167 92.251493 
L 113.302239 91.656999 
L 113.445008 92.066323 
L 113.592053 91.915263 
L 113.730473 92.121549 
L 113.87317 91.840545 
L 114.158707 91.973738 
L 114.301404 91.783695 
L 114.444172 92.131295 
L 114.586869 91.470204 
L 114.729637 91.892523 
L 114.872334 91.669994 
L 115.300568 91.983484 
L 115.443265 91.658623 
L 115.586033 92.028964 
L 115.72873 91.764203 
L 115.875847 91.74796 
L 116.014196 91.463707 
L 116.156964 91.822678 
L 116.299732 91.484823 
L 116.44243 91.686237 
L 116.723547 91.4231 
L 117.009084 91.769076 
L 117.151781 91.471829 
L 117.441594 91.869783 
L 117.580014 91.721971 
L 117.722711 91.397111 
L 117.86548 91.527055 
L 118.008177 91.439343 
L 118.150945 91.817805 
L 118.293642 91.765827 
L 118.43641 91.916887 
L 118.721876 91.403608 
L 118.864644 91.973738 
L 119.150109 91.221686 
L 119.292807 91.083621 
L 119.435575 91.288283 
L 119.578272 91.268791 
L 119.863737 91.960744 
L 120.144926 91.460459 
L 120.287623 91.496193 
L 120.434668 91.71385 
L 120.573088 91.694358 
L 121.001322 91.210316 
L 121.286787 91.278537 
L 121.429484 91.626137 
L 121.572253 91.2493 
L 121.715021 91.886026 
L 121.857718 91.455586 
L 122.147531 91.897396 
L 122.285952 91.442591 
L 122.428649 91.806435 
L 122.571417 91.575784 
L 122.714114 92.095561 
L 122.99958 91.486448 
L 123.285045 91.920136 
L 123.427813 91.548171 
L 123.566234 91.624513 
L 123.708931 91.450713 
L 123.994396 91.682988 
L 124.279933 91.111234 
L 124.565398 91.816181 
L 124.85514 91.890899 
L 125.136329 91.184327 
L 125.421794 91.350006 
L 125.564491 91.783695 
L 125.70726 91.851915 
L 125.854305 92.071196 
L 125.992725 91.302901 
L 126.13977 91.858413 
L 126.27819 91.359752 
L 126.420959 91.897396 
L 126.849121 91.959119 
L 127.13031 91.835672 
L 127.273007 91.960744 
L 127.415775 91.886026 
L 127.558472 91.609894 
L 127.843938 91.889274 
L 127.986706 91.429597 
L 128.129403 91.975362 
L 128.276519 91.778822 
L 128.414868 91.923385 
L 128.557637 91.416603 
L 128.700334 91.892523 
L 128.843102 91.426348 
L 128.990147 91.695982 
L 129.128567 91.371122 
L 129.271336 91.577408 
L 129.414033 91.587154 
L 129.699498 91.972114 
L 129.842266 91.989981 
L 130.266152 91.094991 
L 130.694315 91.559541 
L 130.841359 91.946125 
L 131.122548 91.403608 
L 131.408014 92.03871 
L 131.550711 91.822678 
L 131.693479 91.87628 
L 131.836247 91.20057 
L 131.978944 91.918512 
L 132.121713 91.866534 
L 132.407178 91.954246 
L 132.549875 91.821054 
L 132.692643 91.432846 
L 132.982457 91.84217 
L 133.263574 91.861661 
L 133.406271 91.478326 
L 133.68746 91.879528 
L 133.830157 92.035461 
L 134.115622 91.890899 
L 134.258391 91.587154 
L 134.401088 91.730093 
L 134.543856 92.043583 
L 135.114787 91.884401 
L 135.257555 91.955871 
L 135.54302 91.676491 
L 135.690065 91.827551 
L 135.828486 91.765827 
L 136.113951 91.85354 
L 136.399416 91.986732 
L 136.542185 92.033837 
L 136.82765 91.88765 
L 137.108768 92.012721 
L 137.394233 91.837297 
L 137.826743 91.837297 
L 137.965164 91.902269 
L 138.107932 91.837297 
L 138.250629 91.557917 
L 138.393397 91.600149 
L 138.536094 91.85354 
L 138.964328 91.622889 
L 139.249793 91.861661 
L 139.392562 91.179455 
L 139.535259 91.388989 
L 139.820724 91.325642 
L 139.967769 91.7707 
L 140.10619 91.704104 
L 140.248958 91.825927 
L 140.387378 91.74796 
L 140.530075 91.276913 
L 140.67712 91.780446 
L 140.815541 91.263918 
L 140.958309 91.549795 
L 141.101006 91.161587 
L 141.243774 91.187576 
L 141.52924 91.834048 
L 141.957473 91.64238 
L 142.104518 91.760954 
L 142.385636 91.556292 
L 142.528404 91.151841 
L 142.813869 91.814556 
L 142.956566 91.7707 
L 143.103611 91.221686 
L 143.242032 91.268791 
L 143.3848 91.507563 
L 143.670266 91.239554 
L 143.812963 91.062505 
L 144.094151 91.546547 
L 144.236848 90.927688 
L 144.379617 91.099864 
L 144.665082 91.036516 
L 144.80785 91.052759 
L 145.093316 90.745766 
L 145.236013 91.250924 
L 145.378781 90.960174 
L 145.521478 91.239554 
L 145.811291 91.176206 
L 145.949712 91.505939 
L 146.096757 91.488072 
L 146.377874 90.994284 
L 146.663411 90.632065 
L 146.806108 90.813987 
L 146.948876 91.207068 
L 147.091573 90.919566 
L 147.229994 91.005654 
L 147.800924 90.666175 
L 148.08639 91.403608 
L 148.371855 91.127477 
L 148.514623 91.592027 
L 148.65732 91.086869 
L 148.800089 91.488072 
L 149.085554 91.098239 
L 149.228251 90.914693 
L 149.37102 91.335387 
L 149.513788 90.787998 
L 149.799253 90.908196 
L 149.946298 91.437718 
L 150.084719 91.065753 
L 150.227416 91.007279 
L 150.370184 90.659678 
L 150.512881 91.2493 
L 150.79407 90.870837 
L 150.941115 90.878959 
L 151.079535 91.169709 
L 151.22658 90.974793 
L 151.650466 91.452337 
L 151.935931 91.2493 
L 152.078628 91.592027 
L 152.221397 91.600149 
L 152.364165 91.208692 
L 152.64963 91.678115 
L 152.792327 91.731717 
L 153.077793 91.215189 
L 153.220561 91.145344 
L 153.363258 91.518934 
L 153.506026 91.440967 
L 153.648723 91.627762 
L 153.79584 91.070626 
L 153.929912 91.492945 
L 154.358074 91.224935 
L 154.500843 91.582281 
L 154.64354 91.484823 
L 154.929076 91.538425 
L 155.071774 90.945555 
L 155.214542 90.914693 
L 155.500007 91.582281 
L 155.642704 91.263918 
L 155.789749 91.405232 
L 155.92817 91.114482 
L 156.070938 91.502691 
L 156.356403 91.185952 
L 156.641869 91.0154 
L 156.927334 91.242802 
L 157.070102 91.30615 
L 157.212799 91.051135 
L 157.35122 91.413354 
L 157.498265 90.856219 
L 157.636685 91.159963 
L 157.922151 90.865964 
L 158.064919 90.734396 
L 158.211964 91.385741 
L 158.350384 91.195698 
L 158.63585 91.083621 
L 158.778547 91.064129 
L 158.921315 90.658054 
L 159.349477 90.643435 
L 159.492246 91.021897 
L 159.635014 90.987787 
L 159.777711 91.335387 
L 159.920479 91.093367 
L 160.063176 91.403608 
L 160.348642 90.773379 
L 160.49141 91.311023 
L 160.634107 90.994284 
L 160.772528 91.408481 
L 160.915296 91.35163 
L 161.057993 91.04951 
L 161.486227 91.122604 
L 161.628924 90.641811 
L 161.771692 90.6678 
L 162.342623 91.484823 
L 162.485391 91.63101 
L 162.628088 92.259615 
L 162.770856 91.743087 
L 162.913553 92.652696 
L 163.341787 92.488642 
L 163.484484 92.79401 
L 163.627252 92.639702 
L 163.769949 92.803756 
L 163.912718 92.397681 
L 164.055415 92.526 
L 164.193835 92.857358 
L 164.336604 92.873601 
L 164.907534 93.442106 
L 165.193 93.234196 
L 165.335768 92.941822 
L 165.621233 93.115622 
L 165.76393 93.502206 
L 166.049396 92.88822 
L 166.192164 92.907711 
L 166.334861 93.354394 
L 166.620326 93.029534 
L 166.763095 93.057147 
L 167.04856 93.485963 
L 167.757911 93.042528 
L 168.043377 93.245566 
L 168.186145 92.920706 
L 168.47161 93.185467 
L 168.618655 93.128616 
L 169.042541 93.323532 
L 169.185238 92.961313 
L 169.61782 93.40962 
L 169.756169 93.131865 
L 170.041705 93.143235 
L 170.612636 93.396626 
L 170.898102 93.170848 
L 171.036522 93.562305 
L 171.183567 93.128616 
L 171.464684 93.101003 
L 171.75015 93.06202 
L 171.892918 92.870352 
L 172.035615 92.878474 
L 172.463849 93.120495 
L 172.606617 93.040904 
L 172.749314 93.094506 
L 172.892082 92.977556 
L 173.03478 93.214704 
L 173.320245 92.761524 
L 173.748479 93.399875 
L 173.891176 93.177345 
L 174.176641 93.367389 
L 174.315061 93.156229 
L 174.600527 93.157854 
L 174.747643 93.060396 
L 174.885992 92.777767 
L 175.314226 93.026285 
L 175.742459 93.06202 
L 175.885157 93.237444 
L 176.170622 93.057147 
L 176.317667 93.019788 
L 176.456087 93.135113 
L 176.598856 92.865479 
L 176.741553 93.284549 
L 176.884321 93.083136 
L 177.169786 93.049026 
L 177.455252 92.948319 
L 177.736369 93.040904 
L 177.879137 92.850861 
L 178.311648 92.854109 
L 178.450068 93.102627 
L 178.597113 93.047401 
L 178.735534 92.722541 
L 178.878302 92.678685 
L 179.020999 93.373886 
L 179.163767 92.980805 
L 180.167208 93.230947 
L 180.448397 93.313787 
L 180.591094 93.006794 
L 180.733862 93.081512 
L 180.876559 92.902838 
L 181.019328 93.07339 
L 181.300445 92.958065 
L 181.443213 93.006794 
L 181.585911 92.729038 
L 181.871376 92.860607 
L 182.014144 92.722541 
L 182.156841 93.346273 
L 182.442307 93.040904 
L 182.585075 93.21308 
L 182.87054 92.829745 
L 183.013309 93.008418 
L 183.156006 92.979181 
L 183.298774 93.115622 
L 183.441471 93.450228 
L 183.726936 93.008418 
L 184.012402 93.446979 
L 184.15517 93.5152 
L 184.297867 93.367389 
L 184.436288 93.417742 
L 184.579056 93.593166 
L 184.721753 93.273179 
L 184.868869 93.520073 
L 185.435452 96.593251 
L 187.005547 112.452931 
L 187.723523 115.716152 
L 188.143061 116.846991 
L 188.285829 116.88971 
L 188.428597 117.197353 
L 188.714063 117.025339 
L 188.85676 117.208235 
L 189.142225 116.853001 
L 189.284993 117.095671 
L 189.42769 116.962316 
L 189.570459 117.286689 
L 189.713156 117.212946 
L 189.998621 117.649558 
L 190.141389 117.559409 
L 190.426855 117.830343 
L 190.569623 117.657517 
L 190.855088 118.000245 
L 191.421671 118.492895 
L 191.56444 118.444166 
L 191.849905 118.74986 
L 191.992602 118.436045 
L 192.278067 118.903844 
L 192.420836 118.861287 
L 192.563533 118.596363 
L 192.710649 118.618779 
L 192.848998 118.843095 
L 193.277232 118.728094 
L 193.709742 119.345004 
L 193.990931 118.185253 
L 194.276396 118.056608 
L 194.419093 116.786729 
L 194.557514 114.148701 
L 194.842979 99.51537 
L 195.556678 52.901167 
L 195.984912 41.230561 
L 196.413074 35.574743 
L 196.698539 33.945569 
L 196.841308 33.274732 
L 196.984005 33.342953 
L 197.26947 32.181578 
L 197.412239 32.322892 
L 197.840472 30.791175 
L 198.264287 29.857202 
L 198.407055 29.82634 
L 198.69252 29.189614 
L 198.835289 28.893991 
L 198.977986 28.944345 
L 199.120754 28.796533 
L 199.267799 29.085659 
L 199.548916 29.150631 
L 199.691685 29.30494 
L 199.97715 32.517808 
L 200.262616 38.020941 
L 201.828363 87.141441 
L 202.54641 101.937203 
L 203.112993 107.747329 
L 203.260037 108.114421 
L 203.541226 110.385195 
L 203.826692 111.556316 
L 203.973737 111.731741 
L 204.112157 112.232026 
L 204.397622 112.474046 
L 204.67874 113.495732 
L 205.24967 114.423208 
L 205.392439 114.491429 
L 205.677904 115.085923 
L 205.820601 115.08105 
L 206.106138 115.540728 
L 206.248835 115.794119 
L 206.391603 115.638186 
L 206.5343 116.315519 
L 206.681345 116.055631 
L 206.819766 116.662957 
L 207.247999 116.591813 
L 207.533465 116.3597 
L 207.676162 116.593762 
L 207.81893 116.405181 
L 208.100047 116.660359 
L 208.242816 116.926257 
L 208.385513 116.886786 
L 208.671049 117.13904 
L 209.099212 117.15772 
L 209.24198 117.061399 
L 209.384677 116.539998 
L 209.527446 115.409159 
L 209.674491 112.243396 
L 209.955608 97.244596 
L 210.526539 57.795187 
L 210.954772 41.98911 
L 211.383006 34.936393 
L 211.811168 33.235749 
L 212.092357 32.342383 
L 212.235054 32.342383 
L 213.234219 28.739683 
L 213.376987 28.372591 
L 213.519684 28.422944 
L 213.662452 28.237774 
L 213.805149 27.841444 
L 213.947918 27.878803 
L 214.090615 28.221531 
L 214.233383 28.081841 
L 214.661545 29.811722 
L 214.942734 33.620709 
L 215.370897 45.98814 
L 216.655526 87.170679 
L 217.511922 103.810023 
L 217.940156 108.639071 
L 218.511087 112.365218 
L 218.649507 112.53577 
L 218.934973 113.401523 
L 219.652948 115.072929 
L 220.076834 116.281247 
L 220.794881 117.922116 
L 220.933301 117.779502 
L 221.223043 118.654189 
L 221.504232 118.249088 
L 221.646929 118.687812 
L 221.928118 118.568588 
L 222.070815 118.803137 
L 222.35628 118.44108 
L 222.641746 118.861937 
L 222.788791 119.093075 
L 222.927211 118.899458 
L 223.212676 119.585076 
L 223.355445 119.070659 
L 223.498142 119.165356 
L 223.783678 118.822791 
L 223.930723 118.449364 
L 224.211841 111.090142 
L 224.640075 82.377365 
L 225.06396 56.174134 
L 225.492123 42.984806 
L 225.777588 38.368542 
L 226.063053 36.248828 
L 226.205822 36.143249 
L 226.919521 34.015414 
L 227.490452 31.410034 
L 227.633149 31.262223 
L 227.918614 30.656358 
L 228.061382 30.399719 
L 228.485268 30.230791 
L 228.627965 30.164195 
L 228.775081 30.255156 
L 229.056199 31.468509 
L 229.341664 35.785902 
L 229.62713 42.971812 
L 231.339993 95.089148 
L 231.768155 104.003314 
L 232.762972 112.980829 
L 233.476671 115.201249 
L 233.904905 116.43653 
L 234.333067 117.722164 
L 234.903998 118.997241 
L 235.046766 118.946725 
L 235.189463 119.025017 
L 235.613349 119.775606 
L 235.613349 119.775606 
" clip-path="url(#pb84c307aac)" style="fill: none; stroke: #ff7f0e; stroke-width: 1.5; stroke-linecap: square"/>
   </g>
   <g id="line2d_23">
    <path d="M 60.416734 132.378236 
L 60.563779 132.135598 
L 60.710824 132.443585 
L 60.849244 132.461172 
L 60.992012 131.756324 
L 61.139057 132.555074 
L 61.277478 132.635363 
L 61.420175 131.883994 
L 61.567291 132.6001 
L 61.70564 132.526974 
L 61.848408 132.795389 
L 61.995453 132.678927 
L 62.133874 131.681655 
L 62.276642 131.693788 
L 62.419339 132.717504 
L 62.562107 132.921273 
L 62.851849 132.849365 
L 62.99027 132.16542 
L 63.133038 133.046685 
L 63.418503 131.958533 
L 63.561201 133.15652 
L 63.703969 132.315165 
L 63.846666 132.243034 
L 63.989434 133.137971 
L 64.132131 132.151565 
L 64.564713 132.288222 
L 64.703133 132.339414 
L 64.841482 133.243063 
L 64.988599 132.311811 
L 65.269716 132.457639 
L 65.412484 132.474822 
L 65.555181 132.713638 
L 65.69795 132.474999 
L 65.840647 132.592823 
L 66.126112 132.247896 
L 66.411578 132.613257 
L 66.554346 132.458633 
L 66.697043 133.333683 
L 66.839811 133.18735 
L 66.986856 132.237634 
L 67.125277 133.661434 
L 67.268045 132.516219 
L 67.55351 132.392563 
L 67.696207 132.671715 
L 67.838976 132.511515 
L 67.981673 132.685343 
L 68.124441 132.4855 
L 68.405558 132.818113 
L 68.833792 133.123856 
L 68.976489 132.844297 
L 69.119257 133.024318 
L 69.261955 132.882647 
L 69.404723 132.998671 
L 69.551768 133.950641 
L 69.690188 132.976564 
L 69.832957 132.938312 
L 69.975654 133.916628 
L 70.118422 133.695788 
L 70.261119 133.184572 
L 70.408164 133.079041 
L 70.546584 133.997779 
L 70.689353 134.040222 
L 70.836398 133.471879 
L 71.260283 133.540879 
L 71.40298 133.070903 
L 71.541401 133.807297 
L 71.688517 133.916775 
L 71.826866 132.871244 
L 71.969634 132.703633 
L 72.112332 133.545134 
L 72.397868 132.601334 
L 72.540565 132.577701 
L 72.826031 132.990614 
L 72.973076 133.785726 
L 73.111496 133.091191 
L 73.254264 133.493839 
L 73.682427 130.372711 
L 74.11066 124.195493 
L 74.681591 114.333872 
L 75.248245 107.713219 
L 75.961873 104.651411 
L 76.532804 103.754796 
L 76.818269 103.11807 
L 76.961037 103.12944 
L 77.246503 102.772094 
L 78.102899 102.32866 
L 78.245667 102.301047 
L 78.384088 102.159732 
L 78.669553 102.296174 
L 78.81225 102.031412 
L 79.097715 102.146738 
L 79.811414 101.93233 
L 79.954183 102.109379 
L 80.09688 101.857612 
L 80.239648 101.935579 
L 80.525113 101.628586 
L 80.810579 101.82675 
L 80.953276 101.90959 
L 81.238741 101.521382 
L 81.524207 101.829999 
L 81.662627 101.581481 
L 81.805395 101.648077 
L 81.948092 101.51326 
L 82.090861 101.885225 
L 82.376326 101.678939 
L 82.661791 101.682188 
L 82.80456 101.81538 
L 83.232722 101.514885 
L 83.37549 101.719547 
L 83.803653 101.427172 
L 83.946421 101.534376 
L 84.089118 101.33946 
L 84.374584 101.602597 
L 84.517352 101.477526 
L 84.802817 101.557116 
L 84.945586 101.560365 
L 85.226703 101.427172 
L 85.369471 101.500266 
L 85.512168 101.214389 
L 85.654937 101.518133 
L 85.940402 101.557116 
L 86.083099 101.482399 
L 86.225867 101.22251 
L 86.368564 101.243626 
L 86.511333 101.121804 
L 86.796798 101.246875 
L 86.939495 101.206267 
L 87.082263 101.336211 
L 87.372077 101.216013 
L 87.510497 101.423924 
L 87.653194 101.422299 
L 87.795963 101.289107 
L 88.081428 101.417427 
L 88.228473 101.212765 
L 88.366893 101.451537 
L 88.648011 101.157538 
L 88.933476 101.103936 
L 89.076244 101.355703 
L 89.36171 101.155914 
L 89.647175 101.295604 
L 89.93264 101.056832 
L 90.075409 101.263118 
L 90.218106 101.099063 
L 90.503571 101.355703 
L 90.64634 100.878158 
L 91.364315 101.243626 
L 91.502736 100.99186 
L 92.648945 100.964246 
L 92.783017 101.29398 
L 93.068483 101.050334 
L 93.353948 101.094191 
L 93.643761 101.220886 
L 93.924879 101.120179 
L 94.067647 100.910644 
L 94.210344 100.960998 
L 94.353113 100.892777 
L 94.49581 101.043837 
L 94.924043 100.7807 
L 95.066812 100.962622 
L 95.205161 100.808313 
L 95.347929 100.889529 
L 95.494974 100.675121 
L 95.633394 100.89765 
L 95.91886 100.816435 
L 96.204325 100.096869 
L 96.489791 99.570596 
L 97.20349 98.401099 
L 97.488955 98.35237 
L 97.631723 98.019388 
L 97.917189 97.908935 
L 98.059886 97.728638 
L 98.202654 97.925178 
L 98.349699 97.626307 
L 98.488119 97.668539 
L 98.769237 97.322563 
L 98.912005 97.418396 
L 99.19747 97.184497 
L 99.344515 97.346927 
L 99.482936 97.116276 
L 99.768401 97.275458 
L 99.911098 97.156884 
L 100.053867 97.324187 
L 100.196635 97.03831 
L 100.34368 97.013945 
L 100.4821 96.843394 
L 100.624797 96.900244 
L 100.910263 96.63061 
L 101.053031 96.61924 
L 101.195728 96.846642 
L 101.623962 96.549395 
L 102.47601 96.536401 
L 102.618778 96.823902 
L 102.761475 96.529903 
L 102.904244 96.615991 
L 103.047012 96.429197 
L 103.194057 96.625737 
L 103.475174 96.489296 
L 103.76064 96.551019 
L 103.903408 96.453561 
L 104.188873 96.580257 
L 104.474339 96.518533 
L 104.617036 96.692334 
L 105.045269 96.370722 
L 105.188038 96.544522 
L 105.330735 96.369098 
L 105.611852 96.659848 
L 105.897389 96.308998 
L 106.044434 96.097839 
L 106.325551 96.320369 
L 106.46832 96.291131 
L 106.611017 94.29324 
L 106.753785 96.427573 
L 106.896482 96.174181 
L 107.03925 96.375595 
L 107.467413 96.268391 
L 107.610181 96.021497 
L 107.752949 96.205043 
L 108.038415 95.967895 
L 108.32388 96.32849 
L 108.466577 96.042613 
L 108.613622 96.268391 
L 108.747766 96.013376 
L 109.033231 96.268391 
L 109.175928 96.244026 
L 109.318697 96.486047 
L 109.461394 96.130325 
L 109.604162 96.221286 
L 109.746859 94.29324 
L 109.889627 96.140071 
L 110.032324 96.346357 
L 110.175093 93.880668 
L 110.31779 96.047486 
L 110.460558 96.326866 
L 110.746023 96.021497 
L 111.031489 96.261894 
L 111.174257 96.109209 
L 111.316954 96.182303 
L 111.459722 93.937518 
L 111.60242 95.933785 
L 111.745188 96.235905 
L 111.887885 96.12058 
L 112.030653 96.242402 
L 112.17335 96.201795 
L 112.311771 95.925663 
L 112.454539 96.117331 
L 112.597236 93.823817 
L 112.740004 96.029619 
L 112.882701 96.140071 
L 113.02547 95.888304 
L 113.168238 96.128701 
L 113.453703 95.904547 
L 113.739169 95.974392 
L 114.024634 95.894802 
L 114.167331 96.081596 
L 114.738262 95.995508 
L 114.88103 96.156314 
L 115.023727 96.044237 
L 115.166496 96.216413 
L 115.309264 95.997133 
L 115.451961 96.239154 
L 115.590381 95.914293 
L 115.875847 95.885056 
L 116.018615 96.045862 
L 116.161312 96.408081 
L 116.30408 96.092966 
L 116.589546 96.208292 
L 116.732243 96.068602 
L 116.875011 94.070711 
L 117.017708 96.065353 
L 117.160476 96.065353 
L 117.445942 96.297628 
L 117.874176 96.096215 
L 118.016873 96.172557 
L 118.163918 94.069087 
L 118.302338 96.442191 
L 118.449383 94.15355 
L 118.587803 94.047971 
L 118.734848 96.114082 
L 118.873269 94.168169 
L 119.016037 94.147053 
L 119.154457 96.099464 
L 119.301502 96.109209 
L 119.439923 96.450313 
L 119.586968 96.398335 
L 119.725388 96.088094 
L 119.868085 96.451937 
L 120.010853 94.034976 
L 120.157898 96.180679 
L 120.296319 96.421075 
L 120.439016 96.144944 
L 120.581784 94.072335 
L 120.724553 96.110834 
L 120.86725 95.966271 
L 121.010018 96.450313 
L 121.43818 96.323617 
L 122.009111 96.406457 
L 122.151879 96.167684 
L 122.432997 96.273264 
L 122.575765 96.17743 
L 122.718462 96.261894 
L 122.86123 96.084845 
L 123.003928 96.414578 
L 123.432161 96.089718 
L 123.57493 94.426433 
L 123.717627 96.291131 
L 123.860395 96.205043 
L 124.14586 96.43407 
L 124.431326 95.868813 
L 124.574023 96.222911 
L 125.002256 96.157938 
L 125.144953 94.283495 
L 125.287722 96.04911 
L 125.43049 96.084845 
L 125.573187 96.265142 
L 125.711607 93.875795 
L 125.854305 93.818944 
L 125.997073 96.105961 
L 126.139841 96.258645 
L 126.429583 96.242402 
L 126.715049 95.924039 
L 126.853469 96.227783 
L 127.000514 94.241263 
L 127.285979 94.044722 
L 127.4244 95.989011 
L 127.709865 96.323617 
L 127.856981 94.150302 
L 127.99533 93.898535 
L 128.138099 95.946779 
L 128.280867 96.182303 
L 128.423564 96.141695 
L 128.566332 93.927773 
L 128.709029 93.905032 
L 128.851798 96.15469 
L 129.132915 96.234281 
L 129.275684 96.164436 
L 129.422728 94.25913 
L 129.561149 96.04911 
L 129.703846 96.276512 
L 129.846614 94.322478 
L 129.989311 96.172557 
L 130.13208 96.17743 
L 130.274777 93.724735 
L 130.417545 96.326866 
L 130.560242 93.856303 
L 130.707358 94.455671 
L 130.845779 96.227783 
L 131.131244 95.979265 
L 131.273941 93.94564 
L 131.420986 96.286258 
L 131.702175 96.083221 
L 131.844872 94.345218 
L 131.98764 94.304611 
L 132.134685 96.300877 
L 132.273105 94.491405 
L 132.415803 94.317605 
L 132.554223 93.879044 
L 132.696991 96.140071 
L 132.839688 96.344733 
L 132.982457 93.939143 
L 133.125154 96.308998 
L 133.267922 94.454046 
L 133.410619 96.151441 
L 133.553387 96.203419 
L 133.696156 94.238014 
L 133.838853 96.151441 
L 133.981621 93.982999 
L 134.124318 93.737729 
L 134.267086 93.796204 
L 134.409783 94.043098 
L 134.552552 96.109209 
L 134.699597 93.768591 
L 134.980714 93.888789 
L 135.123482 96.203419 
L 135.26618 96.027994 
L 135.408948 93.812447 
L 135.551716 95.964647 
L 135.694413 96.13195 
L 135.837182 95.925663 
L 135.975531 96.239154 
L 136.118299 96.135198 
L 136.260996 93.745851 
L 136.403764 94.24776 
L 136.546533 96.057232 
L 136.68923 96.078348 
L 136.836275 93.903408 
L 136.974695 95.959774 
L 137.12174 94.582366 
L 137.26016 96.242402 
L 137.545626 96.122204 
L 137.688394 94.000866 
L 137.831091 93.931021 
L 137.973859 96.156314 
L 138.116557 94.306235 
L 138.259325 94.051219 
L 138.402093 96.281385 
L 138.54479 94.428057 
L 138.687559 94.238014 
L 138.830256 96.00363 
L 138.973024 94.480035 
L 139.254141 94.207152 
L 139.39691 94.377704 
L 139.539607 93.784834 
L 139.682375 96.278137 
L 139.825072 96.208292 
L 139.96784 94.455671 
L 140.110537 96.209916 
L 140.253306 94.372831 
L 140.538771 94.226644 
L 140.681468 94.481659 
L 140.824236 96.084845 
L 140.971281 94.208777 
L 141.109702 94.36471 
L 141.25247 93.784834 
L 141.395167 96.130325 
L 141.537936 96.156314 
L 141.680633 96.03774 
L 141.823401 94.330599 
L 141.970446 94.475162 
L 142.108866 94.39882 
L 142.251563 96.042613 
L 142.394332 96.125452 
L 142.537029 93.906657 
L 142.679797 93.807574 
L 142.818217 95.956525 
L 143.393496 96.02637 
L 143.531845 95.964647 
L 143.674613 94.369583 
L 143.817382 95.998757 
L 143.960079 95.868813 
L 144.245544 96.14332 
L 144.53101 95.880183 
L 144.816475 95.889929 
L 144.959243 95.974392 
L 145.10194 95.836327 
L 145.244709 95.896426 
L 145.387406 94.359837 
L 145.530174 96.013376 
L 145.815639 95.919166 
L 145.958408 95.74699 
L 146.239525 95.891553 
L 146.382222 95.669024 
L 146.667759 95.798968 
L 146.814804 95.808714 
L 146.953224 93.583421 
L 147.095921 95.669024 
L 147.238689 95.652781 
L 147.381387 95.854194 
L 147.80962 95.625168 
L 147.952317 95.774603 
L 148.095086 95.597554 
L 148.237783 93.752348 
L 148.380551 94.114567 
L 148.523319 95.477356 
L 148.666016 95.695013 
L 148.808785 95.428627 
L 149.09425 95.743742 
L 149.236947 95.826581 
L 149.660833 95.532582 
L 149.946298 95.581311 
L 150.089066 93.300792 
L 150.236111 93.586669 
L 150.374532 95.638162 
L 150.517229 95.803841 
L 150.664345 93.948888 
L 150.802694 95.67877 
L 150.945463 95.644659 
L 151.092508 95.761609 
L 151.520741 95.597554 
L 151.801859 95.831454 
L 151.944627 95.579687 
L 152.372789 95.727499 
L 152.519906 95.2597 
L 152.796675 95.612173 
L 152.939443 95.530958 
L 153.224909 95.781101 
L 153.367606 95.722626 
L 153.510374 95.542328 
L 153.653071 95.738869 
L 153.79584 95.686891 
L 153.938537 95.441622 
L 154.081305 95.526085 
L 154.224073 95.4335 
L 154.36677 95.652781 
L 154.652236 95.615422 
L 154.795004 93.606161 
L 154.942049 95.587809 
L 155.080469 95.862316 
L 155.223166 95.665775 
L 155.365935 95.738869 
L 155.508632 94.060965 
L 155.6514 95.599179 
L 156.079634 95.608925 
L 156.217983 93.900159 
L 156.503448 93.869298 
L 156.646217 95.59593 
L 156.788985 93.326781 
L 156.931682 93.172472 
L 157.07445 95.487102 
L 157.502613 95.475732 
L 157.645381 93.859552 
L 157.792426 95.418881 
L 157.930846 93.459974 
L 158.073543 95.589433 
L 158.216312 93.765342 
L 158.359009 95.441622 
L 158.501777 95.490351 
L 158.644474 93.788083 
L 158.787242 95.423754 
L 158.930011 95.670648 
L 159.072708 94.036601 
L 159.219753 95.47898 
L 159.358173 93.396626 
L 159.500941 95.659278 
L 159.639362 95.420506 
L 159.782059 95.740493 
L 159.924827 93.763718 
L 160.067524 93.433985 
L 160.210293 93.776713 
L 160.35299 95.266197 
L 160.642803 93.146484 
L 160.781223 93.042528 
L 161.066689 93.604537 
L 161.209386 93.058771 
L 161.352154 93.344648 
L 161.494922 95.027425 
L 161.637619 95.056662 
L 161.780388 93.11887 
L 162.07013 93.50383 
L 162.20855 93.870922 
L 162.351318 93.931021 
L 162.498363 93.339775 
L 162.636784 93.838436 
L 162.779481 95.745366 
L 163.064946 96.039364 
L 163.203367 95.90942 
L 163.346135 94.294865 
L 163.488832 96.128701 
L 163.6316 96.336612 
L 163.774297 94.830884 
L 163.917066 95.193103 
L 164.064111 94.975447 
L 164.345299 95.319799 
L 164.635041 96.913239 
L 164.773462 95.290561 
L 164.91623 95.474108 
L 165.063275 96.924609 
L 165.344393 97.254342 
L 165.629858 96.877504 
L 165.772626 97.122774 
L 166.062439 97.148762 
L 166.339209 97.343679 
L 166.624674 97.247845 
L 166.91014 97.506109 
L 167.195676 97.433015 
L 167.481142 97.600318 
L 167.623839 97.333933 
L 167.766607 97.431391 
L 167.909304 97.740008 
L 168.052072 97.411899 
L 168.19477 97.800107 
L 168.337538 97.444385 
L 168.480235 97.666915 
L 168.623003 97.510982 
L 168.7657 97.769245 
L 168.912816 97.569456 
L 169.051237 97.668539 
L 169.193934 97.441137 
L 169.622168 97.660417 
L 169.760588 97.494739 
L 169.903285 97.837466 
L 170.046053 97.384286 
L 170.18875 97.509357 
L 170.331519 97.395656 
L 170.474216 97.704273 
L 170.616984 97.527225 
L 171.187915 97.663666 
L 171.616077 97.512606 
L 171.758846 97.314441 
L 171.901614 97.575954 
L 172.044311 97.484993 
L 172.187079 97.603567 
L 172.472545 97.423269 
L 172.75801 97.691279 
L 173.047823 97.45738 
L 173.324593 97.585699 
L 173.467361 97.530473 
L 173.610058 97.652296 
L 173.895524 97.571081 
L 174.038292 97.356673 
L 174.323757 97.666915 
L 174.466526 97.467125 
L 174.609223 97.476871 
L 174.756268 97.606815 
L 174.894688 97.455755 
L 175.037456 97.603567 
L 175.180153 97.504484 
L 175.465619 97.54834 
L 175.893852 97.554838 
L 176.036549 96.182303 
L 176.179318 97.603567 
L 176.322015 97.639301 
L 176.460435 97.545092 
L 176.603203 97.264088 
L 176.888669 97.520727 
L 177.174134 97.605191 
L 178.03053 97.702649 
L 178.173299 97.715644 
L 178.458764 97.517479 
L 178.744229 97.632804 
L 178.886926 97.496363 
L 179.029695 97.64255 
L 179.172463 97.559711 
L 179.31516 97.614937 
L 179.457928 97.463877 
L 179.600625 97.592197 
L 179.743394 97.497987 
L 179.881743 97.715644 
L 180.16728 97.554838 
L 180.595442 97.400529 
L 180.880907 97.614937 
L 181.023676 97.483368 
L 181.166373 97.735135 
L 181.451838 97.493114 
L 181.737303 97.590572 
L 182.165537 97.465501 
L 182.736468 97.842339 
L 182.879236 97.45738 
L 183.164701 97.59707 
L 183.303122 97.614937 
L 183.445819 97.277082 
L 183.588587 97.520727 
L 183.735632 97.424894 
L 184.159518 97.501236 
L 184.306563 97.369667 
L 184.444983 97.501236 
L 184.58768 97.428142 
L 185.015914 97.873201 
L 185.301379 99.38705 
L 185.729613 104.017933 
L 186.015078 109.298537 
L 186.867127 117.937709 
L 187.580826 122.06311 
L 188.151756 123.938528 
L 188.57999 124.479258 
L 188.722687 124.637303 
L 188.865455 125.060596 
L 189.008153 125.091458 
L 189.150921 125.513126 
L 189.440734 125.421841 
L 189.579155 125.826454 
L 189.721852 125.694236 
L 190.145737 126.284182 
L 190.288506 126.565024 
L 190.431203 126.436542 
L 190.859436 126.685385 
L 191.002133 126.594586 
L 191.149178 126.902391 
L 191.287599 126.791776 
L 191.715832 126.978084 
L 191.858529 126.812405 
L 192.001298 127.151559 
L 192.286763 127.060923 
L 192.433808 127.247718 
L 192.572229 127.067583 
L 192.714997 127.149772 
L 192.857694 127.099094 
L 193.004739 127.17836 
L 193.143159 127.470085 
L 193.285928 127.225465 
L 193.424348 127.364668 
L 193.709813 127.107378 
L 194.137976 127.497373 
L 194.423441 127.058487 
L 194.708906 126.205566 
L 194.994443 122.48088 
L 195.279908 109.732226 
L 196.136305 39.820667 
L 196.568815 27.971388 
L 196.988353 20.894307 
L 197.131121 20.335547 
L 197.416586 18.228828 
L 197.84482 16.755587 
L 197.987517 16.570416 
L 198.130285 16.685742 
L 198.701216 14.773939 
L 198.843913 14.749574 
L 198.986682 14.276903 
L 199.129379 14.247665 
L 199.700381 13.406277 
L 199.843078 13.251969 
L 199.985846 14.031633 
L 200.128543 13.688906 
L 200.695197 18.202839 
L 200.980662 24.027584 
L 201.408825 38.576452 
L 202.407989 81.97129 
L 202.983268 100.944755 
L 203.121688 106.067802 
L 203.264385 107.21131 
L 203.545574 114.05774 
L 204.116505 121.050033 
L 204.40197 123.489734 
L 204.687436 125.187129 
L 205.6866 129.270785 
L 205.829297 129.47496 
L 206.114762 130.195013 
L 206.257531 130.597515 
L 206.542996 132.075353 
L 206.685693 130.999139 
L 206.828461 132.27662 
L 206.966882 132.077854 
L 207.109579 132.069538 
L 207.537813 132.737272 
L 207.823278 131.759507 
L 208.108743 131.882256 
L 208.394209 131.809715 
L 208.536977 131.930725 
L 208.679674 131.825324 
L 208.965139 132.137466 
L 209.250605 132.028118 
L 209.393373 131.8186 
L 209.678838 130.10194 
L 209.821535 128.4229 
L 209.968652 124.671251 
L 210.249769 107.778191 
L 210.816423 52.787466 
L 211.244586 32.774448 
L 211.530051 25.996238 
L 212.100982 20.244586 
L 212.386447 18.776218 
L 212.819029 17.681439 
L 212.957449 18.802207 
L 213.100146 18.43349 
L 213.242914 18.493589 
L 213.809497 16.974867 
L 214.237731 16.594781 
L 214.665893 16.029524 
L 214.808662 16.045767 
L 215.094127 16.419356 
L 215.236824 16.650007 
L 215.38394 17.377694 
L 215.522361 18.683633 
L 215.950523 28.695827 
L 216.806919 66.429973 
L 217.230805 84.292416 
L 217.659039 97.285204 
L 217.944504 108.213504 
L 218.515435 118.350119 
L 218.943668 123.221887 
L 219.371831 126.119803 
L 219.942762 129.102995 
L 220.652113 131.671584 
L 220.937649 133.207572 
L 221.223115 133.508295 
L 221.365812 133.091987 
L 221.512857 133.499524 
L 221.651277 133.378644 
L 221.794045 133.627746 
L 222.079511 133.498907 
L 222.222208 133.753841 
L 222.650442 133.750219 
L 222.935907 133.917765 
L 223.078675 133.952932 
L 223.221372 133.771367 
L 223.364141 133.814054 
L 223.506838 134.168704 
L 223.649606 134.191606 
L 223.792303 134.041683 
L 223.930723 134.291339 
L 224.073492 134.09691 
L 224.358957 134.236112 
L 224.78712 133.530857 
L 224.929888 132.139058 
L 225.215353 124.062625 
L 225.500819 104.449997 
L 225.929052 60.790399 
L 226.357215 38.487116 
L 226.785448 27.628661 
L 227.070914 23.960988 
L 227.494799 20.900804 
L 227.637497 20.182863 
L 227.784613 20.991765 
L 228.06573 20.35179 
L 228.208427 20.205603 
L 228.493964 19.687451 
L 228.636661 19.651716 
L 229.064895 18.699876 
L 229.35036 18.334408 
L 229.493057 18.011172 
L 229.635825 18.094011 
L 229.921291 17.585605 
L 230.206756 17.585605 
L 230.349524 17.452412 
L 230.63499 17.832499 
L 230.773339 18.27106 
L 231.058876 21.405962 
L 231.201573 23.371366 
L 231.629806 39.5689 
L 232.914365 92.228753 
L 233.628064 113.718261 
L 234.194718 121.896294 
L 234.908346 127.333318 
L 235.90751 132.723579 
L 236.335744 133.738914 
L 236.478441 133.643242 
L 236.763906 134.066048 
L 236.763906 134.066048 
" clip-path="url(#pb84c307aac)" style="fill: none; stroke: #2ca02c; stroke-width: 1.5; stroke-linecap: square"/>
   </g>
   <g id="patch_3">
    <path d="M 51.599375 140.343307 
L 51.599375 7.2 
" style="fill: none; stroke: #000000; stroke-width: 0.8; stroke-linejoin: miter; stroke-linecap: square"/>
   </g>
   <g id="patch_4">
    <path d="M 245.581265 140.343307 
L 245.581265 7.2 
" style="fill: none; stroke: #000000; stroke-width: 0.8; stroke-linejoin: miter; stroke-linecap: square"/>
   </g>
   <g id="patch_5">
    <path d="M 51.599375 140.343307 
L 245.581265 140.343307 
" style="fill: none; stroke: #000000; stroke-width: 0.8; stroke-linejoin: miter; stroke-linecap: square"/>
   </g>
   <g id="patch_6">
    <path d="M 51.599375 7.2 
L 245.581265 7.2 
" style="fill: none; stroke: #000000; stroke-width: 0.8; stroke-linejoin: miter; stroke-linecap: square"/>
   </g>
   <g id="text_13">
    <!-- PBS-10X -->
    <g transform="translate(73.85369 129.223449) rotate(-45) scale(0.05 -0.05)">
     <defs>
      <path id="TimesNewRomanPSMT-50" d="M 1313 1984 
L 1313 750 
Q 1313 350 1400 253 
Q 1519 116 1759 116 
L 1922 116 
L 1922 0 
L 106 0 
L 106 116 
L 266 116 
Q 534 116 650 291 
Q 713 388 713 750 
L 713 3488 
Q 713 3888 628 3984 
Q 506 4122 266 4122 
L 106 4122 
L 106 4238 
L 1659 4238 
Q 2228 4238 2556 4120 
Q 2884 4003 3109 3725 
Q 3334 3447 3334 3066 
Q 3334 2547 2992 2222 
Q 2650 1897 2025 1897 
Q 1872 1897 1694 1919 
Q 1516 1941 1313 1984 
z
M 1313 2163 
Q 1478 2131 1606 2115 
Q 1734 2100 1825 2100 
Q 2150 2100 2386 2351 
Q 2622 2603 2622 3003 
Q 2622 3278 2509 3514 
Q 2397 3750 2190 3867 
Q 1984 3984 1722 3984 
Q 1563 3984 1313 3925 
L 1313 2163 
z
" transform="scale(0.015625)"/>
      <path id="TimesNewRomanPSMT-42" d="M 2956 2163 
Q 3397 2069 3616 1863 
Q 3919 1575 3919 1159 
Q 3919 844 3719 555 
Q 3519 266 3170 133 
Q 2822 0 2106 0 
L 106 0 
L 106 116 
L 266 116 
Q 531 116 647 284 
Q 719 394 719 750 
L 719 3488 
Q 719 3881 628 3984 
Q 506 4122 266 4122 
L 106 4122 
L 106 4238 
L 1938 4238 
Q 2450 4238 2759 4163 
Q 3228 4050 3475 3764 
Q 3722 3478 3722 3106 
Q 3722 2788 3528 2536 
Q 3334 2284 2956 2163 
z
M 1319 2331 
Q 1434 2309 1582 2298 
Q 1731 2288 1909 2288 
Q 2366 2288 2595 2386 
Q 2825 2484 2947 2687 
Q 3069 2891 3069 3131 
Q 3069 3503 2766 3765 
Q 2463 4028 1881 4028 
Q 1569 4028 1319 3959 
L 1319 2331 
z
M 1319 306 
Q 1681 222 2034 222 
Q 2600 222 2897 476 
Q 3194 731 3194 1106 
Q 3194 1353 3059 1581 
Q 2925 1809 2622 1940 
Q 2319 2072 1872 2072 
Q 1678 2072 1540 2065 
Q 1403 2059 1319 2044 
L 1319 306 
z
" transform="scale(0.015625)"/>
      <path id="TimesNewRomanPSMT-53" d="M 2934 4334 
L 2934 2869 
L 2819 2869 
Q 2763 3291 2617 3541 
Q 2472 3791 2203 3937 
Q 1934 4084 1647 4084 
Q 1322 4084 1109 3886 
Q 897 3688 897 3434 
Q 897 3241 1031 3081 
Q 1225 2847 1953 2456 
Q 2547 2138 2764 1967 
Q 2981 1797 3098 1565 
Q 3216 1334 3216 1081 
Q 3216 600 2842 251 
Q 2469 -97 1881 -97 
Q 1697 -97 1534 -69 
Q 1438 -53 1133 45 
Q 828 144 747 144 
Q 669 144 623 97 
Q 578 50 556 -97 
L 441 -97 
L 441 1356 
L 556 1356 
Q 638 900 775 673 
Q 913 447 1195 297 
Q 1478 147 1816 147 
Q 2206 147 2432 353 
Q 2659 559 2659 841 
Q 2659 997 2573 1156 
Q 2488 1316 2306 1453 
Q 2184 1547 1640 1851 
Q 1097 2156 867 2337 
Q 638 2519 519 2737 
Q 400 2956 400 3219 
Q 400 3675 750 4004 
Q 1100 4334 1641 4334 
Q 1978 4334 2356 4169 
Q 2531 4091 2603 4091 
Q 2684 4091 2736 4139 
Q 2788 4188 2819 4334 
L 2934 4334 
z
" transform="scale(0.015625)"/>
      <path id="TimesNewRomanPSMT-2d" d="M 259 1672 
L 1875 1672 
L 1875 1200 
L 259 1200 
L 259 1672 
z
" transform="scale(0.015625)"/>
      <path id="TimesNewRomanPSMT-58" d="M 2613 2347 
L 3522 991 
Q 3900 428 4083 279 
Q 4266 131 4547 116 
L 4547 0 
L 2728 0 
L 2728 116 
Q 2909 119 2997 153 
Q 3063 181 3105 239 
Q 3147 297 3147 356 
Q 3147 428 3119 500 
Q 3097 553 2947 775 
L 2228 1863 
L 1341 725 
Q 1200 544 1172 483 
Q 1144 422 1144 356 
Q 1144 256 1228 190 
Q 1313 125 1550 116 
L 1550 0 
L 47 0 
L 47 116 
Q 206 131 322 181 
Q 516 263 691 400 
Q 866 538 1091 822 
L 2091 2084 
L 1256 3306 
Q 916 3803 678 3958 
Q 441 4113 131 4122 
L 131 4238 
L 2091 4238 
L 2091 4122 
Q 1841 4113 1748 4041 
Q 1656 3969 1656 3881 
Q 1656 3766 1806 3544 
L 2456 2572 
L 3209 3525 
Q 3341 3694 3370 3756 
Q 3400 3819 3400 3884 
Q 3400 3950 3363 4000 
Q 3316 4066 3244 4092 
Q 3172 4119 2947 4122 
L 2947 4238 
L 4450 4238 
L 4450 4122 
Q 4272 4113 4159 4066 
Q 3991 3994 3850 3872 
Q 3709 3750 3453 3422 
L 2613 2347 
z
" transform="scale(0.015625)"/>
     </defs>
     <use xlink:href="#TimesNewRomanPSMT-50"/>
     <use xlink:href="#TimesNewRomanPSMT-42" x="55.615234"/>
     <use xlink:href="#TimesNewRomanPSMT-53" x="122.314453"/>
     <use xlink:href="#TimesNewRomanPSMT-2d" x="177.929688"/>
     <use xlink:href="#TimesNewRomanPSMT-31" x="211.230469"/>
     <use xlink:href="#TimesNewRomanPSMT-30" x="261.230469"/>
     <use xlink:href="#TimesNewRomanPSMT-58" x="311.230469"/>
    </g>
   </g>
   <g id="text_14">
    <!-- BIOTIN 5.5mg -->
    <g transform="translate(97.363776 97.378679) rotate(-45) scale(0.05 -0.05)">
     <defs>
      <path id="TimesNewRomanPSMT-4f" d="M 2341 4334 
Q 3166 4334 3770 3707 
Q 4375 3081 4375 2144 
Q 4375 1178 3765 540 
Q 3156 -97 2291 -97 
Q 1416 -97 820 525 
Q 225 1147 225 2134 
Q 225 3144 913 3781 
Q 1509 4334 2341 4334 
z
M 2281 4106 
Q 1713 4106 1369 3684 
Q 941 3159 941 2147 
Q 941 1109 1384 550 
Q 1725 125 2284 125 
Q 2881 125 3270 590 
Q 3659 1056 3659 2059 
Q 3659 3147 3231 3681 
Q 2888 4106 2281 4106 
z
" transform="scale(0.015625)"/>
      <path id="TimesNewRomanPSMT-4e" d="M -84 4238 
L 1066 4238 
L 3656 1059 
L 3656 3503 
Q 3656 3894 3569 3991 
Q 3453 4122 3203 4122 
L 3056 4122 
L 3056 4238 
L 4531 4238 
L 4531 4122 
L 4381 4122 
Q 4113 4122 4000 3959 
Q 3931 3859 3931 3503 
L 3931 -69 
L 3819 -69 
L 1025 3344 
L 1025 734 
Q 1025 344 1109 247 
Q 1228 116 1475 116 
L 1625 116 
L 1625 0 
L 150 0 
L 150 116 
L 297 116 
Q 569 116 681 278 
Q 750 378 750 734 
L 750 3681 
Q 566 3897 470 3965 
Q 375 4034 191 4094 
Q 100 4122 -84 4122 
L -84 4238 
z
" transform="scale(0.015625)"/>
      <path id="TimesNewRomanPSMT-67" d="M 966 1044 
Q 703 1172 562 1401 
Q 422 1631 422 1909 
Q 422 2334 742 2640 
Q 1063 2947 1563 2947 
Q 1972 2947 2272 2747 
L 2878 2747 
Q 3013 2747 3034 2739 
Q 3056 2731 3066 2713 
Q 3084 2684 3084 2613 
Q 3084 2531 3069 2500 
Q 3059 2484 3036 2475 
Q 3013 2466 2878 2466 
L 2506 2466 
Q 2681 2241 2681 1891 
Q 2681 1491 2375 1206 
Q 2069 922 1553 922 
Q 1341 922 1119 984 
Q 981 866 932 777 
Q 884 688 884 625 
Q 884 572 936 522 
Q 988 472 1138 450 
Q 1225 438 1575 428 
Q 2219 413 2409 384 
Q 2700 344 2873 169 
Q 3047 -6 3047 -263 
Q 3047 -616 2716 -925 
Q 2228 -1381 1444 -1381 
Q 841 -1381 425 -1109 
Q 191 -953 191 -784 
Q 191 -709 225 -634 
Q 278 -519 444 -313 
Q 466 -284 763 25 
Q 600 122 533 198 
Q 466 275 466 372 
Q 466 481 555 628 
Q 644 775 966 1044 
z
M 1509 2797 
Q 1278 2797 1122 2612 
Q 966 2428 966 2047 
Q 966 1553 1178 1281 
Q 1341 1075 1591 1075 
Q 1828 1075 1981 1253 
Q 2134 1431 2134 1813 
Q 2134 2309 1919 2591 
Q 1759 2797 1509 2797 
z
M 934 0 
Q 788 -159 713 -296 
Q 638 -434 638 -550 
Q 638 -700 819 -813 
Q 1131 -1006 1722 -1006 
Q 2284 -1006 2551 -807 
Q 2819 -609 2819 -384 
Q 2819 -222 2659 -153 
Q 2497 -84 2016 -72 
Q 1313 -53 934 0 
z
" transform="scale(0.015625)"/>
     </defs>
     <use xlink:href="#TimesNewRomanPSMT-42"/>
     <use xlink:href="#TimesNewRomanPSMT-49" x="66.699219"/>
     <use xlink:href="#TimesNewRomanPSMT-4f" x="100"/>
     <use xlink:href="#TimesNewRomanPSMT-54" x="172.216797"/>
     <use xlink:href="#TimesNewRomanPSMT-49" x="233.300781"/>
     <use xlink:href="#TimesNewRomanPSMT-4e" x="266.601562"/>
     <use xlink:href="#TimesNewRomanPSMT-20" x="338.818359"/>
     <use xlink:href="#TimesNewRomanPSMT-35" x="363.818359"/>
     <use xlink:href="#TimesNewRomanPSMT-2e" x="413.818359"/>
     <use xlink:href="#TimesNewRomanPSMT-35" x="438.818359"/>
     <use xlink:href="#TimesNewRomanPSMT-6d" x="488.818359"/>
     <use xlink:href="#TimesNewRomanPSMT-67" x="566.601562"/>
    </g>
   </g>
   <g id="text_15">
    <!-- PBS-10X -->
    <g transform="translate(164.083981 88.502374) rotate(-45) scale(0.05 -0.05)">
     <use xlink:href="#TimesNewRomanPSMT-50"/>
     <use xlink:href="#TimesNewRomanPSMT-42" x="55.615234"/>
     <use xlink:href="#TimesNewRomanPSMT-53" x="122.314453"/>
     <use xlink:href="#TimesNewRomanPSMT-2d" x="177.929688"/>
     <use xlink:href="#TimesNewRomanPSMT-31" x="211.230469"/>
     <use xlink:href="#TimesNewRomanPSMT-30" x="261.230469"/>
     <use xlink:href="#TimesNewRomanPSMT-58" x="311.230469"/>
    </g>
   </g>
   <g id="text_16">
    <!-- H2O -->
    <g transform="translate(186.467459 92.101826) rotate(-45) scale(0.05 -0.05)">
     <defs>
      <path id="TimesNewRomanPSMT-48" d="M 1316 2272 
L 3284 2272 
L 3284 3484 
Q 3284 3809 3244 3913 
Q 3213 3991 3113 4047 
Q 2978 4122 2828 4122 
L 2678 4122 
L 2678 4238 
L 4491 4238 
L 4491 4122 
L 4341 4122 
Q 4191 4122 4056 4050 
Q 3956 4000 3920 3898 
Q 3884 3797 3884 3484 
L 3884 750 
Q 3884 428 3925 325 
Q 3956 247 4053 191 
Q 4191 116 4341 116 
L 4491 116 
L 4491 0 
L 2678 0 
L 2678 116 
L 2828 116 
Q 3088 116 3206 269 
Q 3284 369 3284 750 
L 3284 2041 
L 1316 2041 
L 1316 750 
Q 1316 428 1356 325 
Q 1388 247 1488 191 
Q 1622 116 1772 116 
L 1925 116 
L 1925 0 
L 109 0 
L 109 116 
L 259 116 
Q 522 116 641 269 
Q 716 369 716 750 
L 716 3484 
Q 716 3809 675 3913 
Q 644 3991 547 4047 
Q 409 4122 259 4122 
L 109 4122 
L 109 4238 
L 1925 4238 
L 1925 4122 
L 1772 4122 
Q 1622 4122 1488 4050 
Q 1391 4000 1353 3898 
Q 1316 3797 1316 3484 
L 1316 2272 
z
" transform="scale(0.015625)"/>
     </defs>
     <use xlink:href="#TimesNewRomanPSMT-48"/>
     <use xlink:href="#TimesNewRomanPSMT-32" x="72.216797"/>
     <use xlink:href="#TimesNewRomanPSMT-4f" x="122.216797"/>
    </g>
   </g>
   <g id="text_17">
    <!--   -->
    <g transform="translate(187.319508 95.600571) rotate(-45) scale(0.05 -0.05)">
     <use xlink:href="#TimesNewRomanPSMT-20"/>
    </g>
   </g>
   <g id="text_18">
    <!--   -->
    <g transform="translate(189.464881 114.933007) rotate(-45) scale(0.05 -0.05)">
     <use xlink:href="#TimesNewRomanPSMT-20"/>
    </g>
   </g>
   <g id="text_19">
    <!-- HyPo1X -->
    <g transform="translate(195.868357 124.776421) rotate(-45) scale(0.05 -0.05)">
     <defs>
      <path id="TimesNewRomanPSMT-79" d="M 38 2863 
L 1372 2863 
L 1372 2747 
L 1306 2747 
Q 1166 2747 1095 2686 
Q 1025 2625 1025 2534 
Q 1025 2413 1128 2197 
L 1825 753 
L 2466 2334 
Q 2519 2463 2519 2588 
Q 2519 2644 2497 2672 
Q 2472 2706 2419 2726 
Q 2366 2747 2231 2747 
L 2231 2863 
L 3163 2863 
L 3163 2747 
Q 3047 2734 2984 2696 
Q 2922 2659 2847 2556 
Q 2819 2513 2741 2316 
L 1575 -541 
Q 1406 -956 1132 -1168 
Q 859 -1381 606 -1381 
Q 422 -1381 303 -1275 
Q 184 -1169 184 -1031 
Q 184 -900 270 -820 
Q 356 -741 506 -741 
Q 609 -741 788 -809 
Q 913 -856 944 -856 
Q 1038 -856 1148 -759 
Q 1259 -663 1372 -384 
L 1575 113 
L 547 2272 
Q 500 2369 397 2513 
Q 319 2622 269 2659 
Q 197 2709 38 2747 
L 38 2863 
z
" transform="scale(0.015625)"/>
      <path id="TimesNewRomanPSMT-6f" d="M 1600 2947 
Q 2250 2947 2644 2453 
Q 2978 2031 2978 1484 
Q 2978 1100 2793 706 
Q 2609 313 2286 112 
Q 1963 -88 1566 -88 
Q 919 -88 538 428 
Q 216 863 216 1403 
Q 216 1797 411 2186 
Q 606 2575 925 2761 
Q 1244 2947 1600 2947 
z
M 1503 2744 
Q 1338 2744 1170 2645 
Q 1003 2547 900 2300 
Q 797 2053 797 1666 
Q 797 1041 1045 587 
Q 1294 134 1700 134 
Q 2003 134 2200 384 
Q 2397 634 2397 1244 
Q 2397 2006 2069 2444 
Q 1847 2744 1503 2744 
z
" transform="scale(0.015625)"/>
     </defs>
     <use xlink:href="#TimesNewRomanPSMT-48"/>
     <use xlink:href="#TimesNewRomanPSMT-79" x="72.216797"/>
     <use xlink:href="#TimesNewRomanPSMT-50" x="122.216797"/>
     <use xlink:href="#TimesNewRomanPSMT-6f" x="177.832031"/>
     <use xlink:href="#TimesNewRomanPSMT-31" x="227.832031"/>
     <use xlink:href="#TimesNewRomanPSMT-58" x="277.832031"/>
    </g>
   </g>
   <g id="text_20">
    <!-- H20 -->
    <g transform="translate(201.147578 29.017207) rotate(-45) scale(0.05 -0.05)">
     <use xlink:href="#TimesNewRomanPSMT-48"/>
     <use xlink:href="#TimesNewRomanPSMT-32" x="72.216797"/>
     <use xlink:href="#TimesNewRomanPSMT-30" x="122.216797"/>
    </g>
   </g>
   <g id="text_21">
    <!-- HyPo1X -->
    <g transform="translate(210.695521 125.004635) rotate(-45) scale(0.05 -0.05)">
     <use xlink:href="#TimesNewRomanPSMT-48"/>
     <use xlink:href="#TimesNewRomanPSMT-79" x="72.216797"/>
     <use xlink:href="#TimesNewRomanPSMT-50" x="122.216797"/>
     <use xlink:href="#TimesNewRomanPSMT-6f" x="177.832031"/>
     <use xlink:href="#TimesNewRomanPSMT-31" x="227.832031"/>
     <use xlink:href="#TimesNewRomanPSMT-58" x="277.832031"/>
    </g>
   </g>
   <g id="text_22">
    <!-- H2O -->
    <g transform="translate(215.831973 32.389256) rotate(-45) scale(0.05 -0.05)">
     <use xlink:href="#TimesNewRomanPSMT-48"/>
     <use xlink:href="#TimesNewRomanPSMT-32" x="72.216797"/>
     <use xlink:href="#TimesNewRomanPSMT-4f" x="122.216797"/>
    </g>
   </g>
   <g id="text_23">
    <!-- HyPo1X -->
    <g transform="translate(225.37564 127.33697) rotate(-45) scale(0.05 -0.05)">
     <use xlink:href="#TimesNewRomanPSMT-48"/>
     <use xlink:href="#TimesNewRomanPSMT-79" x="72.216797"/>
     <use xlink:href="#TimesNewRomanPSMT-50" x="122.216797"/>
     <use xlink:href="#TimesNewRomanPSMT-6f" x="177.832031"/>
     <use xlink:href="#TimesNewRomanPSMT-31" x="227.832031"/>
     <use xlink:href="#TimesNewRomanPSMT-58" x="277.832031"/>
    </g>
   </g>
   <g id="text_24">
    <!-- H2O -->
    <g transform="translate(230.944602 34.596682) rotate(-45) scale(0.05 -0.05)">
     <use xlink:href="#TimesNewRomanPSMT-48"/>
     <use xlink:href="#TimesNewRomanPSMT-32" x="72.216797"/>
     <use xlink:href="#TimesNewRomanPSMT-4f" x="122.216797"/>
    </g>
   </g>
   <g id="legend_1">
    <g id="patch_7">
     <path d="M 55.799375 37.450312 
L 89.164062 37.450312 
Q 90.364062 37.450312 90.364062 36.250313 
L 90.364062 11.4 
Q 90.364062 10.2 89.164062 10.2 
L 55.799375 10.2 
Q 54.599375 10.2 54.599375 11.4 
L 54.599375 36.250313 
Q 54.599375 37.450312 55.799375 37.450312 
z
" style="fill: #ffffff; opacity: 0.8; stroke: #cccccc; stroke-linejoin: miter"/>
    </g>
    <g id="line2d_24">
     <path d="M 56.999375 14.7 
L 62.999375 14.7 
L 68.999375 14.7 
" style="fill: none; stroke: #1f77b4; stroke-width: 1.5; stroke-linecap: square"/>
    </g>
    <g id="text_25">
     <!-- Exp 1 -->
     <g transform="translate(73.799375 16.8) scale(0.06 -0.06)">
      <defs>
       <path id="TimesNewRomanPSMT-45" d="M 1338 4006 
L 1338 2331 
L 2269 2331 
Q 2631 2331 2753 2441 
Q 2916 2584 2934 2947 
L 3050 2947 
L 3050 1472 
L 2934 1472 
Q 2891 1781 2847 1869 
Q 2791 1978 2662 2040 
Q 2534 2103 2269 2103 
L 1338 2103 
L 1338 706 
Q 1338 425 1363 364 
Q 1388 303 1450 267 
Q 1513 231 1688 231 
L 2406 231 
Q 2766 231 2928 281 
Q 3091 331 3241 478 
Q 3434 672 3638 1063 
L 3763 1063 
L 3397 0 
L 131 0 
L 131 116 
L 281 116 
Q 431 116 566 188 
Q 666 238 702 338 
Q 738 438 738 747 
L 738 3500 
Q 738 3903 656 3997 
Q 544 4122 281 4122 
L 131 4122 
L 131 4238 
L 3397 4238 
L 3444 3309 
L 3322 3309 
Q 3256 3644 3176 3769 
Q 3097 3894 2941 3959 
Q 2816 4006 2500 4006 
L 1338 4006 
z
" transform="scale(0.015625)"/>
       <path id="TimesNewRomanPSMT-70" d="M -6 2578 
L 875 2934 
L 994 2934 
L 994 2266 
Q 1216 2644 1439 2795 
Q 1663 2947 1909 2947 
Q 2341 2947 2628 2609 
Q 2981 2197 2981 1534 
Q 2981 794 2556 309 
Q 2206 -88 1675 -88 
Q 1444 -88 1275 -22 
Q 1150 25 994 166 
L 994 -706 
Q 994 -1000 1030 -1079 
Q 1066 -1159 1155 -1206 
Q 1244 -1253 1478 -1253 
L 1478 -1369 
L -22 -1369 
L -22 -1253 
L 56 -1253 
Q 228 -1256 350 -1188 
Q 409 -1153 442 -1076 
Q 475 -1000 475 -688 
L 475 2019 
Q 475 2297 450 2372 
Q 425 2447 370 2484 
Q 316 2522 222 2522 
Q 147 2522 31 2478 
L -6 2578 
z
M 994 2081 
L 994 1013 
Q 994 666 1022 556 
Q 1066 375 1236 237 
Q 1406 100 1666 100 
Q 1978 100 2172 344 
Q 2425 663 2425 1241 
Q 2425 1897 2138 2250 
Q 1938 2494 1663 2494 
Q 1513 2494 1366 2419 
Q 1253 2363 994 2081 
z
" transform="scale(0.015625)"/>
      </defs>
      <use xlink:href="#TimesNewRomanPSMT-45"/>
      <use xlink:href="#TimesNewRomanPSMT-78" x="61.083984"/>
      <use xlink:href="#TimesNewRomanPSMT-70" x="111.083984"/>
      <use xlink:href="#TimesNewRomanPSMT-20" x="161.083984"/>
      <use xlink:href="#TimesNewRomanPSMT-31" x="186.083984"/>
     </g>
    </g>
    <g id="line2d_25">
     <path d="M 56.999375 23.183438 
L 62.999375 23.183438 
L 68.999375 23.183438 
" style="fill: none; stroke: #ff7f0e; stroke-width: 1.5; stroke-linecap: square"/>
    </g>
    <g id="text_26">
     <!-- Exp 2 -->
     <g transform="translate(73.799375 25.283438) scale(0.06 -0.06)">
      <use xlink:href="#TimesNewRomanPSMT-45"/>
      <use xlink:href="#TimesNewRomanPSMT-78" x="61.083984"/>
      <use xlink:href="#TimesNewRomanPSMT-70" x="111.083984"/>
      <use xlink:href="#TimesNewRomanPSMT-20" x="161.083984"/>
      <use xlink:href="#TimesNewRomanPSMT-32" x="186.083984"/>
     </g>
    </g>
    <g id="line2d_26">
     <path d="M 56.999375 31.666875 
L 62.999375 31.666875 
L 68.999375 31.666875 
" style="fill: none; stroke: #2ca02c; stroke-width: 1.5; stroke-linecap: square"/>
    </g>
    <g id="text_27">
     <!-- Exp 3 -->
     <g transform="translate(73.799375 33.766875) scale(0.06 -0.06)">
      <defs>
       <path id="TimesNewRomanPSMT-33" d="M 325 3431 
Q 506 3859 782 4092 
Q 1059 4325 1472 4325 
Q 1981 4325 2253 3994 
Q 2459 3747 2459 3466 
Q 2459 3003 1878 2509 
Q 2269 2356 2469 2072 
Q 2669 1788 2669 1403 
Q 2669 853 2319 450 
Q 1863 -75 997 -75 
Q 569 -75 414 31 
Q 259 138 259 259 
Q 259 350 332 419 
Q 406 488 509 488 
Q 588 488 669 463 
Q 722 447 909 348 
Q 1097 250 1169 231 
Q 1284 197 1416 197 
Q 1734 197 1970 444 
Q 2206 691 2206 1028 
Q 2206 1275 2097 1509 
Q 2016 1684 1919 1775 
Q 1784 1900 1550 2001 
Q 1316 2103 1072 2103 
L 972 2103 
L 972 2197 
Q 1219 2228 1467 2375 
Q 1716 2522 1828 2728 
Q 1941 2934 1941 3181 
Q 1941 3503 1739 3701 
Q 1538 3900 1238 3900 
Q 753 3900 428 3381 
L 325 3431 
z
" transform="scale(0.015625)"/>
      </defs>
      <use xlink:href="#TimesNewRomanPSMT-45"/>
      <use xlink:href="#TimesNewRomanPSMT-78" x="61.083984"/>
      <use xlink:href="#TimesNewRomanPSMT-70" x="111.083984"/>
      <use xlink:href="#TimesNewRomanPSMT-20" x="161.083984"/>
      <use xlink:href="#TimesNewRomanPSMT-33" x="186.083984"/>
     </g>
    </g>
   </g>
  </g>
 </g>
 <defs>
  <clipPath id="pb84c307aac">
   <rect x="51.599375" y="7.2" width="193.98189" height="133.143307"/>
  </clipPath>
 </defs>
</svg>
