<?xml version="1.0" encoding="utf-8" standalone="no"?>
<!DOCTYPE svg PUBLIC "-//W3C//DTD SVG 1.1//EN"
  "http://www.w3.org/Graphics/SVG/1.1/DTD/svg11.dtd">
<svg xmlns:xlink="http://www.w3.org/1999/xlink" width="263.248365pt" height="181.460087pt" viewBox="0 0 263.248365 181.460087" xmlns="http://www.w3.org/2000/svg" version="1.1">
 <metadata>
  <rdf:RDF xmlns:dc="http://purl.org/dc/elements/1.1/" xmlns:cc="http://creativecommons.org/ns#" xmlns:rdf="http://www.w3.org/1999/02/22-rdf-syntax-ns#">
   <cc:Work>
    <dc:type rdf:resource="http://purl.org/dc/dcmitype/StillImage"/>
    <dc:date>2025-09-03T17:20:33.835348</dc:date>
    <dc:format>image/svg+xml</dc:format>
    <dc:creator>
     <cc:Agent>
      <dc:title>Matplotlib v3.9.2, https://matplotlib.org/</dc:title>
     </cc:Agent>
    </dc:creator>
   </cc:Work>
  </rdf:RDF>
 </metadata>
 <defs>
  <style type="text/css">*{stroke-linejoin: round; stroke-linecap: butt}</style>
 </defs>
 <g id="figure_1">
  <g id="patch_1">
   <path d="M 0 181.460087 
L 263.248365 181.460087 
L 263.248365 0 
L 0 0 
L 0 181.460087 
z
" style="fill: none"/>
  </g>
  <g id="axes_1">
   <g id="patch_2">
    <path d="M 58.441875 141.968212 
L 252.423765 141.968212 
L 252.423765 8.824905 
L 58.441875 8.824905 
L 58.441875 141.968212 
z
" style="fill: none"/>
   </g>
   <g id="matplotlib.axis_1">
    <g id="xtick_1">
     <g id="line2d_1">
      <path d="M 67.259234 141.968212 
L 67.259234 8.824905 
" clip-path="url(#p410fac281b)" style="fill: none; stroke: #b0b0b0; stroke-width: 0.8; stroke-linecap: square"/>
     </g>
     <g id="line2d_2">
      <defs>
       <path id="m2a88a5cd7a" d="M 0 0 
L 0 3.5 
" style="stroke: #000000; stroke-width: 0.8"/>
      </defs>
      <g>
       <use xlink:href="#m2a88a5cd7a" x="67.259234" y="141.968212" style="stroke: #000000; stroke-width: 0.8"/>
      </g>
     </g>
     <g id="text_1">
      <!-- 0 -->
      <g transform="translate(64.077984 156.566649) scale(0.1 -0.1)">
       <defs>
        <path id="DejaVuSans-30" d="M 2034 4250 
Q 1547 4250 1301 3770 
Q 1056 3291 1056 2328 
Q 1056 1369 1301 889 
Q 1547 409 2034 409 
Q 2525 409 2770 889 
Q 3016 1369 3016 2328 
Q 3016 3291 2770 3770 
Q 2525 4250 2034 4250 
z
M 2034 4750 
Q 2819 4750 3233 4129 
Q 3647 3509 3647 2328 
Q 3647 1150 3233 529 
Q 2819 -91 2034 -91 
Q 1250 -91 836 529 
Q 422 1150 422 2328 
Q 422 3509 836 4129 
Q 1250 4750 2034 4750 
z
" transform="scale(0.015625)"/>
       </defs>
       <use xlink:href="#DejaVuSans-30"/>
      </g>
     </g>
    </g>
    <g id="xtick_2">
     <g id="line2d_3">
      <path d="M 102.47206 141.968212 
L 102.47206 8.824905 
" clip-path="url(#p410fac281b)" style="fill: none; stroke: #b0b0b0; stroke-width: 0.8; stroke-linecap: square"/>
     </g>
     <g id="line2d_4">
      <g>
       <use xlink:href="#m2a88a5cd7a" x="102.47206" y="141.968212" style="stroke: #000000; stroke-width: 0.8"/>
      </g>
     </g>
     <g id="text_2">
      <!-- 500 -->
      <g transform="translate(92.92831 156.566649) scale(0.1 -0.1)">
       <defs>
        <path id="DejaVuSans-35" d="M 691 4666 
L 3169 4666 
L 3169 4134 
L 1269 4134 
L 1269 2991 
Q 1406 3038 1543 3061 
Q 1681 3084 1819 3084 
Q 2600 3084 3056 2656 
Q 3513 2228 3513 1497 
Q 3513 744 3044 326 
Q 2575 -91 1722 -91 
Q 1428 -91 1123 -41 
Q 819 9 494 109 
L 494 744 
Q 775 591 1075 516 
Q 1375 441 1709 441 
Q 2250 441 2565 725 
Q 2881 1009 2881 1497 
Q 2881 1984 2565 2268 
Q 2250 2553 1709 2553 
Q 1456 2553 1204 2497 
Q 953 2441 691 2322 
L 691 4666 
z
" transform="scale(0.015625)"/>
       </defs>
       <use xlink:href="#DejaVuSans-35"/>
       <use xlink:href="#DejaVuSans-30" x="63.623047"/>
       <use xlink:href="#DejaVuSans-30" x="127.246094"/>
      </g>
     </g>
    </g>
    <g id="xtick_3">
     <g id="line2d_5">
      <path d="M 137.684886 141.968212 
L 137.684886 8.824905 
" clip-path="url(#p410fac281b)" style="fill: none; stroke: #b0b0b0; stroke-width: 0.8; stroke-linecap: square"/>
     </g>
     <g id="line2d_6">
      <g>
       <use xlink:href="#m2a88a5cd7a" x="137.684886" y="141.968212" style="stroke: #000000; stroke-width: 0.8"/>
      </g>
     </g>
     <g id="text_3">
      <!-- 1000 -->
      <g transform="translate(124.959886 156.566649) scale(0.1 -0.1)">
       <defs>
        <path id="DejaVuSans-31" d="M 794 531 
L 1825 531 
L 1825 4091 
L 703 3866 
L 703 4441 
L 1819 4666 
L 2450 4666 
L 2450 531 
L 3481 531 
L 3481 0 
L 794 0 
L 794 531 
z
" transform="scale(0.015625)"/>
       </defs>
       <use xlink:href="#DejaVuSans-31"/>
       <use xlink:href="#DejaVuSans-30" x="63.623047"/>
       <use xlink:href="#DejaVuSans-30" x="127.246094"/>
       <use xlink:href="#DejaVuSans-30" x="190.869141"/>
      </g>
     </g>
    </g>
    <g id="xtick_4">
     <g id="line2d_7">
      <path d="M 172.897713 141.968212 
L 172.897713 8.824905 
" clip-path="url(#p410fac281b)" style="fill: none; stroke: #b0b0b0; stroke-width: 0.8; stroke-linecap: square"/>
     </g>
     <g id="line2d_8">
      <g>
       <use xlink:href="#m2a88a5cd7a" x="172.897713" y="141.968212" style="stroke: #000000; stroke-width: 0.8"/>
      </g>
     </g>
     <g id="text_4">
      <!-- 1500 -->
      <g transform="translate(160.172713 156.566649) scale(0.1 -0.1)">
       <use xlink:href="#DejaVuSans-31"/>
       <use xlink:href="#DejaVuSans-35" x="63.623047"/>
       <use xlink:href="#DejaVuSans-30" x="127.246094"/>
       <use xlink:href="#DejaVuSans-30" x="190.869141"/>
      </g>
     </g>
    </g>
    <g id="xtick_5">
     <g id="line2d_9">
      <path d="M 208.110539 141.968212 
L 208.110539 8.824905 
" clip-path="url(#p410fac281b)" style="fill: none; stroke: #b0b0b0; stroke-width: 0.8; stroke-linecap: square"/>
     </g>
     <g id="line2d_10">
      <g>
       <use xlink:href="#m2a88a5cd7a" x="208.110539" y="141.968212" style="stroke: #000000; stroke-width: 0.8"/>
      </g>
     </g>
     <g id="text_5">
      <!-- 2000 -->
      <g transform="translate(195.385539 156.566649) scale(0.1 -0.1)">
       <defs>
        <path id="DejaVuSans-32" d="M 1228 531 
L 3431 531 
L 3431 0 
L 469 0 
L 469 531 
Q 828 903 1448 1529 
Q 2069 2156 2228 2338 
Q 2531 2678 2651 2914 
Q 2772 3150 2772 3378 
Q 2772 3750 2511 3984 
Q 2250 4219 1831 4219 
Q 1534 4219 1204 4116 
Q 875 4013 500 3803 
L 500 4441 
Q 881 4594 1212 4672 
Q 1544 4750 1819 4750 
Q 2544 4750 2975 4387 
Q 3406 4025 3406 3419 
Q 3406 3131 3298 2873 
Q 3191 2616 2906 2266 
Q 2828 2175 2409 1742 
Q 1991 1309 1228 531 
z
" transform="scale(0.015625)"/>
       </defs>
       <use xlink:href="#DejaVuSans-32"/>
       <use xlink:href="#DejaVuSans-30" x="63.623047"/>
       <use xlink:href="#DejaVuSans-30" x="127.246094"/>
       <use xlink:href="#DejaVuSans-30" x="190.869141"/>
      </g>
     </g>
    </g>
    <g id="xtick_6">
     <g id="line2d_11">
      <path d="M 243.323365 141.968212 
L 243.323365 8.824905 
" clip-path="url(#p410fac281b)" style="fill: none; stroke: #b0b0b0; stroke-width: 0.8; stroke-linecap: square"/>
     </g>
     <g id="line2d_12">
      <g>
       <use xlink:href="#m2a88a5cd7a" x="243.323365" y="141.968212" style="stroke: #000000; stroke-width: 0.8"/>
      </g>
     </g>
     <g id="text_6">
      <!-- 2500 -->
      <g transform="translate(230.598365 156.566649) scale(0.1 -0.1)">
       <use xlink:href="#DejaVuSans-32"/>
       <use xlink:href="#DejaVuSans-35" x="63.623047"/>
       <use xlink:href="#DejaVuSans-30" x="127.246094"/>
       <use xlink:href="#DejaVuSans-30" x="190.869141"/>
      </g>
     </g>
    </g>
    <g id="text_7">
     <!-- Time -->
     <g transform="translate(140.752507 171.764462) scale(0.12 -0.12)">
      <defs>
       <path id="DejaVuSans-54" d="M -19 4666 
L 3928 4666 
L 3928 4134 
L 2272 4134 
L 2272 0 
L 1638 0 
L 1638 4134 
L -19 4134 
L -19 4666 
z
" transform="scale(0.015625)"/>
       <path id="DejaVuSans-69" d="M 603 3500 
L 1178 3500 
L 1178 0 
L 603 0 
L 603 3500 
z
M 603 4863 
L 1178 4863 
L 1178 4134 
L 603 4134 
L 603 4863 
z
" transform="scale(0.015625)"/>
       <path id="DejaVuSans-6d" d="M 3328 2828 
Q 3544 3216 3844 3400 
Q 4144 3584 4550 3584 
Q 5097 3584 5394 3201 
Q 5691 2819 5691 2113 
L 5691 0 
L 5113 0 
L 5113 2094 
Q 5113 2597 4934 2840 
Q 4756 3084 4391 3084 
Q 3944 3084 3684 2787 
Q 3425 2491 3425 1978 
L 3425 0 
L 2847 0 
L 2847 2094 
Q 2847 2600 2669 2842 
Q 2491 3084 2119 3084 
Q 1678 3084 1418 2786 
Q 1159 2488 1159 1978 
L 1159 0 
L 581 0 
L 581 3500 
L 1159 3500 
L 1159 2956 
Q 1356 3278 1631 3431 
Q 1906 3584 2284 3584 
Q 2666 3584 2933 3390 
Q 3200 3197 3328 2828 
z
" transform="scale(0.015625)"/>
       <path id="DejaVuSans-65" d="M 3597 1894 
L 3597 1613 
L 953 1613 
Q 991 1019 1311 708 
Q 1631 397 2203 397 
Q 2534 397 2845 478 
Q 3156 559 3463 722 
L 3463 178 
Q 3153 47 2828 -22 
Q 2503 -91 2169 -91 
Q 1331 -91 842 396 
Q 353 884 353 1716 
Q 353 2575 817 3079 
Q 1281 3584 2069 3584 
Q 2775 3584 3186 3129 
Q 3597 2675 3597 1894 
z
M 3022 2063 
Q 3016 2534 2758 2815 
Q 2500 3097 2075 3097 
Q 1594 3097 1305 2825 
Q 1016 2553 972 2059 
L 3022 2063 
z
" transform="scale(0.015625)"/>
      </defs>
      <use xlink:href="#DejaVuSans-54"/>
      <use xlink:href="#DejaVuSans-69" x="57.958984"/>
      <use xlink:href="#DejaVuSans-6d" x="85.742188"/>
      <use xlink:href="#DejaVuSans-65" x="183.154297"/>
     </g>
    </g>
   </g>
   <g id="matplotlib.axis_2">
    <g id="ytick_1">
     <g id="line2d_13">
      <path d="M 58.441875 135.413021 
L 252.423765 135.413021 
" clip-path="url(#p410fac281b)" style="fill: none; stroke: #b0b0b0; stroke-width: 0.8; stroke-linecap: square"/>
     </g>
     <g id="line2d_14">
      <defs>
       <path id="md56128c240" d="M 0 0 
L -3.5 0 
" style="stroke: #000000; stroke-width: 0.8"/>
      </defs>
      <g>
       <use xlink:href="#md56128c240" x="58.441875" y="135.413021" style="stroke: #000000; stroke-width: 0.8"/>
      </g>
     </g>
     <g id="text_8">
      <!-- 0.000 -->
      <g transform="translate(22.81375 139.21224) scale(0.1 -0.1)">
       <defs>
        <path id="DejaVuSans-2e" d="M 684 794 
L 1344 794 
L 1344 0 
L 684 0 
L 684 794 
z
" transform="scale(0.015625)"/>
       </defs>
       <use xlink:href="#DejaVuSans-30"/>
       <use xlink:href="#DejaVuSans-2e" x="63.623047"/>
       <use xlink:href="#DejaVuSans-30" x="95.410156"/>
       <use xlink:href="#DejaVuSans-30" x="159.033203"/>
       <use xlink:href="#DejaVuSans-30" x="222.65625"/>
      </g>
     </g>
    </g>
    <g id="ytick_2">
     <g id="line2d_15">
      <path d="M 58.441875 106.975966 
L 252.423765 106.975966 
" clip-path="url(#p410fac281b)" style="fill: none; stroke: #b0b0b0; stroke-width: 0.8; stroke-linecap: square"/>
     </g>
     <g id="line2d_16">
      <g>
       <use xlink:href="#md56128c240" x="58.441875" y="106.975966" style="stroke: #000000; stroke-width: 0.8"/>
      </g>
     </g>
     <g id="text_9">
      <!-- 0.001 -->
      <g transform="translate(22.81375 110.775184) scale(0.1 -0.1)">
       <use xlink:href="#DejaVuSans-30"/>
       <use xlink:href="#DejaVuSans-2e" x="63.623047"/>
       <use xlink:href="#DejaVuSans-30" x="95.410156"/>
       <use xlink:href="#DejaVuSans-30" x="159.033203"/>
       <use xlink:href="#DejaVuSans-31" x="222.65625"/>
      </g>
     </g>
    </g>
    <g id="ytick_3">
     <g id="line2d_17">
      <path d="M 58.441875 78.53891 
L 252.423765 78.53891 
" clip-path="url(#p410fac281b)" style="fill: none; stroke: #b0b0b0; stroke-width: 0.8; stroke-linecap: square"/>
     </g>
     <g id="line2d_18">
      <g>
       <use xlink:href="#md56128c240" x="58.441875" y="78.53891" style="stroke: #000000; stroke-width: 0.8"/>
      </g>
     </g>
     <g id="text_10">
      <!-- 0.002 -->
      <g transform="translate(22.81375 82.338129) scale(0.1 -0.1)">
       <use xlink:href="#DejaVuSans-30"/>
       <use xlink:href="#DejaVuSans-2e" x="63.623047"/>
       <use xlink:href="#DejaVuSans-30" x="95.410156"/>
       <use xlink:href="#DejaVuSans-30" x="159.033203"/>
       <use xlink:href="#DejaVuSans-32" x="222.65625"/>
      </g>
     </g>
    </g>
    <g id="ytick_4">
     <g id="line2d_19">
      <path d="M 58.441875 50.101854 
L 252.423765 50.101854 
" clip-path="url(#p410fac281b)" style="fill: none; stroke: #b0b0b0; stroke-width: 0.8; stroke-linecap: square"/>
     </g>
     <g id="line2d_20">
      <g>
       <use xlink:href="#md56128c240" x="58.441875" y="50.101854" style="stroke: #000000; stroke-width: 0.8"/>
      </g>
     </g>
     <g id="text_11">
      <!-- 0.003 -->
      <g transform="translate(22.81375 53.901073) scale(0.1 -0.1)">
       <defs>
        <path id="DejaVuSans-33" d="M 2597 2516 
Q 3050 2419 3304 2112 
Q 3559 1806 3559 1356 
Q 3559 666 3084 287 
Q 2609 -91 1734 -91 
Q 1441 -91 1130 -33 
Q 819 25 488 141 
L 488 750 
Q 750 597 1062 519 
Q 1375 441 1716 441 
Q 2309 441 2620 675 
Q 2931 909 2931 1356 
Q 2931 1769 2642 2001 
Q 2353 2234 1838 2234 
L 1294 2234 
L 1294 2753 
L 1863 2753 
Q 2328 2753 2575 2939 
Q 2822 3125 2822 3475 
Q 2822 3834 2567 4026 
Q 2313 4219 1838 4219 
Q 1578 4219 1281 4162 
Q 984 4106 628 3988 
L 628 4550 
Q 988 4650 1302 4700 
Q 1616 4750 1894 4750 
Q 2613 4750 3031 4423 
Q 3450 4097 3450 3541 
Q 3450 3153 3228 2886 
Q 3006 2619 2597 2516 
z
" transform="scale(0.015625)"/>
       </defs>
       <use xlink:href="#DejaVuSans-30"/>
       <use xlink:href="#DejaVuSans-2e" x="63.623047"/>
       <use xlink:href="#DejaVuSans-30" x="95.410156"/>
       <use xlink:href="#DejaVuSans-30" x="159.033203"/>
       <use xlink:href="#DejaVuSans-33" x="222.65625"/>
      </g>
     </g>
    </g>
    <g id="ytick_5">
     <g id="line2d_21">
      <path d="M 58.441875 21.664798 
L 252.423765 21.664798 
" clip-path="url(#p410fac281b)" style="fill: none; stroke: #b0b0b0; stroke-width: 0.8; stroke-linecap: square"/>
     </g>
     <g id="line2d_22">
      <g>
       <use xlink:href="#md56128c240" x="58.441875" y="21.664798" style="stroke: #000000; stroke-width: 0.8"/>
      </g>
     </g>
     <g id="text_12">
      <!-- 0.004 -->
      <g transform="translate(22.81375 25.464017) scale(0.1 -0.1)">
       <defs>
        <path id="DejaVuSans-34" d="M 2419 4116 
L 825 1625 
L 2419 1625 
L 2419 4116 
z
M 2253 4666 
L 3047 4666 
L 3047 1625 
L 3713 1625 
L 3713 1100 
L 3047 1100 
L 3047 0 
L 2419 0 
L 2419 1100 
L 313 1100 
L 313 1709 
L 2253 4666 
z
" transform="scale(0.015625)"/>
       </defs>
       <use xlink:href="#DejaVuSans-30"/>
       <use xlink:href="#DejaVuSans-2e" x="63.623047"/>
       <use xlink:href="#DejaVuSans-30" x="95.410156"/>
       <use xlink:href="#DejaVuSans-30" x="159.033203"/>
       <use xlink:href="#DejaVuSans-34" x="222.65625"/>
      </g>
     </g>
    </g>
    <g id="text_13">
     <!-- Refractive Index Variation -->
     <g transform="translate(16.318125 152.757183) rotate(-90) scale(0.12 -0.12)">
      <defs>
       <path id="DejaVuSans-52" d="M 2841 2188 
Q 3044 2119 3236 1894 
Q 3428 1669 3622 1275 
L 4263 0 
L 3584 0 
L 2988 1197 
Q 2756 1666 2539 1819 
Q 2322 1972 1947 1972 
L 1259 1972 
L 1259 0 
L 628 0 
L 628 4666 
L 2053 4666 
Q 2853 4666 3247 4331 
Q 3641 3997 3641 3322 
Q 3641 2881 3436 2590 
Q 3231 2300 2841 2188 
z
M 1259 4147 
L 1259 2491 
L 2053 2491 
Q 2509 2491 2742 2702 
Q 2975 2913 2975 3322 
Q 2975 3731 2742 3939 
Q 2509 4147 2053 4147 
L 1259 4147 
z
" transform="scale(0.015625)"/>
       <path id="DejaVuSans-66" d="M 2375 4863 
L 2375 4384 
L 1825 4384 
Q 1516 4384 1395 4259 
Q 1275 4134 1275 3809 
L 1275 3500 
L 2222 3500 
L 2222 3053 
L 1275 3053 
L 1275 0 
L 697 0 
L 697 3053 
L 147 3053 
L 147 3500 
L 697 3500 
L 697 3744 
Q 697 4328 969 4595 
Q 1241 4863 1831 4863 
L 2375 4863 
z
" transform="scale(0.015625)"/>
       <path id="DejaVuSans-72" d="M 2631 2963 
Q 2534 3019 2420 3045 
Q 2306 3072 2169 3072 
Q 1681 3072 1420 2755 
Q 1159 2438 1159 1844 
L 1159 0 
L 581 0 
L 581 3500 
L 1159 3500 
L 1159 2956 
Q 1341 3275 1631 3429 
Q 1922 3584 2338 3584 
Q 2397 3584 2469 3576 
Q 2541 3569 2628 3553 
L 2631 2963 
z
" transform="scale(0.015625)"/>
       <path id="DejaVuSans-61" d="M 2194 1759 
Q 1497 1759 1228 1600 
Q 959 1441 959 1056 
Q 959 750 1161 570 
Q 1363 391 1709 391 
Q 2188 391 2477 730 
Q 2766 1069 2766 1631 
L 2766 1759 
L 2194 1759 
z
M 3341 1997 
L 3341 0 
L 2766 0 
L 2766 531 
Q 2569 213 2275 61 
Q 1981 -91 1556 -91 
Q 1019 -91 701 211 
Q 384 513 384 1019 
Q 384 1609 779 1909 
Q 1175 2209 1959 2209 
L 2766 2209 
L 2766 2266 
Q 2766 2663 2505 2880 
Q 2244 3097 1772 3097 
Q 1472 3097 1187 3025 
Q 903 2953 641 2809 
L 641 3341 
Q 956 3463 1253 3523 
Q 1550 3584 1831 3584 
Q 2591 3584 2966 3190 
Q 3341 2797 3341 1997 
z
" transform="scale(0.015625)"/>
       <path id="DejaVuSans-63" d="M 3122 3366 
L 3122 2828 
Q 2878 2963 2633 3030 
Q 2388 3097 2138 3097 
Q 1578 3097 1268 2742 
Q 959 2388 959 1747 
Q 959 1106 1268 751 
Q 1578 397 2138 397 
Q 2388 397 2633 464 
Q 2878 531 3122 666 
L 3122 134 
Q 2881 22 2623 -34 
Q 2366 -91 2075 -91 
Q 1284 -91 818 406 
Q 353 903 353 1747 
Q 353 2603 823 3093 
Q 1294 3584 2113 3584 
Q 2378 3584 2631 3529 
Q 2884 3475 3122 3366 
z
" transform="scale(0.015625)"/>
       <path id="DejaVuSans-74" d="M 1172 4494 
L 1172 3500 
L 2356 3500 
L 2356 3053 
L 1172 3053 
L 1172 1153 
Q 1172 725 1289 603 
Q 1406 481 1766 481 
L 2356 481 
L 2356 0 
L 1766 0 
Q 1100 0 847 248 
Q 594 497 594 1153 
L 594 3053 
L 172 3053 
L 172 3500 
L 594 3500 
L 594 4494 
L 1172 4494 
z
" transform="scale(0.015625)"/>
       <path id="DejaVuSans-76" d="M 191 3500 
L 800 3500 
L 1894 563 
L 2988 3500 
L 3597 3500 
L 2284 0 
L 1503 0 
L 191 3500 
z
" transform="scale(0.015625)"/>
       <path id="DejaVuSans-20" transform="scale(0.015625)"/>
       <path id="DejaVuSans-49" d="M 628 4666 
L 1259 4666 
L 1259 0 
L 628 0 
L 628 4666 
z
" transform="scale(0.015625)"/>
       <path id="DejaVuSans-6e" d="M 3513 2113 
L 3513 0 
L 2938 0 
L 2938 2094 
Q 2938 2591 2744 2837 
Q 2550 3084 2163 3084 
Q 1697 3084 1428 2787 
Q 1159 2491 1159 1978 
L 1159 0 
L 581 0 
L 581 3500 
L 1159 3500 
L 1159 2956 
Q 1366 3272 1645 3428 
Q 1925 3584 2291 3584 
Q 2894 3584 3203 3211 
Q 3513 2838 3513 2113 
z
" transform="scale(0.015625)"/>
       <path id="DejaVuSans-64" d="M 2906 2969 
L 2906 4863 
L 3481 4863 
L 3481 0 
L 2906 0 
L 2906 525 
Q 2725 213 2448 61 
Q 2172 -91 1784 -91 
Q 1150 -91 751 415 
Q 353 922 353 1747 
Q 353 2572 751 3078 
Q 1150 3584 1784 3584 
Q 2172 3584 2448 3432 
Q 2725 3281 2906 2969 
z
M 947 1747 
Q 947 1113 1208 752 
Q 1469 391 1925 391 
Q 2381 391 2643 752 
Q 2906 1113 2906 1747 
Q 2906 2381 2643 2742 
Q 2381 3103 1925 3103 
Q 1469 3103 1208 2742 
Q 947 2381 947 1747 
z
" transform="scale(0.015625)"/>
       <path id="DejaVuSans-78" d="M 3513 3500 
L 2247 1797 
L 3578 0 
L 2900 0 
L 1881 1375 
L 863 0 
L 184 0 
L 1544 1831 
L 300 3500 
L 978 3500 
L 1906 2253 
L 2834 3500 
L 3513 3500 
z
" transform="scale(0.015625)"/>
       <path id="DejaVuSans-56" d="M 1831 0 
L 50 4666 
L 709 4666 
L 2188 738 
L 3669 4666 
L 4325 4666 
L 2547 0 
L 1831 0 
z
" transform="scale(0.015625)"/>
       <path id="DejaVuSans-6f" d="M 1959 3097 
Q 1497 3097 1228 2736 
Q 959 2375 959 1747 
Q 959 1119 1226 758 
Q 1494 397 1959 397 
Q 2419 397 2687 759 
Q 2956 1122 2956 1747 
Q 2956 2369 2687 2733 
Q 2419 3097 1959 3097 
z
M 1959 3584 
Q 2709 3584 3137 3096 
Q 3566 2609 3566 1747 
Q 3566 888 3137 398 
Q 2709 -91 1959 -91 
Q 1206 -91 779 398 
Q 353 888 353 1747 
Q 353 2609 779 3096 
Q 1206 3584 1959 3584 
z
" transform="scale(0.015625)"/>
      </defs>
      <use xlink:href="#DejaVuSans-52"/>
      <use xlink:href="#DejaVuSans-65" x="64.982422"/>
      <use xlink:href="#DejaVuSans-66" x="126.505859"/>
      <use xlink:href="#DejaVuSans-72" x="161.710938"/>
      <use xlink:href="#DejaVuSans-61" x="202.824219"/>
      <use xlink:href="#DejaVuSans-63" x="264.103516"/>
      <use xlink:href="#DejaVuSans-74" x="319.083984"/>
      <use xlink:href="#DejaVuSans-69" x="358.292969"/>
      <use xlink:href="#DejaVuSans-76" x="386.076172"/>
      <use xlink:href="#DejaVuSans-65" x="445.255859"/>
      <use xlink:href="#DejaVuSans-20" x="506.779297"/>
      <use xlink:href="#DejaVuSans-49" x="538.566406"/>
      <use xlink:href="#DejaVuSans-6e" x="568.058594"/>
      <use xlink:href="#DejaVuSans-64" x="631.4375"/>
      <use xlink:href="#DejaVuSans-65" x="694.914062"/>
      <use xlink:href="#DejaVuSans-78" x="754.6875"/>
      <use xlink:href="#DejaVuSans-20" x="813.867188"/>
      <use xlink:href="#DejaVuSans-56" x="845.654297"/>
      <use xlink:href="#DejaVuSans-61" x="906.3125"/>
      <use xlink:href="#DejaVuSans-72" x="967.591797"/>
      <use xlink:href="#DejaVuSans-69" x="1008.705078"/>
      <use xlink:href="#DejaVuSans-61" x="1036.488281"/>
      <use xlink:href="#DejaVuSans-74" x="1097.767578"/>
      <use xlink:href="#DejaVuSans-69" x="1136.976562"/>
      <use xlink:href="#DejaVuSans-6f" x="1164.759766"/>
      <use xlink:href="#DejaVuSans-6e" x="1225.941406"/>
     </g>
    </g>
   </g>
   <g id="line2d_23">
    <path d="M 67.259234 135.413021 
L 67.400296 135.429655 
L 67.682351 135.057615 
L 67.823343 135.119864 
L 68.105398 135.418637 
L 68.24646 135.480662 
L 68.387523 135.286948 
L 68.669578 135.427947 
L 68.814866 135.166529 
L 69.096921 135.56405 
L 69.237913 135.087047 
L 69.383271 135.221026 
L 69.515742 135.15305 
L 69.656734 135.37975 
L 70.079851 135.268587 
L 70.361906 135.587912 
L 70.502969 135.532997 
L 70.785024 135.234559 
L 71.067078 135.194366 
L 71.349133 135.576463 
L 71.490125 135.271953 
L 71.77218 135.269821 
L 71.913242 135.197815 
L 72.054235 135.411129 
L 72.33636 135.108546 
L 72.477352 135.51176 
L 72.759407 135.542251 
L 73.178228 135.223448 
L 73.319291 135.300072 
L 73.460283 135.082497 
L 73.601345 135.321718 
L 73.8834 135.142036 
L 74.024392 135.276031 
L 74.169751 135.157924 
L 74.306447 135.330235 
L 74.44751 135.194676 
L 74.588502 135.336651 
L 74.729564 135.192856 
L 75.011619 135.32831 
L 75.434736 135.111503 
L 75.575729 135.213572 
L 75.716791 135.065464 
L 75.862079 135.257732 
L 76.135612 135.348984 
L 76.276605 135.102346 
L 76.558659 135.495856 
L 76.699722 135.615394 
L 76.840714 134.915174 
L 77.122769 135.427333 
L 77.263831 135.10209 
L 77.545886 135.260471 
L 77.686949 135.193572 
L 77.969003 135.643341 
L 78.109996 134.953905 
L 78.251058 135.136542 
L 78.39205 135.048714 
L 78.537339 135.16029 
L 78.674105 135.03987 
L 78.815168 135.217005 
L 79.097222 134.61758 
L 79.379277 131.068123 
L 79.657036 122.784978 
L 80.644263 90.374412 
L 81.208372 83.031965 
L 81.913544 78.919966 
L 82.336662 77.557831 
L 83.601647 75.518895 
L 83.742639 75.487614 
L 84.024694 75.169119 
L 84.165757 74.967216 
L 84.311045 75.055371 
L 84.588804 74.736875 
L 85.011921 74.574784 
L 85.157209 74.190884 
L 85.293976 74.446818 
L 85.435038 74.461036 
L 85.858085 74.11126 
L 86.14014 73.932107 
L 86.276906 74.347288 
L 86.422195 74.065761 
L 86.700024 74.060074 
L 86.841016 73.5738 
L 86.982079 73.909357 
L 87.264133 73.900826 
L 87.405125 73.940638 
L 87.687251 73.633518 
L 87.969305 73.801296 
L 88.392352 73.406021 
L 88.533415 73.323554 
L 88.674407 73.383272 
L 88.819766 73.636361 
L 88.956462 73.488489 
L 89.097524 73.721673 
L 89.379579 73.133026 
L 89.661634 73.562425 
L 89.939393 73.431615 
L 90.221518 73.582331 
L 90.36251 73.499864 
L 90.785627 73.602237 
L 90.926619 73.369053 
L 91.208674 73.644893 
L 91.349737 73.440146 
L 91.913846 73.576644 
L 92.054838 73.388959 
L 92.195901 73.75011 
L 92.336963 73.349147 
L 92.76001 73.744422 
L 92.896777 73.670486 
L 93.03784 73.425927 
L 93.183128 73.519769 
L 93.460886 73.366209 
L 93.601949 73.454364 
L 93.742941 73.337772 
L 94.024996 73.505551 
L 94.307051 73.249617 
L 94.448113 73.306492 
L 94.589105 73.152931 
L 94.730168 73.229712 
L 94.871231 73.471427 
L 95.153285 73.329241 
L 95.294277 73.516926 
L 95.43534 73.232555 
L 95.717395 73.32071 
L 95.99945 73.488489 
L 96.140442 73.391803 
L 96.277208 73.519769 
L 96.563559 73.238243 
L 96.700326 73.55105 
L 96.841318 73.394646 
L 97.828545 73.599393 
L 98.251662 73.394646 
L 98.39695 73.317866 
L 98.674709 73.448677 
L 98.820067 73.346303 
L 98.956764 73.394646 
L 99.243114 74.168134 
L 99.379881 74.017418 
L 99.520943 74.077136 
L 99.65764 73.983294 
L 99.939694 73.568112 
L 100.22182 73.494176 
L 100.362812 73.710298 
L 100.503874 73.522613 
L 100.785929 73.806984 
L 101.067984 73.332085 
L 101.208976 73.548207 
L 101.354264 73.280898 
L 101.491031 73.556738 
L 101.632093 73.408865 
L 102.337265 70.914935 
L 102.478257 70.422974 
L 102.61932 70.42013 
L 103.038141 69.680767 
L 103.320196 69.478864 
L 103.602251 69.148994 
L 104.025298 68.628596 
L 104.170656 68.7395 
L 104.589407 68.230477 
L 104.73047 68.236165 
L 105.012525 67.960325 
L 105.294579 67.963169 
L 105.435642 67.966013 
L 105.576634 67.772641 
L 105.717697 67.892076 
L 106.140744 67.385897 
L 106.27751 67.704392 
L 106.559565 67.377365 
L 106.700627 67.638986 
L 106.84162 67.414334 
L 107.123674 67.66458 
L 107.264737 67.243711 
L 107.405729 67.567894 
L 107.687854 67.243711 
L 107.828846 67.343241 
L 108.251964 67.23518 
L 108.392956 66.970716 
L 108.534018 67.132807 
L 108.961361 67.095839 
L 109.098128 67.249399 
L 109.23912 67.220962 
L 109.380183 67.31196 
L 109.657941 66.959341 
L 109.799004 66.748907 
L 110.081059 67.007684 
L 110.222121 66.856967 
L 110.367409 67.161244 
L 110.504176 66.845593 
L 110.786231 67.155556 
L 110.927223 66.967872 
L 111.068286 66.984934 
L 111.354636 66.780187 
L 111.491332 66.959341 
L 111.777683 66.672126 
L 111.91445 66.524254 
L 112.478559 66.566909 
L 112.76491 66.512879 
L 113.038443 66.717626 
L 113.183731 66.529941 
L 113.320498 66.595346 
L 113.46149 66.464536 
L 113.743545 66.609565 
L 114.166662 66.401974 
L 114.307654 66.714782 
L 114.448717 66.31382 
L 114.594005 66.302445 
L 114.871834 66.512879 
L 115.012826 66.399131 
L 115.153889 66.538472 
L 115.435944 66.310976 
L 115.581232 66.413349 
L 115.858991 66.111916 
L 116.000053 66.473067 
L 116.277812 66.293914 
L 116.418875 66.492973 
L 116.564163 66.089167 
L 116.841921 66.433255 
L 116.982984 66.200071 
L 117.128272 66.512879 
L 117.547094 66.023762 
L 117.692382 66.285383 
L 117.829148 66.11476 
L 117.970211 66.285383 
L 118.393258 65.986793 
L 119.380485 66.146041 
L 119.662539 65.898639 
L 120.363415 66.148885 
L 120.508703 66.103385 
L 120.64547 65.821859 
L 120.786533 66.148885 
L 120.927525 66.148885 
L 121.068587 66.035136 
L 121.491634 66.100542 
L 121.773689 65.955513 
L 122.055814 66.072105 
L 122.337869 65.93845 
L 122.619924 66.029449 
L 122.901978 65.665455 
L 123.038745 65.912857 
L 123.461792 65.733704 
L 123.602855 65.671142 
L 123.743847 66.092011 
L 123.884909 65.941294 
L 124.025901 66.106229 
L 124.166964 65.858827 
L 124.449019 66.066417 
L 124.731073 65.602893 
L 125.013128 65.756453 
L 125.154191 65.591518 
L 125.436246 65.83039 
L 125.577238 65.855983 
L 125.7183 65.568769 
L 126.000355 65.776359 
L 126.278114 65.625643 
L 126.419176 65.890107 
L 126.842223 65.568769 
L 126.983286 65.773516 
L 127.974738 65.728016 
L 128.252567 65.696735 
L 128.39356 65.685361 
L 128.534622 65.309992 
L 128.675614 65.40099 
L 128.816677 65.656924 
L 129.239724 65.472083 
L 129.385082 65.435115 
L 129.658545 65.764984 
L 129.9406 65.642705 
L 130.081662 65.844608 
L 130.50478 65.335585 
L 130.650068 65.543175 
L 130.786835 65.27018 
L 131.209881 65.608581 
L 131.350944 65.483458 
L 131.491936 65.55455 
L 131.632999 65.486301 
L 131.773991 65.796265 
L 131.915053 65.403834 
L 132.056116 65.386772 
L 132.338171 65.50052 
L 132.620226 65.312835 
L 132.761218 65.790578 
L 133.039047 65.696735 
L 133.180039 65.472083 
L 133.325327 65.725173 
L 133.744149 65.597206 
L 134.167266 65.42374 
L 134.308258 65.218993 
L 134.449321 65.389615 
L 134.590313 65.22468 
L 134.731375 65.34696 
L 135.01343 65.173494 
L 135.154493 65.09387 
L 135.436547 65.312835 
L 135.718602 65.534644 
L 135.859594 65.403834 
L 136.141649 65.398146 
L 136.282712 65.238899 
L 136.419478 65.432271 
L 136.701533 65.139369 
L 137.12458 65.528957 
L 137.68876 65.221837 
L 137.829752 65.349803 
L 137.970815 65.221837 
L 138.111807 65.341272 
L 138.393861 65.088182 
L 138.534924 64.812343 
L 138.816979 65.338429 
L 138.957971 65.267336 
L 139.099033 65.520426 
L 139.381088 65.275867 
L 139.522151 65.480614 
L 139.804206 65.1479 
L 139.940902 65.122307 
L 140.081964 64.937466 
L 140.223027 65.133682 
L 140.364019 65.11662 
L 140.505082 65.517582 
L 140.646074 65.11662 
L 140.787136 65.139369 
L 140.928129 65.30146 
L 141.069191 65.076808 
L 141.210183 65.287242 
L 141.492238 64.971591 
L 141.633301 65.318523 
L 141.774293 64.889123 
L 141.915355 65.139369 
L 142.479465 65.065433 
L 142.620527 64.880592 
L 142.76152 65.07112 
L 143.039349 64.738407 
L 143.321403 65.145057 
L 143.885513 64.798125 
L 144.167568 64.84078 
L 144.30856 64.928935 
L 144.449622 64.823718 
L 144.731677 64.897654 
L 145.577841 64.866373 
L 145.859896 65.11662 
L 146.141951 64.803812 
L 146.560772 64.965903 
L 146.701835 65.190556 
L 146.842827 64.806656 
L 146.98389 64.778219 
L 147.124882 65.062589 
L 147.265944 64.957372 
L 147.407007 65.079651 
L 147.552295 64.94031 
L 147.830054 65.000028 
L 148.112108 64.738407 
L 148.394163 64.877748 
L 148.535226 64.928935 
L 148.676218 64.795281 
L 148.817281 64.891967 
L 148.958273 64.621815 
L 149.099335 64.775375 
L 149.240327 64.66447 
L 149.38139 64.835093 
L 149.663445 64.724188 
L 149.800211 64.937466 
L 150.082266 64.783906 
L 150.227554 65.011402 
L 150.364321 64.849311 
L 150.505383 64.91756 
L 150.646376 64.655939 
L 150.92843 64.886279 
L 151.069493 64.985809 
L 151.49254 64.852155 
L 151.633602 65.096714 
L 151.919953 64.707126 
L 152.05672 65.008559 
L 152.197712 64.889123 
L 152.338774 64.928935 
L 152.620829 64.596221 
L 153.043876 64.815187 
L 153.180643 64.579159 
L 153.744752 64.815187 
L 153.885815 64.343132 
L 154.16787 64.596221 
L 154.308862 64.607596 
L 154.595212 64.843624 
L 154.731979 64.954528 
L 155.014034 64.618971 
L 155.300384 65.048371 
L 155.578143 64.650252 
L 156.001261 64.675845 
L 156.142253 64.599065 
L 156.283315 64.783906 
L 156.561074 64.584847 
L 156.702137 64.559253 
L 156.843129 64.849311 
L 156.984191 64.684376 
L 157.266246 64.783906 
L 157.407309 64.536504 
L 157.548301 64.55641 
L 157.689363 64.820874 
L 157.834652 64.803812 
L 157.971418 64.601909 
L 158.11241 64.627502 
L 158.253473 64.286258 
L 158.394465 64.601909 
L 158.817582 64.525129 
L 159.240629 64.618971 
L 159.941505 64.218009 
L 160.082568 64.584847 
L 160.223631 64.431286 
L 160.505685 64.462567 
L 160.646677 64.451192 
L 160.78774 64.266352 
L 161.210787 64.630346 
L 161.35185 64.289101 
L 161.492842 64.84078 
L 161.633904 64.621815 
L 161.915959 64.903342 
L 162.339076 64.647408 
L 162.480068 64.84078 
L 162.621131 64.419912 
L 163.044178 64.613284 
L 163.180945 64.735563 
L 163.462999 64.655939 
L 164.027109 64.852155 
L 164.168171 64.516598 
L 164.309164 64.539347 
L 164.450226 64.900498 
L 164.873343 64.803812 
L 165.014336 64.536504 
L 165.155398 64.758313 
L 165.29639 64.766844 
L 165.437453 64.596221 
L 165.578445 64.68722 
L 166.001562 64.562097 
L 166.283617 64.465411 
L 166.424609 64.715657 
L 166.561376 64.729876 
L 166.706734 64.601909 
L 166.843431 64.30332 
L 166.984493 64.547878 
L 167.125485 64.235071 
L 167.416132 64.593378 
L 167.548603 64.345975 
L 167.689665 64.348819 
L 167.830657 64.18104 
L 168.112712 64.641721 
L 168.253775 64.428443 
L 168.535829 64.889123 
L 168.676822 64.860686 
L 169.104235 65.594362 
L 169.241002 65.563081 
L 169.381994 65.383928 
L 169.664048 65.875889 
L 169.800815 65.548863 
L 169.941807 65.873045 
L 170.08287 65.702423 
L 170.364925 66.222821 
L 170.505987 66.325194 
L 170.646979 66.217134 
L 171.211089 66.441786 
L 171.352151 66.461692 
L 171.634206 66.330882 
L 171.775198 66.239883 
L 172.48037 66.612409 
L 172.621433 66.308132 
L 172.903488 66.450317 
L 173.181246 66.649377 
L 173.322309 66.495817 
L 173.463301 66.930904 
L 173.886418 66.640846 
L 174.027411 66.649377 
L 174.309465 66.837061 
L 174.450528 66.714782 
L 174.591591 66.942279 
L 174.732583 66.765969 
L 174.873645 66.882561 
L 175.014637 66.825687 
L 175.296692 66.967872 
L 175.578747 66.57544 
L 175.719809 66.734688 
L 175.860802 66.609565 
L 176.142856 66.780187 
L 176.283919 66.692032 
L 176.424911 66.794406 
L 176.561678 66.458849 
L 177.125787 67.044652 
L 177.26685 67.101526 
L 177.548905 66.700564 
L 177.689967 66.800093 
L 178.113014 66.765969 
L 178.399365 66.845593 
L 178.536131 66.996309 
L 178.677123 66.746063 
L 178.818186 66.746063 
L 178.963474 67.363147 
L 179.241303 66.908154 
L 179.382296 67.007684 
L 179.668646 66.899623 
L 179.805413 66.962184 
L 180.083172 67.172619 
L 180.224234 67.192525 
L 180.365226 66.726157 
L 180.506289 66.717626 
L 180.647281 66.973559 
L 180.788344 66.882561 
L 180.933632 67.00484 
L 181.074624 66.831374 
L 181.211391 66.891092 
L 181.634508 67.41149 
L 181.7755 67.448458 
L 181.916563 67.266461 
L 182.057625 67.306273 
L 182.198617 66.893936 
L 182.33968 66.842749 
L 182.484968 66.669283 
L 182.621735 67.075933 
L 183.049078 67.127119 
L 183.185844 66.942279 
L 183.745658 67.374522 
L 184.027712 67.044652 
L 184.173071 67.255086 
L 184.732885 67.001996 
L 184.878173 67.070245 
L 185.014939 67.326179 
L 185.438057 67.263617 
L 185.720111 67.374522 
L 185.861103 67.422865 
L 186.143158 67.186837 
L 186.56198 67.297742 
L 186.703042 67.155556 
L 186.844034 67.280679 
L 187.126089 67.107213 
L 187.408214 67.195368 
L 187.549206 66.990622 
L 187.690269 67.300585 
L 187.831261 67.164088 
L 188.113316 67.306273 
L 188.254378 67.107213 
L 188.536433 67.493957 
L 188.677425 67.536613 
L 188.818488 67.354616 
L 188.95948 67.547988 
L 189.100543 67.525238 
L 189.382597 67.297742 
L 189.52366 67.459833 
L 189.664652 66.95081 
L 189.942481 67.206743 
L 190.083473 67.471208 
L 190.365528 67.229493 
L 190.510816 67.505332 
L 190.647583 67.23518 
L 190.788646 67.454146 
L 190.929638 67.044652 
L 191.352755 67.94895 
L 191.63481 69.490239 
L 192.057927 74.327382 
L 192.763029 88.932654 
L 193.604967 106.290632 
L 194.173373 113.82304 
L 194.592194 117.352647 
L 195.015241 120.152275 
L 195.297296 120.858083 
L 195.720413 122.444586 
L 196.002468 122.89702 
L 196.147756 122.707913 
L 196.425515 123.469742 
L 196.562281 123.260445 
L 196.703344 123.257317 
L 196.844336 123.896014 
L 197.130687 123.70577 
L 197.267453 123.7507 
L 197.408516 123.993837 
L 197.549508 123.757525 
L 197.690571 124.182375 
L 197.972626 123.896867 
L 198.25468 124.055546 
L 198.395672 124.136591 
L 198.536735 123.816674 
L 198.682023 124.007771 
L 198.81879 123.952319 
L 199.100844 124.490632 
L 199.523962 124.427502 
L 199.664954 124.279061 
L 199.806017 124.45338 
L 199.942783 124.135169 
L 200.083775 124.173275 
L 200.229063 124.485229 
L 200.647885 123.1885 
L 200.92994 119.609696 
L 201.211994 109.079739 
L 202.340284 40.592503 
L 202.763331 31.185525 
L 203.186448 26.536066 
L 203.323214 26.305726 
L 203.746261 24.960653 
L 203.89162 24.826999 
L 204.169379 23.302773 
L 204.592496 21.312179 
L 205.297598 19.25618 
L 205.579652 18.829624 
L 206.143762 19.787953 
L 206.562583 25.941732 
L 206.985701 39.483458 
L 208.254982 87.084245 
L 208.819092 101.026933 
L 209.383201 110.167456 
L 209.943085 115.514191 
L 210.648187 119.295182 
L 211.212296 121.15525 
L 211.635413 122.166472 
L 211.776406 122.159647 
L 212.058531 122.706207 
L 212.199523 122.80659 
L 212.340585 122.68232 
L 212.62264 122.891617 
L 212.763632 123.543679 
L 212.904695 123.616193 
L 213.045687 123.282058 
L 213.323516 123.596003 
L 213.464508 123.76435 
L 213.605571 123.685295 
L 213.746563 123.800181 
L 213.887626 123.73961 
L 214.032914 123.928716 
L 214.310673 123.86587 
L 214.451735 124.044455 
L 214.592798 123.910517 
L 214.73379 124.420109 
L 215.015845 124.441436 
L 215.297899 123.0011 
L 215.579954 118.554681 
L 215.862009 105.610987 
L 216.84494 42.875998 
L 217.268057 31.65758 
L 217.691174 25.799546 
L 217.973229 24.22129 
L 218.114221 23.99095 
L 218.255284 24.002324 
L 218.396276 23.43074 
L 218.541635 23.857295 
L 219.383503 19.952888 
L 219.524565 19.836296 
L 219.80662 19.196462 
L 220.229667 18.67322 
L 220.507496 18.536722 
L 220.789551 19.406896 
L 220.930543 20.271383 
L 221.212598 24.517035 
L 221.635715 37.660642 
L 223.323818 97.907388 
L 224.02892 111.070902 
L 224.5931 117.266767 
L 225.443489 122.434065 
L 226.426491 124.94335 
L 226.704249 125.141557 
L 226.845242 125.659395 
L 226.986304 125.475976 
L 227.268359 125.98045 
L 227.409422 125.98045 
L 227.55471 125.843668 
L 227.832468 126.091639 
L 227.977757 126.41838 
L 228.255586 126.448808 
L 228.537641 126.654408 
L 228.678633 126.568244 
L 228.819695 126.755928 
L 228.960687 126.427196 
L 229.242813 126.81394 
L 229.383805 126.778962 
L 229.524867 127.068736 
L 229.811148 127.094045 
L 230.084681 125.722526 
L 230.225743 123.942366 
L 230.507798 114.932938 
L 230.789853 97.108307 
L 231.353962 58.556191 
L 231.77708 42.258914 
L 232.059134 36.133572 
L 232.623244 29.635705 
L 233.187353 27.542738 
L 233.328346 27.420459 
L 233.465112 27.682079 
L 233.747167 27.440364 
L 233.888229 27.696298 
L 234.170284 26.820437 
L 234.734394 24.630783 
L 234.875456 24.807093 
L 235.016448 24.300914 
L 235.157511 24.514191 
L 235.298503 24.306601 
L 235.439566 24.312288 
L 235.580558 24.064886 
L 235.862613 24.440255 
L 236.003675 24.812781 
L 236.28573 26.860249 
L 236.567785 31.253774 
L 236.986606 44.559472 
L 238.255888 90.624658 
L 238.960989 107.497785 
L 239.525169 115.956956 
L 240.089279 121.23658 
L 240.226045 121.817265 
L 240.649092 124.323707 
L 240.790155 124.649596 
L 241.213202 126.145669 
L 241.354264 126.329088 
L 241.495256 126.944466 
L 241.636319 126.920579 
L 241.777382 127.323532 
L 241.918374 127.383534 
L 242.200428 127.965356 
L 242.482483 128.346413 
L 242.482483 128.346413 
" clip-path="url(#p410fac281b)" style="fill: none; stroke: #1f77b4; stroke-width: 1.5; stroke-linecap: square"/>
   </g>
   <g id="line2d_24">
    <path d="M 67.259234 135.413021 
L 67.541288 135.426309 
L 67.682351 135.461506 
L 67.823343 135.198313 
L 67.964406 135.296404 
L 68.105468 135.573298 
L 68.528515 135.273202 
L 68.81057 135.498548 
L 69.096921 135.331415 
L 69.237983 135.675922 
L 69.378975 135.271675 
L 69.515742 135.286519 
L 69.656734 135.551379 
L 69.797797 135.492426 
L 69.938859 135.290597 
L 70.366202 135.471857 
L 70.502969 135.405689 
L 70.643961 135.509551 
L 70.785024 135.313056 
L 70.926016 135.310361 
L 71.067078 135.710842 
L 71.20807 135.692063 
L 71.349133 135.858744 
L 71.490125 135.503792 
L 71.631188 135.737033 
L 71.77218 135.276102 
L 71.913242 135.533236 
L 72.054305 135.502405 
L 72.195297 135.286053 
L 72.33636 135.528393 
L 72.477352 135.342864 
L 72.763703 135.38745 
L 72.896173 135.250117 
L 73.178228 135.329328 
L 73.601345 135.62064 
L 73.8834 135.389702 
L 74.024392 135.624926 
L 74.165455 135.433495 
L 74.306447 135.720881 
L 74.729564 135.602654 
L 74.870627 135.60132 
L 75.015915 135.34473 
L 75.152682 135.671466 
L 75.293674 135.678174 
L 75.575729 135.452236 
L 75.716791 135.759072 
L 76.135612 135.321892 
L 76.276605 135.407625 
L 76.421963 135.33129 
L 76.558659 135.535062 
L 76.699722 135.481586 
L 76.840714 135.738313 
L 76.981777 135.655768 
L 77.127065 135.813387 
L 77.404894 135.57981 
L 77.545886 135.916243 
L 77.686949 135.586072 
L 77.827941 135.585367 
L 77.969003 135.438331 
L 78.109996 135.591333 
L 78.251058 135.417823 
L 78.95616 135.648144 
L 79.097222 135.28636 
L 79.238285 135.289627 
L 79.516044 133.825921 
L 79.657036 132.575486 
L 79.939161 125.575791 
L 81.208372 87.439708 
L 81.772552 80.947528 
L 82.336662 77.694329 
L 82.618716 76.562534 
L 82.759709 76.337882 
L 83.037538 75.570081 
L 83.182826 75.393771 
L 83.601647 74.51791 
L 83.742639 74.407006 
L 84.024694 74.03448 
L 84.170053 74.03448 
L 84.306749 73.920732 
L 84.452107 73.582331 
L 84.729866 73.55105 
L 84.870929 73.26668 
L 85.439264 73.292273 
L 85.57603 72.999371 
L 85.717093 72.982309 
L 85.999148 72.692251 
L 86.14014 72.726376 
L 86.276906 73.007902 
L 86.417969 72.814531 
L 86.558961 72.879936 
L 86.700024 72.672345 
L 87.123141 72.595565 
L 87.268429 72.504567 
L 87.546188 72.666658 
L 87.828243 72.572816 
L 87.969305 72.692251 
L 88.25136 72.558597 
L 88.392352 72.618315 
L 88.537711 72.50741 
L 88.674407 72.20029 
L 88.956462 72.211665 
L 89.238587 72.154791 
L 89.379579 72.3766 
L 89.516346 72.211665 
L 89.657338 72.416412 
L 89.7984 72.325413 
L 89.939463 72.50741 
L 90.503572 72.086542 
L 90.644565 72.402193 
L 90.785627 72.368069 
L 90.926619 72.10076 
L 91.067682 72.402193 
L 91.208674 72.356694 
L 91.490729 72.06948 
L 91.772854 72.058105 
L 91.913846 72.095073 
L 92.054909 71.998387 
L 92.195901 72.302664 
L 92.336963 72.183228 
L 92.477956 72.316882 
L 92.619018 72.205978 
L 92.896777 72.359538 
L 93.03784 72.02398 
L 93.319894 72.27707 
L 93.465182 71.978481 
L 93.742941 72.282758 
L 94.024996 71.975637 
L 94.448113 72.271383 
L 94.589176 72.063792 
L 94.871231 72.29982 
L 95.153285 72.220196 
L 95.294277 72.373756 
L 95.576332 72.112135 
L 95.858387 72.373756 
L 96.140442 71.998387 
L 96.277208 72.359538 
L 96.418271 72.348163 
L 96.559263 71.853358 
L 97.123443 72.268539 
L 97.268731 72.308351 
L 97.405498 71.984168 
L 97.687552 72.134885 
L 97.828545 72.12351 
L 97.969607 72.308351 
L 98.110599 72.234415 
L 98.251662 72.396506 
L 98.392654 72.314038 
L 98.533717 72.018293 
L 98.674709 72.413568 
L 99.238889 72.240102 
L 99.520943 72.183228 
L 99.798702 72.53016 
L 99.94399 72.675189 
L 100.080757 72.459067 
L 100.22182 72.470442 
L 100.503874 72.143416 
L 100.644866 72.086542 
L 100.785929 72.251477 
L 101.491031 71.930138 
L 101.632093 72.12351 
L 101.773156 71.887483 
L 101.914148 71.978481 
L 102.055211 72.274226 
L 102.196203 72.191759 
L 102.897079 69.444739 
L 103.320196 68.261758 
L 103.461188 67.815296 
L 103.602251 67.778328 
L 103.743243 68.020043 
L 103.884306 67.772641 
L 104.025298 67.283523 
L 104.16636 67.223805 
L 104.307352 67.374522 
L 104.448415 67.354616 
L 104.875758 66.956497 
L 105.294579 67.013371 
L 105.435642 66.842749 
L 105.576634 66.916685 
L 105.999751 66.510035 
L 106.145039 66.629471 
L 106.422869 66.265477 
L 106.559565 66.350788 
L 106.84162 66.020918 
L 107.123745 66.080636 
L 108.251964 65.585831 
L 108.816073 65.796265 
L 109.098128 65.528957 
L 109.239191 65.651236 
L 109.380183 65.591518 
L 109.657941 65.972575 
L 110.081059 65.420896 
L 110.222121 65.65408 
L 110.504176 65.534644 
L 110.786231 65.469239 
L 110.927223 65.63133 
L 111.35034 65.594362 
L 111.491332 65.642705 
L 111.773458 65.506207 
L 112.196505 65.136525 
L 112.337567 65.30146 
L 112.478559 65.142213 
L 112.623847 65.341272 
L 112.760614 65.085339 
L 113.038443 65.295773 
L 113.320498 65.307148 
L 113.46149 65.119463 
L 113.743545 65.34696 
L 114.166662 65.329897 
L 114.453013 65.389615 
L 114.589779 65.517582 
L 114.871834 65.096714 
L 115.012826 65.068277 
L 115.294881 65.213306 
L 115.576936 65.014246 
L 116.141045 65.1934 
L 116.277812 65.002871 
L 116.559867 65.056902 
L 116.700929 65.27018 
L 116.841921 65.082495 
L 116.982984 65.142213 
L 117.124047 64.846468 
L 117.406101 65.082495 
L 117.551389 65.187712 
L 117.829148 65.105245 
L 118.115499 65.22468 
L 118.393258 64.954528 
L 118.816375 64.900498 
L 119.09843 64.860686 
L 119.239492 64.923248 
L 119.380485 64.690064 
L 119.799306 64.698595 
L 120.081361 64.667314 
L 120.222423 64.744094 
L 120.363415 64.681533 
L 120.504478 64.900498 
L 121.068587 64.769687 
L 121.20958 64.451192 
L 121.350642 64.971591 
L 121.491634 64.761156 
L 122.055814 64.815187 
L 122.196806 64.673001 
L 122.478861 64.803812 
L 123.179737 64.744094 
L 123.3208 64.445505 
L 123.602855 64.769687 
L 123.743847 64.653096 
L 124.025901 64.70997 
L 124.166964 64.590534 
L 124.449019 64.795281 
L 124.590081 64.627502 
L 125.013128 64.61044 
L 125.295183 64.715657 
L 125.577238 64.45688 
L 125.7183 64.58769 
L 126.000355 64.229383 
L 126.278114 64.186728 
L 126.419176 64.368725 
L 126.560169 64.075823 
L 127.124348 64.348819 
L 127.547395 64.465411 
L 127.82945 64.402849 
L 128.111505 64.235071 
L 128.534622 64.547878 
L 128.675614 64.462567 
L 128.816677 64.519441 
L 129.098732 64.20379 
L 129.239794 64.334601 
L 129.380786 64.124166 
L 129.526074 64.283414 
L 129.658545 64.25782 
L 129.799608 64.425599 
L 129.94067 64.311851 
L 130.081662 64.436974 
L 130.222725 64.25782 
L 130.363717 64.428443 
L 130.50478 64.283414 
L 130.79106 64.377256 
L 130.927827 64.53366 
L 131.491936 64.041699 
L 131.774061 64.14976 
L 131.915053 64.053074 
L 132.338171 64.411381 
L 132.483459 64.266352 
L 132.761218 64.442661 
L 132.90228 64.488161 
L 133.180039 64.198103 
L 133.321102 64.348819 
L 133.462094 63.848327 
L 133.885211 64.198103 
L 134.026203 64.161134 
L 134.308258 63.956388 
L 134.590383 64.525129 
L 134.872438 64.141229 
L 135.154493 64.075823 
L 136.000657 64.445505 
L 136.282712 64.067292 
L 136.701533 64.161134 
L 136.842525 64.343132 
L 136.983588 64.132697 
L 137.12465 64.269195 
L 137.406705 64.02748 
L 137.547697 64.229383 
L 137.829752 64.14976 
L 137.970815 64.237915 
L 138.111807 64.058761 
L 138.252869 64.169666 
L 138.393861 64.036011 
L 138.957971 64.243602 
L 139.099033 64.172509 
L 139.240096 63.930794 
L 139.522151 64.02748 
L 139.658847 63.910888 
L 139.79991 64.175353 
L 140.223027 63.768703 
L 140.364019 64.021793 
L 140.505082 63.646424 
L 140.787136 64.013262 
L 140.928129 64.053074 
L 141.069191 63.930794 
L 141.492238 64.090042 
L 141.633301 63.760172 
L 141.774363 64.033168 
L 141.919651 64.004731 
L 142.056418 64.115635 
L 142.19741 63.683392 
L 142.338473 63.734579 
L 142.479465 64.018949 
L 142.76152 63.717516 
L 143.039349 63.854014 
L 143.180341 63.529832 
L 143.321403 63.842639 
L 143.462396 63.569644 
L 143.74445 63.689079 
L 143.889809 63.765859 
L 144.026505 64.095729 
L 144.167568 63.9507 
L 144.449622 63.455895 
L 145.013732 64.024637 
L 145.154794 63.81989 
L 145.436849 64.064448 
L 145.718904 63.947857 
L 145.859896 64.092886 
L 146.141951 63.81989 
L 146.842827 63.799984 
L 146.988186 63.734579 
L 147.124952 63.876764 
L 147.265944 63.649267 
L 147.547999 63.763016 
L 147.689062 63.558269 
L 147.830054 63.683392 
L 147.971116 63.595237 
L 148.112108 63.916576 
L 148.676218 63.868233 
L 148.958273 63.979137 
L 149.240398 63.916576 
L 149.38139 63.538363 
L 149.663445 63.66633 
L 149.804507 63.521301 
L 149.941274 63.592393 
L 150.082266 63.504238 
L 150.364321 63.69761 
L 150.646376 63.509926 
L 150.787438 63.888139 
L 150.92843 63.657799 
L 151.073789 63.81989 
L 151.49254 63.603768 
L 151.633602 63.72036 
L 151.774665 63.54405 
L 152.05672 63.708985 
L 152.338774 63.731735 
L 153.039651 63.592393 
L 153.180643 63.649267 
L 153.60376 63.362053 
L 153.885815 63.62083 
L 154.026807 63.680548 
L 154.16787 63.905201 
L 154.449924 63.504238 
L 154.590987 63.342147 
L 154.873042 63.481489 
L 155.014034 63.453052 
L 155.155096 63.58955 
L 155.296088 63.888139 
L 155.437151 63.640736 
L 155.719206 63.882451 
L 155.860198 63.714673 
L 156.142253 63.871077 
L 156.287611 64.155447 
L 156.420082 63.865389 
L 156.561074 63.999043 
L 156.843129 63.768703 
L 156.984191 63.922263 
L 157.125254 63.865389 
L 157.266246 63.967762 
L 157.830356 63.509926 
L 157.975644 63.563956 
L 158.11241 63.780078 
L 158.535528 63.600924 
L 158.680816 63.677705 
L 158.817582 63.487176 
L 158.958575 63.612299 
L 159.099637 63.964919 
L 159.522754 63.748797 
L 159.663747 63.927951 
L 159.800513 63.785765 
L 159.941576 63.825577 
L 160.364623 63.447364 
L 160.505685 63.578175 
L 160.646677 63.504238 
L 160.78774 63.737422 
L 161.915959 63.69761 
L 162.057022 63.856858 
L 162.198014 63.353522 
L 162.480068 63.518457 
L 162.903186 63.535519 
L 163.180945 63.595237 
L 163.322007 63.663486 
L 163.745054 63.271055 
L 163.886117 63.293804 
L 164.450226 63.834108 
L 164.732281 63.865389 
L 164.873343 63.987668 
L 165.014336 63.706142 
L 165.155398 63.765859 
L 165.437453 63.714673 
L 165.582741 63.734579 
L 165.719508 63.623674 
L 165.8605 63.745953 
L 166.001562 63.663486 
L 166.142555 63.310867 
L 166.283617 63.663486 
L 166.561376 63.399021 
L 166.702438 63.515613 
L 166.843431 63.447364 
L 166.984493 63.64358 
L 167.125556 63.598081 
L 168.112712 64.78675 
L 168.253775 64.604753 
L 168.394767 64.775375 
L 168.535829 64.678689 
L 168.681118 65.085339 
L 168.963172 64.960216 
L 169.381994 65.426583 
L 169.800815 65.486301 
L 170.788042 65.534644 
L 170.929034 65.298617 
L 171.215385 65.392459 
L 171.352151 65.614268 
L 172.057323 65.688204 
L 172.198316 65.528957 
L 172.48037 65.722329 
L 172.625658 65.597206 
L 172.907713 65.762141 
L 173.04448 65.537488 
L 173.181246 65.696735 
L 173.322309 65.548863 
L 173.463301 65.574456 
L 173.745356 65.9612 
L 173.886418 65.892951 
L 174.027411 65.665455 
L 174.309465 65.881576 
L 174.450528 65.614268 
L 174.732583 65.673986 
L 174.873645 65.574456 
L 175.296692 65.716641 
L 175.437755 65.55455 
L 175.865098 66.001012 
L 176.142856 66.009543 
L 176.283919 65.90717 
L 176.424982 66.06073 
L 176.984795 65.514738 
L 177.26685 65.608581 
L 177.407912 65.671142 
L 177.5532 65.563081 
L 177.835255 65.978262 
L 177.972022 66.026605 
L 178.113014 65.759297 
L 178.258302 65.767828 
L 178.395069 65.966888 
L 178.536131 65.713798 
L 178.677123 65.836077 
L 179.100241 65.850296 
L 179.241303 66.029449 
L 179.523358 65.671142 
L 179.942179 66.163103 
L 180.083172 66.194384 
L 180.224234 66.387756 
L 180.365226 66.072105 
L 180.651577 66.316663 
L 180.929336 66.29107 
L 181.070398 65.978262 
L 181.211391 66.086323 
L 181.493445 66.430412 
L 181.77557 66.003856 
L 182.061851 66.089167 
L 182.33968 66.362163 
L 182.480672 66.177322 
L 182.621735 66.325194 
L 182.767023 66.111916 
L 182.903789 66.416193 
L 183.181548 66.020918 
L 183.604666 66.231352 
L 183.88672 66.592503 
L 184.032008 66.518566 
L 184.168775 66.160259 
L 184.309767 66.185853 
L 184.591892 66.106229 
L 184.873947 65.944138 
L 185.160227 66.200071 
L 185.720111 66.504348 
L 185.861103 66.322351 
L 186.002166 66.475911 
L 186.143158 66.245571 
L 186.425283 66.336569 
L 186.56198 66.174478 
L 186.703042 66.205759 
L 186.844034 66.438943 
L 186.985097 66.194384 
L 187.271448 66.36785 
L 187.549206 66.692032 
L 187.831261 66.305288 
L 187.972324 66.643689 
L 188.536433 66.03798 
L 188.677425 66.222821 
L 188.95948 66.21429 
L 189.100543 66.558378 
L 189.241605 66.52141 
L 189.52366 66.578284 
L 189.805715 66.174478 
L 189.942481 66.328038 
L 190.365528 69.285492 
L 190.647583 73.326398 
L 191.352755 90.334601 
L 179.942179 66.163103 
L 180.083172 66.194384 
L 180.224234 66.387756 
L 180.365226 66.072105 
L 180.651577 66.316663 
L 180.929336 66.29107 
L 181.070398 65.978262 
L 181.211391 66.086323 
L 181.493445 66.430412 
L 181.77557 66.003856 
L 182.061851 66.089167 
L 182.33968 66.362163 
L 182.480672 66.177322 
L 182.621735 66.325194 
L 182.767023 66.111916 
L 182.903789 66.416193 
L 183.181548 66.020918 
L 183.463603 66.157416 
L 191.63481 96.900717 
L 192.339982 110.604249 
L 192.904091 117.08022 
L 193.18185 118.831658 
L 193.74596 122.13121 
L 194.451132 123.983031 
L 194.592194 123.733354 
L 195.015241 124.383994 
L 195.156304 124.335935 
L 195.297296 124.650449 
L 195.583647 124.324276 
L 195.861405 124.746282 
L 196.002468 124.715285 
L 196.14346 124.903823 
L 196.425585 124.932544 
L 196.844336 125.084114 
L 197.126461 125.320426 
L 197.267453 124.908373 
L 197.549508 125.278339 
L 197.831563 125.07928 
L 198.25468 125.250471 
L 198.677727 124.999371 
L 199.10514 125.301089 
L 199.523962 124.930269 
L 199.806017 123.188215 
L 200.083775 118.475911 
L 200.36583 105.346522 
L 201.353057 42.614377 
L 201.776174 30.679345 
L 202.199221 24.104698 
L 202.622338 20.732063 
L 202.908619 19.824921 
L 203.045385 19.623018 
L 203.182152 19.136744 
L 203.323214 19.344335 
L 203.464207 20.075167 
L 204.169379 16.492098 
L 204.733488 15.107213 
L 204.874551 15.209587 
L 205.015543 14.893935 
L 205.156605 14.876873 
L 205.43866 15.243711 
L 205.720715 17.603987 
L 206.00277 23.498989 
L 206.566879 47.073308 
L 207.408818 83.967544 
L 207.972927 100.469567 
L 208.541333 111.207968 
L 209.101146 117.437674 
L 209.524264 120.250383 
L 210.22514 122.695401 
L 210.789249 123.975353 
L 210.930241 124.037061 
L 211.071304 124.577366 
L 211.212296 124.538691 
L 211.635413 125.309335 
L 211.776476 125.393793 
L 212.058531 125.701482 
L 212.340585 125.702051 
L 212.481578 126.02083 
L 212.62264 125.768594 
L 212.763632 126.247189 
L 212.904695 125.945472 
L 213.18675 126.279608 
L 213.323516 126.317145 
L 213.464508 126.584453 
L 213.605571 126.541513 
L 214.028618 126.662939 
L 214.451735 126.557438 
L 214.592798 126.146807 
L 214.874853 123.549082 
L 215.015845 121.009652 
L 215.297899 108.419999 
L 216.285126 45.921607 
L 216.703948 33.810265 
L 217.127065 27.465958 
L 217.40912 25.023215 
L 217.691174 24.272476 
L 217.832167 24.232665 
L 218.114221 23.800421 
L 218.255284 25.03459 
L 218.537339 23.680986 
L 218.960386 20.976622 
L 219.383503 19.759516 
L 219.524565 19.418271 
L 219.810846 19.489364 
L 220.084379 19.05712 
L 220.507496 21.275211 
L 220.793777 27.337991 
L 221.075902 36.611315 
L 222.199825 85.858608 
L 222.763934 102.568222 
L 223.323818 113.076283 
L 223.751161 118.173625 
L 224.452037 123.302248 
L 225.157209 125.836558 
L 225.298201 125.832293 
L 225.725615 127.131582 
L 226.003373 127.217462 
L 226.285428 127.709707 
L 226.426491 127.499557 
L 226.986304 128.261955 
L 227.691476 128.656377 
L 227.832468 128.513623 
L 228.114523 128.681401 
L 228.255586 128.827283 
L 228.960687 128.759888 
L 229.10175 129.118479 
L 229.242813 129.07042 
L 229.524867 128.11977 
L 229.806922 124.829033 
L 229.947914 121.497632 
L 230.229969 106.70297 
L 230.935141 58.340069 
L 231.494955 39.233211 
L 231.922368 31.990293 
L 232.623244 26.828968 
L 232.764236 26.789156 
L 233.191649 26.038418 
L 233.32412 26.035574 
L 233.606175 26.942716 
L 233.888229 25.256399 
L 234.311276 24.246883 
L 234.597627 23.140682 
L 234.734394 22.952997 
L 235.298503 23.038308 
L 235.439566 23.063902 
L 235.862613 26.948403 
L 236.144667 34.424505 
L 236.990902 71.014465 
L 237.691778 96.747157 
L 237.973833 104.251696 
L 242.200428 131.142344 
L 242.482483 131.43553 
L 242.623546 131.362731 
L 242.9056 131.63914 
L 242.9056 131.63914 
" clip-path="url(#p410fac281b)" style="fill: none; stroke: #ff7f0e; stroke-width: 1.5; stroke-linecap: square"/>
   </g>
   <g id="line2d_25">
    <path d="M 67.259234 135.413021 
L 67.400226 135.623199 
L 67.541288 135.463898 
L 67.823343 135.613713 
L 67.964335 135.516782 
L 68.24639 135.141939 
L 68.391749 135.106612 
L 68.673803 135.493399 
L 68.955858 135.46156 
L 69.237913 135.339352 
L 69.374679 135.166625 
L 69.656734 135.432317 
L 69.802022 135.362193 
L 69.938789 135.479652 
L 70.084077 135.344713 
L 70.366132 135.483443 
L 70.502898 135.312729 
L 70.784953 135.249434 
L 71.067008 135.175509 
L 71.349063 135.296893 
L 71.908946 135.378558 
L 72.049939 135.23786 
L 72.191001 135.271598 
L 72.331993 135.462377 
L 72.755111 134.990048 
L 72.900399 135.313392 
L 73.742338 135.328637 
L 74.024392 135.210984 
L 74.165384 135.230259 
L 74.447439 135.077919 
L 74.588502 135.228041 
L 74.729494 135.14544 
L 74.870556 135.295707 
L 75.289378 135.184947 
L 75.571433 135.267367 
L 75.712425 135.241372 
L 75.853487 135.081445 
L 76.135542 135.251243 
L 76.840714 135.007452 
L 76.981706 135.229577 
L 77.82787 135.029206 
L 77.968933 135.214741 
L 78.250988 135.204774 
L 78.387754 134.954701 
L 78.533043 135.124527 
L 78.669809 135.082497 
L 78.815097 135.292215 
L 78.951864 134.965422 
L 79.097152 134.32118 
L 79.233919 133.116217 
L 79.515973 127.336329 
L 79.939091 112.216346 
L 80.5032 93.513863 
L 80.926317 85.505988 
L 81.349364 81.325741 
L 81.909248 78.135104 
L 82.332295 77.270617 
L 83.178459 75.413677 
L 83.460514 75.498989 
L 83.601577 75.373866 
L 83.742639 74.989965 
L 83.883632 75.208931 
L 84.024694 75.197556 
L 84.169982 74.580472 
L 84.588804 74.753938 
L 84.875154 74.489473 
L 85.007625 74.131166 
L 85.148617 74.395631 
L 85.28968 73.9577 
L 85.853789 74.26482 
L 85.999077 74.119791 
L 86.135844 74.182353 
L 86.276906 74.091354 
L 86.417899 73.593706 
L 86.699953 73.946325 
L 86.982008 74.000356 
L 87.264063 73.724516 
L 87.409351 73.977606 
L 87.546118 73.946325 
L 87.68718 73.713141 
L 87.828172 73.75011 
L 87.969235 73.295117 
L 89.093228 73.499864 
L 89.23422 73.502707 
L 89.516275 73.843952 
L 89.939393 73.295117 
L 90.080385 73.408865 
L 90.225743 73.323554 
L 90.503502 73.602237 
L 90.785557 73.607924 
L 90.926619 73.562425 
L 91.067611 73.337772 
L 91.349666 73.619299 
L 91.627495 73.306492 
L 91.768488 73.11312 
L 91.90955 73.147244 
L 92.19583 73.488489 
L 92.614652 72.968091 
L 92.896707 73.29796 
L 93.037769 73.312179 
L 93.178761 73.135869 
L 93.460886 73.602237 
L 93.601879 73.434458 
L 93.883933 73.548207 
L 94.448043 73.485645 
L 94.87116 73.204118 
L 95.007927 73.442989 
L 95.289981 73.03634 
L 95.430974 73.218337 
L 95.572036 72.945341 
L 95.713028 73.383272 
L 95.854091 72.953872 
L 95.995083 73.371897 
L 96.140442 73.164306 
L 96.281434 73.471427 
L 96.4182 73.468583 
L 96.700255 73.073308 
L 96.841318 73.391803 
L 96.986606 73.212649 
L 97.123373 73.326398 
L 97.264365 73.155775 
L 97.405427 73.181369 
L 97.828474 72.919748 
L 98.247296 73.471427 
L 98.388358 73.309335 
L 98.52935 72.894154 
L 98.670413 73.178525 
L 98.952468 73.104588 
L 99.097756 72.933966 
L 99.375585 73.246774 
L 99.520873 73.47427 
L 99.939694 72.968091 
L 100.221749 73.519769 
L 100.362741 73.406021 
L 100.503804 73.442989 
L 100.785859 73.204118 
L 100.926921 73.386115 
L 101.067913 73.366209 
L 101.208976 73.539675 
L 101.627797 73.198431 
L 101.768789 73.010746 
L 102.614954 70.471317 
L 103.320126 69.512988 
L 103.743243 69.066527 
L 103.884235 68.546128 
L 104.16629 68.716751 
L 104.589407 68.162228 
L 104.730399 68.375506 
L 104.871462 68.031418 
L 105.008229 68.304413 
L 105.149221 68.284508 
L 105.290283 67.670267 
L 105.431275 67.897764 
L 105.572338 67.738516 
L 105.717626 67.889232 
L 105.854393 67.840889 
L 105.995455 67.528082 
L 106.418502 67.593487 
L 106.559565 67.391584 
L 106.84162 67.46552 
L 106.982612 67.300585 
L 107.1279 67.31196 
L 107.546721 67.084464 
L 107.69208 67.260774 
L 107.969839 67.041808 
L 108.110901 67.255086 
L 108.251893 67.078776 
L 108.38866 67.203899 
L 108.529652 67.095839 
L 108.811777 67.303429 
L 108.952769 67.206743 
L 109.234824 67.400115 
L 109.375887 66.90531 
L 109.516879 67.110057 
L 109.657941 66.956497 
L 109.798934 67.201056 
L 110.080988 67.195368 
L 110.222051 66.865498 
L 110.363043 67.1584 
L 110.504106 66.896779 
L 110.645168 66.933747 
L 110.78616 67.212431 
L 110.927223 66.854124 
L 111.35027 66.720469 
L 111.491332 66.834218 
L 111.632325 66.475911 
L 111.769091 66.800093 
L 111.910154 66.609565 
L 112.051146 66.854124 
L 112.192209 66.75175 
L 112.333201 67.13565 
L 112.756318 66.945122 
L 112.89731 66.791562 
L 113.038373 66.959341 
L 113.179365 66.92806 
L 113.320428 66.618096 
L 113.606778 66.822843 
L 113.884537 66.808624 
L 114.307654 66.868342 
L 114.730701 66.538472 
L 115.012756 67.02759 
L 115.290585 66.862655 
L 115.431577 66.757438 
L 115.576936 66.970716 
L 115.717928 66.481598 
L 115.854695 67.050339 
L 116.282038 66.518566 
L 116.418804 66.535629 
L 116.700859 66.322351 
L 116.846147 66.612409 
L 116.982914 66.456005 
L 117.123976 66.583972 
L 117.406031 66.578284 
L 117.547023 66.777344 
L 117.688086 66.763125 
L 117.833374 66.370694 
L 117.97014 66.615252 
L 118.111203 66.299601 
L 118.256491 66.404818 
L 118.388962 66.683501 
L 118.812079 66.837061 
L 118.953071 66.3906 
L 119.094134 66.373537 
L 119.235126 66.001012 
L 119.376189 66.655064 
L 119.799235 66.478755 
L 120.08129 66.228508 
L 120.222353 66.200071 
L 120.363345 66.734688 
L 120.64547 66.541316 
L 120.786462 66.640846 
L 120.93175 66.490129 
L 121.068517 66.512879 
L 121.20958 66.271164 
L 121.491634 66.7745 
L 121.632626 66.618096 
L 121.769393 66.677814 
L 121.910456 66.532785 
L 122.337799 66.680658 
L 122.474565 66.407662 
L 122.897612 66.601034 
L 123.038675 66.293914 
L 123.179737 66.492973 
L 123.320729 66.399131 
L 123.461792 66.055042 
L 123.602784 66.020918 
L 123.748072 66.265477 
L 123.884839 66.177322 
L 124.307956 66.342257 
L 124.590011 66.245571 
L 124.876362 66.655064 
L 125.017354 66.288226 
L 125.290887 66.365006 
L 125.431879 66.456005 
L 125.572942 66.151728 
L 125.854996 66.680658 
L 126.282339 66.54416 
L 126.419106 66.188697 
L 126.701161 66.288226 
L 126.842223 66.569753 
L 127.124278 66.384912 
L 127.26527 66.427568 
L 127.406333 66.128979 
L 127.547325 66.245571 
L 127.688388 66.057886 
L 127.970442 66.21429 
L 128.111505 65.98395 
L 128.252497 66.350788 
L 128.389264 66.092011 
L 128.671318 66.219977 
L 128.812381 66.464536 
L 129.094436 66.128979 
L 129.235428 66.507192 
L 129.658545 66.066417 
L 129.799537 66.202915 
L 130.645772 65.742235 
L 131.068819 66.055042 
L 132.056046 65.93845 
L 132.192812 65.935607 
L 132.474867 65.472083 
L 132.897914 65.978262 
L 133.038976 66.194384 
L 133.321031 65.665455 
L 133.744149 65.70811 
L 133.885141 65.617112 
L 134.167195 65.915701 
L 134.308258 65.875889 
L 134.590313 66.06073 
L 134.872367 65.878733 
L 135.01343 65.924232 
L 135.154422 65.779203 
L 135.291189 65.88442 
L 135.432181 65.838921 
L 135.573244 66.012387 
L 135.859594 65.406678 
L 136.137353 65.892951 
L 136.278416 65.728016 
L 136.419408 65.867358 
L 136.701463 65.466395 
L 136.983517 65.847452 
L 137.12458 65.750766 
L 137.406635 65.995325 
L 137.970744 65.691048 
L 138.111807 65.819015 
L 138.393861 65.571612 
L 138.67162 65.836077 
L 138.812683 65.383928 
L 138.953675 65.673986 
L 139.240026 65.318523 
L 139.376792 65.628487 
L 139.517784 65.472083 
L 139.799839 65.696735 
L 139.940902 65.483458 
L 140.081894 65.75361 
L 140.222956 65.537488 
L 140.364019 65.767828 
L 140.505011 65.625643 
L 140.646074 65.642705 
L 140.787066 65.853139 
L 140.928129 65.787734 
L 141.069121 65.457864 
L 141.351175 65.665455 
L 141.492238 65.309992 
L 141.911059 65.341272 
L 142.334106 65.204774 
L 142.757224 65.702423 
L 142.898216 65.47777 
L 143.180341 65.747922 
L 143.607684 65.329897 
L 143.74445 65.679673 
L 144.167497 65.315679 
L 144.449552 65.327054 
L 144.590615 65.221837 
L 144.731607 65.449333 
L 144.876965 65.364022 
L 145.150428 65.50052 
L 145.432483 65.073964 
L 145.573545 65.472083 
L 145.714608 65.068277 
L 145.8556 65.096714 
L 145.996663 65.008559 
L 146.282943 65.17065 
L 146.564998 65.489145 
L 146.701764 65.255961 
L 146.842827 65.383928 
L 146.983819 65.349803 
L 147.265874 65.435115 
L 147.406936 65.32421 
L 147.547999 65.480614 
L 147.688991 65.264492 
L 147.975342 65.594362 
L 148.394163 65.335585 
L 148.53093 65.543175 
L 148.812985 65.150744 
L 149.095039 65.480614 
L 149.236031 65.096714 
L 149.377094 65.329897 
L 149.518086 65.329897 
L 149.659149 64.891967 
L 149.800141 65.335585 
L 149.941204 65.187712 
L 150.082196 64.758313 
L 150.223258 65.153588 
L 150.364321 65.119463 
L 150.505313 65.210462 
L 150.646376 65.108088 
L 151.210485 65.261649 
L 151.351477 65.455021 
L 151.496836 65.173494 
L 151.633532 65.315679 
L 151.770299 65.039839 
L 151.911361 65.264492 
L 152.193416 65.1479 
L 152.334408 65.036996 
L 152.757525 65.125151 
L 152.898588 65.383928 
L 153.03958 65.196243 
L 153.180643 65.290086 
L 153.321635 64.880592 
L 153.462697 65.22468 
L 153.60369 64.775375 
L 153.744752 64.715657 
L 154.026807 65.034152 
L 154.731909 65.079651 
L 154.872971 64.746938 
L 155.014034 64.931779 
L 155.15073 64.84078 
L 155.291793 64.582003 
L 155.573847 64.829405 
L 155.855902 64.718501 
L 156.283245 64.928935 
L 156.420011 64.951685 
L 156.561074 64.809499 
L 156.702066 64.906185 
L 156.984121 64.775375 
L 157.407238 64.269195 
L 157.548301 64.30332 
L 157.830356 64.607596 
L 157.971348 64.559253 
L 158.253402 64.965903 
L 158.394465 64.775375 
L 158.531232 65.011402 
L 158.672224 64.803812 
L 158.954279 64.846468 
L 159.095341 64.988653 
L 159.236333 64.957372 
L 159.800443 64.323226 
L 159.941505 64.775375 
L 160.082498 64.252133 
L 160.505615 64.832249 
L 160.646677 64.829405 
L 160.928732 64.536504 
L 161.069724 65.113776 
L 161.492842 64.530816 
L 161.633834 64.636033 
L 161.774896 64.909029 
L 162.056951 64.698595 
L 162.193718 64.798125 
L 162.33471 64.559253 
L 162.475772 64.758313 
L 162.757827 64.616127 
L 163.039882 64.852155 
L 163.180945 64.94031 
L 163.321937 64.837936 
L 163.462999 64.436974 
L 163.608287 64.695751 
L 164.027109 64.505223 
L 164.168101 64.593378 
L 164.309164 64.539347 
L 164.73221 65.059745 
L 164.873273 64.820874 
L 165.014336 64.926091 
L 165.151032 64.81803 
L 165.433087 64.860686 
L 165.715212 64.772531 
L 165.8605 65.002871 
L 165.997266 64.891967 
L 166.138259 64.960216 
L 166.702368 64.744094 
L 167.125485 64.854999 
L 167.548603 65.449333 
L 167.689595 65.327054 
L 168.253704 65.65408 
L 168.676822 65.813327 
L 168.813588 65.949825 
L 168.95458 65.864514 
L 169.099869 65.952669 
L 169.236635 66.276851 
L 169.51869 65.958356 
L 169.659752 66.077792 
L 169.800745 66.043668 
L 169.941807 66.128979 
L 170.223862 65.9612 
L 170.364925 66.197228 
L 170.505917 66.154572 
L 170.646979 65.944138 
L 170.929034 66.447474 
L 171.070026 66.131822 
L 171.352081 66.148885 
L 171.493143 66.578284 
L 172.19402 66.416193 
L 172.335012 66.256945 
L 172.617066 66.293914 
L 172.899192 66.612409 
L 173.040184 66.333726 
L 173.181246 66.589659 
L 173.322239 66.572597 
L 173.463301 66.23704 
L 173.886348 66.524254 
L 174.027411 66.717626 
L 174.168403 66.427568 
L 174.313761 66.512879 
L 174.450458 66.791562 
L 174.736808 66.393443 
L 175.014637 66.524254 
L 175.15563 66.549847 
L 175.292396 66.709095 
L 175.433459 66.490129 
L 175.574451 66.507192 
L 175.715514 66.788718 
L 176.13856 66.541316 
L 176.279623 66.308132 
L 176.420615 66.700564 
L 176.561678 66.581128 
L 176.70267 66.609565 
L 176.843732 66.274008 
L 177.548905 66.859811 
L 178.254006 66.555535 
L 178.399294 66.663595 
L 178.81389 66.52141 
L 178.954882 66.615252 
L 179.095945 66.515723 
L 179.660054 66.871186 
L 179.801046 66.709095 
L 180.365226 66.90531 
L 180.788273 66.538472 
L 180.929336 66.711938 
L 181.352383 66.606721 
L 181.7755 66.780187 
L 182.057555 66.785875 
L 182.194321 66.891092 
L 182.617368 66.79725 
L 182.758431 66.936591 
L 182.899493 66.754594 
L 183.040486 66.822843 
L 183.181548 66.729001 
L 183.32254 66.854124 
L 183.463603 67.152713 
L 183.604595 66.859811 
L 183.745658 67.038965 
L 183.88665 66.984934 
L 184.027712 66.657908 
L 184.309767 67.021902 
L 184.591822 66.663595 
L 184.732885 67.033277 
L 185.155931 66.652221 
L 185.433761 67.061714 
L 185.579049 67.010527 
L 185.715815 67.129963 
L 186.002096 66.984934 
L 186.138862 67.092995 
L 186.28415 66.737532 
L 186.56198 67.144182 
L 186.702972 67.249399 
L 186.844034 66.90531 
L 186.985026 67.064558 
L 187.126089 66.999153 
L 187.549206 67.147025 
L 187.694494 67.13565 
L 187.831261 67.292054 
L 187.972253 66.970716 
L 188.395371 67.445614 
L 188.536363 67.383053 
L 188.814192 66.973559 
L 188.955184 67.397271 
L 189.096247 66.854124 
L 189.237239 67.030433 
L 189.378301 67.016215 
L 189.519294 67.385897 
L 189.660356 67.274992 
L 189.942411 67.274992 
L 190.228762 67.201056 
L 190.365528 67.394428 
L 191.07063 70.912091 
L 191.352685 73.889451 
L 191.775802 81.66983 
L 192.758733 103.736985 
L 193.463905 114.280308 
L 194.028014 118.82654 
L 194.592124 121.364831 
L 194.874178 122.248655 
L 195.019467 122.156803 
L 195.156233 122.817965 
L 195.998172 123.370212 
L 196.280227 123.744729 
L 196.562281 123.622449 
L 196.703274 123.90227 
L 197.408446 123.742454 
L 197.694796 124.111851 
L 197.831563 124.188062 
L 198.113618 123.878383 
L 198.25461 123.901701 
L 198.395672 124.154506 
L 198.673431 123.758947 
L 198.814494 123.743307 
L 199.096549 123.935257 
L 199.237541 124.397075 
L 199.378603 124.1619 
L 199.523891 124.254605 
L 199.660658 124.022843 
L 200.647885 123.996112 
L 201.070932 121.673089 
L 201.357282 116.663333 
L 201.635041 103.446927 
L 202.47698 49.425052 
L 202.900097 36.958247 
L 203.323144 30.895467 
L 203.605199 30.048042 
L 203.750487 29.974106 
L 204.451363 26.840343 
L 205.015543 24.110385 
L 205.156535 24.002324 
L 205.434364 23.422208 
L 205.575356 23.115088 
L 205.716419 22.506535 
L 206.139466 23.268648 
L 206.571105 25.623237 
L 206.707871 26.809062 
L 207.130989 35.257711 
L 207.54981 49.598518 
L 208.814796 93.107213 
L 209.378905 105.920951 
L 209.943015 113.817352 
L 210.366132 116.993487 
L 210.648187 118.895357 
L 211.353288 121.503035 
L 212.054164 122.90612 
L 212.195227 123.029821 
L 212.336219 123.385853 
L 212.477282 123.374194 
L 212.759336 123.630127 
L 212.900399 124.019715 
L 213.182454 124.10787 
L 213.746563 124.63623 
L 214.028618 124.632249 
L 214.16961 124.763628 
L 214.310673 124.473855 
L 214.451735 124.890742 
L 214.73379 125.007618 
L 214.874782 125.367347 
L 215.161133 125.253314 
L 215.297899 125.444127 
L 215.434666 124.937379 
L 215.716721 122.362688 
L 215.998776 115.11721 
L 216.421822 88.144947 
L 216.985932 52.94556 
L 217.409049 39.944138 
L 217.832167 32.868998 
L 218.118447 31.22818 
L 218.396276 30.628158 
L 218.537268 30.758969 
L 218.674035 30.323882 
L 218.95609 30.161791 
L 219.661262 26.843186 
L 219.802324 26.811906 
L 220.084379 25.808077 
L 220.225371 26.095292 
L 220.648488 25.680111 
L 220.789481 25.970169 
L 220.930543 26.561659 
L 221.494653 31.75711 
L 221.91777 41.883545 
L 222.477584 61.542082 
L 223.605802 98.567128 
L 224.169912 110.401778 
L 224.734092 117.805649 
L 225.157139 121.235443 
L 225.57596 122.920338 
L 225.717023 123.913929 
L 225.858015 124.08967 
L 226.14007 124.918326 
L 226.422124 125.613612 
L 226.986234 126.576206 
L 227.131592 126.670902 
L 227.413647 127.142388 
L 227.550414 127.135563 
L 227.973461 127.57065 
L 228.114523 127.57065 
L 228.255515 127.736154 
L 228.396578 127.493301 
L 228.678633 128.027633 
L 228.815399 128.087636 
L 228.956391 128.019102 
L 229.097454 128.246599 
L 229.238446 128.187734 
L 229.379509 127.93891 
L 229.520501 128.357788 
L 229.661563 128.414662 
L 229.802626 128.134557 
L 229.947914 128.132282 
L 230.225673 128.512485 
L 230.366736 128.243471 
L 230.507728 127.704873 
L 230.789782 124.494329 
L 230.930845 121.380472 
L 231.2129 107.693148 
L 232.054768 53.53705 
L 232.477885 40.845593 
L 232.901003 34.05198 
L 233.183057 32.411162 
L 233.747167 31.219649 
L 234.170214 30.707782 
L 234.879682 27.676392 
L 235.157441 27.181587 
L 235.298503 27.113338 
L 235.439495 26.729438 
L 235.72155 26.857405 
L 236.281434 29.322898 
L 236.563489 32.092667 
L 236.986606 41.172619 
L 237.550716 60.947747 
L 238.401176 91.309992 
L 239.102052 109.874555 
L 239.802928 120.300432 
L 240.367037 124.90496 
L 241.354194 128.85373 
L 241.636319 128.866811 
L 241.922599 129.374697 
L 242.059366 129.873198 
L 242.341421 129.983819 
L 242.61925 130.335585 
L 242.901305 130.375112 
L 243.324351 130.860817 
L 243.465414 131.181303 
L 243.606406 130.943569 
L 243.606406 130.943569 
" clip-path="url(#p410fac281b)" style="fill: none; stroke: #2ca02c; stroke-width: 1.5; stroke-linecap: square"/>
   </g>
   <g id="patch_3">
    <path d="M 58.441875 141.968212 
L 58.441875 8.824905 
" style="fill: none; stroke: #000000; stroke-width: 0.8; stroke-linejoin: miter; stroke-linecap: square"/>
   </g>
   <g id="patch_4">
    <path d="M 252.423765 141.968212 
L 252.423765 8.824905 
" style="fill: none; stroke: #000000; stroke-width: 0.8; stroke-linejoin: miter; stroke-linecap: square"/>
   </g>
   <g id="patch_5">
    <path d="M 58.441875 141.968212 
L 252.423765 141.968212 
" style="fill: none; stroke: #000000; stroke-width: 0.8; stroke-linejoin: miter; stroke-linecap: square"/>
   </g>
   <g id="patch_6">
    <path d="M 58.441875 8.824905 
L 252.423765 8.824905 
" style="fill: none; stroke: #000000; stroke-width: 0.8; stroke-linejoin: miter; stroke-linecap: square"/>
   </g>
   <g id="text_14">
    <!-- PBS-10X -->
    <g transform="translate(82.038912 135.58248) rotate(-45) scale(0.06 -0.06)">
     <defs>
      <path id="DejaVuSans-50" d="M 1259 4147 
L 1259 2394 
L 2053 2394 
Q 2494 2394 2734 2622 
Q 2975 2850 2975 3272 
Q 2975 3691 2734 3919 
Q 2494 4147 2053 4147 
L 1259 4147 
z
M 628 4666 
L 2053 4666 
Q 2838 4666 3239 4311 
Q 3641 3956 3641 3272 
Q 3641 2581 3239 2228 
Q 2838 1875 2053 1875 
L 1259 1875 
L 1259 0 
L 628 0 
L 628 4666 
z
" transform="scale(0.015625)"/>
      <path id="DejaVuSans-42" d="M 1259 2228 
L 1259 519 
L 2272 519 
Q 2781 519 3026 730 
Q 3272 941 3272 1375 
Q 3272 1813 3026 2020 
Q 2781 2228 2272 2228 
L 1259 2228 
z
M 1259 4147 
L 1259 2741 
L 2194 2741 
Q 2656 2741 2882 2914 
Q 3109 3088 3109 3444 
Q 3109 3797 2882 3972 
Q 2656 4147 2194 4147 
L 1259 4147 
z
M 628 4666 
L 2241 4666 
Q 2963 4666 3353 4366 
Q 3744 4066 3744 3513 
Q 3744 3084 3544 2831 
Q 3344 2578 2956 2516 
Q 3422 2416 3680 2098 
Q 3938 1781 3938 1306 
Q 3938 681 3513 340 
Q 3088 0 2303 0 
L 628 0 
L 628 4666 
z
" transform="scale(0.015625)"/>
      <path id="DejaVuSans-53" d="M 3425 4513 
L 3425 3897 
Q 3066 4069 2747 4153 
Q 2428 4238 2131 4238 
Q 1616 4238 1336 4038 
Q 1056 3838 1056 3469 
Q 1056 3159 1242 3001 
Q 1428 2844 1947 2747 
L 2328 2669 
Q 3034 2534 3370 2195 
Q 3706 1856 3706 1288 
Q 3706 609 3251 259 
Q 2797 -91 1919 -91 
Q 1588 -91 1214 -16 
Q 841 59 441 206 
L 441 856 
Q 825 641 1194 531 
Q 1563 422 1919 422 
Q 2459 422 2753 634 
Q 3047 847 3047 1241 
Q 3047 1584 2836 1778 
Q 2625 1972 2144 2069 
L 1759 2144 
Q 1053 2284 737 2584 
Q 422 2884 422 3419 
Q 422 4038 858 4394 
Q 1294 4750 2059 4750 
Q 2388 4750 2728 4690 
Q 3069 4631 3425 4513 
z
" transform="scale(0.015625)"/>
      <path id="DejaVuSans-2d" d="M 313 2009 
L 1997 2009 
L 1997 1497 
L 313 1497 
L 313 2009 
z
" transform="scale(0.015625)"/>
      <path id="DejaVuSans-58" d="M 403 4666 
L 1081 4666 
L 2241 2931 
L 3406 4666 
L 4084 4666 
L 2584 2425 
L 4184 0 
L 3506 0 
L 2194 1984 
L 872 0 
L 191 0 
L 1856 2491 
L 403 4666 
z
" transform="scale(0.015625)"/>
     </defs>
     <use xlink:href="#DejaVuSans-50"/>
     <use xlink:href="#DejaVuSans-42" x="60.302734"/>
     <use xlink:href="#DejaVuSans-53" x="127.15625"/>
     <use xlink:href="#DejaVuSans-2d" x="190.632812"/>
     <use xlink:href="#DejaVuSans-31" x="226.716797"/>
     <use xlink:href="#DejaVuSans-30" x="290.339844"/>
     <use xlink:href="#DejaVuSans-58" x="353.962891"/>
    </g>
   </g>
   <g id="text_15">
    <!-- BIOTIN 3.74 -->
    <g transform="translate(104.714775 73.922213) rotate(-45) scale(0.06 -0.06)">
     <defs>
      <path id="DejaVuSans-4f" d="M 2522 4238 
Q 1834 4238 1429 3725 
Q 1025 3213 1025 2328 
Q 1025 1447 1429 934 
Q 1834 422 2522 422 
Q 3209 422 3611 934 
Q 4013 1447 4013 2328 
Q 4013 3213 3611 3725 
Q 3209 4238 2522 4238 
z
M 2522 4750 
Q 3503 4750 4090 4092 
Q 4678 3434 4678 2328 
Q 4678 1225 4090 567 
Q 3503 -91 2522 -91 
Q 1538 -91 948 565 
Q 359 1222 359 2328 
Q 359 3434 948 4092 
Q 1538 4750 2522 4750 
z
" transform="scale(0.015625)"/>
      <path id="DejaVuSans-4e" d="M 628 4666 
L 1478 4666 
L 3547 763 
L 3547 4666 
L 4159 4666 
L 4159 0 
L 3309 0 
L 1241 3903 
L 1241 0 
L 628 0 
L 628 4666 
z
" transform="scale(0.015625)"/>
      <path id="DejaVuSans-37" d="M 525 4666 
L 3525 4666 
L 3525 4397 
L 1831 0 
L 1172 0 
L 2766 4134 
L 525 4134 
L 525 4666 
z
" transform="scale(0.015625)"/>
     </defs>
     <use xlink:href="#DejaVuSans-42"/>
     <use xlink:href="#DejaVuSans-49" x="68.603516"/>
     <use xlink:href="#DejaVuSans-4f" x="98.095703"/>
     <use xlink:href="#DejaVuSans-54" x="176.806641"/>
     <use xlink:href="#DejaVuSans-49" x="237.890625"/>
     <use xlink:href="#DejaVuSans-4e" x="267.382812"/>
     <use xlink:href="#DejaVuSans-20" x="342.1875"/>
     <use xlink:href="#DejaVuSans-33" x="373.974609"/>
     <use xlink:href="#DejaVuSans-2e" x="437.597656"/>
     <use xlink:href="#DejaVuSans-37" x="469.384766"/>
     <use xlink:href="#DejaVuSans-34" x="533.007812"/>
    </g>
   </g>
   <g id="text_16">
    <!-- PBS-10X -->
    <g transform="translate(171.477519 64.793919) rotate(-45) scale(0.06 -0.06)">
     <use xlink:href="#DejaVuSans-50"/>
     <use xlink:href="#DejaVuSans-42" x="60.302734"/>
     <use xlink:href="#DejaVuSans-53" x="127.15625"/>
     <use xlink:href="#DejaVuSans-2d" x="190.632812"/>
     <use xlink:href="#DejaVuSans-31" x="226.716797"/>
     <use xlink:href="#DejaVuSans-30" x="290.339844"/>
     <use xlink:href="#DejaVuSans-58" x="353.962891"/>
    </g>
   </g>
   <g id="text_17">
    <!-- H20 -->
    <g transform="translate(194.435436 67.799715) rotate(-45) scale(0.06 -0.06)">
     <defs>
      <path id="DejaVuSans-48" d="M 628 4666 
L 1259 4666 
L 1259 2753 
L 3553 2753 
L 3553 4666 
L 4184 4666 
L 4184 0 
L 3553 0 
L 3553 2222 
L 1259 2222 
L 1259 0 
L 628 0 
L 628 4666 
z
" transform="scale(0.015625)"/>
     </defs>
     <use xlink:href="#DejaVuSans-48"/>
     <use xlink:href="#DejaVuSans-32" x="75.195312"/>
     <use xlink:href="#DejaVuSans-30" x="138.818359"/>
    </g>
   </g>
   <g id="text_18">
    <!-- hiPo1X -->
    <g transform="translate(203.452807 124.850705) rotate(-45) scale(0.06 -0.06)">
     <defs>
      <path id="DejaVuSans-68" d="M 3513 2113 
L 3513 0 
L 2938 0 
L 2938 2094 
Q 2938 2591 2744 2837 
Q 2550 3084 2163 3084 
Q 1697 3084 1428 2787 
Q 1159 2491 1159 1978 
L 1159 0 
L 581 0 
L 581 4863 
L 1159 4863 
L 1159 2956 
Q 1366 3272 1645 3428 
Q 1925 3584 2291 3584 
Q 2894 3584 3203 3211 
Q 3513 2838 3513 2113 
z
" transform="scale(0.015625)"/>
     </defs>
     <use xlink:href="#DejaVuSans-68"/>
     <use xlink:href="#DejaVuSans-69" x="63.378906"/>
     <use xlink:href="#DejaVuSans-50" x="91.162109"/>
     <use xlink:href="#DejaVuSans-6f" x="147.839844"/>
     <use xlink:href="#DejaVuSans-31" x="209.021484"/>
     <use xlink:href="#DejaVuSans-58" x="272.644531"/>
    </g>
   </g>
   <g id="text_19">
    <!-- H20 -->
    <g transform="translate(208.803396 19.1951) rotate(-45) scale(0.06 -0.06)">
     <use xlink:href="#DejaVuSans-48"/>
     <use xlink:href="#DejaVuSans-32" x="75.195312"/>
     <use xlink:href="#DejaVuSans-30" x="138.818359"/>
    </g>
   </g>
   <g id="text_20">
    <!-- hiPo1X -->
    <g transform="translate(218.239589 124.806912) rotate(-45) scale(0.06 -0.06)">
     <use xlink:href="#DejaVuSans-68"/>
     <use xlink:href="#DejaVuSans-69" x="63.378906"/>
     <use xlink:href="#DejaVuSans-50" x="91.162109"/>
     <use xlink:href="#DejaVuSans-6f" x="147.839844"/>
     <use xlink:href="#DejaVuSans-31" x="209.021484"/>
     <use xlink:href="#DejaVuSans-58" x="272.644531"/>
    </g>
   </g>
   <g id="text_21">
    <!-- H20 -->
    <g transform="translate(223.590178 19.013103) rotate(-45) scale(0.06 -0.06)">
     <use xlink:href="#DejaVuSans-48"/>
     <use xlink:href="#DejaVuSans-32" x="75.195312"/>
     <use xlink:href="#DejaVuSans-30" x="138.818359"/>
    </g>
   </g>
   <g id="text_22">
    <!-- hiPo1X -->
    <g transform="translate(233.034892 127.459521) rotate(-45) scale(0.06 -0.06)">
     <use xlink:href="#DejaVuSans-68"/>
     <use xlink:href="#DejaVuSans-69" x="63.378906"/>
     <use xlink:href="#DejaVuSans-50" x="91.162109"/>
     <use xlink:href="#DejaVuSans-6f" x="147.839844"/>
     <use xlink:href="#DejaVuSans-31" x="209.021484"/>
     <use xlink:href="#DejaVuSans-58" x="272.644531"/>
    </g>
   </g>
   <g id="text_23">
    <!-- H20 -->
    <g transform="translate(238.804302 24.430362) rotate(-45) scale(0.06 -0.06)">
     <use xlink:href="#DejaVuSans-48"/>
     <use xlink:href="#DejaVuSans-32" x="75.195312"/>
     <use xlink:href="#DejaVuSans-30" x="138.818359"/>
    </g>
   </g>
   <g id="legend_1">
    <g id="patch_7">
     <path d="M 62.641875 40.04553 
L 98.717812 40.04553 
Q 99.917812 40.04553 99.917812 38.84553 
L 99.917812 13.024905 
Q 99.917812 11.824905 98.717812 11.824905 
L 62.641875 11.824905 
Q 61.441875 11.824905 61.441875 13.024905 
L 61.441875 38.84553 
Q 61.441875 40.04553 62.641875 40.04553 
z
" style="fill: #ffffff; opacity: 0.8; stroke: #cccccc; stroke-linejoin: miter"/>
    </g>
    <g id="line2d_26">
     <path d="M 63.841875 16.683967 
L 69.841875 16.683967 
L 75.841875 16.683967 
" style="fill: none; stroke: #1f77b4; stroke-width: 1.5; stroke-linecap: square"/>
    </g>
    <g id="text_24">
     <!-- Exp 1 -->
     <g transform="translate(80.641875 18.783967) scale(0.06 -0.06)">
      <defs>
       <path id="DejaVuSans-45" d="M 628 4666 
L 3578 4666 
L 3578 4134 
L 1259 4134 
L 1259 2753 
L 3481 2753 
L 3481 2222 
L 1259 2222 
L 1259 531 
L 3634 531 
L 3634 0 
L 628 0 
L 628 4666 
z
" transform="scale(0.015625)"/>
       <path id="DejaVuSans-70" d="M 1159 525 
L 1159 -1331 
L 581 -1331 
L 581 3500 
L 1159 3500 
L 1159 2969 
Q 1341 3281 1617 3432 
Q 1894 3584 2278 3584 
Q 2916 3584 3314 3078 
Q 3713 2572 3713 1747 
Q 3713 922 3314 415 
Q 2916 -91 2278 -91 
Q 1894 -91 1617 61 
Q 1341 213 1159 525 
z
M 3116 1747 
Q 3116 2381 2855 2742 
Q 2594 3103 2138 3103 
Q 1681 3103 1420 2742 
Q 1159 2381 1159 1747 
Q 1159 1113 1420 752 
Q 1681 391 2138 391 
Q 2594 391 2855 752 
Q 3116 1113 3116 1747 
z
" transform="scale(0.015625)"/>
      </defs>
      <use xlink:href="#DejaVuSans-45"/>
      <use xlink:href="#DejaVuSans-78" x="63.183594"/>
      <use xlink:href="#DejaVuSans-70" x="122.363281"/>
      <use xlink:href="#DejaVuSans-20" x="185.839844"/>
      <use xlink:href="#DejaVuSans-31" x="217.626953"/>
     </g>
    </g>
    <g id="line2d_27">
     <path d="M 63.841875 25.490842 
L 69.841875 25.490842 
L 75.841875 25.490842 
" style="fill: none; stroke: #ff7f0e; stroke-width: 1.5; stroke-linecap: square"/>
    </g>
    <g id="text_25">
     <!-- Exp 2 -->
     <g transform="translate(80.641875 27.590842) scale(0.06 -0.06)">
      <use xlink:href="#DejaVuSans-45"/>
      <use xlink:href="#DejaVuSans-78" x="63.183594"/>
      <use xlink:href="#DejaVuSans-70" x="122.363281"/>
      <use xlink:href="#DejaVuSans-20" x="185.839844"/>
      <use xlink:href="#DejaVuSans-32" x="217.626953"/>
     </g>
    </g>
    <g id="line2d_28">
     <path d="M 63.841875 34.297717 
L 69.841875 34.297717 
L 75.841875 34.297717 
" style="fill: none; stroke: #2ca02c; stroke-width: 1.5; stroke-linecap: square"/>
    </g>
    <g id="text_26">
     <!-- Exp 3 -->
     <g transform="translate(80.641875 36.397717) scale(0.06 -0.06)">
      <use xlink:href="#DejaVuSans-45"/>
      <use xlink:href="#DejaVuSans-78" x="63.183594"/>
      <use xlink:href="#DejaVuSans-70" x="122.363281"/>
      <use xlink:href="#DejaVuSans-20" x="185.839844"/>
      <use xlink:href="#DejaVuSans-33" x="217.626953"/>
     </g>
    </g>
   </g>
  </g>
 </g>
 <defs>
  <clipPath id="p410fac281b">
   <rect x="58.441875" y="8.824905" width="193.98189" height="133.143307"/>
  </clipPath>
 </defs>
</svg>
