<?xml version="1.0" encoding="utf-8" standalone="no"?>
<!DOCTYPE svg PUBLIC "-//W3C//DTD SVG 1.1//EN"
  "http://www.w3.org/Graphics/SVG/1.1/DTD/svg11.dtd">
<svg xmlns:xlink="http://www.w3.org/1999/xlink" width="257.803765pt" height="178.525495pt" viewBox="0 0 257.803765 178.525495" xmlns="http://www.w3.org/2000/svg" version="1.1">
 <metadata>
  <rdf:RDF xmlns:dc="http://purl.org/dc/elements/1.1/" xmlns:cc="http://creativecommons.org/ns#" xmlns:rdf="http://www.w3.org/1999/02/22-rdf-syntax-ns#">
   <cc:Work>
    <dc:type rdf:resource="http://purl.org/dc/dcmitype/StillImage"/>
    <dc:date>2025-09-03T17:20:35.560041</dc:date>
    <dc:format>image/svg+xml</dc:format>
    <dc:creator>
     <cc:Agent>
      <dc:title>Matplotlib v3.9.2, https://matplotlib.org/</dc:title>
     </cc:Agent>
    </dc:creator>
   </cc:Work>
  </rdf:RDF>
 </metadata>
 <defs>
  <style type="text/css">*{stroke-linejoin: round; stroke-linecap: butt}</style>
 </defs>
 <g id="figure_1">
  <g id="patch_1">
   <path d="M 0 178.525495 
L 257.803765 178.525495 
L 257.803765 0 
L 0 0 
L 0 178.525495 
z
" style="fill: none"/>
  </g>
  <g id="axes_1">
   <g id="patch_2">
    <path d="M 56.621875 140.343307 
L 250.603765 140.343307 
L 250.603765 7.2 
L 56.621875 7.2 
L 56.621875 140.343307 
z
" style="fill: none"/>
   </g>
   <g id="matplotlib.axis_1">
    <g id="xtick_1">
     <g id="line2d_1">
      <path d="M 65.439234 140.343307 
L 65.439234 7.2 
" clip-path="url(#p737c8cacaf)" style="fill: none; stroke: #b0b0b0; stroke-width: 0.8; stroke-linecap: square"/>
     </g>
     <g id="line2d_2">
      <defs>
       <path id="mb2445ef475" d="M 0 0 
L 0 3.5 
" style="stroke: #000000; stroke-width: 0.8"/>
      </defs>
      <g>
       <use xlink:href="#mb2445ef475" x="65.439234" y="140.343307" style="stroke: #000000; stroke-width: 0.8"/>
      </g>
     </g>
     <g id="text_1">
      <!-- 0 -->
      <g transform="translate(62.939234 154.287057) scale(0.1 -0.1)">
       <defs>
        <path id="TimesNewRomanPSMT-30" d="M 231 2094 
Q 231 2819 450 3342 
Q 669 3866 1031 4122 
Q 1313 4325 1613 4325 
Q 2100 4325 2488 3828 
Q 2972 3213 2972 2159 
Q 2972 1422 2759 906 
Q 2547 391 2217 158 
Q 1888 -75 1581 -75 
Q 975 -75 572 641 
Q 231 1244 231 2094 
z
M 844 2016 
Q 844 1141 1059 588 
Q 1238 122 1591 122 
Q 1759 122 1940 273 
Q 2122 425 2216 781 
Q 2359 1319 2359 2297 
Q 2359 3022 2209 3506 
Q 2097 3866 1919 4016 
Q 1791 4119 1609 4119 
Q 1397 4119 1231 3928 
Q 1006 3669 925 3112 
Q 844 2556 844 2016 
z
" transform="scale(0.015625)"/>
       </defs>
       <use xlink:href="#TimesNewRomanPSMT-30"/>
      </g>
     </g>
    </g>
    <g id="xtick_2">
     <g id="line2d_3">
      <path d="M 102.64371 140.343307 
L 102.64371 7.2 
" clip-path="url(#p737c8cacaf)" style="fill: none; stroke: #b0b0b0; stroke-width: 0.8; stroke-linecap: square"/>
     </g>
     <g id="line2d_4">
      <g>
       <use xlink:href="#mb2445ef475" x="102.64371" y="140.343307" style="stroke: #000000; stroke-width: 0.8"/>
      </g>
     </g>
     <g id="text_2">
      <!-- 200 -->
      <g transform="translate(95.14371 154.287057) scale(0.1 -0.1)">
       <defs>
        <path id="TimesNewRomanPSMT-32" d="M 2934 816 
L 2638 0 
L 138 0 
L 138 116 
Q 1241 1122 1691 1759 
Q 2141 2397 2141 2925 
Q 2141 3328 1894 3587 
Q 1647 3847 1303 3847 
Q 991 3847 742 3664 
Q 494 3481 375 3128 
L 259 3128 
Q 338 3706 661 4015 
Q 984 4325 1469 4325 
Q 1984 4325 2329 3994 
Q 2675 3663 2675 3213 
Q 2675 2891 2525 2569 
Q 2294 2063 1775 1497 
Q 997 647 803 472 
L 1909 472 
Q 2247 472 2383 497 
Q 2519 522 2628 598 
Q 2738 675 2819 816 
L 2934 816 
z
" transform="scale(0.015625)"/>
       </defs>
       <use xlink:href="#TimesNewRomanPSMT-32"/>
       <use xlink:href="#TimesNewRomanPSMT-30" x="50"/>
       <use xlink:href="#TimesNewRomanPSMT-30" x="100"/>
      </g>
     </g>
    </g>
    <g id="xtick_3">
     <g id="line2d_5">
      <path d="M 139.848187 140.343307 
L 139.848187 7.2 
" clip-path="url(#p737c8cacaf)" style="fill: none; stroke: #b0b0b0; stroke-width: 0.8; stroke-linecap: square"/>
     </g>
     <g id="line2d_6">
      <g>
       <use xlink:href="#mb2445ef475" x="139.848187" y="140.343307" style="stroke: #000000; stroke-width: 0.8"/>
      </g>
     </g>
     <g id="text_3">
      <!-- 400 -->
      <g transform="translate(132.348187 154.287057) scale(0.1 -0.1)">
       <defs>
        <path id="TimesNewRomanPSMT-34" d="M 2978 1563 
L 2978 1119 
L 2409 1119 
L 2409 0 
L 1894 0 
L 1894 1119 
L 100 1119 
L 100 1519 
L 2066 4325 
L 2409 4325 
L 2409 1563 
L 2978 1563 
z
M 1894 1563 
L 1894 3666 
L 406 1563 
L 1894 1563 
z
" transform="scale(0.015625)"/>
       </defs>
       <use xlink:href="#TimesNewRomanPSMT-34"/>
       <use xlink:href="#TimesNewRomanPSMT-30" x="50"/>
       <use xlink:href="#TimesNewRomanPSMT-30" x="100"/>
      </g>
     </g>
    </g>
    <g id="xtick_4">
     <g id="line2d_7">
      <path d="M 177.052663 140.343307 
L 177.052663 7.2 
" clip-path="url(#p737c8cacaf)" style="fill: none; stroke: #b0b0b0; stroke-width: 0.8; stroke-linecap: square"/>
     </g>
     <g id="line2d_8">
      <g>
       <use xlink:href="#mb2445ef475" x="177.052663" y="140.343307" style="stroke: #000000; stroke-width: 0.8"/>
      </g>
     </g>
     <g id="text_4">
      <!-- 600 -->
      <g transform="translate(169.552663 154.287057) scale(0.1 -0.1)">
       <defs>
        <path id="TimesNewRomanPSMT-36" d="M 2869 4325 
L 2869 4209 
Q 2456 4169 2195 4045 
Q 1934 3922 1679 3669 
Q 1425 3416 1258 3105 
Q 1091 2794 978 2366 
Q 1428 2675 1881 2675 
Q 2316 2675 2634 2325 
Q 2953 1975 2953 1425 
Q 2953 894 2631 456 
Q 2244 -75 1606 -75 
Q 1172 -75 869 213 
Q 275 772 275 1663 
Q 275 2231 503 2743 
Q 731 3256 1154 3653 
Q 1578 4050 1965 4187 
Q 2353 4325 2688 4325 
L 2869 4325 
z
M 925 2138 
Q 869 1716 869 1456 
Q 869 1156 980 804 
Q 1091 453 1309 247 
Q 1469 100 1697 100 
Q 1969 100 2183 356 
Q 2397 613 2397 1088 
Q 2397 1622 2184 2012 
Q 1972 2403 1581 2403 
Q 1463 2403 1327 2353 
Q 1191 2303 925 2138 
z
" transform="scale(0.015625)"/>
       </defs>
       <use xlink:href="#TimesNewRomanPSMT-36"/>
       <use xlink:href="#TimesNewRomanPSMT-30" x="50"/>
       <use xlink:href="#TimesNewRomanPSMT-30" x="100"/>
      </g>
     </g>
    </g>
    <g id="xtick_5">
     <g id="line2d_9">
      <path d="M 214.25714 140.343307 
L 214.25714 7.2 
" clip-path="url(#p737c8cacaf)" style="fill: none; stroke: #b0b0b0; stroke-width: 0.8; stroke-linecap: square"/>
     </g>
     <g id="line2d_10">
      <g>
       <use xlink:href="#mb2445ef475" x="214.25714" y="140.343307" style="stroke: #000000; stroke-width: 0.8"/>
      </g>
     </g>
     <g id="text_5">
      <!-- 800 -->
      <g transform="translate(206.75714 154.287057) scale(0.1 -0.1)">
       <defs>
        <path id="TimesNewRomanPSMT-38" d="M 1228 2134 
Q 725 2547 579 2797 
Q 434 3047 434 3316 
Q 434 3728 753 4026 
Q 1072 4325 1600 4325 
Q 2113 4325 2425 4047 
Q 2738 3769 2738 3413 
Q 2738 3175 2569 2928 
Q 2400 2681 1866 2347 
Q 2416 1922 2594 1678 
Q 2831 1359 2831 1006 
Q 2831 559 2490 242 
Q 2150 -75 1597 -75 
Q 994 -75 656 303 
Q 388 606 388 966 
Q 388 1247 577 1523 
Q 766 1800 1228 2134 
z
M 1719 2469 
Q 2094 2806 2194 3001 
Q 2294 3197 2294 3444 
Q 2294 3772 2109 3958 
Q 1925 4144 1606 4144 
Q 1288 4144 1088 3959 
Q 888 3775 888 3528 
Q 888 3366 970 3203 
Q 1053 3041 1206 2894 
L 1719 2469 
z
M 1375 2016 
Q 1116 1797 991 1539 
Q 866 1281 866 981 
Q 866 578 1086 336 
Q 1306 94 1647 94 
Q 1984 94 2187 284 
Q 2391 475 2391 747 
Q 2391 972 2272 1150 
Q 2050 1481 1375 2016 
z
" transform="scale(0.015625)"/>
       </defs>
       <use xlink:href="#TimesNewRomanPSMT-38"/>
       <use xlink:href="#TimesNewRomanPSMT-30" x="50"/>
       <use xlink:href="#TimesNewRomanPSMT-30" x="100"/>
      </g>
     </g>
    </g>
    <g id="text_6">
     <!-- Time (s) -->
     <g transform="translate(133.330007 168.75862) scale(0.12 -0.12)">
      <defs>
       <path id="TimesNewRomanPSMT-54" d="M 3703 4238 
L 3750 3244 
L 3631 3244 
Q 3597 3506 3538 3619 
Q 3441 3800 3280 3886 
Q 3119 3972 2856 3972 
L 2259 3972 
L 2259 734 
Q 2259 344 2344 247 
Q 2463 116 2709 116 
L 2856 116 
L 2856 0 
L 1059 0 
L 1059 116 
L 1209 116 
Q 1478 116 1591 278 
Q 1659 378 1659 734 
L 1659 3972 
L 1150 3972 
Q 853 3972 728 3928 
Q 566 3869 450 3700 
Q 334 3531 313 3244 
L 194 3244 
L 244 4238 
L 3703 4238 
z
" transform="scale(0.015625)"/>
       <path id="TimesNewRomanPSMT-69" d="M 928 4444 
Q 1059 4444 1151 4351 
Q 1244 4259 1244 4128 
Q 1244 3997 1151 3903 
Q 1059 3809 928 3809 
Q 797 3809 703 3903 
Q 609 3997 609 4128 
Q 609 4259 701 4351 
Q 794 4444 928 4444 
z
M 1188 2947 
L 1188 647 
Q 1188 378 1227 289 
Q 1266 200 1342 156 
Q 1419 113 1622 113 
L 1622 0 
L 231 0 
L 231 113 
Q 441 113 512 153 
Q 584 194 626 287 
Q 669 381 669 647 
L 669 1750 
Q 669 2216 641 2353 
Q 619 2453 572 2492 
Q 525 2531 444 2531 
Q 356 2531 231 2484 
L 188 2597 
L 1050 2947 
L 1188 2947 
z
" transform="scale(0.015625)"/>
       <path id="TimesNewRomanPSMT-6d" d="M 1050 2338 
Q 1363 2650 1419 2697 
Q 1559 2816 1721 2881 
Q 1884 2947 2044 2947 
Q 2313 2947 2506 2790 
Q 2700 2634 2766 2338 
Q 3088 2713 3309 2830 
Q 3531 2947 3766 2947 
Q 3994 2947 4170 2830 
Q 4347 2713 4450 2447 
Q 4519 2266 4519 1878 
L 4519 647 
Q 4519 378 4559 278 
Q 4591 209 4675 161 
Q 4759 113 4950 113 
L 4950 0 
L 3538 0 
L 3538 113 
L 3597 113 
Q 3781 113 3884 184 
Q 3956 234 3988 344 
Q 4000 397 4000 647 
L 4000 1878 
Q 4000 2228 3916 2372 
Q 3794 2572 3525 2572 
Q 3359 2572 3192 2489 
Q 3025 2406 2788 2181 
L 2781 2147 
L 2788 2013 
L 2788 647 
Q 2788 353 2820 281 
Q 2853 209 2943 161 
Q 3034 113 3253 113 
L 3253 0 
L 1806 0 
L 1806 113 
Q 2044 113 2133 169 
Q 2222 225 2256 338 
Q 2272 391 2272 647 
L 2272 1878 
Q 2272 2228 2169 2381 
Q 2031 2581 1784 2581 
Q 1616 2581 1450 2491 
Q 1191 2353 1050 2181 
L 1050 647 
Q 1050 366 1089 281 
Q 1128 197 1204 155 
Q 1281 113 1516 113 
L 1516 0 
L 100 0 
L 100 113 
Q 297 113 375 155 
Q 453 197 493 289 
Q 534 381 534 647 
L 534 1741 
Q 534 2213 506 2350 
Q 484 2453 437 2492 
Q 391 2531 309 2531 
Q 222 2531 100 2484 
L 53 2597 
L 916 2947 
L 1050 2947 
L 1050 2338 
z
" transform="scale(0.015625)"/>
       <path id="TimesNewRomanPSMT-65" d="M 681 1784 
Q 678 1147 991 784 
Q 1303 422 1725 422 
Q 2006 422 2214 576 
Q 2422 731 2563 1106 
L 2659 1044 
Q 2594 616 2278 264 
Q 1963 -88 1488 -88 
Q 972 -88 605 314 
Q 238 716 238 1394 
Q 238 2128 614 2539 
Q 991 2950 1559 2950 
Q 2041 2950 2350 2633 
Q 2659 2316 2659 1784 
L 681 1784 
z
M 681 1966 
L 2006 1966 
Q 1991 2241 1941 2353 
Q 1863 2528 1708 2628 
Q 1553 2728 1384 2728 
Q 1125 2728 920 2526 
Q 716 2325 681 1966 
z
" transform="scale(0.015625)"/>
       <path id="TimesNewRomanPSMT-20" transform="scale(0.015625)"/>
       <path id="TimesNewRomanPSMT-28" d="M 1988 -1253 
L 1988 -1369 
Q 1516 -1131 1200 -813 
Q 750 -359 506 256 
Q 263 872 263 1534 
Q 263 2503 741 3301 
Q 1219 4100 1988 4444 
L 1988 4313 
Q 1603 4100 1356 3731 
Q 1109 3363 987 2797 
Q 866 2231 866 1616 
Q 866 947 969 400 
Q 1050 -31 1165 -292 
Q 1281 -553 1476 -793 
Q 1672 -1034 1988 -1253 
z
" transform="scale(0.015625)"/>
       <path id="TimesNewRomanPSMT-73" d="M 2050 2947 
L 2050 1972 
L 1947 1972 
Q 1828 2431 1642 2597 
Q 1456 2763 1169 2763 
Q 950 2763 815 2647 
Q 681 2531 681 2391 
Q 681 2216 781 2091 
Q 878 1963 1175 1819 
L 1631 1597 
Q 2266 1288 2266 781 
Q 2266 391 1970 151 
Q 1675 -88 1309 -88 
Q 1047 -88 709 6 
Q 606 38 541 38 
Q 469 38 428 -44 
L 325 -44 
L 325 978 
L 428 978 
Q 516 541 762 319 
Q 1009 97 1316 97 
Q 1531 97 1667 223 
Q 1803 350 1803 528 
Q 1803 744 1651 891 
Q 1500 1038 1047 1263 
Q 594 1488 453 1669 
Q 313 1847 313 2119 
Q 313 2472 555 2709 
Q 797 2947 1181 2947 
Q 1350 2947 1591 2875 
Q 1750 2828 1803 2828 
Q 1853 2828 1881 2850 
Q 1909 2872 1947 2947 
L 2050 2947 
z
" transform="scale(0.015625)"/>
       <path id="TimesNewRomanPSMT-29" d="M 144 4313 
L 144 4444 
Q 619 4209 934 3891 
Q 1381 3434 1625 2820 
Q 1869 2206 1869 1541 
Q 1869 572 1392 -226 
Q 916 -1025 144 -1369 
L 144 -1253 
Q 528 -1038 776 -670 
Q 1025 -303 1145 264 
Q 1266 831 1266 1447 
Q 1266 2113 1163 2663 
Q 1084 3094 967 3353 
Q 850 3613 656 3853 
Q 463 4094 144 4313 
z
" transform="scale(0.015625)"/>
      </defs>
      <use xlink:href="#TimesNewRomanPSMT-54"/>
      <use xlink:href="#TimesNewRomanPSMT-69" x="57.583984"/>
      <use xlink:href="#TimesNewRomanPSMT-6d" x="85.367188"/>
      <use xlink:href="#TimesNewRomanPSMT-65" x="163.150391"/>
      <use xlink:href="#TimesNewRomanPSMT-20" x="207.535156"/>
      <use xlink:href="#TimesNewRomanPSMT-28" x="232.535156"/>
      <use xlink:href="#TimesNewRomanPSMT-73" x="265.835938"/>
      <use xlink:href="#TimesNewRomanPSMT-29" x="304.751953"/>
     </g>
    </g>
   </g>
   <g id="matplotlib.axis_2">
    <g id="ytick_1">
     <g id="line2d_11">
      <path d="M 56.621875 134.291339 
L 250.603765 134.291339 
" clip-path="url(#p737c8cacaf)" style="fill: none; stroke: #b0b0b0; stroke-width: 0.8; stroke-linecap: square"/>
     </g>
     <g id="line2d_12">
      <defs>
       <path id="m2c0ebe6325" d="M 0 0 
L -3.5 0 
" style="stroke: #000000; stroke-width: 0.8"/>
      </defs>
      <g>
       <use xlink:href="#m2c0ebe6325" x="56.621875" y="134.291339" style="stroke: #000000; stroke-width: 0.8"/>
      </g>
     </g>
     <g id="text_7">
      <!-- 0.0000 -->
      <g transform="translate(22.121875 137.763214) scale(0.1 -0.1)">
       <defs>
        <path id="TimesNewRomanPSMT-2e" d="M 800 606 
Q 947 606 1047 504 
Q 1147 403 1147 259 
Q 1147 116 1045 14 
Q 944 -88 800 -88 
Q 656 -88 554 14 
Q 453 116 453 259 
Q 453 406 554 506 
Q 656 606 800 606 
z
" transform="scale(0.015625)"/>
       </defs>
       <use xlink:href="#TimesNewRomanPSMT-30"/>
       <use xlink:href="#TimesNewRomanPSMT-2e" x="50"/>
       <use xlink:href="#TimesNewRomanPSMT-30" x="75"/>
       <use xlink:href="#TimesNewRomanPSMT-30" x="125"/>
       <use xlink:href="#TimesNewRomanPSMT-30" x="175"/>
       <use xlink:href="#TimesNewRomanPSMT-30" x="225"/>
      </g>
     </g>
    </g>
    <g id="ytick_2">
     <g id="line2d_13">
      <path d="M 56.621875 97.579367 
L 250.603765 97.579367 
" clip-path="url(#p737c8cacaf)" style="fill: none; stroke: #b0b0b0; stroke-width: 0.8; stroke-linecap: square"/>
     </g>
     <g id="line2d_14">
      <g>
       <use xlink:href="#m2c0ebe6325" x="56.621875" y="97.579367" style="stroke: #000000; stroke-width: 0.8"/>
      </g>
     </g>
     <g id="text_8">
      <!-- 0.0001 -->
      <g transform="translate(22.121875 101.051242) scale(0.1 -0.1)">
       <defs>
        <path id="TimesNewRomanPSMT-31" d="M 750 3822 
L 1781 4325 
L 1884 4325 
L 1884 747 
Q 1884 391 1914 303 
Q 1944 216 2037 169 
Q 2131 122 2419 116 
L 2419 0 
L 825 0 
L 825 116 
Q 1125 122 1212 167 
Q 1300 213 1334 289 
Q 1369 366 1369 747 
L 1369 3034 
Q 1369 3497 1338 3628 
Q 1316 3728 1258 3775 
Q 1200 3822 1119 3822 
Q 1003 3822 797 3725 
L 750 3822 
z
" transform="scale(0.015625)"/>
       </defs>
       <use xlink:href="#TimesNewRomanPSMT-30"/>
       <use xlink:href="#TimesNewRomanPSMT-2e" x="50"/>
       <use xlink:href="#TimesNewRomanPSMT-30" x="75"/>
       <use xlink:href="#TimesNewRomanPSMT-30" x="125"/>
       <use xlink:href="#TimesNewRomanPSMT-30" x="175"/>
       <use xlink:href="#TimesNewRomanPSMT-31" x="225"/>
      </g>
     </g>
    </g>
    <g id="ytick_3">
     <g id="line2d_15">
      <path d="M 56.621875 60.867396 
L 250.603765 60.867396 
" clip-path="url(#p737c8cacaf)" style="fill: none; stroke: #b0b0b0; stroke-width: 0.8; stroke-linecap: square"/>
     </g>
     <g id="line2d_16">
      <g>
       <use xlink:href="#m2c0ebe6325" x="56.621875" y="60.867396" style="stroke: #000000; stroke-width: 0.8"/>
      </g>
     </g>
     <g id="text_9">
      <!-- 0.0002 -->
      <g transform="translate(22.121875 64.339271) scale(0.1 -0.1)">
       <use xlink:href="#TimesNewRomanPSMT-30"/>
       <use xlink:href="#TimesNewRomanPSMT-2e" x="50"/>
       <use xlink:href="#TimesNewRomanPSMT-30" x="75"/>
       <use xlink:href="#TimesNewRomanPSMT-30" x="125"/>
       <use xlink:href="#TimesNewRomanPSMT-30" x="175"/>
       <use xlink:href="#TimesNewRomanPSMT-32" x="225"/>
      </g>
     </g>
    </g>
    <g id="ytick_4">
     <g id="line2d_17">
      <path d="M 56.621875 24.155424 
L 250.603765 24.155424 
" clip-path="url(#p737c8cacaf)" style="fill: none; stroke: #b0b0b0; stroke-width: 0.8; stroke-linecap: square"/>
     </g>
     <g id="line2d_18">
      <g>
       <use xlink:href="#m2c0ebe6325" x="56.621875" y="24.155424" style="stroke: #000000; stroke-width: 0.8"/>
      </g>
     </g>
     <g id="text_10">
      <!-- 0.0003 -->
      <g transform="translate(22.121875 27.627299) scale(0.1 -0.1)">
       <defs>
        <path id="TimesNewRomanPSMT-33" d="M 325 3431 
Q 506 3859 782 4092 
Q 1059 4325 1472 4325 
Q 1981 4325 2253 3994 
Q 2459 3747 2459 3466 
Q 2459 3003 1878 2509 
Q 2269 2356 2469 2072 
Q 2669 1788 2669 1403 
Q 2669 853 2319 450 
Q 1863 -75 997 -75 
Q 569 -75 414 31 
Q 259 138 259 259 
Q 259 350 332 419 
Q 406 488 509 488 
Q 588 488 669 463 
Q 722 447 909 348 
Q 1097 250 1169 231 
Q 1284 197 1416 197 
Q 1734 197 1970 444 
Q 2206 691 2206 1028 
Q 2206 1275 2097 1509 
Q 2016 1684 1919 1775 
Q 1784 1900 1550 2001 
Q 1316 2103 1072 2103 
L 972 2103 
L 972 2197 
Q 1219 2228 1467 2375 
Q 1716 2522 1828 2728 
Q 1941 2934 1941 3181 
Q 1941 3503 1739 3701 
Q 1538 3900 1238 3900 
Q 753 3900 428 3381 
L 325 3431 
z
" transform="scale(0.015625)"/>
       </defs>
       <use xlink:href="#TimesNewRomanPSMT-30"/>
       <use xlink:href="#TimesNewRomanPSMT-2e" x="50"/>
       <use xlink:href="#TimesNewRomanPSMT-30" x="75"/>
       <use xlink:href="#TimesNewRomanPSMT-30" x="125"/>
       <use xlink:href="#TimesNewRomanPSMT-30" x="175"/>
       <use xlink:href="#TimesNewRomanPSMT-33" x="225"/>
      </g>
     </g>
    </g>
    <g id="text_11">
     <!-- Change in Refractive Index -->
     <g transform="translate(15.5325 139.914154) rotate(-90) scale(0.12 -0.12)">
      <defs>
       <path id="TimesNewRomanPSMT-43" d="M 3853 4334 
L 3950 2894 
L 3853 2894 
Q 3659 3541 3300 3825 
Q 2941 4109 2438 4109 
Q 2016 4109 1675 3895 
Q 1334 3681 1139 3212 
Q 944 2744 944 2047 
Q 944 1472 1128 1050 
Q 1313 628 1683 403 
Q 2053 178 2528 178 
Q 2941 178 3256 354 
Q 3572 531 3950 1056 
L 4047 994 
Q 3728 428 3303 165 
Q 2878 -97 2294 -97 
Q 1241 -97 663 684 
Q 231 1266 231 2053 
Q 231 2688 515 3219 
Q 800 3750 1298 4042 
Q 1797 4334 2388 4334 
Q 2847 4334 3294 4109 
Q 3425 4041 3481 4041 
Q 3566 4041 3628 4100 
Q 3709 4184 3744 4334 
L 3853 4334 
z
" transform="scale(0.015625)"/>
       <path id="TimesNewRomanPSMT-68" d="M 1041 4444 
L 1041 2350 
Q 1388 2731 1591 2839 
Q 1794 2947 1997 2947 
Q 2241 2947 2416 2812 
Q 2591 2678 2675 2391 
Q 2734 2191 2734 1659 
L 2734 647 
Q 2734 375 2778 275 
Q 2809 200 2884 156 
Q 2959 113 3159 113 
L 3159 0 
L 1753 0 
L 1753 113 
L 1819 113 
Q 2019 113 2097 173 
Q 2175 234 2206 353 
Q 2216 403 2216 647 
L 2216 1659 
Q 2216 2128 2167 2275 
Q 2119 2422 2012 2495 
Q 1906 2569 1756 2569 
Q 1603 2569 1437 2487 
Q 1272 2406 1041 2159 
L 1041 647 
Q 1041 353 1073 281 
Q 1106 209 1195 161 
Q 1284 113 1503 113 
L 1503 0 
L 84 0 
L 84 113 
Q 275 113 384 172 
Q 447 203 484 290 
Q 522 378 522 647 
L 522 3238 
Q 522 3728 498 3840 
Q 475 3953 426 3993 
Q 378 4034 297 4034 
Q 231 4034 84 3984 
L 41 4094 
L 897 4444 
L 1041 4444 
z
" transform="scale(0.015625)"/>
       <path id="TimesNewRomanPSMT-61" d="M 1822 413 
Q 1381 72 1269 19 
Q 1100 -59 909 -59 
Q 613 -59 420 144 
Q 228 347 228 678 
Q 228 888 322 1041 
Q 450 1253 767 1440 
Q 1084 1628 1822 1897 
L 1822 2009 
Q 1822 2438 1686 2597 
Q 1550 2756 1291 2756 
Q 1094 2756 978 2650 
Q 859 2544 859 2406 
L 866 2225 
Q 866 2081 792 2003 
Q 719 1925 600 1925 
Q 484 1925 411 2006 
Q 338 2088 338 2228 
Q 338 2497 613 2722 
Q 888 2947 1384 2947 
Q 1766 2947 2009 2819 
Q 2194 2722 2281 2516 
Q 2338 2381 2338 1966 
L 2338 994 
Q 2338 584 2353 492 
Q 2369 400 2405 369 
Q 2441 338 2488 338 
Q 2538 338 2575 359 
Q 2641 400 2828 588 
L 2828 413 
Q 2478 -56 2159 -56 
Q 2006 -56 1915 50 
Q 1825 156 1822 413 
z
M 1822 616 
L 1822 1706 
Q 1350 1519 1213 1441 
Q 966 1303 859 1153 
Q 753 1003 753 825 
Q 753 600 887 451 
Q 1022 303 1197 303 
Q 1434 303 1822 616 
z
" transform="scale(0.015625)"/>
       <path id="TimesNewRomanPSMT-6e" d="M 1034 2341 
Q 1538 2947 1994 2947 
Q 2228 2947 2397 2830 
Q 2566 2713 2666 2444 
Q 2734 2256 2734 1869 
L 2734 647 
Q 2734 375 2778 278 
Q 2813 200 2889 156 
Q 2966 113 3172 113 
L 3172 0 
L 1756 0 
L 1756 113 
L 1816 113 
Q 2016 113 2095 173 
Q 2175 234 2206 353 
Q 2219 400 2219 647 
L 2219 1819 
Q 2219 2209 2117 2386 
Q 2016 2563 1775 2563 
Q 1403 2563 1034 2156 
L 1034 647 
Q 1034 356 1069 288 
Q 1113 197 1189 155 
Q 1266 113 1500 113 
L 1500 0 
L 84 0 
L 84 113 
L 147 113 
Q 366 113 442 223 
Q 519 334 519 647 
L 519 1709 
Q 519 2225 495 2337 
Q 472 2450 423 2490 
Q 375 2531 294 2531 
Q 206 2531 84 2484 
L 38 2597 
L 900 2947 
L 1034 2947 
L 1034 2341 
z
" transform="scale(0.015625)"/>
       <path id="TimesNewRomanPSMT-67" d="M 966 1044 
Q 703 1172 562 1401 
Q 422 1631 422 1909 
Q 422 2334 742 2640 
Q 1063 2947 1563 2947 
Q 1972 2947 2272 2747 
L 2878 2747 
Q 3013 2747 3034 2739 
Q 3056 2731 3066 2713 
Q 3084 2684 3084 2613 
Q 3084 2531 3069 2500 
Q 3059 2484 3036 2475 
Q 3013 2466 2878 2466 
L 2506 2466 
Q 2681 2241 2681 1891 
Q 2681 1491 2375 1206 
Q 2069 922 1553 922 
Q 1341 922 1119 984 
Q 981 866 932 777 
Q 884 688 884 625 
Q 884 572 936 522 
Q 988 472 1138 450 
Q 1225 438 1575 428 
Q 2219 413 2409 384 
Q 2700 344 2873 169 
Q 3047 -6 3047 -263 
Q 3047 -616 2716 -925 
Q 2228 -1381 1444 -1381 
Q 841 -1381 425 -1109 
Q 191 -953 191 -784 
Q 191 -709 225 -634 
Q 278 -519 444 -313 
Q 466 -284 763 25 
Q 600 122 533 198 
Q 466 275 466 372 
Q 466 481 555 628 
Q 644 775 966 1044 
z
M 1509 2797 
Q 1278 2797 1122 2612 
Q 966 2428 966 2047 
Q 966 1553 1178 1281 
Q 1341 1075 1591 1075 
Q 1828 1075 1981 1253 
Q 2134 1431 2134 1813 
Q 2134 2309 1919 2591 
Q 1759 2797 1509 2797 
z
M 934 0 
Q 788 -159 713 -296 
Q 638 -434 638 -550 
Q 638 -700 819 -813 
Q 1131 -1006 1722 -1006 
Q 2284 -1006 2551 -807 
Q 2819 -609 2819 -384 
Q 2819 -222 2659 -153 
Q 2497 -84 2016 -72 
Q 1313 -53 934 0 
z
" transform="scale(0.015625)"/>
       <path id="TimesNewRomanPSMT-52" d="M 4325 0 
L 3194 0 
L 1759 1981 
Q 1600 1975 1500 1975 
Q 1459 1975 1412 1976 
Q 1366 1978 1316 1981 
L 1316 750 
Q 1316 350 1403 253 
Q 1522 116 1759 116 
L 1925 116 
L 1925 0 
L 109 0 
L 109 116 
L 269 116 
Q 538 116 653 291 
Q 719 388 719 750 
L 719 3488 
Q 719 3888 631 3984 
Q 509 4122 269 4122 
L 109 4122 
L 109 4238 
L 1653 4238 
Q 2328 4238 2648 4139 
Q 2969 4041 3192 3777 
Q 3416 3513 3416 3147 
Q 3416 2756 3161 2468 
Q 2906 2181 2372 2063 
L 3247 847 
Q 3547 428 3762 290 
Q 3978 153 4325 116 
L 4325 0 
z
M 1316 2178 
Q 1375 2178 1419 2176 
Q 1463 2175 1491 2175 
Q 2097 2175 2405 2437 
Q 2713 2700 2713 3106 
Q 2713 3503 2464 3751 
Q 2216 4000 1806 4000 
Q 1625 4000 1316 3941 
L 1316 2178 
z
" transform="scale(0.015625)"/>
       <path id="TimesNewRomanPSMT-66" d="M 1319 2638 
L 1319 756 
Q 1319 356 1406 250 
Q 1522 113 1716 113 
L 1975 113 
L 1975 0 
L 266 0 
L 266 113 
L 394 113 
Q 519 113 622 175 
Q 725 238 764 344 
Q 803 450 803 756 
L 803 2638 
L 247 2638 
L 247 2863 
L 803 2863 
L 803 3050 
Q 803 3478 940 3775 
Q 1078 4072 1361 4255 
Q 1644 4438 1997 4438 
Q 2325 4438 2600 4225 
Q 2781 4084 2781 3909 
Q 2781 3816 2700 3733 
Q 2619 3650 2525 3650 
Q 2453 3650 2373 3701 
Q 2294 3753 2178 3923 
Q 2063 4094 1966 4153 
Q 1869 4213 1750 4213 
Q 1606 4213 1506 4136 
Q 1406 4059 1362 3898 
Q 1319 3738 1319 3069 
L 1319 2863 
L 2056 2863 
L 2056 2638 
L 1319 2638 
z
" transform="scale(0.015625)"/>
       <path id="TimesNewRomanPSMT-72" d="M 1038 2947 
L 1038 2303 
Q 1397 2947 1775 2947 
Q 1947 2947 2059 2842 
Q 2172 2738 2172 2600 
Q 2172 2478 2090 2393 
Q 2009 2309 1897 2309 
Q 1788 2309 1652 2417 
Q 1516 2525 1450 2525 
Q 1394 2525 1328 2463 
Q 1188 2334 1038 2041 
L 1038 669 
Q 1038 431 1097 309 
Q 1138 225 1241 169 
Q 1344 113 1538 113 
L 1538 0 
L 72 0 
L 72 113 
Q 291 113 397 181 
Q 475 231 506 341 
Q 522 394 522 644 
L 522 1753 
Q 522 2253 501 2348 
Q 481 2444 426 2487 
Q 372 2531 291 2531 
Q 194 2531 72 2484 
L 41 2597 
L 906 2947 
L 1038 2947 
z
" transform="scale(0.015625)"/>
       <path id="TimesNewRomanPSMT-63" d="M 2631 1088 
Q 2516 522 2178 217 
Q 1841 -88 1431 -88 
Q 944 -88 581 321 
Q 219 731 219 1428 
Q 219 2103 620 2525 
Q 1022 2947 1584 2947 
Q 2006 2947 2278 2723 
Q 2550 2500 2550 2259 
Q 2550 2141 2473 2067 
Q 2397 1994 2259 1994 
Q 2075 1994 1981 2113 
Q 1928 2178 1911 2362 
Q 1894 2547 1784 2644 
Q 1675 2738 1481 2738 
Q 1169 2738 978 2506 
Q 725 2200 725 1697 
Q 725 1184 976 792 
Q 1228 400 1656 400 
Q 1963 400 2206 609 
Q 2378 753 2541 1131 
L 2631 1088 
z
" transform="scale(0.015625)"/>
       <path id="TimesNewRomanPSMT-74" d="M 1031 3803 
L 1031 2863 
L 1700 2863 
L 1700 2644 
L 1031 2644 
L 1031 788 
Q 1031 509 1111 412 
Q 1191 316 1316 316 
Q 1419 316 1516 380 
Q 1613 444 1666 569 
L 1788 569 
Q 1678 263 1478 108 
Q 1278 -47 1066 -47 
Q 922 -47 784 33 
Q 647 113 581 261 
Q 516 409 516 719 
L 516 2644 
L 63 2644 
L 63 2747 
Q 234 2816 414 2980 
Q 594 3144 734 3369 
Q 806 3488 934 3803 
L 1031 3803 
z
" transform="scale(0.015625)"/>
       <path id="TimesNewRomanPSMT-76" d="M 53 2863 
L 1400 2863 
L 1400 2747 
L 1313 2747 
Q 1191 2747 1127 2687 
Q 1063 2628 1063 2528 
Q 1063 2419 1128 2269 
L 1794 688 
L 2463 2328 
Q 2534 2503 2534 2594 
Q 2534 2638 2509 2666 
Q 2475 2713 2422 2730 
Q 2369 2747 2206 2747 
L 2206 2863 
L 3141 2863 
L 3141 2747 
Q 2978 2734 2916 2681 
Q 2806 2588 2719 2369 
L 1703 -88 
L 1575 -88 
L 553 2328 
Q 484 2497 421 2570 
Q 359 2644 263 2694 
Q 209 2722 53 2747 
L 53 2863 
z
" transform="scale(0.015625)"/>
       <path id="TimesNewRomanPSMT-49" d="M 1975 116 
L 1975 0 
L 159 0 
L 159 116 
L 309 116 
Q 572 116 691 269 
Q 766 369 766 750 
L 766 3488 
Q 766 3809 725 3913 
Q 694 3991 597 4047 
Q 459 4122 309 4122 
L 159 4122 
L 159 4238 
L 1975 4238 
L 1975 4122 
L 1822 4122 
Q 1563 4122 1444 3969 
Q 1366 3869 1366 3488 
L 1366 750 
Q 1366 428 1406 325 
Q 1438 247 1538 191 
Q 1672 116 1822 116 
L 1975 116 
z
" transform="scale(0.015625)"/>
       <path id="TimesNewRomanPSMT-64" d="M 2222 322 
Q 2013 103 1813 7 
Q 1613 -88 1381 -88 
Q 913 -88 563 304 
Q 213 697 213 1313 
Q 213 1928 600 2439 
Q 988 2950 1597 2950 
Q 1975 2950 2222 2709 
L 2222 3238 
Q 2222 3728 2198 3840 
Q 2175 3953 2125 3993 
Q 2075 4034 2000 4034 
Q 1919 4034 1784 3984 
L 1744 4094 
L 2597 4444 
L 2738 4444 
L 2738 1134 
Q 2738 631 2761 520 
Q 2784 409 2836 365 
Q 2888 322 2956 322 
Q 3041 322 3181 375 
L 3216 266 
L 2366 -88 
L 2222 -88 
L 2222 322 
z
M 2222 541 
L 2222 2016 
Q 2203 2228 2109 2403 
Q 2016 2578 1861 2667 
Q 1706 2756 1559 2756 
Q 1284 2756 1069 2509 
Q 784 2184 784 1559 
Q 784 928 1059 592 
Q 1334 256 1672 256 
Q 1956 256 2222 541 
z
" transform="scale(0.015625)"/>
       <path id="TimesNewRomanPSMT-78" d="M 84 2863 
L 1431 2863 
L 1431 2747 
Q 1303 2747 1251 2703 
Q 1200 2659 1200 2588 
Q 1200 2513 1309 2356 
Q 1344 2306 1413 2200 
L 1616 1875 
L 1850 2200 
Q 2075 2509 2075 2591 
Q 2075 2656 2022 2701 
Q 1969 2747 1850 2747 
L 1850 2863 
L 2819 2863 
L 2819 2747 
Q 2666 2738 2553 2663 
Q 2400 2556 2134 2200 
L 1744 1678 
L 2456 653 
Q 2719 275 2831 198 
Q 2944 122 3122 113 
L 3122 0 
L 1772 0 
L 1772 113 
Q 1913 113 1991 175 
Q 2050 219 2050 291 
Q 2050 363 1850 653 
L 1431 1266 
L 972 653 
Q 759 369 759 316 
Q 759 241 829 180 
Q 900 119 1041 113 
L 1041 0 
L 106 0 
L 106 113 
Q 219 128 303 191 
Q 422 281 703 653 
L 1303 1450 
L 759 2238 
Q 528 2575 401 2661 
Q 275 2747 84 2747 
L 84 2863 
z
" transform="scale(0.015625)"/>
      </defs>
      <use xlink:href="#TimesNewRomanPSMT-43"/>
      <use xlink:href="#TimesNewRomanPSMT-68" x="66.699219"/>
      <use xlink:href="#TimesNewRomanPSMT-61" x="116.699219"/>
      <use xlink:href="#TimesNewRomanPSMT-6e" x="161.083984"/>
      <use xlink:href="#TimesNewRomanPSMT-67" x="211.083984"/>
      <use xlink:href="#TimesNewRomanPSMT-65" x="261.083984"/>
      <use xlink:href="#TimesNewRomanPSMT-20" x="305.46875"/>
      <use xlink:href="#TimesNewRomanPSMT-69" x="330.46875"/>
      <use xlink:href="#TimesNewRomanPSMT-6e" x="358.251953"/>
      <use xlink:href="#TimesNewRomanPSMT-20" x="408.251953"/>
      <use xlink:href="#TimesNewRomanPSMT-52" x="433.251953"/>
      <use xlink:href="#TimesNewRomanPSMT-65" x="499.951172"/>
      <use xlink:href="#TimesNewRomanPSMT-66" x="544.335938"/>
      <use xlink:href="#TimesNewRomanPSMT-72" x="577.636719"/>
      <use xlink:href="#TimesNewRomanPSMT-61" x="610.9375"/>
      <use xlink:href="#TimesNewRomanPSMT-63" x="655.322266"/>
      <use xlink:href="#TimesNewRomanPSMT-74" x="699.707031"/>
      <use xlink:href="#TimesNewRomanPSMT-69" x="727.490234"/>
      <use xlink:href="#TimesNewRomanPSMT-76" x="755.273438"/>
      <use xlink:href="#TimesNewRomanPSMT-65" x="805.273438"/>
      <use xlink:href="#TimesNewRomanPSMT-20" x="849.658203"/>
      <use xlink:href="#TimesNewRomanPSMT-49" x="874.658203"/>
      <use xlink:href="#TimesNewRomanPSMT-6e" x="907.958984"/>
      <use xlink:href="#TimesNewRomanPSMT-64" x="957.958984"/>
      <use xlink:href="#TimesNewRomanPSMT-65" x="1007.958984"/>
      <use xlink:href="#TimesNewRomanPSMT-78" x="1052.34375"/>
     </g>
    </g>
   </g>
   <g id="line2d_19">
    <path d="M 65.439234 134.291339 
L 65.811836 132.382316 
L 66.556856 121.295301 
L 66.929273 112.594563 
L 67.301876 107.491599 
L 68.046895 93.834746 
L 68.419498 93.798034 
L 68.791915 89.943277 
L 69.164518 88.14439 
L 69.525773 84.252921 
L 70.270793 81.646371 
L 70.64321 77.938462 
L 71.015813 77.387783 
L 71.399577 75.331912 
L 71.760832 71.440443 
L 72.133249 70.669492 
L 72.517199 72.101259 
L 72.878269 69.201013 
L 73.250872 67.622398 
L 73.623288 65.529816 
L 73.995891 65.60324 
L 74.740911 62.042179 
L 75.113514 62.62957 
L 75.48593 62.078891 
L 75.858533 62.115603 
L 76.23095 59.619189 
L 76.603553 61.161091 
L 76.97597 58.664677 
L 77.348573 57.453182 
L 77.720989 54.62636 
L 78.082245 58.738101 
L 78.454848 56.168263 
L 78.827265 54.516224 
L 79.199867 57.893726 
L 79.572284 54.99348 
L 79.944887 57.379758 
L 80.317304 58.224134 
L 80.689907 52.790762 
L 81.062323 56.975927 
L 81.434926 53.561713 
L 81.807529 52.790762 
L 82.179946 54.075681 
L 82.56371 53.525001 
L 82.924966 52.056522 
L 83.297568 52.680626 
L 83.669985 49.266413 
L 84.042588 51.358995 
L 84.787608 50.037364 
L 85.171372 50.881739 
L 85.532627 52.864186 
L 85.905044 52.497066 
L 86.277647 53.671849 
L 86.65025 52.129946 
L 87.383922 46.402879 
L 87.756339 48.972717 
L 88.128942 49.743668 
L 88.501545 47.797934 
L 88.885309 51.726115 
L 89.246564 47.651086 
L 89.618981 51.028587 
L 89.991584 51.652691 
L 90.364001 49.229701 
L 90.736603 49.449972 
L 91.49297 46.80671 
L 91.85404 49.119565 
L 92.226643 46.219319 
L 92.610407 45.411656 
L 92.971662 43.502633 
L 93.344265 43.943177 
L 93.716682 45.815487 
L 94.089285 46.219319 
L 94.461702 44.053313 
L 94.834305 43.355785 
L 95.218069 43.355785 
L 95.579324 45.815487 
L 95.94058 45.999047 
L 96.324344 43.576057 
L 96.685599 44.420432 
L 97.058016 42.731682 
L 97.803036 44.603992 
L 98.548055 42.621546 
L 98.920658 41.924018 
L 99.293075 45.962335 
L 99.665678 40.785947 
L 100.049442 40.639099 
L 100.410697 42.548122 
L 100.7833 43.355785 
L 101.155717 41.887306 
L 101.52832 43.686193 
L 102.27334 40.749235 
L 102.657104 42.070866 
L 103.018359 39.574452 
L 103.390776 38.179397 
L 103.763379 42.841818 
L 104.147143 41.336627 
L 104.497051 40.528963 
L 104.869654 43.098801 
L 105.253418 37.885701 
L 105.614674 41.116355 
L 105.98709 42.32785 
L 106.359693 39.317468 
L 106.743457 43.355785 
L 107.477316 38.766789 
L 107.849733 37.041326 
L 108.233497 40.418827 
L 108.594752 38.216109 
L 108.967355 40.418827 
L 109.339772 38.876925 
L 109.712375 38.252821 
L 110.084791 36.56407 
L 110.841158 37.261598 
L 111.202414 38.032549 
L 111.574831 37.592006 
L 111.947434 38.840213 
L 112.31985 38.619941 
L 112.692453 38.619941 
L 113.437473 35.425999 
L 113.798728 36.270375 
L 114.171145 37.555294 
L 114.543748 37.151462 
L 114.916351 38.876925 
L 115.288768 38.656653 
L 115.672532 38.069261 
L 116.033787 34.434776 
L 116.40639 38.656653 
L 116.778807 38.656653 
L 117.15141 37.188174 
L 117.523827 37.812277 
L 117.896429 39.35418 
L 118.268846 38.032549 
L 119.013866 36.160239 
L 119.386469 37.518582 
L 119.759072 37.66543 
L 120.131488 35.829831 
L 120.504091 35.939967 
L 120.876508 36.380511 
L 121.249111 37.11475 
L 121.621528 33.370129 
L 121.99413 32.415618 
L 122.355386 35.609559 
L 122.727803 35.205727 
L 123.845425 32.489042 
L 124.217842 37.922413 
L 124.590445 35.976679 
L 124.962862 38.105973 
L 125.335464 34.912032 
L 125.707881 37.188174 
L 126.080484 37.592006 
L 126.452901 32.562466 
L 126.825504 31.607954 
L 127.198107 33.076433 
L 127.570523 33.590401 
L 127.943126 31.461106 
L 128.315543 34.104368 
L 129.060563 34.87532 
L 129.433166 31.167411 
L 129.805582 33.737249 
L 130.178185 33.847385 
L 130.911857 31.90165 
L 131.28446 35.315863 
L 132.02948 33.149857 
L 132.401897 31.167411 
L 132.7745 33.810673 
L 133.158264 33.590401 
L 133.519519 34.655048 
L 133.892122 34.287928 
L 134.637142 32.599177 
L 135.009558 32.525754 
L 135.754578 33.700537 
L 136.127181 32.819449 
L 136.499598 32.672601 
L 136.872201 27.826621 
L 137.244617 29.001404 
L 137.61722 32.305482 
L 137.989637 30.910427 
L 138.36224 30.029339 
L 138.734657 29.919204 
L 139.118607 29.441948 
L 139.840932 33.700537 
L 140.213535 32.121922 
L 140.585951 32.121922 
L 140.958554 34.728472 
L 141.342318 32.378906 
L 141.703574 28.414013 
L 142.076177 28.157029 
L 142.459941 30.837003 
L 142.821196 27.312654 
L 143.193613 29.074828 
L 143.566216 31.754802 
L 143.938633 31.681378 
L 144.311236 30.066051 
L 144.683653 30.983851 
L 145.056255 30.102763 
L 145.428672 34.104368 
L 145.801275 29.038116 
L 146.173878 28.817844 
L 146.546295 30.323035 
L 146.918897 30.286323 
L 147.302662 29.331812 
L 147.663917 27.863333 
L 148.036334 34.030944 
L 148.408937 33.95752 
L 148.770192 32.819449 
L 149.142609 29.919204 
L 149.526373 33.186569 
L 149.887629 33.113145 
L 150.260231 33.370129 
L 150.632648 31.53453 
L 151.005251 31.240835 
L 151.377668 31.461106 
L 152.122688 26.651838 
L 152.49529 28.854556 
L 152.867707 26.725262 
L 153.24031 28.303877 
L 153.612913 27.789909 
L 153.98533 26.064447 
L 154.357933 25.036511 
L 154.730349 27.496213 
L 155.102952 27.863333 
L 155.847972 30.726867 
L 156.220389 29.038116 
L 156.604339 29.625508 
L 156.965408 28.964692 
L 157.338011 26.908822 
L 157.699267 29.405236 
L 158.071683 27.129094 
L 158.444286 25.623903 
L 158.816703 27.202518 
L 159.189306 27.202518 
L 159.561723 30.653443 
L 159.934326 29.625508 
L 160.31809 30.102763 
L 160.679345 26.358142 
L 161.051948 26.68855 
L 161.424365 28.340589 
L 161.796968 26.68855 
L 162.169384 28.230453 
L 162.541987 27.129094 
L 162.914404 24.963087 
L 163.287007 21.402026 
L 164.032027 28.193741 
L 164.404443 27.275942 
L 164.777046 30.543307 
L 165.522066 27.386078 
L 165.894669 30.029339 
L 166.267085 27.018958 
L 166.639688 25.734039 
L 167.000758 25.403631 
L 167.373361 23.017353 
L 167.745963 25.550479 
L 168.11838 25.330207 
L 168.490983 30.506595 
L 168.8634 25.330207 
L 169.236003 25.623903 
L 169.60842 27.716485 
L 169.981022 24.81624 
L 170.353439 27.532925 
L 170.726042 24.595968 
L 171.098459 23.457897 
L 171.471062 27.936757 
L 171.843478 22.393249 
L 172.216081 25.623903 
L 172.588684 25.293495 
L 172.961101 25.991023 
L 173.706121 24.669392 
L 174.078723 22.283113 
L 174.45114 24.742816 
L 175.184998 20.447515 
L 175.930018 25.697327 
L 176.686199 22.319825 
L 177.047455 21.879282 
L 177.420057 21.218466 
L 177.792474 20.814635 
L 178.537494 22.907217 
L 178.910097 21.548874 
L 179.282514 22.833793 
L 180.027719 22.20969 
L 180.400136 22.02613 
L 180.772739 22.429961 
L 181.145156 22.02613 
L 181.890175 22.099554 
L 182.262778 24.852952 
L 182.635195 25.330207 
L 183.380215 21.29189 
L 183.752817 22.099554 
L 184.114073 24.008576 
L 184.48649 23.384473 
L 184.859093 26.284718 
L 185.231509 21.328602 
L 185.604112 20.961483 
L 185.976529 24.63268 
L 186.349132 23.274337 
L 186.721735 24.852952 
L 187.105499 23.054065 
L 187.466754 23.861728 
L 187.839171 23.825016 
L 188.211774 21.10833 
L 188.584191 20.447515 
L 188.956794 22.099554 
L 189.32921 22.246402 
L 189.701813 22.907217 
L 190.07423 21.181754 
L 190.446833 22.429961 
L 190.81925 18.942324 
L 191.191852 20.924771 
L 191.564269 19.493004 
L 191.936872 21.695722 
L 192.309475 20.484227 
L 192.681892 20.263955 
L 193.043147 23.017353 
L 193.415564 21.84257 
L 193.788167 21.034906 
L 194.171931 23.971864 
L 194.533187 21.879282 
L 194.905789 22.760369 
L 195.278206 19.382868 
L 195.650809 22.172978 
L 196.023226 22.356537 
L 196.395829 23.641456 
L 197.152196 22.062842 
L 197.513265 21.915994 
L 197.885868 25.073223 
L 198.258285 21.732434 
L 198.642235 20.043683 
L 199.00349 23.935152 
L 199.375907 22.393249 
L 199.74851 22.907217 
L 200.49353 18.611916 
L 201.610966 21.438738 
L 201.972222 18.391645 
L 202.344824 19.199308 
L 202.728589 21.47545 
L 203.089844 21.10833 
L 203.462261 21.438738 
L 203.834864 15.344551 
L 204.218628 17.694117 
L 204.579883 18.611916 
L 204.9523 18.758764 
L 205.324903 21.512162 
L 205.708667 21.805858 
L 206.069923 23.237625 
L 206.442525 20.447515 
L 206.814942 18.905612 
L 207.187545 22.246402 
L 207.571309 24.44912 
L 207.932565 20.777923 
L 208.304982 19.309444 
L 208.677584 19.529716 
L 209.061349 18.50178 
L 209.422604 19.639852 
L 209.795021 18.648628 
L 210.167624 21.034906 
L 210.528879 19.456292 
L 210.901296 18.465068 
L 211.273899 18.134661 
L 211.646316 21.879282 
L 212.018918 19.749987 
L 212.391335 20.006971 
L 212.763938 21.034906 
L 213.136541 17.840965 
L 213.508958 18.097949 
L 213.881561 21.512162 
L 214.265325 21.29189 
L 214.62658 18.68534 
L 214.998997 19.015748 
L 215.3716 14.610311 
L 215.744017 18.68534 
L 216.116619 17.987813 
L 216.489036 16.62947 
L 217.245403 18.648628 
L 217.606659 20.410803 
L 217.979076 18.905612 
L 218.724281 16.99659 
L 219.096698 17.180149 
L 219.83037 13.729224 
L 220.202973 18.465068 
L 220.575576 16.482622 
L 220.947993 17.180149 
L 221.320596 16.886454 
L 221.693012 16.739606 
L 222.065615 14.353328 
L 222.438032 15.858518 
L 222.810635 16.335774 
L 223.183052 19.05246 
L 223.555655 14.647023 
L 223.928071 21.769146 
L 224.300674 18.942324 
L 225.045694 22.576809 
L 225.418297 21.255178 
L 225.790713 18.465068 
L 226.163316 19.272732 
L 226.535733 21.769146 
L 226.908336 16.335774 
L 227.280753 16.702894 
L 227.653356 16.739606 
L 228.387028 20.410803 
L 228.759631 19.566428 
L 229.132048 19.382868 
L 229.50465 20.153819 
L 229.877067 19.639852 
L 230.622087 21.915994 
L 230.99469 17.583981 
L 231.367106 17.877677 
L 231.739709 22.540097 
L 232.123473 21.952706 
L 232.484729 20.741211 
L 232.857332 21.29189 
L 233.229749 17.840965 
L 233.602351 20.704499 
L 233.974768 20.814635 
L 234.347371 18.611916 
L 234.719788 19.786699 
L 235.092391 18.758764 
L 235.464808 19.272732 
L 235.83741 18.171373 
L 236.209827 18.208085 
L 236.58243 16.923166 
L 236.954847 20.153819 
L 237.316102 20.337379 
L 237.700052 18.68534 
L 238.061122 14.830583 
L 238.433725 17.987813 
L 238.806142 13.949496 
L 239.178744 15.858518 
L 239.573856 18.575204 
L 239.923764 15.381263 
L 240.296367 15.417975 
L 240.668784 13.251969 
L 241.052548 15.491399 
L 241.413803 19.199308 
L 241.786406 16.44591 
L 241.786406 16.44591 
" clip-path="url(#p737c8cacaf)" style="fill: none; stroke: #1f77b4; stroke-width: 1.5; stroke-linecap: square"/>
   </g>
   <g id="line2d_20">
    <path d="M 65.439234 134.291339 
L 66.94062 103.233011 
L 67.290528 98.827574 
L 68.035548 87.520287 
L 68.408151 83.555394 
L 68.780568 77.791614 
L 69.15317 77.314359 
L 69.525587 80.434876 
L 69.89819 77.240935 
L 70.270607 70.926476 
L 70.64321 70.155524 
L 71.015627 72.101259 
L 71.388229 71.844275 
L 71.760832 69.347861 
L 72.133249 67.695822 
L 72.517013 66.704599 
L 73.262033 66.631175 
L 73.623288 67.438838 
L 73.995891 65.23612 
L 74.368308 66.190631 
L 74.740911 63.914489 
L 75.113328 62.62957 
L 75.48593 60.940819 
L 75.869695 62.482722 
L 76.219603 58.884949 
L 76.603553 57.78359 
L 76.964622 58.884949 
L 77.337225 55.691008 
L 77.709642 54.62636 
L 78.082245 55.323888 
L 78.454848 55.397312 
L 78.827265 54.62636 
L 79.199867 52.607202 
L 79.944887 53.414865 
L 80.328651 51.799539 
L 80.689907 51.579267 
L 81.062323 48.789157 
L 81.434926 49.009429 
L 81.807343 50.074076 
L 82.179946 52.166658 
L 82.552363 51.028587 
L 82.924966 51.726115 
L 83.669985 48.275189 
L 84.042588 49.853804 
L 84.415005 49.082853 
L 84.787608 53.194594 
L 85.148677 54.002257 
L 85.52128 52.093234 
L 85.893883 48.752445 
L 86.2663 46.880134 
L 86.638902 49.890516 
L 87.011319 48.128341 
L 87.383922 48.348613 
L 87.756339 47.577662 
L 88.128942 47.504238 
L 88.501359 49.59682 
L 89.246378 48.789157 
L 89.618981 49.119565 
L 89.991398 49.743668 
L 90.364001 47.944782 
L 90.736603 47.981494 
L 91.10902 46.439591 
L 91.481623 46.109183 
L 91.85404 43.208937 
L 92.226643 45.338232 
L 92.59906 43.282361 
L 92.982824 45.852199 
L 93.344079 42.548122 
L 93.716682 45.007824 
L 94.450354 45.485079 
L 94.822957 45.411656 
L 95.195374 42.988665 
L 95.567977 45.264808 
L 95.940394 45.925623 
L 96.324344 45.411656 
L 96.685413 45.264808 
L 97.058016 45.705351 
L 97.430433 45.778775 
L 97.814383 46.476303 
L 98.175639 48.128341 
L 98.548055 44.236872 
L 98.920658 42.69497 
L 99.293075 42.32785 
L 99.665678 43.722905 
L 100.038095 44.20016 
L 100.783114 41.630322 
L 101.155717 42.401274 
L 101.528134 41.630322 
L 101.900737 42.548122 
L 102.273154 43.943177 
L 102.634409 41.483475 
L 103.007012 41.556899 
L 103.379429 42.181002 
L 103.752032 44.9344 
L 104.124448 42.51141 
L 104.497051 43.282361 
L 104.869654 39.464316 
L 105.242071 41.740458 
L 105.614674 42.51141 
L 105.998438 43.869753 
L 106.359693 42.87853 
L 106.73211 42.805106 
L 107.104713 43.025377 
L 107.488477 44.347008 
L 107.849733 41.850594 
L 108.222149 40.859371 
L 108.594752 41.006219 
L 108.967169 42.364562 
L 109.339772 40.161844 
L 109.712189 39.7213 
L 110.084791 39.647876 
L 110.457394 40.455539 
L 110.829811 37.445158 
L 111.202414 37.738854 
L 111.563483 37.775565 
L 111.936086 37.555294 
L 112.31985 37.078038 
L 112.681106 37.151462 
L 113.053709 38.142685 
L 113.426126 37.335022 
L 113.798728 40.161844 
L 114.171145 39.941572 
L 114.543748 38.950349 
L 114.916165 40.382115 
L 115.288768 38.473093 
L 115.661184 34.361352 
L 116.033787 41.079643 
L 116.406204 38.362957 
L 116.778807 38.619941 
L 117.15141 38.105973 
L 117.523827 38.142685 
L 117.896429 39.060484 
L 118.268846 37.224886 
L 118.641449 38.656653 
L 119.013866 38.913637 
L 119.758885 38.876925 
L 120.131488 37.848989 
L 120.492744 39.244044 
L 120.865161 38.142685 
L 121.237763 34.287928 
L 121.61018 36.894478 
L 121.982783 38.473093 
L 122.3552 36.967902 
L 122.727803 38.069261 
L 123.10022 37.702142 
L 123.472822 36.160239 
L 124.217842 38.803501 
L 124.590445 36.637494 
L 125.346626 37.445158 
L 125.707881 36.417223 
L 126.091645 36.600782 
L 126.452901 37.775565 
L 126.825504 35.132304 
L 127.197921 34.434776 
L 127.570523 36.123527 
L 127.94294 32.121922 
L 128.315543 31.497818 
L 128.68796 31.314258 
L 129.049215 30.947139 
L 129.421818 33.296705 
L 129.794235 29.515372 
L 130.166838 30.763579 
L 130.550602 32.525754 
L 130.911857 33.296705 
L 131.28446 33.039721 
L 132.02948 34.801896 
L 132.401897 34.544912 
L 132.7745 34.471488 
L 133.146916 33.737249 
L 133.519519 32.195346 
L 133.891936 31.571242 
L 134.275886 32.966297 
L 134.636956 33.039721 
L 135.009558 35.609559 
L 135.381975 34.5082 
L 135.754578 35.242439 
L 136.126995 33.553689 
L 136.499598 31.167411 
L 136.872201 32.856161 
L 137.244617 30.139475 
L 137.628382 32.195346 
L 137.97829 31.864938 
L 138.350893 34.030944 
L 138.723495 32.562466 
L 139.095912 34.177792 
L 139.468515 31.864938 
L 139.840932 34.067656 
L 140.213535 32.195346 
L 140.585951 32.562466 
L 140.969716 33.406841 
L 141.330971 35.425999 
L 142.075991 31.754802 
L 142.448594 31.754802 
L 142.82101 29.074828 
L 143.193613 30.176187 
L 143.566216 30.469883 
L 143.938633 29.221676 
L 144.311236 30.947139 
L 144.683653 31.975074 
L 145.056255 33.847385 
L 145.44002 31.975074 
L 145.801275 34.104368 
L 146.173692 34.251216 
L 146.546295 34.838608 
L 146.90755 32.232058 
L 147.279967 31.093987 
L 147.65257 33.039721 
L 148.024987 26.578414 
L 149.142609 31.093987 
L 149.515026 30.616731 
L 149.887629 28.487437 
L 150.260045 27.973469 
L 150.632648 32.746025 
L 151.005251 35.315863 
L 151.377668 32.011786 
L 151.750271 30.359747 
L 152.122688 29.66222 
L 152.49529 29.515372 
L 152.867707 30.102763 
L 153.24031 32.08521 
L 153.612727 32.378906 
L 153.98533 31.461106 
L 154.357747 31.497818 
L 154.730349 34.287928 
L 155.102766 30.396459 
L 155.475369 29.405236 
L 155.836624 29.772356 
L 156.209041 31.020563 
L 156.581644 30.616731 
L 156.954061 32.966297 
L 157.326664 30.249611 
L 157.699267 32.011786 
L 158.071683 30.139475 
L 158.444286 28.891268 
L 158.816703 31.497818 
L 159.561723 30.469883 
L 159.934326 31.607954 
L 160.306742 29.2951 
L 160.679345 30.726867 
L 161.051762 29.001404 
L 161.424365 29.882492 
L 161.796782 29.221676 
L 162.541801 31.681378 
L 162.914404 30.763579 
L 163.287007 27.643061 
L 163.659424 28.781132 
L 164.032027 28.891268 
L 164.393096 27.386078 
L 164.765699 30.800291 
L 165.510718 25.440343 
L 165.883321 25.550479 
L 166.255738 28.817844 
L 166.628341 23.971864 
L 167.000758 28.010181 
L 167.745777 29.221676 
L 168.11838 27.643061 
L 168.490797 28.707709 
L 168.8634 31.314258 
L 169.235817 29.698932 
L 169.60842 25.440343 
L 169.981022 28.964692 
L 170.364787 28.597573 
L 170.726042 30.029339 
L 171.098459 24.44912 
L 171.471062 25.109935 
L 171.843478 28.781132 
L 172.227243 26.211294 
L 172.588498 24.889663 
L 173.322356 26.651838 
L 173.694773 22.466673 
L 174.067376 26.50499 
L 174.439793 22.980641 
L 174.812396 23.164201 
L 175.568763 25.513767 
L 175.929832 29.772356 
L 176.302435 27.900045 
L 176.674852 23.568032 
L 177.047455 21.512162 
L 177.792474 25.477055 
L 178.176238 26.761974 
L 178.537494 28.854556 
L 178.910097 26.211294 
L 179.282514 27.532925 
L 179.655116 29.368524 
L 180.027533 28.267165 
L 180.400136 27.863333 
L 180.772553 29.735644 
L 181.517572 26.211294 
L 181.890175 26.358142 
L 182.623848 27.386078 
L 182.99645 26.431566 
L 183.368867 25.954311 
L 183.752817 25.109935 
L 184.114073 26.945534 
L 184.48649 24.008576 
L 184.870254 24.26556 
L 185.231509 25.477055 
L 185.604112 22.833793 
L 185.976529 24.44912 
L 186.349132 23.311049 
L 186.721549 27.459501 
L 187.094151 26.945534 
L 187.466568 27.312654 
L 187.839171 24.963087 
L 188.211588 26.835398 
L 188.584191 27.900045 
L 188.956608 28.267165 
L 189.32921 27.349366 
L 189.701813 27.459501 
L 190.07423 22.576809 
L 190.446833 24.302272 
L 190.81925 24.228848 
L 191.191852 22.356537 
L 191.553108 23.274337 
L 191.925525 22.136266 
L 192.670544 24.63268 
L 193.043147 23.017353 
L 193.415564 22.20969 
L 193.788167 27.092382 
L 194.160584 24.118712 
L 194.544534 26.211294 
L 194.905603 24.706104 
L 195.278206 23.89844 
L 195.650623 23.421185 
L 196.023226 24.926375 
L 196.395829 22.650233 
L 196.768245 24.228848 
L 197.513265 25.330207 
L 197.885868 25.073223 
L 198.630888 24.26556 
L 199.003304 25.036511 
L 199.375907 22.943929 
L 199.737163 23.274337 
L 200.109579 24.008576 
L 200.482182 23.164201 
L 200.854599 22.797081 
L 201.227202 20.300667 
L 201.599619 23.311049 
L 201.972222 23.641456 
L 202.344638 24.412408 
L 202.717241 27.312654 
L 203.101005 23.384473 
L 203.462261 22.136266 
L 203.834864 20.043683 
L 204.207281 21.255178 
L 204.579883 21.84257 
L 204.9523 21.47545 
L 205.324903 23.237625 
L 205.69732 27.092382 
L 206.069923 23.89844 
L 206.442339 26.101159 
L 206.814942 27.018958 
L 207.187359 24.852952 
L 207.932379 26.87211 
L 208.316329 30.543307 
L 208.666237 26.798686 
L 209.038654 28.524149 
L 209.783673 25.550479 
L 210.156276 27.532925 
L 210.528879 26.798686 
L 210.901296 28.120317 
L 211.273899 26.431566 
L 212.03008 21.438738 
L 212.775099 22.907217 
L 213.136355 25.697327 
L 213.508958 24.375696 
L 213.892722 24.63268 
L 214.253977 23.384473 
L 214.637742 24.375696 
L 214.998997 21.915994 
L 215.371414 23.531321 
L 215.744017 28.083605 
L 216.116619 26.725262 
L 216.489036 26.725262 
L 216.861639 25.293495 
L 217.234056 27.606349 
L 217.595311 25.770751 
L 217.967914 26.284718 
L 218.340331 24.008576 
L 218.712934 23.641456 
L 219.085351 21.402026 
L 219.457954 23.090777 
L 219.83037 22.136266 
L 220.202973 25.146647 
L 220.947993 24.963087 
L 221.32041 25.146647 
L 221.693012 25.477055 
L 222.065429 23.89844 
L 222.438032 25.293495 
L 222.810635 25.403631 
L 223.183052 24.63268 
L 223.555655 26.68855 
L 223.928071 20.190531 
L 224.311836 22.319825 
L 224.673091 22.319825 
L 225.045694 22.136266 
L 225.418111 21.732434 
L 225.790713 22.540097 
L 226.16313 23.788304 
L 226.524386 23.311049 
L 226.896989 24.192136 
L 227.269405 22.20969 
L 227.642008 18.942324 
L 228.387028 19.41958 
L 228.759445 21.47545 
L 229.132048 21.732434 
L 229.504464 25.146647 
L 229.877067 26.394854 
L 230.622087 26.798686 
L 230.99469 28.377301 
L 231.367106 24.742816 
L 231.739709 25.513767 
L 232.123473 24.559256 
L 232.868493 25.109935 
L 233.229749 23.678168 
L 233.602165 25.256783 
L 233.974768 24.192136 
L 234.347185 19.639852 
L 234.719788 24.192136 
L 235.092391 21.071618 
L 235.45346 20.777923 
L 235.826063 22.283113 
L 236.19848 21.402026 
L 236.19848 21.402026 
" clip-path="url(#p737c8cacaf)" style="fill: none; stroke: #ff7f0e; stroke-width: 1.5; stroke-linecap: square"/>
   </g>
   <g id="line2d_21">
    <path d="M 65.439234 134.291339 
L 65.81165 133.043132 
L 66.184253 130.693565 
L 66.545509 129.885902 
L 66.917926 127.462912 
L 67.662945 114.723858 
L 68.035548 107.785295 
L 69.152984 94.679121 
L 69.898004 88.988766 
L 70.270607 87.043031 
L 70.643024 83.151562 
L 71.015627 82.307187 
L 71.388229 80.177893 
L 71.760646 79.920909 
L 72.133249 76.543407 
L 72.505666 69.825117 
L 73.250686 72.027835 
L 73.995705 68.466774 
L 74.368308 64.869 
L 74.740725 67.622398 
L 75.113328 63.18025 
L 75.474583 66.704599 
L 75.847 66.447615 
L 76.219603 58.517829 
L 76.59202 61.454787 
L 76.964622 59.398917 
L 77.348387 61.344651 
L 77.709642 60.720548 
L 78.082245 56.682231 
L 78.454662 56.902503 
L 78.827265 58.481117 
L 79.199681 57.526606 
L 79.572284 54.920056 
L 79.944701 56.204975 
L 80.317304 55.874567 
L 80.689721 53.745273 
L 81.073485 53.892121 
L 81.43474 52.423642 
L 81.807343 52.01981 
L 82.17976 50.955163 
L 82.56371 53.231305 
L 82.92478 50.771603 
L 83.297382 50.404484 
L 83.669985 53.157882 
L 84.042402 50.881739 
L 84.403657 52.497066 
L 84.776074 51.102011 
L 85.148677 53.598425 
L 85.52128 53.781985 
L 85.893697 52.533778 
L 86.2663 53.047746 
L 86.638716 55.030192 
L 87.011319 48.642309 
L 87.383736 51.285571 
L 87.756339 49.303125 
L 88.128756 52.460354 
L 88.512706 52.166658 
L 88.873775 52.38693 
L 89.246378 48.128341 
L 89.618795 51.909675 
L 89.991398 48.532173 
L 90.364001 49.009429 
L 90.736417 52.607202 
L 91.10902 47.981494 
L 91.481437 47.283966 
L 91.85404 47.137118 
L 92.226457 46.256031 
L 92.59906 47.72451 
L 92.971476 43.098801 
L 93.332732 47.283966 
L 93.705335 44.824264 
L 94.077751 47.981494 
L 94.450354 46.659863 
L 94.822771 51.615979 
L 95.195374 51.175435 
L 95.579138 51.469131 
L 96.31281 47.17383 
L 96.685413 49.339837 
L 97.05783 48.936005 
L 97.430433 44.9344 
L 97.803036 47.283966 
L 98.1868 47.577662 
L 98.548055 46.843422 
L 98.920472 47.394102 
L 99.293075 48.165053 
L 99.665492 49.229701 
L 100.038095 48.165053 
L 100.410511 46.586439 
L 100.783114 44.126737 
L 101.155531 43.906465 
L 101.528134 49.266413 
L 101.900551 50.220924 
L 102.261806 49.890516 
L 103.006826 46.733287 
L 103.390776 49.486684 
L 103.763193 43.172225 
L 104.124448 50.51462 
L 104.497051 48.165053 
L 104.869468 44.38372 
L 105.253232 43.649481 
L 105.614488 43.869753 
L 105.98709 42.107578 
L 106.359507 41.116355 
L 106.743271 44.860976 
L 107.104527 42.841818 
L 107.47713 44.493856 
L 107.849547 44.126737 
L 108.222149 44.420432 
L 108.594566 46.99027 
L 108.967169 46.80671 
L 109.350933 41.740458 
L 109.712189 44.897688 
L 110.084791 40.822659 
L 110.468556 42.181002 
L 110.818464 45.778775 
L 111.191067 46.219319 
L 111.563483 47.17383 
L 111.936086 47.761222 
L 112.308503 41.997442 
L 112.681106 41.77717 
L 113.053523 36.967902 
L 113.426126 45.411656 
L 113.798542 45.007824 
L 114.171145 45.044536 
L 114.543562 43.135513 
L 114.916165 40.382115 
L 115.661184 39.53774 
L 116.033601 46.439591 
L 116.406204 44.310296 
L 116.778807 43.943177 
L 117.151224 45.228096 
L 117.534988 43.282361 
L 117.896243 43.576057 
L 118.268846 40.455539 
L 118.65261 43.319073 
L 119.013866 46.953558 
L 119.386283 44.9344 
L 119.747538 45.705351 
L 120.120141 43.833041 
L 120.492558 44.860976 
L 120.865161 44.457144 
L 121.248925 45.742063 
L 121.61018 42.217714 
L 121.982597 42.87853 
L 122.3552 42.364562 
L 122.727617 44.714128 
L 123.10022 40.749235 
L 123.472822 43.319073 
L 123.845239 42.107578 
L 124.217842 37.66543 
L 124.590259 37.224886 
L 124.974023 40.382115 
L 125.335278 39.244044 
L 125.707881 40.345403 
L 126.080298 42.768394 
L 126.452901 41.373339 
L 126.825318 41.079643 
L 127.197921 40.125132 
L 127.954288 45.411656 
L 128.326704 40.675811 
L 128.676612 40.492251 
L 129.421632 42.841818 
L 129.794235 38.913637 
L 130.166652 43.465921 
L 130.539255 45.742063 
L 130.911857 44.787552 
L 131.284274 43.025377 
L 131.668038 43.979889 
L 132.029294 39.390892 
L 132.401897 40.418827 
L 132.774314 40.675811 
L 133.146916 44.310296 
L 133.519333 42.401274 
L 133.891936 41.924018 
L 134.264353 42.474698 
L 134.636956 38.619941 
L 135.009372 40.125132 
L 135.381975 37.702142 
L 135.754578 39.244044 
L 136.126995 39.7213 
L 136.499598 36.74763 
L 136.872015 41.483475 
L 137.23327 38.142685 
L 137.605873 38.730077 
L 137.97829 39.794724 
L 138.350893 42.951953 
L 138.723309 39.317468 
L 139.095912 38.619941 
L 139.468329 43.502633 
L 140.213349 39.133908 
L 140.585951 37.812277 
L 140.958368 39.574452 
L 141.330971 38.693365 
L 141.703388 36.821054 
L 142.087338 38.179397 
L 142.459755 36.637494 
L 142.82101 36.086815 
L 143.193613 33.627113 
L 143.938633 36.674206 
L 144.31105 37.66543 
L 144.683653 37.261598 
L 145.056069 36.380511 
L 145.428672 37.004614 
L 145.812436 35.279151 
L 146.162344 36.637494 
L 146.534947 35.682983 
L 146.918711 36.160239 
L 147.279967 36.123527 
L 148.024987 30.139475 
L 148.408751 31.791514 
L 148.770006 35.205727 
L 149.142423 36.674206 
L 149.515026 39.464316 
L 149.887629 33.773961 
L 150.260045 32.635889 
L 150.632648 32.856161 
L 151.016412 34.287928 
L 151.750085 32.011786 
L 152.133849 35.462711 
L 152.495104 35.866543 
L 152.867707 35.352575 
L 153.612727 37.738854 
L 153.985144 35.682983 
L 154.357747 35.389287 
L 154.730349 35.976679 
L 155.102766 34.104368 
L 155.464022 35.462711 
L 155.836438 34.87532 
L 156.209041 37.11475 
L 156.581644 30.910427 
L 156.965408 29.2951 
L 157.699081 35.572847 
L 158.071683 33.443553 
L 158.4441 35.242439 
L 158.816703 31.975074 
L 159.18912 30.066051 
L 159.934139 34.985456 
L 160.306742 33.737249 
L 160.679159 36.086815 
L 161.051762 36.894478 
L 161.424179 35.903255 
L 161.796782 36.196951 
L 162.180546 33.810673 
L 162.541801 32.966297 
L 162.914404 34.618336 
L 163.286821 32.08521 
L 163.659424 31.424394 
L 164.020679 33.847385 
L 164.393096 34.838608 
L 164.765699 29.001404 
L 165.138116 32.746025 
L 165.510718 29.2951 
L 165.894483 28.157029 
L 166.255738 32.158634 
L 166.628155 30.139475 
L 167.373175 33.039721 
L 167.745777 30.286323 
L 168.118194 33.773961 
L 168.490797 30.983851 
L 168.8634 33.95752 
L 169.235817 32.121922 
L 169.60842 32.342194 
L 169.980836 35.05888 
L 170.353439 34.214504 
L 170.725856 29.955916 
L 171.098459 30.837003 
L 171.470876 32.635889 
L 171.843478 28.046893 
L 172.215895 28.634285 
L 172.577151 28.670997 
L 172.949754 28.450725 
L 173.694773 26.541702 
L 174.06719 26.68855 
L 174.439793 29.001404 
L 174.81221 29.11154 
L 175.184812 33.113145 
L 175.557229 30.212899 
L 175.929832 32.26877 
L 176.302435 33.700537 
L 176.674852 31.754802 
L 177.047455 31.424394 
L 177.431219 28.303877 
L 177.792474 32.819449 
L 178.909911 28.120317 
L 179.282514 28.817844 
L 179.65493 28.267165 
L 180.027533 26.908822 
L 180.39995 29.84578 
L 180.7839 28.74442 
L 181.145156 30.359747 
L 181.506225 30.506595 
L 181.878828 26.651838 
L 182.251245 24.999799 
L 182.623848 30.139475 
L 182.99645 24.926375 
L 183.368867 25.293495 
L 183.74147 24.155424 
L 184.113887 24.742816 
L 184.497651 26.248006 
L 184.858906 29.405236 
L 185.242671 30.359747 
L 185.603926 27.349366 
L 185.976529 29.001404 
L 186.348946 28.560861 
L 186.721549 29.698932 
L 187.093965 29.66222 
L 187.466568 28.230453 
L 187.839171 30.249611 
L 188.211588 27.459501 
L 188.584191 29.11154 
L 188.967955 31.71809 
L 189.32921 30.066051 
L 189.701627 26.908822 
L 190.07423 28.377301 
L 190.435485 31.057275 
L 190.807902 27.569637 
L 191.180505 25.991023 
L 191.552922 29.258388 
L 191.925525 30.249611 
L 192.297942 25.293495 
L 192.670544 28.303877 
L 193.042961 28.303877 
L 193.415564 22.650233 
L 193.787981 28.377301 
L 194.160584 26.468278 
L 194.533 20.924771 
L 194.905603 26.027735 
L 195.278206 25.587191 
L 195.650623 26.761974 
L 196.023226 25.440343 
L 196.395643 25.991023 
L 196.768245 25.660615 
L 197.140662 27.092382 
L 197.513265 27.42279 
L 197.885682 29.919204 
L 198.269632 26.284718 
L 198.630702 28.120317 
L 198.991957 24.559256 
L 199.36456 27.459501 
L 199.736977 27.349366 
L 200.481996 24.522544 
L 201.227016 25.587191 
L 201.599619 25.660615 
L 201.972222 29.001404 
L 202.344638 26.578414 
L 202.717241 27.789909 
L 203.089658 22.503385 
L 203.462261 26.945534 
L 203.834678 21.145042 
L 204.207281 20.374091 
L 204.579697 23.127489 
L 204.9523 24.485832 
L 205.324717 24.375696 
L 205.708667 23.274337 
L 206.069737 24.26556 
L 206.442339 24.082 
L 206.814756 25.073223 
L 207.187359 20.777923 
L 207.559962 23.164201 
L 207.921031 21.989418 
L 208.293634 18.648628 
L 208.666051 21.47545 
L 209.038654 21.84257 
L 209.411257 20.410803 
L 209.783673 20.410803 
L 210.528693 23.054065 
L 210.912457 23.127489 
L 211.273713 23.421185 
L 211.646316 21.585586 
L 212.018732 22.833793 
L 212.391335 22.246402 
L 212.763752 21.145042 
L 213.136355 18.8689 
L 213.508772 17.730829 
L 213.881375 14.610311 
L 214.253977 15.050855 
L 214.626394 18.391645 
L 214.998997 18.979036 
L 215.371414 18.354933 
L 215.744017 20.447515 
L 216.116433 23.604744 
L 216.489036 21.145042 
L 216.850292 24.192136 
L 217.222709 21.512162 
L 217.595311 21.65901 
L 217.967728 22.062842 
L 218.340331 23.89844 
L 218.712748 23.494609 
L 219.085351 21.47545 
L 219.469115 17.620693 
L 219.83037 17.326997 
L 220.202787 15.307839 
L 220.57539 21.145042 
L 220.947807 14.39004 
L 221.32041 17.583981 
L 221.693012 18.244797 
L 222.065429 21.879282 
L 222.438032 21.84257 
L 222.810449 18.832188 
L 223.183052 18.061237 
L 223.555469 25.513767 
L 223.939233 23.054065 
L 224.300488 22.833793 
L 224.673091 17.987813 
L 225.045508 19.346156 
L 225.418111 22.870505 
L 225.779366 20.851347 
L 226.16313 20.153819 
L 226.524386 21.438738 
L 226.896803 18.354933 
L 227.269405 20.924771 
L 227.641822 20.374091 
L 228.014425 19.089172 
L 228.387028 21.84257 
L 228.759445 22.136266 
L 229.132048 23.274337 
L 229.504464 21.952706 
L 229.877067 16.776318 
L 230.260831 20.117107 
L 230.622087 18.832188 
L 230.994504 16.225638 
L 231.739523 18.795476 
L 232.112126 18.097949 
L 232.484543 21.10833 
L 232.857146 22.613521 
L 233.229563 24.81624 
L 233.602165 21.732434 
L 233.974768 23.090777 
L 234.335838 21.695722 
L 234.708441 22.393249 
L 235.080857 22.246402 
L 235.464808 20.998194 
L 235.826063 21.10833 
L 236.209827 24.082 
L 236.571083 22.650233 
L 236.943499 23.531321 
L 237.327264 22.540097 
L 237.688519 21.181754 
L 238.433539 20.741211 
L 238.806142 20.961483 
L 239.189906 20.851347 
L 239.189906 20.851347 
" clip-path="url(#p737c8cacaf)" style="fill: none; stroke: #2ca02c; stroke-width: 1.5; stroke-linecap: square"/>
   </g>
   <g id="patch_3">
    <path d="M 56.621875 140.343307 
L 56.621875 7.2 
" style="fill: none; stroke: #000000; stroke-width: 0.8; stroke-linejoin: miter; stroke-linecap: square"/>
   </g>
   <g id="patch_4">
    <path d="M 250.603765 140.343307 
L 250.603765 7.2 
" style="fill: none; stroke: #000000; stroke-width: 0.8; stroke-linejoin: miter; stroke-linecap: square"/>
   </g>
   <g id="patch_5">
    <path d="M 56.621875 140.343307 
L 250.603765 140.343307 
" style="fill: none; stroke: #000000; stroke-width: 0.8; stroke-linejoin: miter; stroke-linecap: square"/>
   </g>
   <g id="patch_6">
    <path d="M 56.621875 7.2 
L 250.603765 7.2 
" style="fill: none; stroke: #000000; stroke-width: 0.8; stroke-linejoin: miter; stroke-linecap: square"/>
   </g>
   <g id="legend_1">
    <g id="patch_7">
     <path d="M 60.821875 37.450312 
L 94.186562 37.450312 
Q 95.386562 37.450312 95.386562 36.250313 
L 95.386562 11.4 
Q 95.386562 10.2 94.186562 10.2 
L 60.821875 10.2 
Q 59.621875 10.2 59.621875 11.4 
L 59.621875 36.250313 
Q 59.621875 37.450312 60.821875 37.450312 
z
" style="fill: #ffffff; opacity: 0.8; stroke: #cccccc; stroke-linejoin: miter"/>
    </g>
    <g id="line2d_22">
     <path d="M 62.021875 14.7 
L 68.021875 14.7 
L 74.021875 14.7 
" style="fill: none; stroke: #1f77b4; stroke-width: 1.5; stroke-linecap: square"/>
    </g>
    <g id="text_12">
     <!-- Exp 1 -->
     <g transform="translate(78.821875 16.8) scale(0.06 -0.06)">
      <defs>
       <path id="TimesNewRomanPSMT-45" d="M 1338 4006 
L 1338 2331 
L 2269 2331 
Q 2631 2331 2753 2441 
Q 2916 2584 2934 2947 
L 3050 2947 
L 3050 1472 
L 2934 1472 
Q 2891 1781 2847 1869 
Q 2791 1978 2662 2040 
Q 2534 2103 2269 2103 
L 1338 2103 
L 1338 706 
Q 1338 425 1363 364 
Q 1388 303 1450 267 
Q 1513 231 1688 231 
L 2406 231 
Q 2766 231 2928 281 
Q 3091 331 3241 478 
Q 3434 672 3638 1063 
L 3763 1063 
L 3397 0 
L 131 0 
L 131 116 
L 281 116 
Q 431 116 566 188 
Q 666 238 702 338 
Q 738 438 738 747 
L 738 3500 
Q 738 3903 656 3997 
Q 544 4122 281 4122 
L 131 4122 
L 131 4238 
L 3397 4238 
L 3444 3309 
L 3322 3309 
Q 3256 3644 3176 3769 
Q 3097 3894 2941 3959 
Q 2816 4006 2500 4006 
L 1338 4006 
z
" transform="scale(0.015625)"/>
       <path id="TimesNewRomanPSMT-70" d="M -6 2578 
L 875 2934 
L 994 2934 
L 994 2266 
Q 1216 2644 1439 2795 
Q 1663 2947 1909 2947 
Q 2341 2947 2628 2609 
Q 2981 2197 2981 1534 
Q 2981 794 2556 309 
Q 2206 -88 1675 -88 
Q 1444 -88 1275 -22 
Q 1150 25 994 166 
L 994 -706 
Q 994 -1000 1030 -1079 
Q 1066 -1159 1155 -1206 
Q 1244 -1253 1478 -1253 
L 1478 -1369 
L -22 -1369 
L -22 -1253 
L 56 -1253 
Q 228 -1256 350 -1188 
Q 409 -1153 442 -1076 
Q 475 -1000 475 -688 
L 475 2019 
Q 475 2297 450 2372 
Q 425 2447 370 2484 
Q 316 2522 222 2522 
Q 147 2522 31 2478 
L -6 2578 
z
M 994 2081 
L 994 1013 
Q 994 666 1022 556 
Q 1066 375 1236 237 
Q 1406 100 1666 100 
Q 1978 100 2172 344 
Q 2425 663 2425 1241 
Q 2425 1897 2138 2250 
Q 1938 2494 1663 2494 
Q 1513 2494 1366 2419 
Q 1253 2363 994 2081 
z
" transform="scale(0.015625)"/>
      </defs>
      <use xlink:href="#TimesNewRomanPSMT-45"/>
      <use xlink:href="#TimesNewRomanPSMT-78" x="61.083984"/>
      <use xlink:href="#TimesNewRomanPSMT-70" x="111.083984"/>
      <use xlink:href="#TimesNewRomanPSMT-20" x="161.083984"/>
      <use xlink:href="#TimesNewRomanPSMT-31" x="186.083984"/>
     </g>
    </g>
    <g id="line2d_23">
     <path d="M 62.021875 23.183438 
L 68.021875 23.183438 
L 74.021875 23.183438 
" style="fill: none; stroke: #ff7f0e; stroke-width: 1.5; stroke-linecap: square"/>
    </g>
    <g id="text_13">
     <!-- Exp 2 -->
     <g transform="translate(78.821875 25.283438) scale(0.06 -0.06)">
      <use xlink:href="#TimesNewRomanPSMT-45"/>
      <use xlink:href="#TimesNewRomanPSMT-78" x="61.083984"/>
      <use xlink:href="#TimesNewRomanPSMT-70" x="111.083984"/>
      <use xlink:href="#TimesNewRomanPSMT-20" x="161.083984"/>
      <use xlink:href="#TimesNewRomanPSMT-32" x="186.083984"/>
     </g>
    </g>
    <g id="line2d_24">
     <path d="M 62.021875 31.666875 
L 68.021875 31.666875 
L 74.021875 31.666875 
" style="fill: none; stroke: #2ca02c; stroke-width: 1.5; stroke-linecap: square"/>
    </g>
    <g id="text_14">
     <!-- Exp 3 -->
     <g transform="translate(78.821875 33.766875) scale(0.06 -0.06)">
      <use xlink:href="#TimesNewRomanPSMT-45"/>
      <use xlink:href="#TimesNewRomanPSMT-78" x="61.083984"/>
      <use xlink:href="#TimesNewRomanPSMT-70" x="111.083984"/>
      <use xlink:href="#TimesNewRomanPSMT-20" x="161.083984"/>
      <use xlink:href="#TimesNewRomanPSMT-33" x="186.083984"/>
     </g>
    </g>
   </g>
  </g>
 </g>
 <defs>
  <clipPath id="p737c8cacaf">
   <rect x="56.621875" y="7.2" width="193.98189" height="133.143307"/>
  </clipPath>
 </defs>
</svg>
