<?xml version="1.0" encoding="utf-8" standalone="no"?>
<!DOCTYPE svg PUBLIC "-//W3C//DTD SVG 1.1//EN"
  "http://www.w3.org/Graphics/SVG/1.1/DTD/svg11.dtd">
<svg xmlns:xlink="http://www.w3.org/1999/xlink" width="252.781265pt" height="180.351941pt" viewBox="0 0 252.781265 180.351941" xmlns="http://www.w3.org/2000/svg" version="1.1">
 <metadata>
  <rdf:RDF xmlns:dc="http://purl.org/dc/elements/1.1/" xmlns:cc="http://creativecommons.org/ns#" xmlns:rdf="http://www.w3.org/1999/02/22-rdf-syntax-ns#">
   <cc:Work>
    <dc:type rdf:resource="http://purl.org/dc/dcmitype/StillImage"/>
    <dc:date>2025-09-03T17:20:34.018679</dc:date>
    <dc:format>image/svg+xml</dc:format>
    <dc:creator>
     <cc:Agent>
      <dc:title>Matplotlib v3.9.2, https://matplotlib.org/</dc:title>
     </cc:Agent>
    </dc:creator>
   </cc:Work>
  </rdf:RDF>
 </metadata>
 <defs>
  <style type="text/css">*{stroke-linejoin: round; stroke-linecap: butt}</style>
 </defs>
 <g id="figure_1">
  <g id="patch_1">
   <path d="M 0 180.351941 
L 252.781265 180.351941 
L 252.781265 0 
L 0 0 
L 0 180.351941 
z
" style="fill: none"/>
  </g>
  <g id="axes_1">
   <g id="patch_2">
    <path d="M 51.599375 142.169753 
L 245.581265 142.169753 
L 245.581265 9.026446 
L 51.599375 9.026446 
L 51.599375 142.169753 
z
" style="fill: none"/>
   </g>
   <g id="matplotlib.axis_1">
    <g id="xtick_1">
     <g id="line2d_1">
      <path d="M 60.416734 142.169753 
L 60.416734 9.026446 
" clip-path="url(#p02ac732aa7)" style="fill: none; stroke: #b0b0b0; stroke-width: 0.8; stroke-linecap: square"/>
     </g>
     <g id="line2d_2">
      <defs>
       <path id="mff0dda093d" d="M 0 0 
L 0 3.5 
" style="stroke: #000000; stroke-width: 0.8"/>
      </defs>
      <g>
       <use xlink:href="#mff0dda093d" x="60.416734" y="142.169753" style="stroke: #000000; stroke-width: 0.8"/>
      </g>
     </g>
     <g id="text_1">
      <!-- 0 -->
      <g transform="translate(57.916734 156.113503) scale(0.1 -0.1)">
       <defs>
        <path id="TimesNewRomanPSMT-30" d="M 231 2094 
Q 231 2819 450 3342 
Q 669 3866 1031 4122 
Q 1313 4325 1613 4325 
Q 2100 4325 2488 3828 
Q 2972 3213 2972 2159 
Q 2972 1422 2759 906 
Q 2547 391 2217 158 
Q 1888 -75 1581 -75 
Q 975 -75 572 641 
Q 231 1244 231 2094 
z
M 844 2016 
Q 844 1141 1059 588 
Q 1238 122 1591 122 
Q 1759 122 1940 273 
Q 2122 425 2216 781 
Q 2359 1319 2359 2297 
Q 2359 3022 2209 3506 
Q 2097 3866 1919 4016 
Q 1791 4119 1609 4119 
Q 1397 4119 1231 3928 
Q 1006 3669 925 3112 
Q 844 2556 844 2016 
z
" transform="scale(0.015625)"/>
       </defs>
       <use xlink:href="#TimesNewRomanPSMT-30"/>
      </g>
     </g>
    </g>
    <g id="xtick_2">
     <g id="line2d_3">
      <path d="M 107.828273 142.169753 
L 107.828273 9.026446 
" clip-path="url(#p02ac732aa7)" style="fill: none; stroke: #b0b0b0; stroke-width: 0.8; stroke-linecap: square"/>
     </g>
     <g id="line2d_4">
      <g>
       <use xlink:href="#mff0dda093d" x="107.828273" y="142.169753" style="stroke: #000000; stroke-width: 0.8"/>
      </g>
     </g>
     <g id="text_2">
      <!-- 2000 -->
      <g transform="translate(97.828273 156.113503) scale(0.1 -0.1)">
       <defs>
        <path id="TimesNewRomanPSMT-32" d="M 2934 816 
L 2638 0 
L 138 0 
L 138 116 
Q 1241 1122 1691 1759 
Q 2141 2397 2141 2925 
Q 2141 3328 1894 3587 
Q 1647 3847 1303 3847 
Q 991 3847 742 3664 
Q 494 3481 375 3128 
L 259 3128 
Q 338 3706 661 4015 
Q 984 4325 1469 4325 
Q 1984 4325 2329 3994 
Q 2675 3663 2675 3213 
Q 2675 2891 2525 2569 
Q 2294 2063 1775 1497 
Q 997 647 803 472 
L 1909 472 
Q 2247 472 2383 497 
Q 2519 522 2628 598 
Q 2738 675 2819 816 
L 2934 816 
z
" transform="scale(0.015625)"/>
       </defs>
       <use xlink:href="#TimesNewRomanPSMT-32"/>
       <use xlink:href="#TimesNewRomanPSMT-30" x="50"/>
       <use xlink:href="#TimesNewRomanPSMT-30" x="100"/>
       <use xlink:href="#TimesNewRomanPSMT-30" x="150"/>
      </g>
     </g>
    </g>
    <g id="xtick_3">
     <g id="line2d_5">
      <path d="M 155.239812 142.169753 
L 155.239812 9.026446 
" clip-path="url(#p02ac732aa7)" style="fill: none; stroke: #b0b0b0; stroke-width: 0.8; stroke-linecap: square"/>
     </g>
     <g id="line2d_6">
      <g>
       <use xlink:href="#mff0dda093d" x="155.239812" y="142.169753" style="stroke: #000000; stroke-width: 0.8"/>
      </g>
     </g>
     <g id="text_3">
      <!-- 4000 -->
      <g transform="translate(145.239812 156.113503) scale(0.1 -0.1)">
       <defs>
        <path id="TimesNewRomanPSMT-34" d="M 2978 1563 
L 2978 1119 
L 2409 1119 
L 2409 0 
L 1894 0 
L 1894 1119 
L 100 1119 
L 100 1519 
L 2066 4325 
L 2409 4325 
L 2409 1563 
L 2978 1563 
z
M 1894 1563 
L 1894 3666 
L 406 1563 
L 1894 1563 
z
" transform="scale(0.015625)"/>
       </defs>
       <use xlink:href="#TimesNewRomanPSMT-34"/>
       <use xlink:href="#TimesNewRomanPSMT-30" x="50"/>
       <use xlink:href="#TimesNewRomanPSMT-30" x="100"/>
       <use xlink:href="#TimesNewRomanPSMT-30" x="150"/>
      </g>
     </g>
    </g>
    <g id="xtick_4">
     <g id="line2d_7">
      <path d="M 202.651351 142.169753 
L 202.651351 9.026446 
" clip-path="url(#p02ac732aa7)" style="fill: none; stroke: #b0b0b0; stroke-width: 0.8; stroke-linecap: square"/>
     </g>
     <g id="line2d_8">
      <g>
       <use xlink:href="#mff0dda093d" x="202.651351" y="142.169753" style="stroke: #000000; stroke-width: 0.8"/>
      </g>
     </g>
     <g id="text_4">
      <!-- 6000 -->
      <g transform="translate(192.651351 156.113503) scale(0.1 -0.1)">
       <defs>
        <path id="TimesNewRomanPSMT-36" d="M 2869 4325 
L 2869 4209 
Q 2456 4169 2195 4045 
Q 1934 3922 1679 3669 
Q 1425 3416 1258 3105 
Q 1091 2794 978 2366 
Q 1428 2675 1881 2675 
Q 2316 2675 2634 2325 
Q 2953 1975 2953 1425 
Q 2953 894 2631 456 
Q 2244 -75 1606 -75 
Q 1172 -75 869 213 
Q 275 772 275 1663 
Q 275 2231 503 2743 
Q 731 3256 1154 3653 
Q 1578 4050 1965 4187 
Q 2353 4325 2688 4325 
L 2869 4325 
z
M 925 2138 
Q 869 1716 869 1456 
Q 869 1156 980 804 
Q 1091 453 1309 247 
Q 1469 100 1697 100 
Q 1969 100 2183 356 
Q 2397 613 2397 1088 
Q 2397 1622 2184 2012 
Q 1972 2403 1581 2403 
Q 1463 2403 1327 2353 
Q 1191 2303 925 2138 
z
" transform="scale(0.015625)"/>
       </defs>
       <use xlink:href="#TimesNewRomanPSMT-36"/>
       <use xlink:href="#TimesNewRomanPSMT-30" x="50"/>
       <use xlink:href="#TimesNewRomanPSMT-30" x="100"/>
       <use xlink:href="#TimesNewRomanPSMT-30" x="150"/>
      </g>
     </g>
    </g>
    <g id="text_5">
     <!-- Time -->
     <g transform="translate(136.138445 170.585066) scale(0.12 -0.12)">
      <defs>
       <path id="TimesNewRomanPSMT-54" d="M 3703 4238 
L 3750 3244 
L 3631 3244 
Q 3597 3506 3538 3619 
Q 3441 3800 3280 3886 
Q 3119 3972 2856 3972 
L 2259 3972 
L 2259 734 
Q 2259 344 2344 247 
Q 2463 116 2709 116 
L 2856 116 
L 2856 0 
L 1059 0 
L 1059 116 
L 1209 116 
Q 1478 116 1591 278 
Q 1659 378 1659 734 
L 1659 3972 
L 1150 3972 
Q 853 3972 728 3928 
Q 566 3869 450 3700 
Q 334 3531 313 3244 
L 194 3244 
L 244 4238 
L 3703 4238 
z
" transform="scale(0.015625)"/>
       <path id="TimesNewRomanPSMT-69" d="M 928 4444 
Q 1059 4444 1151 4351 
Q 1244 4259 1244 4128 
Q 1244 3997 1151 3903 
Q 1059 3809 928 3809 
Q 797 3809 703 3903 
Q 609 3997 609 4128 
Q 609 4259 701 4351 
Q 794 4444 928 4444 
z
M 1188 2947 
L 1188 647 
Q 1188 378 1227 289 
Q 1266 200 1342 156 
Q 1419 113 1622 113 
L 1622 0 
L 231 0 
L 231 113 
Q 441 113 512 153 
Q 584 194 626 287 
Q 669 381 669 647 
L 669 1750 
Q 669 2216 641 2353 
Q 619 2453 572 2492 
Q 525 2531 444 2531 
Q 356 2531 231 2484 
L 188 2597 
L 1050 2947 
L 1188 2947 
z
" transform="scale(0.015625)"/>
       <path id="TimesNewRomanPSMT-6d" d="M 1050 2338 
Q 1363 2650 1419 2697 
Q 1559 2816 1721 2881 
Q 1884 2947 2044 2947 
Q 2313 2947 2506 2790 
Q 2700 2634 2766 2338 
Q 3088 2713 3309 2830 
Q 3531 2947 3766 2947 
Q 3994 2947 4170 2830 
Q 4347 2713 4450 2447 
Q 4519 2266 4519 1878 
L 4519 647 
Q 4519 378 4559 278 
Q 4591 209 4675 161 
Q 4759 113 4950 113 
L 4950 0 
L 3538 0 
L 3538 113 
L 3597 113 
Q 3781 113 3884 184 
Q 3956 234 3988 344 
Q 4000 397 4000 647 
L 4000 1878 
Q 4000 2228 3916 2372 
Q 3794 2572 3525 2572 
Q 3359 2572 3192 2489 
Q 3025 2406 2788 2181 
L 2781 2147 
L 2788 2013 
L 2788 647 
Q 2788 353 2820 281 
Q 2853 209 2943 161 
Q 3034 113 3253 113 
L 3253 0 
L 1806 0 
L 1806 113 
Q 2044 113 2133 169 
Q 2222 225 2256 338 
Q 2272 391 2272 647 
L 2272 1878 
Q 2272 2228 2169 2381 
Q 2031 2581 1784 2581 
Q 1616 2581 1450 2491 
Q 1191 2353 1050 2181 
L 1050 647 
Q 1050 366 1089 281 
Q 1128 197 1204 155 
Q 1281 113 1516 113 
L 1516 0 
L 100 0 
L 100 113 
Q 297 113 375 155 
Q 453 197 493 289 
Q 534 381 534 647 
L 534 1741 
Q 534 2213 506 2350 
Q 484 2453 437 2492 
Q 391 2531 309 2531 
Q 222 2531 100 2484 
L 53 2597 
L 916 2947 
L 1050 2947 
L 1050 2338 
z
" transform="scale(0.015625)"/>
       <path id="TimesNewRomanPSMT-65" d="M 681 1784 
Q 678 1147 991 784 
Q 1303 422 1725 422 
Q 2006 422 2214 576 
Q 2422 731 2563 1106 
L 2659 1044 
Q 2594 616 2278 264 
Q 1963 -88 1488 -88 
Q 972 -88 605 314 
Q 238 716 238 1394 
Q 238 2128 614 2539 
Q 991 2950 1559 2950 
Q 2041 2950 2350 2633 
Q 2659 2316 2659 1784 
L 681 1784 
z
M 681 1966 
L 2006 1966 
Q 1991 2241 1941 2353 
Q 1863 2528 1708 2628 
Q 1553 2728 1384 2728 
Q 1125 2728 920 2526 
Q 716 2325 681 1966 
z
" transform="scale(0.015625)"/>
      </defs>
      <use xlink:href="#TimesNewRomanPSMT-54"/>
      <use xlink:href="#TimesNewRomanPSMT-69" x="57.583984"/>
      <use xlink:href="#TimesNewRomanPSMT-6d" x="85.367188"/>
      <use xlink:href="#TimesNewRomanPSMT-65" x="163.150391"/>
     </g>
    </g>
   </g>
   <g id="matplotlib.axis_2">
    <g id="ytick_1">
     <g id="line2d_9">
      <path d="M 51.599375 131.039227 
L 245.581265 131.039227 
" clip-path="url(#p02ac732aa7)" style="fill: none; stroke: #b0b0b0; stroke-width: 0.8; stroke-linecap: square"/>
     </g>
     <g id="line2d_10">
      <defs>
       <path id="m7c143ca842" d="M 0 0 
L -3.5 0 
" style="stroke: #000000; stroke-width: 0.8"/>
      </defs>
      <g>
       <use xlink:href="#m7c143ca842" x="51.599375" y="131.039227" style="stroke: #000000; stroke-width: 0.8"/>
      </g>
     </g>
     <g id="text_6">
      <!-- 0.000 -->
      <g transform="translate(22.099375 134.511102) scale(0.1 -0.1)">
       <defs>
        <path id="TimesNewRomanPSMT-2e" d="M 800 606 
Q 947 606 1047 504 
Q 1147 403 1147 259 
Q 1147 116 1045 14 
Q 944 -88 800 -88 
Q 656 -88 554 14 
Q 453 116 453 259 
Q 453 406 554 506 
Q 656 606 800 606 
z
" transform="scale(0.015625)"/>
       </defs>
       <use xlink:href="#TimesNewRomanPSMT-30"/>
       <use xlink:href="#TimesNewRomanPSMT-2e" x="50"/>
       <use xlink:href="#TimesNewRomanPSMT-30" x="75"/>
       <use xlink:href="#TimesNewRomanPSMT-30" x="125"/>
       <use xlink:href="#TimesNewRomanPSMT-30" x="175"/>
      </g>
     </g>
    </g>
    <g id="ytick_2">
     <g id="line2d_11">
      <path d="M 51.599375 103.739556 
L 245.581265 103.739556 
" clip-path="url(#p02ac732aa7)" style="fill: none; stroke: #b0b0b0; stroke-width: 0.8; stroke-linecap: square"/>
     </g>
     <g id="line2d_12">
      <g>
       <use xlink:href="#m7c143ca842" x="51.599375" y="103.739556" style="stroke: #000000; stroke-width: 0.8"/>
      </g>
     </g>
     <g id="text_7">
      <!-- 0.001 -->
      <g transform="translate(22.099375 107.211431) scale(0.1 -0.1)">
       <defs>
        <path id="TimesNewRomanPSMT-31" d="M 750 3822 
L 1781 4325 
L 1884 4325 
L 1884 747 
Q 1884 391 1914 303 
Q 1944 216 2037 169 
Q 2131 122 2419 116 
L 2419 0 
L 825 0 
L 825 116 
Q 1125 122 1212 167 
Q 1300 213 1334 289 
Q 1369 366 1369 747 
L 1369 3034 
Q 1369 3497 1338 3628 
Q 1316 3728 1258 3775 
Q 1200 3822 1119 3822 
Q 1003 3822 797 3725 
L 750 3822 
z
" transform="scale(0.015625)"/>
       </defs>
       <use xlink:href="#TimesNewRomanPSMT-30"/>
       <use xlink:href="#TimesNewRomanPSMT-2e" x="50"/>
       <use xlink:href="#TimesNewRomanPSMT-30" x="75"/>
       <use xlink:href="#TimesNewRomanPSMT-30" x="125"/>
       <use xlink:href="#TimesNewRomanPSMT-31" x="175"/>
      </g>
     </g>
    </g>
    <g id="ytick_3">
     <g id="line2d_13">
      <path d="M 51.599375 76.439885 
L 245.581265 76.439885 
" clip-path="url(#p02ac732aa7)" style="fill: none; stroke: #b0b0b0; stroke-width: 0.8; stroke-linecap: square"/>
     </g>
     <g id="line2d_14">
      <g>
       <use xlink:href="#m7c143ca842" x="51.599375" y="76.439885" style="stroke: #000000; stroke-width: 0.8"/>
      </g>
     </g>
     <g id="text_8">
      <!-- 0.002 -->
      <g transform="translate(22.099375 79.91176) scale(0.1 -0.1)">
       <use xlink:href="#TimesNewRomanPSMT-30"/>
       <use xlink:href="#TimesNewRomanPSMT-2e" x="50"/>
       <use xlink:href="#TimesNewRomanPSMT-30" x="75"/>
       <use xlink:href="#TimesNewRomanPSMT-30" x="125"/>
       <use xlink:href="#TimesNewRomanPSMT-32" x="175"/>
      </g>
     </g>
    </g>
    <g id="ytick_4">
     <g id="line2d_15">
      <path d="M 51.599375 49.140214 
L 245.581265 49.140214 
" clip-path="url(#p02ac732aa7)" style="fill: none; stroke: #b0b0b0; stroke-width: 0.8; stroke-linecap: square"/>
     </g>
     <g id="line2d_16">
      <g>
       <use xlink:href="#m7c143ca842" x="51.599375" y="49.140214" style="stroke: #000000; stroke-width: 0.8"/>
      </g>
     </g>
     <g id="text_9">
      <!-- 0.003 -->
      <g transform="translate(22.099375 52.612089) scale(0.1 -0.1)">
       <defs>
        <path id="TimesNewRomanPSMT-33" d="M 325 3431 
Q 506 3859 782 4092 
Q 1059 4325 1472 4325 
Q 1981 4325 2253 3994 
Q 2459 3747 2459 3466 
Q 2459 3003 1878 2509 
Q 2269 2356 2469 2072 
Q 2669 1788 2669 1403 
Q 2669 853 2319 450 
Q 1863 -75 997 -75 
Q 569 -75 414 31 
Q 259 138 259 259 
Q 259 350 332 419 
Q 406 488 509 488 
Q 588 488 669 463 
Q 722 447 909 348 
Q 1097 250 1169 231 
Q 1284 197 1416 197 
Q 1734 197 1970 444 
Q 2206 691 2206 1028 
Q 2206 1275 2097 1509 
Q 2016 1684 1919 1775 
Q 1784 1900 1550 2001 
Q 1316 2103 1072 2103 
L 972 2103 
L 972 2197 
Q 1219 2228 1467 2375 
Q 1716 2522 1828 2728 
Q 1941 2934 1941 3181 
Q 1941 3503 1739 3701 
Q 1538 3900 1238 3900 
Q 753 3900 428 3381 
L 325 3431 
z
" transform="scale(0.015625)"/>
       </defs>
       <use xlink:href="#TimesNewRomanPSMT-30"/>
       <use xlink:href="#TimesNewRomanPSMT-2e" x="50"/>
       <use xlink:href="#TimesNewRomanPSMT-30" x="75"/>
       <use xlink:href="#TimesNewRomanPSMT-30" x="125"/>
       <use xlink:href="#TimesNewRomanPSMT-33" x="175"/>
      </g>
     </g>
    </g>
    <g id="ytick_5">
     <g id="line2d_17">
      <path d="M 51.599375 21.840543 
L 245.581265 21.840543 
" clip-path="url(#p02ac732aa7)" style="fill: none; stroke: #b0b0b0; stroke-width: 0.8; stroke-linecap: square"/>
     </g>
     <g id="line2d_18">
      <g>
       <use xlink:href="#m7c143ca842" x="51.599375" y="21.840543" style="stroke: #000000; stroke-width: 0.8"/>
      </g>
     </g>
     <g id="text_10">
      <!-- 0.004 -->
      <g transform="translate(22.099375 25.312418) scale(0.1 -0.1)">
       <use xlink:href="#TimesNewRomanPSMT-30"/>
       <use xlink:href="#TimesNewRomanPSMT-2e" x="50"/>
       <use xlink:href="#TimesNewRomanPSMT-30" x="75"/>
       <use xlink:href="#TimesNewRomanPSMT-30" x="125"/>
       <use xlink:href="#TimesNewRomanPSMT-34" x="175"/>
      </g>
     </g>
    </g>
    <g id="text_11">
     <!-- Refractive Index Variation -->
     <g transform="translate(15.5325 139.130599) rotate(-90) scale(0.12 -0.12)">
      <defs>
       <path id="TimesNewRomanPSMT-52" d="M 4325 0 
L 3194 0 
L 1759 1981 
Q 1600 1975 1500 1975 
Q 1459 1975 1412 1976 
Q 1366 1978 1316 1981 
L 1316 750 
Q 1316 350 1403 253 
Q 1522 116 1759 116 
L 1925 116 
L 1925 0 
L 109 0 
L 109 116 
L 269 116 
Q 538 116 653 291 
Q 719 388 719 750 
L 719 3488 
Q 719 3888 631 3984 
Q 509 4122 269 4122 
L 109 4122 
L 109 4238 
L 1653 4238 
Q 2328 4238 2648 4139 
Q 2969 4041 3192 3777 
Q 3416 3513 3416 3147 
Q 3416 2756 3161 2468 
Q 2906 2181 2372 2063 
L 3247 847 
Q 3547 428 3762 290 
Q 3978 153 4325 116 
L 4325 0 
z
M 1316 2178 
Q 1375 2178 1419 2176 
Q 1463 2175 1491 2175 
Q 2097 2175 2405 2437 
Q 2713 2700 2713 3106 
Q 2713 3503 2464 3751 
Q 2216 4000 1806 4000 
Q 1625 4000 1316 3941 
L 1316 2178 
z
" transform="scale(0.015625)"/>
       <path id="TimesNewRomanPSMT-66" d="M 1319 2638 
L 1319 756 
Q 1319 356 1406 250 
Q 1522 113 1716 113 
L 1975 113 
L 1975 0 
L 266 0 
L 266 113 
L 394 113 
Q 519 113 622 175 
Q 725 238 764 344 
Q 803 450 803 756 
L 803 2638 
L 247 2638 
L 247 2863 
L 803 2863 
L 803 3050 
Q 803 3478 940 3775 
Q 1078 4072 1361 4255 
Q 1644 4438 1997 4438 
Q 2325 4438 2600 4225 
Q 2781 4084 2781 3909 
Q 2781 3816 2700 3733 
Q 2619 3650 2525 3650 
Q 2453 3650 2373 3701 
Q 2294 3753 2178 3923 
Q 2063 4094 1966 4153 
Q 1869 4213 1750 4213 
Q 1606 4213 1506 4136 
Q 1406 4059 1362 3898 
Q 1319 3738 1319 3069 
L 1319 2863 
L 2056 2863 
L 2056 2638 
L 1319 2638 
z
" transform="scale(0.015625)"/>
       <path id="TimesNewRomanPSMT-72" d="M 1038 2947 
L 1038 2303 
Q 1397 2947 1775 2947 
Q 1947 2947 2059 2842 
Q 2172 2738 2172 2600 
Q 2172 2478 2090 2393 
Q 2009 2309 1897 2309 
Q 1788 2309 1652 2417 
Q 1516 2525 1450 2525 
Q 1394 2525 1328 2463 
Q 1188 2334 1038 2041 
L 1038 669 
Q 1038 431 1097 309 
Q 1138 225 1241 169 
Q 1344 113 1538 113 
L 1538 0 
L 72 0 
L 72 113 
Q 291 113 397 181 
Q 475 231 506 341 
Q 522 394 522 644 
L 522 1753 
Q 522 2253 501 2348 
Q 481 2444 426 2487 
Q 372 2531 291 2531 
Q 194 2531 72 2484 
L 41 2597 
L 906 2947 
L 1038 2947 
z
" transform="scale(0.015625)"/>
       <path id="TimesNewRomanPSMT-61" d="M 1822 413 
Q 1381 72 1269 19 
Q 1100 -59 909 -59 
Q 613 -59 420 144 
Q 228 347 228 678 
Q 228 888 322 1041 
Q 450 1253 767 1440 
Q 1084 1628 1822 1897 
L 1822 2009 
Q 1822 2438 1686 2597 
Q 1550 2756 1291 2756 
Q 1094 2756 978 2650 
Q 859 2544 859 2406 
L 866 2225 
Q 866 2081 792 2003 
Q 719 1925 600 1925 
Q 484 1925 411 2006 
Q 338 2088 338 2228 
Q 338 2497 613 2722 
Q 888 2947 1384 2947 
Q 1766 2947 2009 2819 
Q 2194 2722 2281 2516 
Q 2338 2381 2338 1966 
L 2338 994 
Q 2338 584 2353 492 
Q 2369 400 2405 369 
Q 2441 338 2488 338 
Q 2538 338 2575 359 
Q 2641 400 2828 588 
L 2828 413 
Q 2478 -56 2159 -56 
Q 2006 -56 1915 50 
Q 1825 156 1822 413 
z
M 1822 616 
L 1822 1706 
Q 1350 1519 1213 1441 
Q 966 1303 859 1153 
Q 753 1003 753 825 
Q 753 600 887 451 
Q 1022 303 1197 303 
Q 1434 303 1822 616 
z
" transform="scale(0.015625)"/>
       <path id="TimesNewRomanPSMT-63" d="M 2631 1088 
Q 2516 522 2178 217 
Q 1841 -88 1431 -88 
Q 944 -88 581 321 
Q 219 731 219 1428 
Q 219 2103 620 2525 
Q 1022 2947 1584 2947 
Q 2006 2947 2278 2723 
Q 2550 2500 2550 2259 
Q 2550 2141 2473 2067 
Q 2397 1994 2259 1994 
Q 2075 1994 1981 2113 
Q 1928 2178 1911 2362 
Q 1894 2547 1784 2644 
Q 1675 2738 1481 2738 
Q 1169 2738 978 2506 
Q 725 2200 725 1697 
Q 725 1184 976 792 
Q 1228 400 1656 400 
Q 1963 400 2206 609 
Q 2378 753 2541 1131 
L 2631 1088 
z
" transform="scale(0.015625)"/>
       <path id="TimesNewRomanPSMT-74" d="M 1031 3803 
L 1031 2863 
L 1700 2863 
L 1700 2644 
L 1031 2644 
L 1031 788 
Q 1031 509 1111 412 
Q 1191 316 1316 316 
Q 1419 316 1516 380 
Q 1613 444 1666 569 
L 1788 569 
Q 1678 263 1478 108 
Q 1278 -47 1066 -47 
Q 922 -47 784 33 
Q 647 113 581 261 
Q 516 409 516 719 
L 516 2644 
L 63 2644 
L 63 2747 
Q 234 2816 414 2980 
Q 594 3144 734 3369 
Q 806 3488 934 3803 
L 1031 3803 
z
" transform="scale(0.015625)"/>
       <path id="TimesNewRomanPSMT-76" d="M 53 2863 
L 1400 2863 
L 1400 2747 
L 1313 2747 
Q 1191 2747 1127 2687 
Q 1063 2628 1063 2528 
Q 1063 2419 1128 2269 
L 1794 688 
L 2463 2328 
Q 2534 2503 2534 2594 
Q 2534 2638 2509 2666 
Q 2475 2713 2422 2730 
Q 2369 2747 2206 2747 
L 2206 2863 
L 3141 2863 
L 3141 2747 
Q 2978 2734 2916 2681 
Q 2806 2588 2719 2369 
L 1703 -88 
L 1575 -88 
L 553 2328 
Q 484 2497 421 2570 
Q 359 2644 263 2694 
Q 209 2722 53 2747 
L 53 2863 
z
" transform="scale(0.015625)"/>
       <path id="TimesNewRomanPSMT-20" transform="scale(0.015625)"/>
       <path id="TimesNewRomanPSMT-49" d="M 1975 116 
L 1975 0 
L 159 0 
L 159 116 
L 309 116 
Q 572 116 691 269 
Q 766 369 766 750 
L 766 3488 
Q 766 3809 725 3913 
Q 694 3991 597 4047 
Q 459 4122 309 4122 
L 159 4122 
L 159 4238 
L 1975 4238 
L 1975 4122 
L 1822 4122 
Q 1563 4122 1444 3969 
Q 1366 3869 1366 3488 
L 1366 750 
Q 1366 428 1406 325 
Q 1438 247 1538 191 
Q 1672 116 1822 116 
L 1975 116 
z
" transform="scale(0.015625)"/>
       <path id="TimesNewRomanPSMT-6e" d="M 1034 2341 
Q 1538 2947 1994 2947 
Q 2228 2947 2397 2830 
Q 2566 2713 2666 2444 
Q 2734 2256 2734 1869 
L 2734 647 
Q 2734 375 2778 278 
Q 2813 200 2889 156 
Q 2966 113 3172 113 
L 3172 0 
L 1756 0 
L 1756 113 
L 1816 113 
Q 2016 113 2095 173 
Q 2175 234 2206 353 
Q 2219 400 2219 647 
L 2219 1819 
Q 2219 2209 2117 2386 
Q 2016 2563 1775 2563 
Q 1403 2563 1034 2156 
L 1034 647 
Q 1034 356 1069 288 
Q 1113 197 1189 155 
Q 1266 113 1500 113 
L 1500 0 
L 84 0 
L 84 113 
L 147 113 
Q 366 113 442 223 
Q 519 334 519 647 
L 519 1709 
Q 519 2225 495 2337 
Q 472 2450 423 2490 
Q 375 2531 294 2531 
Q 206 2531 84 2484 
L 38 2597 
L 900 2947 
L 1034 2947 
L 1034 2341 
z
" transform="scale(0.015625)"/>
       <path id="TimesNewRomanPSMT-64" d="M 2222 322 
Q 2013 103 1813 7 
Q 1613 -88 1381 -88 
Q 913 -88 563 304 
Q 213 697 213 1313 
Q 213 1928 600 2439 
Q 988 2950 1597 2950 
Q 1975 2950 2222 2709 
L 2222 3238 
Q 2222 3728 2198 3840 
Q 2175 3953 2125 3993 
Q 2075 4034 2000 4034 
Q 1919 4034 1784 3984 
L 1744 4094 
L 2597 4444 
L 2738 4444 
L 2738 1134 
Q 2738 631 2761 520 
Q 2784 409 2836 365 
Q 2888 322 2956 322 
Q 3041 322 3181 375 
L 3216 266 
L 2366 -88 
L 2222 -88 
L 2222 322 
z
M 2222 541 
L 2222 2016 
Q 2203 2228 2109 2403 
Q 2016 2578 1861 2667 
Q 1706 2756 1559 2756 
Q 1284 2756 1069 2509 
Q 784 2184 784 1559 
Q 784 928 1059 592 
Q 1334 256 1672 256 
Q 1956 256 2222 541 
z
" transform="scale(0.015625)"/>
       <path id="TimesNewRomanPSMT-78" d="M 84 2863 
L 1431 2863 
L 1431 2747 
Q 1303 2747 1251 2703 
Q 1200 2659 1200 2588 
Q 1200 2513 1309 2356 
Q 1344 2306 1413 2200 
L 1616 1875 
L 1850 2200 
Q 2075 2509 2075 2591 
Q 2075 2656 2022 2701 
Q 1969 2747 1850 2747 
L 1850 2863 
L 2819 2863 
L 2819 2747 
Q 2666 2738 2553 2663 
Q 2400 2556 2134 2200 
L 1744 1678 
L 2456 653 
Q 2719 275 2831 198 
Q 2944 122 3122 113 
L 3122 0 
L 1772 0 
L 1772 113 
Q 1913 113 1991 175 
Q 2050 219 2050 291 
Q 2050 363 1850 653 
L 1431 1266 
L 972 653 
Q 759 369 759 316 
Q 759 241 829 180 
Q 900 119 1041 113 
L 1041 0 
L 106 0 
L 106 113 
Q 219 128 303 191 
Q 422 281 703 653 
L 1303 1450 
L 759 2238 
Q 528 2575 401 2661 
Q 275 2747 84 2747 
L 84 2863 
z
" transform="scale(0.015625)"/>
       <path id="TimesNewRomanPSMT-56" d="M 4544 4238 
L 4544 4122 
Q 4319 4081 4203 3978 
Q 4038 3825 3909 3509 
L 2431 -97 
L 2316 -97 
L 728 3556 
Q 606 3838 556 3900 
Q 478 3997 364 4051 
Q 250 4106 56 4122 
L 56 4238 
L 1788 4238 
L 1788 4122 
Q 1494 4094 1406 4022 
Q 1319 3950 1319 3838 
Q 1319 3681 1463 3350 
L 2541 866 
L 3541 3319 
Q 3688 3681 3688 3822 
Q 3688 3913 3597 3995 
Q 3506 4078 3291 4113 
Q 3275 4116 3238 4122 
L 3238 4238 
L 4544 4238 
z
" transform="scale(0.015625)"/>
       <path id="TimesNewRomanPSMT-6f" d="M 1600 2947 
Q 2250 2947 2644 2453 
Q 2978 2031 2978 1484 
Q 2978 1100 2793 706 
Q 2609 313 2286 112 
Q 1963 -88 1566 -88 
Q 919 -88 538 428 
Q 216 863 216 1403 
Q 216 1797 411 2186 
Q 606 2575 925 2761 
Q 1244 2947 1600 2947 
z
M 1503 2744 
Q 1338 2744 1170 2645 
Q 1003 2547 900 2300 
Q 797 2053 797 1666 
Q 797 1041 1045 587 
Q 1294 134 1700 134 
Q 2003 134 2200 384 
Q 2397 634 2397 1244 
Q 2397 2006 2069 2444 
Q 1847 2744 1503 2744 
z
" transform="scale(0.015625)"/>
      </defs>
      <use xlink:href="#TimesNewRomanPSMT-52"/>
      <use xlink:href="#TimesNewRomanPSMT-65" x="66.699219"/>
      <use xlink:href="#TimesNewRomanPSMT-66" x="111.083984"/>
      <use xlink:href="#TimesNewRomanPSMT-72" x="144.384766"/>
      <use xlink:href="#TimesNewRomanPSMT-61" x="177.685547"/>
      <use xlink:href="#TimesNewRomanPSMT-63" x="222.070312"/>
      <use xlink:href="#TimesNewRomanPSMT-74" x="266.455078"/>
      <use xlink:href="#TimesNewRomanPSMT-69" x="294.238281"/>
      <use xlink:href="#TimesNewRomanPSMT-76" x="322.021484"/>
      <use xlink:href="#TimesNewRomanPSMT-65" x="372.021484"/>
      <use xlink:href="#TimesNewRomanPSMT-20" x="416.40625"/>
      <use xlink:href="#TimesNewRomanPSMT-49" x="441.40625"/>
      <use xlink:href="#TimesNewRomanPSMT-6e" x="474.707031"/>
      <use xlink:href="#TimesNewRomanPSMT-64" x="524.707031"/>
      <use xlink:href="#TimesNewRomanPSMT-65" x="574.707031"/>
      <use xlink:href="#TimesNewRomanPSMT-78" x="619.091797"/>
      <use xlink:href="#TimesNewRomanPSMT-20" x="669.091797"/>
      <use xlink:href="#TimesNewRomanPSMT-56" x="692.341797"/>
      <use xlink:href="#TimesNewRomanPSMT-61" x="753.433594"/>
      <use xlink:href="#TimesNewRomanPSMT-72" x="797.818359"/>
      <use xlink:href="#TimesNewRomanPSMT-69" x="831.119141"/>
      <use xlink:href="#TimesNewRomanPSMT-61" x="858.902344"/>
      <use xlink:href="#TimesNewRomanPSMT-74" x="903.287109"/>
      <use xlink:href="#TimesNewRomanPSMT-69" x="931.070312"/>
      <use xlink:href="#TimesNewRomanPSMT-6f" x="958.853516"/>
      <use xlink:href="#TimesNewRomanPSMT-6e" x="1008.853516"/>
     </g>
    </g>
   </g>
   <g id="line2d_19">
    <path d="M 60.416734 131.039227 
L 60.560604 131.047601 
L 60.609509 131.027562 
L 60.655546 131.443289 
L 60.703004 131.01051 
L 60.750487 131.315281 
L 60.797946 131.335783 
L 60.892888 131.915492 
L 60.94037 131.843175 
L 61.177713 132.400798 
L 61.225195 132.281444 
L 61.272678 132.307733 
L 61.320137 132.371396 
L 61.461115 132.704971 
L 61.556057 132.625201 
L 61.793422 133.445747 
L 61.840881 133.27294 
L 61.888364 133.340616 
L 61.935823 133.557021 
L 62.030765 133.488144 
L 62.078247 133.343674 
L 62.220672 133.858464 
L 62.268131 133.466713 
L 62.315613 133.882487 
L 62.505496 134.173502 
L 62.552955 134.10498 
L 62.598992 133.892042 
L 62.646475 134.019259 
L 62.741416 134.294985 
L 62.931299 134.68619 
L 63.026241 134.524576 
L 63.073724 134.626949 
L 63.216124 135.005323 
L 63.263607 134.882747 
L 63.311066 135.135269 
L 63.358549 134.925881 
L 63.406007 134.881655 
L 63.595891 135.456314 
L 63.643373 135.216349 
L 63.68941 135.283507 
L 63.974235 136.007221 
L 64.069176 135.738046 
L 64.118081 135.759067 
L 64.25906 135.903209 
L 64.306542 135.756883 
L 64.354001 135.866628 
L 64.401484 135.855708 
L 64.448943 136.117785 
L 64.543908 136.047351 
L 64.686309 134.246392 
L 64.827287 125.16543 
L 65.301995 87.430732 
L 65.634302 81.441185 
L 65.965164 79.35549 
L 66.20253 78.46552 
L 66.344954 77.834898 
L 66.392413 77.864928 
L 66.439896 78.034186 
L 66.487355 77.810328 
L 66.53626 77.840358 
L 66.629779 77.466352 
L 66.677238 75.749203 
L 66.72472 78.187064 
L 66.821108 78.157034 
L 67.057028 77.68748 
L 67.197982 77.862198 
L 67.53029 77.108727 
L 67.577773 77.321664 
L 67.625231 76.84665 
L 67.672714 77.092347 
L 67.720173 77.264335 
L 67.767656 77.105997 
L 67.862597 76.786591 
L 67.91008 76.955849 
L 68.005022 77.089617 
L 68.148868 76.764751 
L 68.194905 76.906709 
L 68.240941 76.759291 
L 68.335883 76.641902 
L 68.383342 76.685582 
L 68.620708 77.010448 
L 68.668167 76.991338 
L 68.858074 76.374366 
L 68.905533 76.792051 
L 69.000474 76.688312 
L 69.047957 76.404395 
L 69.095416 76.669202 
L 69.285299 76.325226 
L 69.331336 76.374366 
L 69.426277 76.535434 
L 69.47376 76.437155 
L 69.616161 76.480834 
L 69.711126 76.401665 
L 69.806067 76.641902 
L 69.853526 76.524514 
L 70.138351 76.087719 
L 70.185834 76.05223 
L 70.234739 76.273357 
L 70.280775 76.01401 
L 70.328258 75.852942 
L 70.469213 76.265167 
L 70.611637 75.727363 
L 70.65912 75.918461 
L 70.706578 75.921191 
L 70.754061 76.074069 
L 70.802966 76.01674 
L 70.896462 76.076799 
L 70.943944 75.836562 
L 71.038886 75.926651 
L 71.133828 76.213298 
L 71.276252 75.828372 
L 71.323711 75.913001 
L 71.371193 75.538996 
L 71.418652 75.97579 
L 71.608536 75.727363 
L 71.702055 75.530806 
L 71.796996 75.888431 
L 71.844455 75.792883 
L 71.891938 75.779233 
L 71.939397 75.593595 
L 71.98688 75.891161 
L 72.081821 75.809262 
L 72.224246 75.645464 
L 72.319187 75.18137 
L 72.983778 68.026126 
L 73.126203 67.510162 
L 73.409581 66.472775 
L 73.457064 66.811291 
L 73.504523 66.677523 
L 73.599465 66.08785 
L 73.646947 66.227078 
L 73.884313 65.560966 
L 73.93035 65.910402 
L 73.977809 65.678355 
L 74.215175 64.943993 
L 74.262634 65.21426 
L 74.310116 64.878474 
L 74.357575 64.752896 
L 74.405058 64.990403 
L 74.452517 64.941263 
L 74.832307 64.575448 
L 74.879766 64.766546 
L 74.973285 64.733786 
L 75.115686 64.163223 
L 75.163168 64.182333 
L 75.210627 64.561798 
L 75.25811 64.35978 
L 75.400511 63.912066 
L 75.447993 63.988505 
L 75.544381 63.696398 
L 75.590417 63.770108 
L 75.732818 64.007615 
L 75.780301 63.819247 
L 75.876688 63.59266 
L 75.924147 63.884766 
L 75.970184 63.617229 
L 76.017643 63.57082 
L 76.158621 63.737348 
L 76.253563 63.622689 
L 76.301045 63.674559 
L 76.395987 63.811057 
L 76.44347 63.368802 
L 76.538411 63.439782 
L 76.634775 63.57082 
L 76.680812 63.390642 
L 76.775753 63.453431 
L 76.823236 63.412482 
L 76.967083 63.644529 
L 77.108061 63.281443 
L 77.20158 63.426132 
L 77.250485 63.336043 
L 77.676288 63.164055 
L 77.77123 62.787319 
L 77.818689 62.847379 
L 77.866171 62.792779 
L 77.961113 63.134025 
L 78.056055 62.77094 
L 78.103537 63.002987 
L 78.245938 62.830999 
L 78.29342 63.008447 
L 78.339457 62.858299 
L 78.386916 62.69723 
L 78.434399 62.76548 
L 78.52934 63.128565 
L 78.576799 62.899248 
L 78.624282 62.691771 
L 78.671741 62.75456 
L 78.861648 62.959307 
L 78.910553 62.790049 
L 78.956589 63.054856 
L 79.004048 62.904708 
L 79.051531 62.72726 
L 79.09899 62.806429 
L 79.146473 62.962037 
L 79.195378 62.942928 
L 79.288873 62.579842 
L 79.383838 62.893788 
L 79.524793 62.69723 
L 79.668663 62.929278 
L 79.952042 62.618061 
L 79.999525 62.69723 
L 80.046984 62.579842 
L 80.094466 62.353255 
L 80.141925 62.555272 
L 80.236867 62.795509 
L 80.284349 62.456993 
L 80.331832 62.558002 
L 80.380737 62.852839 
L 80.428196 62.809159 
L 80.569174 62.317765 
L 80.710152 62.639901 
L 80.805094 62.143047 
L 80.900036 62.495213 
L 80.947518 62.416044 
L 81.089919 61.995629 
L 81.232343 62.254976 
L 81.279826 62.066608 
L 81.327285 62.476103 
L 81.374767 62.334145 
L 81.422226 62.134857 
L 81.469709 62.399664 
L 81.564651 61.89189 
L 81.61211 62.055688 
L 81.708497 62.170347 
L 81.753088 62.113018 
L 81.80057 62.074798 
L 81.848029 62.203106 
L 81.895512 61.86732 
L 81.990454 62.375094 
L 82.037913 62.342335 
L 82.229242 61.856401 
L 82.371666 62.328685 
L 82.465162 62.099368 
L 82.512644 61.979249 
L 82.607586 62.017469 
L 82.655045 61.998359 
L 82.702528 61.681683 
L 82.75001 62.044768 
L 82.797469 62.123937 
L 82.843506 61.796341 
L 82.890965 62.050228 
L 83.080872 62.118477 
L 83.128331 61.736282 
L 83.175813 61.777232 
L 83.270755 62.020199 
L 83.318214 61.856401 
L 83.365697 61.837291 
L 83.413155 61.648923 
L 83.460638 61.829101 
L 83.55558 61.758122 
L 83.698004 61.842751 
L 83.745463 61.670763 
L 83.792946 61.91646 
L 83.840405 61.820911 
L 84.028865 61.678953 
L 84.123807 61.91919 
L 84.171266 61.837291 
L 84.361149 61.509695 
L 84.408632 61.695333 
L 84.456091 61.501505 
L 84.503573 61.564294 
L 84.551056 61.834561 
L 84.645998 61.744472 
L 84.693457 61.769042 
L 84.740939 61.627083 
L 84.788398 61.733552 
L 84.978281 61.769042 
L 85.073223 61.951949 
L 85.261684 61.496045 
L 85.356626 61.744472 
L 85.404108 61.700792 
L 85.451567 61.561564 
L 85.546509 61.840021 
L 85.64145 61.460555 
L 85.688933 61.708982 
L 86.021217 61.460555 
L 86.211124 61.594324 
L 86.399561 61.10293 
L 86.447044 61.162989 
L 86.589444 61.517885 
L 86.969234 60.971891 
L 87.016693 60.988271 
L 87.159117 61.340437 
L 87.301518 61.012841 
L 87.349001 60.936402 
L 87.39646 61.08109 
L 87.489979 61.034681 
L 87.632379 61.168449 
L 87.681308 60.674325 
L 87.727321 60.991001 
L 87.917228 60.625185 
L 87.964687 60.980081 
L 88.01217 60.958241 
L 88.15457 60.649755 
L 88.249512 60.608806 
L 88.344453 60.925482 
L 88.439395 60.761684 
L 88.532914 61.146609 
L 88.627856 60.734384 
L 88.675315 60.753494 
L 88.77028 60.647025 
L 88.817739 60.682515 
L 88.865222 60.911832 
L 88.912681 60.630645 
L 89.055105 60.824473 
L 89.150047 60.718004 
L 89.198952 60.728924 
L 89.292447 60.447738 
L 89.33993 60.802633 
L 89.434871 60.753494 
L 89.577296 60.780794 
L 89.670791 60.876342 
L 89.718274 60.843583 
L 89.813215 60.707084 
L 89.957062 60.952782 
L 90.003099 60.723464 
L 90.09804 60.745304 
L 90.145499 60.868153 
L 90.240441 60.816283 
L 90.287923 60.682515 
L 90.335406 60.808093 
L 90.525289 60.739844 
L 90.621653 60.952782 
L 90.66769 60.870882 
L 90.856151 60.958241 
L 90.905056 60.769874 
L 90.951092 60.838123 
L 90.998551 60.966431 
L 91.046034 60.824473 
L 91.284822 60.466847 
L 91.330859 60.734384 
L 91.378341 60.655215 
L 91.473283 60.644295 
L 91.568225 60.854503 
L 91.615684 60.718004 
L 91.663166 60.663405 
L 91.758108 60.357649 
L 91.805591 60.425898 
L 91.851603 60.652485 
L 91.946545 60.611536 
L 92.04151 60.445008 
L 92.088969 60.502337 
L 92.136452 60.734384 
L 92.183911 60.305779 
L 92.231394 60.526907 
L 92.278853 60.638835 
L 92.326335 60.352189 
L 92.373794 60.515987 
L 92.468736 60.488687 
L 92.563677 60.23753 
L 92.61116 60.597886 
L 92.658619 60.494147 
L 92.706102 60.414978 
L 92.753584 60.647025 
L 92.848526 60.600616 
L 92.895985 60.335809 
L 92.943467 60.371299 
L 93.084446 60.603346 
L 93.131905 60.442278 
L 93.179387 60.655215 
L 93.228292 60.589696 
L 93.275751 60.27029 
L 93.321788 60.507797 
L 93.369271 60.423168 
L 93.511671 60.731654 
L 93.559154 60.756224 
L 93.749037 60.341269 
L 93.892884 60.608806 
L 93.93892 60.423168 
L 94.127381 60.488687 
L 94.17484 60.608806 
L 94.222323 60.491417 
L 94.271228 60.532367 
L 94.412206 60.360379 
L 94.507147 60.584236 
L 94.55463 60.368569 
L 94.602089 60.578776 
L 94.650994 60.641565 
L 94.839455 61.577944 
L 94.886914 61.435986 
L 94.934397 61.534265 
L 94.981855 61.408686 
L 95.029338 61.362277 
L 95.312717 62.129397 
L 95.407682 62.178537 
L 95.645024 62.366904 
L 95.836354 62.257706 
L 95.977332 62.69723 
L 96.024815 62.454263 
L 96.072273 62.672661 
L 96.119756 62.659011 
L 96.263603 62.910168 
L 96.309639 62.871948 
L 96.450618 62.607142 
L 96.593018 62.503403 
L 96.641923 62.667201 
L 96.68796 62.609872 
L 96.735442 62.276816 
L 96.782901 62.604412 
L 96.830384 62.432424 
L 96.877843 62.656281 
L 96.972808 62.904708 
L 97.020267 62.72999 
L 97.069172 62.437884 
L 97.115209 62.907438 
L 97.21015 62.833729 
L 97.257633 62.77367 
L 97.305092 62.901978 
L 97.352575 62.563462 
L 97.447516 62.683581 
L 97.542458 62.555272 
L 97.588495 62.656281 
L 97.635953 62.615331 
L 97.730895 62.265896 
L 97.778378 62.476103 
L 97.82586 62.650821 
L 97.920802 62.579842 
L 97.968261 62.683581 
L 98.015744 62.544352 
L 98.063203 62.487023 
L 98.15959 62.631711 
L 98.302014 62.339605 
L 98.348027 62.448803 
L 98.39551 62.863758 
L 98.442969 62.555272 
L 98.490452 62.342335 
L 98.63143 62.76002 
L 98.678889 62.416044 
L 98.726371 62.664471 
L 98.868796 62.77094 
L 99.011196 62.315035 
L 99.106138 62.877408 
L 99.153621 62.607142 
L 99.296021 62.339605 
L 99.438445 62.563462 
L 99.485928 62.492483 
L 99.534833 62.448803 
L 99.58087 62.75729 
L 99.629775 62.650821 
L 99.675811 62.508863 
L 99.72327 62.694501 
L 99.864248 62.568922 
L 99.911731 62.620791 
L 99.95919 62.424234 
L 100.008119 62.623521 
L 100.101614 62.620791 
L 100.244039 62.659011 
L 100.291497 62.402394 
L 100.33898 62.7491 
L 100.386439 62.784589 
L 100.433922 62.317765 
L 100.528863 62.410584 
L 100.671264 62.75456 
L 100.718747 62.664471 
L 100.766206 62.75183 
L 100.861147 62.866488 
L 100.907184 62.70269 
L 101.002125 63.049396 
L 101.049608 62.981147 
L 101.192032 62.691771 
L 101.239491 62.893788 
L 101.334433 62.394204 
L 101.381915 62.680851 
L 101.619258 62.855569 
L 101.714199 62.399664 
L 102.045084 64.875744 
L 102.234968 72.167486 
L 103.135479 113.328565 
L 103.515245 117.641367 
L 103.896458 119.265152 
L 103.942494 119.103538 
L 103.989977 119.300914 
L 104.037436 119.244677 
L 104.17986 119.766647 
L 104.227343 119.694029 
L 104.273356 119.805139 
L 104.41578 120.066943 
L 104.463263 119.861922 
L 104.510721 120.081412 
L 104.700605 120.248486 
L 104.748087 120.241934 
L 104.795546 120.368058 
L 104.844451 120.082231 
L 104.891934 120.202349 
L 105.032912 120.452414 
L 105.080371 120.187881 
L 105.127854 120.409008 
L 105.222795 120.630954 
L 105.270278 120.330931 
L 105.317737 120.369696 
L 105.506198 120.95582 
L 105.553657 120.496094 
L 105.601139 120.738242 
L 105.74354 121.005233 
L 105.791023 120.801031 
L 105.885964 120.870099 
L 105.980906 120.95309 
L 106.028389 120.925245 
L 106.12333 120.847168 
L 106.170789 121.098052 
L 106.218272 120.913233 
L 106.265731 120.794752 
L 106.313213 121.034443 
L 106.360672 120.946538 
L 106.455614 120.855084 
L 106.501651 120.956912 
L 106.598038 119.744534 
L 106.739016 114.408267 
L 106.881417 93.130904 
L 107.213724 35.992692 
L 107.45109 24.240184 
L 107.735915 19.350813 
L 108.066777 17.10951 
L 108.114259 17.1177 
L 108.399084 15.908324 
L 108.446567 15.927434 
L 108.683909 15.078414 
L 108.824887 15.261322 
L 108.968734 17.355207 
L 109.157195 30.147833 
L 109.867822 97.075706 
L 110.20013 109.195668 
L 110.53386 114.15438 
L 110.76978 115.647399 
L 111.195606 116.810365 
L 111.244511 116.638923 
L 111.432948 117.442626 
L 111.480431 117.389118 
L 111.52789 117.186009 
L 111.575373 117.451362 
L 111.670314 117.682317 
L 111.717773 117.634815 
L 111.765256 117.546364 
L 111.812739 117.683136 
L 111.860197 118.054411 
L 111.90768 117.771587 
L 112.002622 117.433071 
L 112.097563 114.889287 
L 112.238542 98.629057 
L 112.570825 46.817012 
L 112.857096 30.729316 
L 113.140499 24.450391 
L 113.376419 23.000779 
L 113.708726 20.016925 
L 113.756185 20.041495 
L 113.898609 19.517341 
L 113.993551 20.298112 
L 114.088492 22.656803 
L 114.230917 33.109847 
L 114.941545 101.099678 
L 115.273852 111.662466 
L 115.509772 115.469132 
L 115.747114 117.083362 
L 115.936997 118.29301 
L 115.98448 118.250696 
L 116.221846 119.308558 
L 116.316787 119.070232 
L 116.506671 119.802409 
L 116.55413 119.822611 
L 116.647649 120.010979 
L 116.695108 119.990504 
L 116.885015 120.341305 
L 116.932474 120.259133 
L 116.979956 120.217364 
L 117.122357 118.204286 
L 117.217298 109.847038 
L 117.739489 35.935363 
L 118.022892 27.671753 
L 118.592541 21.930632 
L 118.829907 20.333601 
L 118.877366 20.579298 
L 119.018344 23.262856 
L 119.160769 34.52397 
L 119.82536 102.281753 
L 120.203704 115.108504 
L 120.536011 119.46635 
L 121.010719 121.608555 
L 121.105661 122.025421 
L 121.389063 122.795272 
L 121.436522 122.657409 
L 121.484005 122.769337 
L 121.627852 122.618097 
L 121.675334 122.798821 
L 121.76883 123.259094 
L 121.863771 123.158904 
L 121.958713 123.285301 
L 122.053655 123.381942 
L 122.101137 123.322156 
L 122.148596 123.304411 
L 122.243538 121.766075 
L 122.384516 112.80796 
L 122.811765 80.884271 
L 123.191532 72.789919 
L 123.522417 69.696866 
L 123.569876 69.685946 
L 123.807242 68.438351 
L 123.902183 68.345532 
L 123.997125 68.113485 
L 124.044584 68.192654 
L 124.092066 68.214494 
L 124.329432 67.526542 
L 124.424374 67.772239 
L 124.471833 67.70399 
L 124.519316 67.67942 
L 124.565352 67.387314 
L 124.612811 67.491053 
L 124.707753 67.774969 
L 124.755235 67.608441 
L 124.850177 67.425533 
L 124.945119 67.635741 
L 124.992577 67.422804 
L 125.04006 67.583872 
L 125.229943 67.310875 
L 125.277426 67.72037 
L 125.324885 67.624821 
L 125.372368 67.545652 
L 125.419827 67.605711 
L 125.514768 67.6958 
L 125.562251 67.529272 
L 125.60971 67.638471 
L 125.84563 67.875978 
L 126.082995 67.854138 
L 126.22542 67.403694 
L 126.320361 67.856868 
L 126.36782 67.71764 
L 126.462762 67.933307 
L 126.557704 67.73402 
L 126.605186 67.987907 
L 126.652669 67.826839 
L 126.793623 67.74494 
L 126.841106 67.777699 
L 126.890011 67.496513 
L 126.936048 67.665771 
L 126.98353 67.619361 
L 127.125931 67.960607 
L 127.268355 67.960607 
L 127.315814 67.960607 
L 127.363297 67.788619 
L 127.410756 67.996097 
L 127.458238 67.938767 
L 127.55318 67.619361 
L 127.600663 67.630281 
L 127.695604 67.886898 
L 127.744509 68.023396 
L 127.790546 67.851408 
L 127.838005 67.976987 
L 127.886933 68.012476 
L 127.978983 67.641201 
L 128.026466 68.047966 
L 128.073925 67.68488 
L 128.216349 67.821379 
L 128.263808 67.70399 
L 128.312736 68.105295 
L 128.407678 68.058886 
L 128.453715 68.200844 
L 128.501174 67.72037 
L 128.548656 68.288203 
L 128.643598 68.400132 
L 128.691057 68.263633 
L 128.785998 68.162625 
L 128.834927 68.239064 
L 128.88094 68.198114 
L 128.929869 68.51206 
L 128.975882 68.457461 
L 129.211801 68.124405 
L 129.354226 68.654019 
L 129.544109 68.209034 
L 129.639051 67.835029 
L 129.828934 66.167019 
L 129.876416 66.104229 
L 130.113782 64.744706 
L 130.159819 64.673727 
L 130.303666 64.198712 
L 130.349702 64.176873 
L 130.492103 63.660909 
L 130.634527 63.382452 
L 130.776928 63.016637 
L 130.873315 62.844649 
L 130.919352 62.964767 
L 130.966834 62.525243 
L 131.014293 62.70269 
L 131.061776 62.77094 
L 131.251659 62.216756 
L 131.297696 62.473373 
L 131.345155 62.287735 
L 131.487579 62.066608 
L 131.772404 62.238596 
L 131.962287 61.763582 
L 132.00977 61.848211 
L 132.15217 61.859131 
L 132.247112 61.725362 
L 132.296041 61.94376 
L 132.389536 61.561564 
L 132.435573 61.698063 
L 132.672939 61.613434 
L 132.76788 61.179369 
L 132.815339 61.261268 
L 132.910281 61.840021 
L 132.957763 61.526075 
L 133.005222 61.370466 
L 133.052705 61.438716 
L 133.149093 61.408686 
L 133.195106 61.728092 
L 133.242588 61.749932 
L 133.290071 61.471475 
L 133.33753 61.536994 
L 133.386435 61.583404 
L 133.57345 61.340437 
L 133.620932 61.468745 
L 133.668391 61.313137 
L 133.715874 61.10293 
L 133.763333 61.195749 
L 133.810816 61.231238 
L 133.858275 61.482395 
L 133.905757 61.438716 
L 134.09564 61.124769 
L 134.143123 61.08655 
L 134.285524 61.419606 
L 134.333006 61.354087 
L 134.427948 61.272188 
L 134.52289 60.884532 
L 134.570348 61.007381 
L 134.617831 61.0729 
L 134.663868 61.427796 
L 134.711327 61.0729 
L 134.758809 61.206668 
L 134.806268 61.135689 
L 134.948693 60.783524 
L 134.996151 60.737114 
L 135.186058 61.272188 
L 135.281 60.933672 
L 135.377364 61.07017 
L 135.565825 60.726194 
L 135.613284 60.936402 
L 135.708249 60.895452 
L 135.757154 60.679785 
L 135.801745 60.701625 
L 135.991628 60.960971 
L 136.039111 60.909102 
L 136.086569 60.600616 
L 136.181511 60.636105 
L 136.228994 60.696165 
L 136.277899 60.625185 
L 136.371394 60.660675 
L 136.513819 60.783524 
L 136.60876 60.783524 
L 136.751184 61.160259 
L 136.987104 60.819013 
L 137.366871 60.611536 
L 137.461812 60.813553 
L 137.604237 60.619726 
L 137.748083 60.936402 
L 137.79412 60.840853 
L 137.984003 60.401328 
L 138.031462 60.614266 
L 138.077499 60.715274 
L 138.124981 60.409518 
L 138.173886 60.496877 
L 138.409806 60.748034 
L 138.457289 60.453198 
L 138.55223 60.485957 
L 138.696077 60.26756 
L 138.837055 60.682515 
L 138.931997 60.584236 
L 139.026938 60.532367 
L 139.074421 60.783524 
L 139.169363 60.748034 
L 139.500224 60.098302 
L 139.547683 60.21569 
L 139.595166 60.455928 
L 139.642625 60.062812 
L 139.690107 60.182931 
L 139.737566 60.603346 
L 139.832508 60.475037 
L 139.974932 60.22115 
L 140.022415 59.841685 
L 140.07132 60.2348 
L 140.21372 60.376758 
L 140.259757 60.21569 
L 140.353276 60.128331 
L 140.400735 60.204771 
L 140.448218 60.141981 
L 140.687006 59.557768 
L 140.780525 59.937234 
L 140.827984 59.926314 
L 141.06535 59.737946 
L 141.255233 59.767976 
L 141.44367 59.497709 
L 141.491153 59.776166 
L 141.586095 59.672427 
L 141.635 59.724296 
L 141.681036 59.563228 
L 141.728519 59.737946 
L 141.870919 59.849875 
L 141.965861 59.707917 
L 142.014766 59.841685 
L 142.060803 59.462219 
L 142.109731 59.653317 
L 142.203227 59.721566 
L 142.345651 59.718836 
L 142.440593 59.484059 
L 142.62903 59.811655 
L 142.723972 59.508629 
L 142.866396 59.912664 
L 142.913855 60.087382 
L 143.057725 59.765246 
L 143.246162 60.010943 
L 143.293645 59.882634 
L 143.341104 60.155631 
L 143.436046 60.098302 
L 143.483528 60.2348 
L 143.530987 60.038243 
L 143.673411 60.117412 
L 143.72087 59.825305 
L 143.81439 59.901744 
L 143.861849 60.24845 
L 143.95679 60.22934 
L 144.099214 60.27848 
L 144.194156 59.830765 
L 144.241639 60.128331 
L 144.33658 60.103762 
L 144.384039 60.049162 
L 144.431522 60.25391 
L 144.478981 59.931774 
L 144.526464 60.084652 
L 144.573922 60.357649 
L 144.668864 60.294859 
L 144.763829 60.357649 
L 144.809842 59.915394 
L 144.857325 59.953614 
L 144.904784 60.152901 
L 144.952267 59.893554 
L 145.001172 59.986373 
L 145.047208 59.822575 
L 145.094691 59.904474 
L 145.14215 60.120142 
L 145.189632 59.915394 
L 145.284574 60.163821 
L 145.332033 59.915394 
L 145.474457 59.691537 
L 145.66434 60.188391 
L 145.711823 59.675157 
L 145.806765 59.847145 
L 145.854224 59.609638 
L 145.901706 59.926314 
L 145.947743 59.939964 
L 145.995202 60.152901 
L 146.042685 59.918124 
L 146.137626 59.991833 
L 146.186531 59.530469 
L 146.280027 59.626018 
L 146.374968 59.759786 
L 146.422451 59.699727 
L 146.46991 59.636937 
L 146.517393 59.696997 
L 146.564875 59.729756 
L 146.612334 59.606908 
L 146.659817 59.727026 
L 146.802217 59.675157 
L 146.8497 59.789816 
L 146.897159 59.590528 
L 146.944642 59.664237 
L 147.133079 60.155631 
L 147.180561 59.926314 
L 147.275503 59.855335 
L 147.417927 60.117412 
L 147.512869 59.683347 
L 147.65527 60.073732 
L 147.799116 59.836225 
L 147.846599 59.953614 
L 147.894081 59.923584 
L 147.94154 59.849875 
L 147.989023 60.008213 
L 148.036482 59.926314 
L 148.083965 59.612368 
L 148.176014 59.691537 
L 148.223497 59.639667 
L 148.270956 59.852605 
L 148.318438 59.825305 
L 148.460863 59.41308 
L 148.555804 59.964533 
L 148.603263 59.677887 
L 148.650746 59.560498 
L 148.698205 59.636937 
L 148.935571 59.814385 
L 148.983053 59.746136 
L 149.030512 59.41035 
L 149.077995 59.552308 
L 149.125454 59.582338 
L 149.267878 59.819845 
L 149.313915 59.787086 
L 149.408856 59.806195 
L 149.456315 59.40762 
L 149.647645 59.710646 
L 149.695127 59.489519 
L 149.74114 59.798005 
L 149.788623 59.514089 
L 149.837528 59.762516 
L 149.88501 59.696997 
L 149.978506 59.557768 
L 150.025989 59.612368 
L 150.168389 59.530469 
L 150.310814 59.178303 
L 150.358272 59.626018 
L 150.405755 59.497709 
L 150.453214 59.462219 
L 150.595638 59.833495 
L 150.643121 59.571418 
L 150.738063 59.609638 
L 150.784099 59.606908 
L 150.927946 59.918124 
L 151.165312 59.328451 
L 151.258807 59.751596 
L 151.306266 59.653317 
L 151.355195 59.339371 
L 151.402654 59.626018 
L 151.44869 59.811655 
L 151.496173 59.743406 
L 151.589669 59.249282 
L 151.637151 59.347561 
L 151.780998 59.555038 
L 151.969435 59.189223 
L 152.016918 59.626018 
L 152.064377 59.585068 
L 152.159318 59.38578 
L 152.206801 59.44311 
L 152.444167 60.420438 
L 152.491626 60.382218 
L 152.539108 60.158361 
L 152.586567 60.406788 
L 152.63405 60.390408 
L 152.775028 60.764414 
L 152.822487 60.772604 
L 152.917429 60.647025 
L 153.154795 61.10839 
L 153.249736 60.835393 
L 153.298641 60.930942 
L 153.344678 60.939132 
L 153.487102 61.225778 
L 153.676985 61.515155 
L 153.724444 61.482395 
L 153.865423 61.203938 
L 153.960364 61.523345 
L 154.007847 61.299487 
L 154.102788 61.651653 
L 154.292672 61.340437 
L 154.482555 61.572484 
L 154.577496 61.06198 
L 154.624979 61.313137 
L 154.673884 61.558834 
L 154.719921 61.373196 
L 154.814862 61.250348 
L 154.862345 61.681683 
L 154.909804 61.662573 
L 155.003323 61.280378 
L 155.052228 61.607974 
L 155.145724 61.534265 
L 155.240665 61.162989 
L 155.288148 61.616164 
L 155.335607 61.329517 
L 155.384536 61.329517 
L 155.572973 61.807261 
L 155.620455 61.356817 
L 155.667914 61.624353 
L 155.715397 61.695333 
L 155.762856 61.324057 
L 155.810339 61.504235 
L 155.90528 61.771772 
L 155.952739 61.569754 
L 156.047681 61.395036 
L 156.093717 61.433256 
L 156.1412 61.779962 
L 156.188659 61.657113 
L 156.237564 61.597054 
L 156.283601 61.90281 
L 156.331083 61.752662 
L 156.378542 61.643463 
L 156.426025 61.796341 
L 156.473484 61.840021 
L 156.520967 61.782692 
L 156.663391 61.722632 
L 156.805791 61.90827 
L 156.854696 61.523345 
L 156.900733 61.89462 
L 156.948216 61.684413 
L 157.043157 61.736282 
L 157.090616 61.823641 
L 157.138099 61.749932 
L 157.231594 61.545184 
L 157.375465 61.87005 
L 157.46896 61.506965 
L 157.563902 61.624353 
L 157.611385 61.960139 
L 157.66029 61.605244 
L 157.706326 61.755392 
L 157.753785 61.485125 
L 157.801268 61.517885 
L 157.896209 61.971059 
L 157.991151 61.89189 
L 158.086093 61.760852 
L 158.133575 61.411416 
L 158.228517 61.433256 
L 158.275976 61.395036 
L 158.416954 61.627083 
L 158.464437 61.359547 
L 158.511896 61.460555 
L 158.65432 61.861861 
L 158.844203 61.534265 
L 158.891662 61.523345 
L 158.986627 61.719902 
L 159.034086 61.698063 
L 159.081569 61.542454 
L 159.22397 62.192187 
L 159.366394 62.063878 
L 159.413853 62.197647 
L 159.459889 62.082988 
L 159.507372 61.711712 
L 159.554831 61.990169 
L 159.602314 61.987439 
L 159.792197 61.613434 
L 159.98208 62.148507 
L 160.124504 64.138653 
L 160.266905 70.079062 
L 160.930074 108.89701 
L 161.357323 114.969275 
L 161.404806 115.082023 
L 161.594689 116.0902 
L 161.92555 117.241427 
L 162.542682 118.253699 
L 162.590141 117.957224 
L 162.637624 118.40958 
L 162.732566 118.284274 
L 162.780025 118.429236 
L 162.922449 118.144227 
L 162.968485 118.094269 
L 163.015944 118.178625 
L 163.25331 118.702232 
L 163.300793 118.486838 
L 163.348252 118.265438 
L 163.538135 113.837704 
L 163.680559 96.663481 
L 164.058903 36.530496 
L 164.296246 25.725286 
L 164.391187 24.717928 
L 165.057225 17.90939 
L 165.149298 18.086838 
L 165.244239 19.012297 
L 165.340627 22.820601 
L 165.529064 43.044197 
L 166.051255 97.001997 
L 166.334657 107.485071 
L 166.95179 114.702012 
L 167.236614 116.074912 
L 167.662418 117.286745 
L 167.7099 117.113938 
L 167.757359 117.078721 
L 167.804842 117.16608 
L 168.232091 117.797521 
L 168.27955 117.717533 
L 168.374491 116.794804 
L 168.469433 113.659437 
L 168.610411 93.152743 
L 168.990201 35.277441 
L 169.227544 25.646117 
L 169.369968 24.406712 
L 169.464909 25.081014 
L 169.559851 23.885288 
L 169.985654 17.96945 
L 170.033137 18.048619 
L 170.080596 17.95853 
L 170.128078 17.841141 
L 170.22302 18.684701 
L 170.36542 25.050984 
L 171.31486 108.590707 
L 171.788146 116.505428 
L 172.071525 118.596856 
L 172.73614 120.503738 
L 172.831081 120.38553 
L 172.972059 120.737423 
L 173.067001 120.731963 
L 173.11446 120.635595 
L 173.161943 120.920331 
L 173.209425 120.905862 
L 173.256884 120.804853 
L 173.399309 119.144487 
L 173.495673 115.151364 
L 173.733038 83.352162 
L 174.017863 49.45962 
L 174.253783 35.973583 
L 174.964435 21.420128 
L 175.059376 22.326477 
L 175.154318 26.852763 
L 175.532638 78.061485 
L 175.864946 105.428313 
L 176.14977 114.788006 
L 176.575597 119.480546 
L 176.812939 120.868734 
L 176.861844 120.922515 
L 177.097764 121.80211 
L 177.240188 122.125611 
L 177.476108 122.981456 
L 177.523591 122.904744 
L 177.57105 122.701088 
L 177.618533 122.937776 
L 177.665992 122.751593 
L 177.762379 123.14307 
L 177.855875 123.028138 
L 177.903357 123.03742 
L 177.998299 123.404055 
L 178.045782 123.240257 
L 178.140723 123.208316 
L 178.283124 122.619462 
L 178.425548 118.919265 
L 178.661468 104.405941 
L 179.088717 81.594063 
L 179.468483 72.230276 
L 180.179111 67.807729 
L 180.226594 67.7504 
L 180.274053 67.867788 
L 180.321536 67.774969 
L 180.416477 67.594791 
L 180.463936 67.7231 
L 180.558901 67.067908 
L 180.60636 67.321795 
L 180.748785 67.556572 
L 180.796244 67.652121 
L 180.843726 67.627551 
L 181.032163 67.032418 
L 181.079646 67.439183 
L 181.174588 67.305415 
L 181.316988 66.87408 
L 181.413376 67.633011 
L 181.459412 67.299955 
L 181.554354 67.482863 
L 181.601837 67.204406 
L 181.649296 67.452833 
L 181.696778 67.521082 
L 181.79172 67.100667 
L 181.840625 67.204406 
L 181.886662 67.321795 
L 181.980157 67.278115 
L 182.02764 67.335445 
L 182.122581 67.788619 
L 182.17004 67.72583 
L 182.217523 67.518352 
L 182.265006 67.611171 
L 182.312465 67.69034 
L 182.454889 67.220786 
L 182.54983 67.68761 
L 182.598735 67.537462 
L 182.739714 67.865058 
L 182.787173 67.398234 
L 182.834655 67.70945 
L 182.929597 67.957877 
L 182.97708 67.74767 
L 183.024538 67.963337 
L 183.072021 67.919658 
L 183.165517 67.575682 
L 183.212999 68.007016 
L 183.260458 67.532002 
L 183.497824 68.009746 
L 183.545283 68.077996 
L 183.687707 67.616631 
L 183.830132 68.058886 
L 184.020015 67.892358 
L 184.067474 68.192654 
L 184.162415 68.110755 
L 184.303394 67.791349 
L 184.398335 68.099835 
L 184.445818 67.75313 
L 184.493277 68.026126 
L 184.54076 67.979717 
L 184.588218 68.211764 
L 184.635701 68.151705 
L 184.730643 68.102565 
L 185.016914 69.060784 
L 185.159338 68.402862 
L 185.252833 68.54209 
L 185.441271 68.293663 
L 185.536212 68.651289 
L 185.631177 68.391942 
L 185.678636 68.473841 
L 185.775024 68.441081 
L 186.721572 64.41438 
L 186.769054 64.438949 
L 186.958938 63.734618 
L 187.006397 63.944825 
L 187.101338 63.912066 
L 187.338704 63.330583 
L 187.386187 63.366072 
L 187.481128 62.926548 
L 187.528587 63.316933 
L 187.622107 63.256874 
L 187.717048 62.904708 
L 187.764507 63.022097 
L 187.906931 63.174975 
L 188.001873 62.667201 
L 188.049332 62.73818 
L 188.096815 63.011177 
L 188.191756 62.918358 
L 188.286698 62.874678 
L 188.381639 62.929278 
L 188.429122 62.473373 
L 188.524064 62.579842 
L 188.571523 62.598952 
L 188.620451 62.806429 
L 188.666464 62.73272 
L 188.807442 62.72453 
L 188.854925 62.803699 
L 188.902384 62.667201 
L 189.044808 62.331415 
L 189.092291 62.435154 
L 189.13975 62.809159 
L 189.234692 62.7218 
L 189.329633 62.637171 
L 189.377116 62.817349 
L 189.519516 62.533432 
L 189.566999 62.604412 
L 189.614482 62.527973 
L 189.709423 62.487023 
L 189.756882 62.298655 
L 189.804365 62.560732 
L 189.992802 62.214026 
L 190.135226 62.391474 
L 190.182685 62.585302 
L 190.230168 62.372364 
L 190.420051 62.525243 
L 190.562475 62.227676 
L 190.704876 62.416044 
L 190.894759 61.93557 
L 191.035737 62.325955 
L 191.08322 62.268626 
L 191.130679 62.003819 
L 191.178162 62.323225 
L 191.225621 62.285005 
L 191.273103 62.063878 
L 191.320562 62.077528 
L 191.368045 62.227676 
L 191.510469 61.89189 
L 191.557928 62.295925 
L 191.605411 61.91646 
L 191.890236 62.134857 
L 191.985177 62.306845 
L 192.221097 61.678953 
L 192.364944 62.145777 
L 192.41098 61.990169 
L 192.458463 62.118477 
L 192.505922 62.074798 
L 192.600863 62.246786 
L 192.648346 61.790881 
L 192.695805 61.818181 
L 192.790747 62.085718 
L 192.838229 61.984709 
L 192.887134 61.94649 
L 192.933171 62.047498 
L 193.1245 62.265896 
L 193.170537 62.143047 
L 193.217996 62.238596 
L 193.264032 62.358715 
L 193.311515 62.104828 
L 193.36042 62.375094 
L 193.59634 61.785421 
L 193.643799 62.309575 
L 193.691281 62.282275 
L 193.73874 61.984709 
L 193.786223 62.189457 
L 193.833682 62.241326 
L 193.881165 62.047498 
L 193.928647 62.159427 
L 193.976106 62.235866 
L 194.023589 62.134857 
L 194.165989 61.818181 
L 194.403355 62.241326 
L 194.449392 62.192187 
L 194.591792 61.90554 
L 194.639275 61.995629 
L 194.686734 61.845481 
L 194.829158 62.233136 
L 194.876641 61.92465 
L 194.9241 62.173077 
L 195.019042 62.162157 
L 195.161466 62.042038 
L 195.208925 62.080258 
L 195.256407 62.159427 
L 195.351349 61.774502 
L 195.446291 62.148507 
L 195.492327 62.031119 
L 195.539786 62.074798 
L 195.68221 61.616164 
L 195.729693 62.143047 
L 195.824635 62.074798 
L 195.919576 62.148507 
L 196.061977 61.632543 
L 196.10946 62.036578 
L 196.204401 61.90281 
L 196.25186 61.89189 
L 196.299343 61.700792 
L 196.346825 61.89735 
L 196.394284 61.87824 
L 196.441767 62.156697 
L 196.536709 62.099368 
L 196.584168 61.831831 
L 196.677687 61.88916 
L 196.725146 62.044768 
L 196.772628 61.995629 
L 196.820087 61.90008 
L 196.915029 61.94922 
L 197.152395 61.575214 
L 197.2013 61.957409 
L 197.247336 61.752662 
L 197.294819 61.567024 
L 197.342278 61.954679 
L 197.43722 61.90554 
L 197.579644 61.638003 
L 197.723491 61.853671 
L 197.815564 61.575214 
L 197.910505 61.733552 
L 198.100389 61.820911 
L 198.147871 61.556104 
L 198.19533 61.624353 
L 198.242813 61.722632 
L 198.290272 61.602514 
L 198.385213 61.646193 
L 198.432696 61.386846 
L 198.480155 61.564294 
L 198.527638 61.711712 
L 198.576543 61.539724 
L 198.622579 61.392306 
L 198.670038 61.569754 
L 199.095865 61.621623 
L 199.190807 61.793611 
L 199.238266 61.692603 
L 199.285748 61.452365 
L 199.333207 61.493315 
L 199.428149 61.739012 
L 199.665515 61.206668 
L 199.712997 61.274918 
L 199.809361 61.599784 
L 199.855398 61.332247 
L 199.90288 61.602514 
L 199.996376 61.345897 
L 200.043859 61.659843 
L 200.091318 61.648923 
L 200.235164 61.403226 
L 200.281201 61.88643 
L 200.328684 61.725362 
L 200.471084 61.678953 
L 200.518567 61.829101 
L 200.567472 61.455095 
L 200.613508 61.561564 
L 200.660991 61.90008 
L 200.70845 61.640733 
L 200.755933 61.665303 
L 200.899779 61.479665 
L 201.040757 61.845481 
L 201.134253 61.411416 
L 201.181736 61.504235 
L 201.324136 61.700792 
L 201.46656 61.329517 
L 201.608985 61.749932 
L 201.656444 61.586134 
L 201.703926 61.676223 
L 201.752831 61.763582 
L 201.89381 61.332247 
L 201.941268 61.239428 
L 202.131175 61.88097 
L 202.27213 61.433256 
L 202.319613 61.725362 
L 202.414554 61.668033 
L 202.556978 61.760852 
L 202.699379 61.646193 
L 202.746862 61.209398 
L 202.795767 61.455095 
L 202.889262 61.951949 
L 202.936745 61.736282 
L 203.079169 61.384116 
L 203.126628 61.586134 
L 203.174111 61.86732 
L 203.22157 61.692603 
L 203.269052 61.569754 
L 203.316511 61.689873 
L 203.363994 61.711712 
L 203.504972 61.299487 
L 203.599914 61.654383 
L 203.742314 61.517885 
L 203.789797 61.689873 
L 203.837256 61.517885 
L 203.932221 61.359547 
L 203.97968 61.422336 
L 204.123527 61.646193 
L 204.169563 61.730822 
L 204.311988 61.520615 
L 204.501871 61.676223 
L 204.642849 61.572484 
L 204.832732 61.310407 
L 204.880215 61.684413 
L 204.975157 61.588864 
L 205.022616 61.687143 
L 205.070098 61.610704 
L 205.308886 61.334977 
L 205.402382 61.534265 
L 205.546252 61.195749 
L 205.638302 61.575214 
L 205.685784 61.517885 
L 205.780726 61.310407 
L 205.875668 61.515155 
L 205.92315 61.438716 
L 206.018092 61.427796 
L 206.160492 61.138419 
L 206.350399 61.018301 
L 206.397858 60.813553 
L 206.541705 61.435986 
L 206.682683 61.239428 
L 206.823661 61.498775 
L 206.966086 61.021031 
L 207.203428 61.550644 
L 207.25091 61.490585 
L 207.298393 61.763582 
L 207.345852 61.389576 
L 207.393335 61.580674 
L 207.44224 61.392306 
L 207.535735 61.029221 
L 207.630677 61.367737 
L 207.67816 61.201209 
L 207.725619 61.253078 
L 207.773101 61.474205 
L 207.82056 61.397766 
L 207.914079 61.187559 
L 207.961538 61.236698 
L 208.103963 61.395036 
L 208.152868 61.378656 
L 208.483729 62.096638 
L 208.531212 62.052958 
L 208.578671 62.031119 
L 208.768554 62.394204 
L 208.817483 62.407854 
L 208.863519 62.680851 
L 208.910978 62.568922 
L 208.958461 62.552542 
L 209.146898 63.043936 
L 209.194381 62.596222 
L 209.24184 62.795509 
L 209.336781 62.615331 
L 209.384264 62.552542 
L 209.526664 62.992067 
L 209.574147 62.882868 
L 209.621606 62.70815 
L 209.669089 63.188625 
L 209.76403 63.128565 
L 209.906454 63.55717 
L 209.953913 62.983877 
L 210.001396 63.002987 
L 210.189833 63.431592 
L 210.5696 63.035746 
L 210.618528 63.000257 
L 210.664565 63.188625 
L 210.759507 63.142215 
L 210.806966 62.945657 
L 210.854448 63.024827 
L 210.901907 63.082156 
L 211.044331 63.355153 
L 211.186732 62.972957 
L 211.234215 63.000257 
L 211.280251 63.614499 
L 211.375193 63.57355 
L 211.519039 63.366072 
L 211.660018 63.682749 
L 211.849901 63.194084 
L 211.944842 63.095806 
L 211.992325 63.666369 
L 212.039784 63.472541 
L 212.134726 63.341503 
L 212.182208 63.407022 
L 212.418128 63.873846 
L 212.465611 63.772838 
L 212.655494 63.366072 
L 212.797895 63.442512 
L 212.940319 63.868386 
L 212.987778 63.726428 
L 213.082743 63.884766 
L 213.130202 63.835627 
L 213.177685 63.524411 
L 213.225144 63.5599 
L 213.367568 63.944825 
L 213.508546 63.467081 
L 213.650947 64.051294 
L 213.745888 63.729158 
L 213.793371 63.830167 
L 213.935772 63.647259 
L 214.030737 63.955745 
L 214.125678 63.658179 
L 214.268079 63.939366 
L 214.363021 63.483461 
L 214.505445 63.917526 
L 214.55435 63.745538 
L 214.600387 63.955745 
L 214.693882 64.228742 
L 214.836306 63.701858 
L 215.02619 63.800137 
L 215.216073 64.070404 
L 215.263555 63.816517 
L 215.311014 64.029454 
L 215.595863 64.318831 
L 215.831783 63.669099 
L 215.879242 63.704588 
L 215.926724 63.518951 
L 216.021666 63.999425 
L 216.069125 63.936636 
L 216.116608 63.802867 
L 216.164066 63.993965 
L 216.259008 63.819247 
L 216.496374 66.03325 
L 216.73374 77.406293 
L 217.349426 109.469757 
L 217.729193 116.549926 
L 218.29742 119.193081 
L 218.439844 119.309923 
L 218.678632 119.677377 
L 218.772128 119.953922 
L 218.821057 119.928261 
L 219.009494 119.596297 
L 219.150472 119.55562 
L 219.197955 119.55289 
L 219.245414 119.272796 
L 219.292896 119.688297 
L 219.340355 119.455703 
L 219.38926 119.372439 
L 219.435297 119.65035 
L 219.482779 119.412843 
L 219.62518 117.640821 
L 219.720122 111.882775 
L 220.38329 28.275075 
L 220.81054 21.2809 
L 221.190306 17.540845 
L 221.285248 17.434376 
L 221.380213 18.627372 
L 221.521167 25.255732 
L 221.806016 58.329283 
L 222.233265 96.284016 
L 222.611585 111.093268 
L 223.086293 116.736656 
L 223.466084 118.37409 
L 223.513543 118.338055 
L 223.654521 118.43415 
L 223.702003 118.469912 
L 223.891887 119.074873 
L 224.271653 119.051941 
L 224.414077 119.548522 
L 224.461536 119.347051 
L 224.509019 119.53105 
L 224.556478 119.553709 
L 224.651419 118.800238 
L 224.746385 115.68207 
L 224.887339 96.213037 
L 225.267129 36.309369 
L 225.504472 28.397924 
L 225.78932 25.613357 
L 226.02524 21.638525 
L 226.215123 19.986895 
L 226.262582 20.060604 
L 226.405006 19.798528 
L 226.547431 22.247308 
L 226.689831 30.557328 
L 227.447942 101.391784 
L 227.827708 113.962191 
L 228.206052 118.142043 
L 228.395935 119.355514 
L 228.443418 119.360155 
L 228.585819 119.968391 
L 228.728243 120.336664 
L 228.918126 121.032805 
L 229.06055 120.9995 
L 229.155492 121.213529 
L 229.202951 120.9449 
L 229.250434 121.108698 
L 229.343929 121.188959 
L 229.535258 121.647321 
L 229.676237 121.154289 
L 229.771178 119.067775 
L 229.86612 110.903808 
L 230.386864 33.300945 
L 230.62423 25.689797 
L 230.766655 24.630569 
L 230.814114 24.717928 
L 230.861596 24.431282 
L 230.909055 24.472231 
L 230.956538 24.734308 
L 231.003997 24.641489 
L 231.431246 20.571108 
L 231.524741 20.161613 
L 231.57367 19.850397 
L 231.619707 20.066064 
L 231.667166 20.169803 
L 231.80959 22.757812 
L 231.95199 31.411808 
L 232.899984 112.322299 
L 233.374716 120.928794 
L 233.708446 123.041242 
L 234.417651 124.791424 
L 234.46511 124.803436 
L 236.763906 126.15477 
L 236.763906 126.15477 
" clip-path="url(#p02ac732aa7)" style="fill: none; stroke: #1f77b4; stroke-width: 1.5; stroke-linecap: square"/>
   </g>
   <g id="patch_3">
    <path d="M 51.599375 142.169753 
L 51.599375 9.026446 
" style="fill: none; stroke: #000000; stroke-width: 0.8; stroke-linejoin: miter; stroke-linecap: square"/>
   </g>
   <g id="patch_4">
    <path d="M 245.581265 142.169753 
L 245.581265 9.026446 
" style="fill: none; stroke: #000000; stroke-width: 0.8; stroke-linejoin: miter; stroke-linecap: square"/>
   </g>
   <g id="patch_5">
    <path d="M 51.599375 142.169753 
L 245.581265 142.169753 
" style="fill: none; stroke: #000000; stroke-width: 0.8; stroke-linejoin: miter; stroke-linecap: square"/>
   </g>
   <g id="patch_6">
    <path d="M 51.599375 9.026446 
L 245.581265 9.026446 
" style="fill: none; stroke: #000000; stroke-width: 0.8; stroke-linejoin: miter; stroke-linecap: square"/>
   </g>
   <g id="text_12">
    <!-- PBS-10X... -->
    <g transform="translate(47.626881 135.931732) rotate(-45) scale(0.05 -0.05)">
     <defs>
      <path id="TimesNewRomanPSMT-50" d="M 1313 1984 
L 1313 750 
Q 1313 350 1400 253 
Q 1519 116 1759 116 
L 1922 116 
L 1922 0 
L 106 0 
L 106 116 
L 266 116 
Q 534 116 650 291 
Q 713 388 713 750 
L 713 3488 
Q 713 3888 628 3984 
Q 506 4122 266 4122 
L 106 4122 
L 106 4238 
L 1659 4238 
Q 2228 4238 2556 4120 
Q 2884 4003 3109 3725 
Q 3334 3447 3334 3066 
Q 3334 2547 2992 2222 
Q 2650 1897 2025 1897 
Q 1872 1897 1694 1919 
Q 1516 1941 1313 1984 
z
M 1313 2163 
Q 1478 2131 1606 2115 
Q 1734 2100 1825 2100 
Q 2150 2100 2386 2351 
Q 2622 2603 2622 3003 
Q 2622 3278 2509 3514 
Q 2397 3750 2190 3867 
Q 1984 3984 1722 3984 
Q 1563 3984 1313 3925 
L 1313 2163 
z
" transform="scale(0.015625)"/>
      <path id="TimesNewRomanPSMT-42" d="M 2956 2163 
Q 3397 2069 3616 1863 
Q 3919 1575 3919 1159 
Q 3919 844 3719 555 
Q 3519 266 3170 133 
Q 2822 0 2106 0 
L 106 0 
L 106 116 
L 266 116 
Q 531 116 647 284 
Q 719 394 719 750 
L 719 3488 
Q 719 3881 628 3984 
Q 506 4122 266 4122 
L 106 4122 
L 106 4238 
L 1938 4238 
Q 2450 4238 2759 4163 
Q 3228 4050 3475 3764 
Q 3722 3478 3722 3106 
Q 3722 2788 3528 2536 
Q 3334 2284 2956 2163 
z
M 1319 2331 
Q 1434 2309 1582 2298 
Q 1731 2288 1909 2288 
Q 2366 2288 2595 2386 
Q 2825 2484 2947 2687 
Q 3069 2891 3069 3131 
Q 3069 3503 2766 3765 
Q 2463 4028 1881 4028 
Q 1569 4028 1319 3959 
L 1319 2331 
z
M 1319 306 
Q 1681 222 2034 222 
Q 2600 222 2897 476 
Q 3194 731 3194 1106 
Q 3194 1353 3059 1581 
Q 2925 1809 2622 1940 
Q 2319 2072 1872 2072 
Q 1678 2072 1540 2065 
Q 1403 2059 1319 2044 
L 1319 306 
z
" transform="scale(0.015625)"/>
      <path id="TimesNewRomanPSMT-53" d="M 2934 4334 
L 2934 2869 
L 2819 2869 
Q 2763 3291 2617 3541 
Q 2472 3791 2203 3937 
Q 1934 4084 1647 4084 
Q 1322 4084 1109 3886 
Q 897 3688 897 3434 
Q 897 3241 1031 3081 
Q 1225 2847 1953 2456 
Q 2547 2138 2764 1967 
Q 2981 1797 3098 1565 
Q 3216 1334 3216 1081 
Q 3216 600 2842 251 
Q 2469 -97 1881 -97 
Q 1697 -97 1534 -69 
Q 1438 -53 1133 45 
Q 828 144 747 144 
Q 669 144 623 97 
Q 578 50 556 -97 
L 441 -97 
L 441 1356 
L 556 1356 
Q 638 900 775 673 
Q 913 447 1195 297 
Q 1478 147 1816 147 
Q 2206 147 2432 353 
Q 2659 559 2659 841 
Q 2659 997 2573 1156 
Q 2488 1316 2306 1453 
Q 2184 1547 1640 1851 
Q 1097 2156 867 2337 
Q 638 2519 519 2737 
Q 400 2956 400 3219 
Q 400 3675 750 4004 
Q 1100 4334 1641 4334 
Q 1978 4334 2356 4169 
Q 2531 4091 2603 4091 
Q 2684 4091 2736 4139 
Q 2788 4188 2819 4334 
L 2934 4334 
z
" transform="scale(0.015625)"/>
      <path id="TimesNewRomanPSMT-2d" d="M 259 1672 
L 1875 1672 
L 1875 1200 
L 259 1200 
L 259 1672 
z
" transform="scale(0.015625)"/>
      <path id="TimesNewRomanPSMT-58" d="M 2613 2347 
L 3522 991 
Q 3900 428 4083 279 
Q 4266 131 4547 116 
L 4547 0 
L 2728 0 
L 2728 116 
Q 2909 119 2997 153 
Q 3063 181 3105 239 
Q 3147 297 3147 356 
Q 3147 428 3119 500 
Q 3097 553 2947 775 
L 2228 1863 
L 1341 725 
Q 1200 544 1172 483 
Q 1144 422 1144 356 
Q 1144 256 1228 190 
Q 1313 125 1550 116 
L 1550 0 
L 47 0 
L 47 116 
Q 206 131 322 181 
Q 516 263 691 400 
Q 866 538 1091 822 
L 2091 2084 
L 1256 3306 
Q 916 3803 678 3958 
Q 441 4113 131 4122 
L 131 4238 
L 2091 4238 
L 2091 4122 
Q 1841 4113 1748 4041 
Q 1656 3969 1656 3881 
Q 1656 3766 1806 3544 
L 2456 2572 
L 3209 3525 
Q 3341 3694 3370 3756 
Q 3400 3819 3400 3884 
Q 3400 3950 3363 4000 
Q 3316 4066 3244 4092 
Q 3172 4119 2947 4122 
L 2947 4238 
L 4450 4238 
L 4450 4122 
Q 4272 4113 4159 4066 
Q 3991 3994 3850 3872 
Q 3709 3750 3453 3422 
L 2613 2347 
z
" transform="scale(0.015625)"/>
     </defs>
     <use xlink:href="#TimesNewRomanPSMT-50"/>
     <use xlink:href="#TimesNewRomanPSMT-42" x="55.615234"/>
     <use xlink:href="#TimesNewRomanPSMT-53" x="122.314453"/>
     <use xlink:href="#TimesNewRomanPSMT-2d" x="177.929688"/>
     <use xlink:href="#TimesNewRomanPSMT-31" x="211.230469"/>
     <use xlink:href="#TimesNewRomanPSMT-30" x="261.230469"/>
     <use xlink:href="#TimesNewRomanPSMT-58" x="311.230469"/>
     <use xlink:href="#TimesNewRomanPSMT-2e" x="383.447266"/>
     <use xlink:href="#TimesNewRomanPSMT-2e" x="408.447266"/>
     <use xlink:href="#TimesNewRomanPSMT-2e" x="433.447266"/>
    </g>
   </g>
   <g id="text_13">
    <!-- BIOTIN 3.74 -->
    <g transform="translate(52.465533 75.786735) rotate(-45) scale(0.05 -0.05)">
     <defs>
      <path id="TimesNewRomanPSMT-4f" d="M 2341 4334 
Q 3166 4334 3770 3707 
Q 4375 3081 4375 2144 
Q 4375 1178 3765 540 
Q 3156 -97 2291 -97 
Q 1416 -97 820 525 
Q 225 1147 225 2134 
Q 225 3144 913 3781 
Q 1509 4334 2341 4334 
z
M 2281 4106 
Q 1713 4106 1369 3684 
Q 941 3159 941 2147 
Q 941 1109 1384 550 
Q 1725 125 2284 125 
Q 2881 125 3270 590 
Q 3659 1056 3659 2059 
Q 3659 3147 3231 3681 
Q 2888 4106 2281 4106 
z
" transform="scale(0.015625)"/>
      <path id="TimesNewRomanPSMT-4e" d="M -84 4238 
L 1066 4238 
L 3656 1059 
L 3656 3503 
Q 3656 3894 3569 3991 
Q 3453 4122 3203 4122 
L 3056 4122 
L 3056 4238 
L 4531 4238 
L 4531 4122 
L 4381 4122 
Q 4113 4122 4000 3959 
Q 3931 3859 3931 3503 
L 3931 -69 
L 3819 -69 
L 1025 3344 
L 1025 734 
Q 1025 344 1109 247 
Q 1228 116 1475 116 
L 1625 116 
L 1625 0 
L 150 0 
L 150 116 
L 297 116 
Q 569 116 681 278 
Q 750 378 750 734 
L 750 3681 
Q 566 3897 470 3965 
Q 375 4034 191 4094 
Q 100 4122 -84 4122 
L -84 4238 
z
" transform="scale(0.015625)"/>
      <path id="TimesNewRomanPSMT-37" d="M 644 4238 
L 2916 4238 
L 2916 4119 
L 1503 -88 
L 1153 -88 
L 2419 3728 
L 1253 3728 
Q 900 3728 750 3644 
Q 488 3500 328 3200 
L 238 3234 
L 644 4238 
z
" transform="scale(0.015625)"/>
     </defs>
     <use xlink:href="#TimesNewRomanPSMT-42"/>
     <use xlink:href="#TimesNewRomanPSMT-49" x="66.699219"/>
     <use xlink:href="#TimesNewRomanPSMT-4f" x="100"/>
     <use xlink:href="#TimesNewRomanPSMT-54" x="172.216797"/>
     <use xlink:href="#TimesNewRomanPSMT-49" x="233.300781"/>
     <use xlink:href="#TimesNewRomanPSMT-4e" x="266.601562"/>
     <use xlink:href="#TimesNewRomanPSMT-20" x="338.818359"/>
     <use xlink:href="#TimesNewRomanPSMT-33" x="363.818359"/>
     <use xlink:href="#TimesNewRomanPSMT-2e" x="413.818359"/>
     <use xlink:href="#TimesNewRomanPSMT-37" x="438.818359"/>
     <use xlink:href="#TimesNewRomanPSMT-34" x="488.818359"/>
    </g>
   </g>
   <g id="text_14">
    <!-- PBS-10X... -->
    <g transform="translate(77.637603 60.892034) rotate(-45) scale(0.05 -0.05)">
     <use xlink:href="#TimesNewRomanPSMT-50"/>
     <use xlink:href="#TimesNewRomanPSMT-42" x="55.615234"/>
     <use xlink:href="#TimesNewRomanPSMT-53" x="122.314453"/>
     <use xlink:href="#TimesNewRomanPSMT-2d" x="177.929688"/>
     <use xlink:href="#TimesNewRomanPSMT-31" x="211.230469"/>
     <use xlink:href="#TimesNewRomanPSMT-30" x="261.230469"/>
     <use xlink:href="#TimesNewRomanPSMT-58" x="311.230469"/>
     <use xlink:href="#TimesNewRomanPSMT-2e" x="383.447266"/>
     <use xlink:href="#TimesNewRomanPSMT-2e" x="408.447266"/>
     <use xlink:href="#TimesNewRomanPSMT-2e" x="433.447266"/>
    </g>
   </g>
   <g id="text_15">
    <!-- H20 -->
    <g transform="translate(94.964039 63.045979) rotate(-45) scale(0.05 -0.05)">
     <defs>
      <path id="TimesNewRomanPSMT-48" d="M 1316 2272 
L 3284 2272 
L 3284 3484 
Q 3284 3809 3244 3913 
Q 3213 3991 3113 4047 
Q 2978 4122 2828 4122 
L 2678 4122 
L 2678 4238 
L 4491 4238 
L 4491 4122 
L 4341 4122 
Q 4191 4122 4056 4050 
Q 3956 4000 3920 3898 
Q 3884 3797 3884 3484 
L 3884 750 
Q 3884 428 3925 325 
Q 3956 247 4053 191 
Q 4191 116 4341 116 
L 4491 116 
L 4491 0 
L 2678 0 
L 2678 116 
L 2828 116 
Q 3088 116 3206 269 
Q 3284 369 3284 750 
L 3284 2041 
L 1316 2041 
L 1316 750 
Q 1316 428 1356 325 
Q 1388 247 1488 191 
Q 1622 116 1772 116 
L 1925 116 
L 1925 0 
L 109 0 
L 109 116 
L 259 116 
Q 522 116 641 269 
Q 716 369 716 750 
L 716 3484 
Q 716 3809 675 3913 
Q 644 3991 547 4047 
Q 409 4122 259 4122 
L 109 4122 
L 109 4238 
L 1925 4238 
L 1925 4122 
L 1772 4122 
Q 1622 4122 1488 4050 
Q 1391 4000 1353 3898 
Q 1316 3797 1316 3484 
L 1316 2272 
z
" transform="scale(0.015625)"/>
     </defs>
     <use xlink:href="#TimesNewRomanPSMT-48"/>
     <use xlink:href="#TimesNewRomanPSMT-32" x="72.216797"/>
     <use xlink:href="#TimesNewRomanPSMT-30" x="122.216797"/>
    </g>
   </g>
   <g id="text_16">
    <!-- hiPo1x -->
    <g transform="translate(95.773489 120.954314) rotate(-45) scale(0.05 -0.05)">
     <defs>
      <path id="TimesNewRomanPSMT-68" d="M 1041 4444 
L 1041 2350 
Q 1388 2731 1591 2839 
Q 1794 2947 1997 2947 
Q 2241 2947 2416 2812 
Q 2591 2678 2675 2391 
Q 2734 2191 2734 1659 
L 2734 647 
Q 2734 375 2778 275 
Q 2809 200 2884 156 
Q 2959 113 3159 113 
L 3159 0 
L 1753 0 
L 1753 113 
L 1819 113 
Q 2019 113 2097 173 
Q 2175 234 2206 353 
Q 2216 403 2216 647 
L 2216 1659 
Q 2216 2128 2167 2275 
Q 2119 2422 2012 2495 
Q 1906 2569 1756 2569 
Q 1603 2569 1437 2487 
Q 1272 2406 1041 2159 
L 1041 647 
Q 1041 353 1073 281 
Q 1106 209 1195 161 
Q 1284 113 1503 113 
L 1503 0 
L 84 0 
L 84 113 
Q 275 113 384 172 
Q 447 203 484 290 
Q 522 378 522 647 
L 522 3238 
Q 522 3728 498 3840 
Q 475 3953 426 3993 
Q 378 4034 297 4034 
Q 231 4034 84 3984 
L 41 4094 
L 897 4444 
L 1041 4444 
z
" transform="scale(0.015625)"/>
     </defs>
     <use xlink:href="#TimesNewRomanPSMT-68"/>
     <use xlink:href="#TimesNewRomanPSMT-69" x="50"/>
     <use xlink:href="#TimesNewRomanPSMT-50" x="77.783203"/>
     <use xlink:href="#TimesNewRomanPSMT-6f" x="133.398438"/>
     <use xlink:href="#TimesNewRomanPSMT-31" x="183.398438"/>
     <use xlink:href="#TimesNewRomanPSMT-78" x="233.398438"/>
    </g>
   </g>
   <g id="text_17">
    <!-- H20 -->
    <g transform="translate(101.791325 15.743839) rotate(-45) scale(0.05 -0.05)">
     <use xlink:href="#TimesNewRomanPSMT-48"/>
     <use xlink:href="#TimesNewRomanPSMT-32" x="72.216797"/>
     <use xlink:href="#TimesNewRomanPSMT-30" x="122.216797"/>
    </g>
   </g>
   <g id="text_18">
    <!-- hiPo1x -->
    <g transform="translate(101.132036 118.084845) rotate(-45) scale(0.05 -0.05)">
     <use xlink:href="#TimesNewRomanPSMT-68"/>
     <use xlink:href="#TimesNewRomanPSMT-69" x="50"/>
     <use xlink:href="#TimesNewRomanPSMT-50" x="77.783203"/>
     <use xlink:href="#TimesNewRomanPSMT-6f" x="133.398438"/>
     <use xlink:href="#TimesNewRomanPSMT-31" x="183.398438"/>
     <use xlink:href="#TimesNewRomanPSMT-78" x="233.398438"/>
    </g>
   </g>
   <g id="text_19">
    <!-- H20 -->
    <g transform="translate(106.958543 20.117246) rotate(-45) scale(0.05 -0.05)">
     <use xlink:href="#TimesNewRomanPSMT-48"/>
     <use xlink:href="#TimesNewRomanPSMT-32" x="72.216797"/>
     <use xlink:href="#TimesNewRomanPSMT-30" x="122.216797"/>
    </g>
   </g>
   <g id="text_20">
    <!-- hiPo1x -->
    <g transform="translate(106.061888 120.631085) rotate(-45) scale(0.05 -0.05)">
     <use xlink:href="#TimesNewRomanPSMT-68"/>
     <use xlink:href="#TimesNewRomanPSMT-69" x="50"/>
     <use xlink:href="#TimesNewRomanPSMT-50" x="77.783203"/>
     <use xlink:href="#TimesNewRomanPSMT-6f" x="133.398438"/>
     <use xlink:href="#TimesNewRomanPSMT-31" x="183.398438"/>
     <use xlink:href="#TimesNewRomanPSMT-78" x="233.398438"/>
    </g>
   </g>
   <g id="text_21">
    <!-- H20 -->
    <g transform="translate(111.984782 20.64686) rotate(-45) scale(0.05 -0.05)">
     <use xlink:href="#TimesNewRomanPSMT-48"/>
     <use xlink:href="#TimesNewRomanPSMT-32" x="72.216797"/>
     <use xlink:href="#TimesNewRomanPSMT-30" x="122.216797"/>
    </g>
   </g>
   <g id="text_22">
    <!-- PBS-10X -->
    <g transform="translate(107.788302 123.635414) rotate(-45) scale(0.05 -0.05)">
     <use xlink:href="#TimesNewRomanPSMT-50"/>
     <use xlink:href="#TimesNewRomanPSMT-42" x="55.615234"/>
     <use xlink:href="#TimesNewRomanPSMT-53" x="122.314453"/>
     <use xlink:href="#TimesNewRomanPSMT-2d" x="177.929688"/>
     <use xlink:href="#TimesNewRomanPSMT-31" x="211.230469"/>
     <use xlink:href="#TimesNewRomanPSMT-30" x="261.230469"/>
     <use xlink:href="#TimesNewRomanPSMT-58" x="311.230469"/>
    </g>
   </g>
   <g id="text_23">
    <!-- BIOTIN 3.74 -->
    <g transform="translate(109.642996 68.75707) rotate(-45) scale(0.05 -0.05)">
     <use xlink:href="#TimesNewRomanPSMT-42"/>
     <use xlink:href="#TimesNewRomanPSMT-49" x="66.699219"/>
     <use xlink:href="#TimesNewRomanPSMT-4f" x="100"/>
     <use xlink:href="#TimesNewRomanPSMT-54" x="172.216797"/>
     <use xlink:href="#TimesNewRomanPSMT-49" x="233.300781"/>
     <use xlink:href="#TimesNewRomanPSMT-4e" x="266.601562"/>
     <use xlink:href="#TimesNewRomanPSMT-20" x="338.818359"/>
     <use xlink:href="#TimesNewRomanPSMT-33" x="363.818359"/>
     <use xlink:href="#TimesNewRomanPSMT-2e" x="413.818359"/>
     <use xlink:href="#TimesNewRomanPSMT-37" x="438.818359"/>
     <use xlink:href="#TimesNewRomanPSMT-34" x="488.818359"/>
    </g>
   </g>
   <g id="text_24">
    <!-- PBS-10X -->
    <g transform="translate(137.751541 59.898326) rotate(-45) scale(0.05 -0.05)">
     <use xlink:href="#TimesNewRomanPSMT-50"/>
     <use xlink:href="#TimesNewRomanPSMT-42" x="55.615234"/>
     <use xlink:href="#TimesNewRomanPSMT-53" x="122.314453"/>
     <use xlink:href="#TimesNewRomanPSMT-2d" x="177.929688"/>
     <use xlink:href="#TimesNewRomanPSMT-31" x="211.230469"/>
     <use xlink:href="#TimesNewRomanPSMT-30" x="261.230469"/>
     <use xlink:href="#TimesNewRomanPSMT-58" x="311.230469"/>
    </g>
   </g>
   <g id="text_25">
    <!-- H20 -->
    <g transform="translate(152.994554 62.06046) rotate(-45) scale(0.05 -0.05)">
     <use xlink:href="#TimesNewRomanPSMT-48"/>
     <use xlink:href="#TimesNewRomanPSMT-32" x="72.216797"/>
     <use xlink:href="#TimesNewRomanPSMT-30" x="122.216797"/>
    </g>
   </g>
   <g id="text_26">
    <!-- hiPo1X -->
    <g transform="translate(151.40729 118.407527) rotate(-45) scale(0.05 -0.05)">
     <use xlink:href="#TimesNewRomanPSMT-68"/>
     <use xlink:href="#TimesNewRomanPSMT-69" x="50"/>
     <use xlink:href="#TimesNewRomanPSMT-50" x="77.783203"/>
     <use xlink:href="#TimesNewRomanPSMT-6f" x="133.398438"/>
     <use xlink:href="#TimesNewRomanPSMT-31" x="183.398438"/>
     <use xlink:href="#TimesNewRomanPSMT-58" x="233.398438"/>
    </g>
   </g>
   <g id="text_27">
    <!-- H20 -->
    <g transform="translate(158.256714 18.301818) rotate(-45) scale(0.05 -0.05)">
     <use xlink:href="#TimesNewRomanPSMT-48"/>
     <use xlink:href="#TimesNewRomanPSMT-32" x="72.216797"/>
     <use xlink:href="#TimesNewRomanPSMT-30" x="122.216797"/>
    </g>
   </g>
   <g id="text_28">
    <!-- hiPo1X -->
    <g transform="translate(156.670895 118.11078) rotate(-45) scale(0.05 -0.05)">
     <use xlink:href="#TimesNewRomanPSMT-68"/>
     <use xlink:href="#TimesNewRomanPSMT-69" x="50"/>
     <use xlink:href="#TimesNewRomanPSMT-50" x="77.783203"/>
     <use xlink:href="#TimesNewRomanPSMT-6f" x="133.398438"/>
     <use xlink:href="#TimesNewRomanPSMT-31" x="183.398438"/>
     <use xlink:href="#TimesNewRomanPSMT-58" x="233.398438"/>
    </g>
   </g>
   <g id="text_29">
    <!-- H20 -->
    <g transform="translate(163.235471 18.271788) rotate(-45) scale(0.05 -0.05)">
     <use xlink:href="#TimesNewRomanPSMT-48"/>
     <use xlink:href="#TimesNewRomanPSMT-32" x="72.216797"/>
     <use xlink:href="#TimesNewRomanPSMT-30" x="122.216797"/>
    </g>
   </g>
   <g id="text_30">
    <!-- hiPo1X -->
    <g transform="translate(161.600747 121.233589) rotate(-45) scale(0.05 -0.05)">
     <use xlink:href="#TimesNewRomanPSMT-68"/>
     <use xlink:href="#TimesNewRomanPSMT-69" x="50"/>
     <use xlink:href="#TimesNewRomanPSMT-50" x="77.783203"/>
     <use xlink:href="#TimesNewRomanPSMT-6f" x="133.398438"/>
     <use xlink:href="#TimesNewRomanPSMT-31" x="183.398438"/>
     <use xlink:href="#TimesNewRomanPSMT-58" x="233.398438"/>
    </g>
   </g>
   <g id="text_31">
    <!-- H20 -->
    <g transform="translate(168.119309 21.733386) rotate(-45) scale(0.05 -0.05)">
     <use xlink:href="#TimesNewRomanPSMT-48"/>
     <use xlink:href="#TimesNewRomanPSMT-32" x="72.216797"/>
     <use xlink:href="#TimesNewRomanPSMT-30" x="122.216797"/>
    </g>
   </g>
   <g id="text_32">
    <!-- PBS-10X -->
    <g transform="translate(163.781851 123.578904) rotate(-45) scale(0.05 -0.05)">
     <use xlink:href="#TimesNewRomanPSMT-50"/>
     <use xlink:href="#TimesNewRomanPSMT-42" x="55.615234"/>
     <use xlink:href="#TimesNewRomanPSMT-53" x="122.314453"/>
     <use xlink:href="#TimesNewRomanPSMT-2d" x="177.929688"/>
     <use xlink:href="#TimesNewRomanPSMT-31" x="211.230469"/>
     <use xlink:href="#TimesNewRomanPSMT-30" x="261.230469"/>
     <use xlink:href="#TimesNewRomanPSMT-58" x="311.230469"/>
    </g>
   </g>
   <g id="text_33">
    <!-- BIOTIN 3.74 -->
    <g transform="translate(165.730041 68.964547) rotate(-45) scale(0.05 -0.05)">
     <use xlink:href="#TimesNewRomanPSMT-42"/>
     <use xlink:href="#TimesNewRomanPSMT-49" x="66.699219"/>
     <use xlink:href="#TimesNewRomanPSMT-4f" x="100"/>
     <use xlink:href="#TimesNewRomanPSMT-54" x="172.216797"/>
     <use xlink:href="#TimesNewRomanPSMT-49" x="233.300781"/>
     <use xlink:href="#TimesNewRomanPSMT-4e" x="266.601562"/>
     <use xlink:href="#TimesNewRomanPSMT-20" x="338.818359"/>
     <use xlink:href="#TimesNewRomanPSMT-33" x="363.818359"/>
     <use xlink:href="#TimesNewRomanPSMT-2e" x="413.818359"/>
     <use xlink:href="#TimesNewRomanPSMT-37" x="438.818359"/>
     <use xlink:href="#TimesNewRomanPSMT-34" x="488.818359"/>
    </g>
   </g>
   <g id="text_34">
    <!-- PBS-10X -->
    <g transform="translate(193.696185 61.686455) rotate(-45) scale(0.05 -0.05)">
     <use xlink:href="#TimesNewRomanPSMT-50"/>
     <use xlink:href="#TimesNewRomanPSMT-42" x="55.615234"/>
     <use xlink:href="#TimesNewRomanPSMT-53" x="122.314453"/>
     <use xlink:href="#TimesNewRomanPSMT-2d" x="177.929688"/>
     <use xlink:href="#TimesNewRomanPSMT-31" x="211.230469"/>
     <use xlink:href="#TimesNewRomanPSMT-30" x="261.230469"/>
     <use xlink:href="#TimesNewRomanPSMT-58" x="311.230469"/>
    </g>
   </g>
   <g id="text_35">
    <!-- H20 -->
    <g transform="translate(209.271482 64.116126) rotate(-45) scale(0.05 -0.05)">
     <use xlink:href="#TimesNewRomanPSMT-48"/>
     <use xlink:href="#TimesNewRomanPSMT-32" x="72.216797"/>
     <use xlink:href="#TimesNewRomanPSMT-30" x="122.216797"/>
    </g>
   </g>
   <g id="text_36">
    <!-- hiPo1X -->
    <g transform="translate(207.448298 119.909555) rotate(-45) scale(0.05 -0.05)">
     <use xlink:href="#TimesNewRomanPSMT-68"/>
     <use xlink:href="#TimesNewRomanPSMT-69" x="50"/>
     <use xlink:href="#TimesNewRomanPSMT-50" x="77.783203"/>
     <use xlink:href="#TimesNewRomanPSMT-6f" x="133.398438"/>
     <use xlink:href="#TimesNewRomanPSMT-31" x="183.398438"/>
     <use xlink:href="#TimesNewRomanPSMT-58" x="233.398438"/>
    </g>
   </g>
   <g id="text_37">
    <!-- H20 -->
    <g transform="translate(214.250239 18.307278) rotate(-45) scale(0.05 -0.05)">
     <use xlink:href="#TimesNewRomanPSMT-48"/>
     <use xlink:href="#TimesNewRomanPSMT-32" x="72.216797"/>
     <use xlink:href="#TimesNewRomanPSMT-30" x="122.216797"/>
    </g>
   </g>
   <g id="text_38">
    <!-- hiPo1X -->
    <g transform="translate(212.710457 119.3652) rotate(-45) scale(0.05 -0.05)">
     <use xlink:href="#TimesNewRomanPSMT-68"/>
     <use xlink:href="#TimesNewRomanPSMT-69" x="50"/>
     <use xlink:href="#TimesNewRomanPSMT-50" x="77.783203"/>
     <use xlink:href="#TimesNewRomanPSMT-6f" x="133.398438"/>
     <use xlink:href="#TimesNewRomanPSMT-31" x="183.398438"/>
     <use xlink:href="#TimesNewRomanPSMT-58" x="233.398438"/>
    </g>
   </g>
   <g id="text_39">
    <!-- H20 -->
    <g transform="translate(219.512399 20.196415) rotate(-45) scale(0.05 -0.05)">
     <use xlink:href="#TimesNewRomanPSMT-48"/>
     <use xlink:href="#TimesNewRomanPSMT-32" x="72.216797"/>
     <use xlink:href="#TimesNewRomanPSMT-30" x="122.216797"/>
    </g>
   </g>
   <g id="text_40">
    <!-- hiPo1X -->
    <g transform="translate(217.735274 121.423049) rotate(-45) scale(0.05 -0.05)">
     <use xlink:href="#TimesNewRomanPSMT-68"/>
     <use xlink:href="#TimesNewRomanPSMT-69" x="50"/>
     <use xlink:href="#TimesNewRomanPSMT-50" x="77.783203"/>
     <use xlink:href="#TimesNewRomanPSMT-6f" x="133.398438"/>
     <use xlink:href="#TimesNewRomanPSMT-31" x="183.398438"/>
     <use xlink:href="#TimesNewRomanPSMT-58" x="233.398438"/>
    </g>
   </g>
   <g id="text_41">
    <!-- H20 -->
    <g transform="translate(224.679616 20.474872) rotate(-45) scale(0.05 -0.05)">
     <use xlink:href="#TimesNewRomanPSMT-48"/>
     <use xlink:href="#TimesNewRomanPSMT-32" x="72.216797"/>
     <use xlink:href="#TimesNewRomanPSMT-30" x="122.216797"/>
    </g>
   </g>
   <g id="legend_1">
    <g id="patch_7">
     <path d="M 55.799375 22.309883 
L 95.834375 22.309883 
Q 97.034375 22.309883 97.034375 21.109883 
L 97.034375 13.226446 
Q 97.034375 12.026446 95.834375 12.026446 
L 55.799375 12.026446 
Q 54.599375 12.026446 54.599375 13.226446 
L 54.599375 21.109883 
Q 54.599375 22.309883 55.799375 22.309883 
z
" style="fill: #ffffff; opacity: 0.8; stroke: #cccccc; stroke-linejoin: miter"/>
    </g>
    <g id="line2d_20">
     <path d="M 56.999375 16.526446 
L 62.999375 16.526446 
L 68.999375 16.526446 
" style="fill: none; stroke: #1f77b4; stroke-width: 1.5; stroke-linecap: square"/>
    </g>
    <g id="text_42">
     <!-- Full Exp -->
     <g transform="translate(73.799375 18.626446) scale(0.06 -0.06)">
      <defs>
       <path id="TimesNewRomanPSMT-46" d="M 1309 4006 
L 1309 2341 
L 2081 2341 
Q 2347 2341 2470 2458 
Q 2594 2575 2634 2922 
L 2750 2922 
L 2750 1488 
L 2634 1488 
Q 2631 1734 2570 1850 
Q 2509 1966 2401 2023 
Q 2294 2081 2081 2081 
L 1309 2081 
L 1309 750 
Q 1309 428 1350 325 
Q 1381 247 1481 191 
Q 1619 116 1769 116 
L 1922 116 
L 1922 0 
L 103 0 
L 103 116 
L 253 116 
Q 516 116 634 269 
Q 709 369 709 750 
L 709 3488 
Q 709 3809 669 3913 
Q 638 3991 541 4047 
Q 406 4122 253 4122 
L 103 4122 
L 103 4238 
L 3256 4238 
L 3297 3306 
L 3188 3306 
Q 3106 3603 2998 3742 
Q 2891 3881 2733 3943 
Q 2575 4006 2244 4006 
L 1309 4006 
z
" transform="scale(0.015625)"/>
       <path id="TimesNewRomanPSMT-75" d="M 2709 2863 
L 2709 1128 
Q 2709 631 2732 520 
Q 2756 409 2807 365 
Q 2859 322 2928 322 
Q 3025 322 3147 375 
L 3191 266 
L 2334 -88 
L 2194 -88 
L 2194 519 
Q 1825 119 1631 15 
Q 1438 -88 1222 -88 
Q 981 -88 804 51 
Q 628 191 559 409 
Q 491 628 491 1028 
L 491 2306 
Q 491 2509 447 2587 
Q 403 2666 317 2708 
Q 231 2750 6 2747 
L 6 2863 
L 1009 2863 
L 1009 947 
Q 1009 547 1148 422 
Q 1288 297 1484 297 
Q 1619 297 1789 381 
Q 1959 466 2194 703 
L 2194 2325 
Q 2194 2569 2105 2655 
Q 2016 2741 1734 2747 
L 1734 2863 
L 2709 2863 
z
" transform="scale(0.015625)"/>
       <path id="TimesNewRomanPSMT-6c" d="M 1184 4444 
L 1184 647 
Q 1184 378 1223 290 
Q 1263 203 1344 158 
Q 1425 113 1647 113 
L 1647 0 
L 244 0 
L 244 113 
Q 441 113 512 153 
Q 584 194 625 287 
Q 666 381 666 647 
L 666 3247 
Q 666 3731 644 3842 
Q 622 3953 573 3993 
Q 525 4034 450 4034 
Q 369 4034 244 3984 
L 191 4094 
L 1044 4444 
L 1184 4444 
z
" transform="scale(0.015625)"/>
       <path id="TimesNewRomanPSMT-45" d="M 1338 4006 
L 1338 2331 
L 2269 2331 
Q 2631 2331 2753 2441 
Q 2916 2584 2934 2947 
L 3050 2947 
L 3050 1472 
L 2934 1472 
Q 2891 1781 2847 1869 
Q 2791 1978 2662 2040 
Q 2534 2103 2269 2103 
L 1338 2103 
L 1338 706 
Q 1338 425 1363 364 
Q 1388 303 1450 267 
Q 1513 231 1688 231 
L 2406 231 
Q 2766 231 2928 281 
Q 3091 331 3241 478 
Q 3434 672 3638 1063 
L 3763 1063 
L 3397 0 
L 131 0 
L 131 116 
L 281 116 
Q 431 116 566 188 
Q 666 238 702 338 
Q 738 438 738 747 
L 738 3500 
Q 738 3903 656 3997 
Q 544 4122 281 4122 
L 131 4122 
L 131 4238 
L 3397 4238 
L 3444 3309 
L 3322 3309 
Q 3256 3644 3176 3769 
Q 3097 3894 2941 3959 
Q 2816 4006 2500 4006 
L 1338 4006 
z
" transform="scale(0.015625)"/>
       <path id="TimesNewRomanPSMT-70" d="M -6 2578 
L 875 2934 
L 994 2934 
L 994 2266 
Q 1216 2644 1439 2795 
Q 1663 2947 1909 2947 
Q 2341 2947 2628 2609 
Q 2981 2197 2981 1534 
Q 2981 794 2556 309 
Q 2206 -88 1675 -88 
Q 1444 -88 1275 -22 
Q 1150 25 994 166 
L 994 -706 
Q 994 -1000 1030 -1079 
Q 1066 -1159 1155 -1206 
Q 1244 -1253 1478 -1253 
L 1478 -1369 
L -22 -1369 
L -22 -1253 
L 56 -1253 
Q 228 -1256 350 -1188 
Q 409 -1153 442 -1076 
Q 475 -1000 475 -688 
L 475 2019 
Q 475 2297 450 2372 
Q 425 2447 370 2484 
Q 316 2522 222 2522 
Q 147 2522 31 2478 
L -6 2578 
z
M 994 2081 
L 994 1013 
Q 994 666 1022 556 
Q 1066 375 1236 237 
Q 1406 100 1666 100 
Q 1978 100 2172 344 
Q 2425 663 2425 1241 
Q 2425 1897 2138 2250 
Q 1938 2494 1663 2494 
Q 1513 2494 1366 2419 
Q 1253 2363 994 2081 
z
" transform="scale(0.015625)"/>
      </defs>
      <use xlink:href="#TimesNewRomanPSMT-46"/>
      <use xlink:href="#TimesNewRomanPSMT-75" x="55.615234"/>
      <use xlink:href="#TimesNewRomanPSMT-6c" x="105.615234"/>
      <use xlink:href="#TimesNewRomanPSMT-6c" x="133.398438"/>
      <use xlink:href="#TimesNewRomanPSMT-20" x="161.181641"/>
      <use xlink:href="#TimesNewRomanPSMT-45" x="186.181641"/>
      <use xlink:href="#TimesNewRomanPSMT-78" x="247.265625"/>
      <use xlink:href="#TimesNewRomanPSMT-70" x="297.265625"/>
     </g>
    </g>
   </g>
  </g>
 </g>
 <defs>
  <clipPath id="p02ac732aa7">
   <rect x="51.599375" y="9.026446" width="193.98189" height="133.143307"/>
  </clipPath>
 </defs>
</svg>
